<svg width="88" height="88" viewBox="0 0 88 88" fill="none" xmlns="http://www.w3.org/2000/svg">
<rect width="88" height="88" fill="#545454"/>
<g id="Small Image">
<path d="M214.558 -8.21094C215.03 -6.91254 215.394 -5.56192 215.638 -4.16992L215.146 -4.08301C215.379 -2.75727 215.5 -1.393 215.5 0V4.88867H216V9.77734H215.5V19.5557H216V24.4443H215.5V34.2227H216V39.1113H215.5V48.8887H216V53.7773H215.5V63.5557H216V68.4443H215.5V78.2227H216V83.1113H215.5V88C215.5 89.393 215.379 90.7573 215.146 92.083L215.638 92.1689C215.394 93.561 215.03 94.9115 214.558 96.21L214.089 96.04C213.142 98.64 211.75 101.026 210.003 103.105L210.384 103.426C209.485 104.495 208.495 105.485 207.426 106.384L207.105 106.003C205.026 107.75 202.64 109.142 200.04 110.089L200.21 110.558C198.912 111.03 197.561 111.394 196.169 111.638L196.083 111.146C194.757 111.379 193.393 111.5 192 111.5H187.014V112H182.024V111.5H172.046V112H167.057V111.5H157.078V112H152.089V111.5H142.11V112H137.121V111.5H127.143V112H122.153V111.5H112.175V112H107.186V111.5H97.207V112H92.2178V111.5H82.2393V112H77.25V111.5H67.2715V112H62.2822V111.5H52.3037V112H47.3145V111.5H37.3359V112H32.3467V111.5H22.3682V112H17.3789V111.5H7.40039V112H2.41113V111.5H-7.56738V112H-12.5566V111.5H-22.5352V112H-27.5244V111.5H-37.5029V112H-42.4922V111.5H-52.4707V112H-57.46V111.5H-67.4385V112H-72.4277V111.5H-82.4062V112H-87.3955V111.5H-97.374V112H-102.363V111.5H-112.342V112H-117.331V111.5H-127.31V112H-132.299V111.5H-142.277V112H-147.267V111.5H-157.245V112H-162.234V111.5H-172.213V112H-177.202V111.5H-187.181V112H-192.17V111.5H-202.148V112H-207.138V111.5H-217.116V112H-222.105V111.5H-232.084V112H-237.073V111.5H-247.052V112H-252.041V111.5H-262.02V112H-267.009V111.5H-276.987V112H-281.977V111.5H-291.955V112H-296.944V111.5H-306.923V112H-311.912V111.5H-321.891V112H-326.88V111.5H-336.858V112H-341.848V111.5H-351.826V112H-356.815V111.5H-366.794V112H-371.783V111.5H-381.762V112H-386.751V111.5H-396.729V112H-401.719V111.5H-411.697V112H-416.687V111.5H-426.665V112H-431.654V111.5H-441.633V112H-446.622V111.5H-456.601V112H-461.59V111.5H-471.568V112H-476.558V111.5H-486.536V112H-491.525V111.5H-501.504V112H-506.493V111.5H-516.472V112H-521.461V111.5H-531.439V112H-536.429V111.5H-546.407V112H-551.396V111.5H-561.375V112H-566.364V111.5H-576.343V112H-581.332V111.5H-591.311V112H-596.3V111.5H-606.278V112H-611.268V111.5H-621.246V112H-626.235V111.5H-636.214V112H-641.203V111.5H-651.182V112H-656.171V111.5H-666.149V112H-671.139V111.5H-681.117V112H-686.106V111.5H-696.085V112H-701.074V111.5H-711.053V112H-716.042V111.5H-726.021V112H-731.01V111.5H-740.988V112H-745.978V111.5H-755.956V112H-760.945V111.5H-770.924V112H-775.913V111.5H-785.892V112H-790.881V111.5H-800.859V112H-805.849V111.5H-815.827V112H-820.816V111.5H-830.795V112H-835.784V111.5H-845.763V112H-850.752V111.5H-860.73V112H-865.72V111.5H-875.698V112H-880.688V111.5H-890.666V112H-895.655V111.5H-905.634V112H-910.623V111.5H-920.602V112H-925.591V111.5H-935.569V112H-940.559V111.5H-950.537V112H-955.526V111.5H-965.505V112H-970.494V111.5H-980.473V112H-985.462V111.5H-995.44V112H-1000.43V111.5H-1010.41V112H-1015.4V111.5H-1025.38V112H-1030.37V111.5H-1040.34V112H-1045.33V111.5H-1055.31V112H-1060.3V111.5H-1070.28V112H-1075.27V111.5H-1085.25V112H-1090.24V111.5H-1100.21V112H-1105.2V111.5H-1115.18V112H-1120.17V111.5H-1130.15V112H-1135.14V111.5H-1145.12V112H-1150.11V111.5H-1160.09V112H-1165.08V111.5H-1175.05V112H-1180.04V111.5H-1190.02V112H-1195.01V111.5H-1204.99V112H-1209.98V111.5H-1219.96V112H-1224.95V111.5H-1234.92V112H-1239.91V111.5H-1249.89V112H-1254.88V111.5H-1264.86V112H-1269.85V111.5H-1279.83V112H-1284.82V111.5H-1294.8V112H-1299.79V111.5H-1309.76V112H-1314.75V111.5H-1324.73V112H-1329.72V111.5H-1339.7V112H-1344.69V111.5H-1354.67V112H-1359.66V111.5H-1369.63V112H-1374.62V111.5H-1384.6V112H-1389.59V111.5H-1399.57V112H-1404.56V111.5H-1414.54V112H-1419.53V111.5H-1429.5V112H-1434.49V111.5H-1444.47V112H-1449.46V111.5H-1459.44V112H-1464.43V111.5H-1474.41V112H-1479.4V111.5H-1489.38V112H-1494.37V111.5H-1504.34V112H-1509.33V111.5H-1519.31V112H-1524.3V111.5H-1534.28V112H-1539.27V111.5H-1549.25V112H-1554.24V111.5H-1564.21V112H-1569.2V111.5H-1579.18V112H-1584.17V111.5H-1594.15V112H-1599.14V111.5H-1609.12V112H-1614.11V111.5H-1624.09V112H-1629.08V111.5H-1639.05V112H-1644.04V111.5H-1654.02V112H-1659.01V111.5H-1664C-1665.39 111.5 -1666.76 111.379 -1668.08 111.146L-1668.17 111.638C-1669.56 111.394 -1670.91 111.03 -1672.21 110.558L-1672.04 110.089C-1674.64 109.142 -1677.03 107.75 -1679.11 106.003L-1679.43 106.384C-1680.5 105.485 -1681.49 104.495 -1682.38 103.426L-1682 103.105C-1683.75 101.026 -1685.14 98.64 -1686.09 96.04L-1686.56 96.21C-1687.03 94.9116 -1687.39 93.5609 -1687.64 92.1689L-1687.15 92.083C-1687.38 90.7573 -1687.5 89.393 -1687.5 88V83.1113H-1688V78.2227H-1687.5V68.4443H-1688V63.5557H-1687.5V53.7773H-1688V48.8887H-1687.5V39.1113H-1688V34.2227H-1687.5V24.4443H-1688V19.5557H-1687.5V9.77734H-1688V4.88867H-1687.5V0C-1687.5 -1.393 -1687.38 -2.75727 -1687.15 -4.08301L-1687.64 -4.16992C-1687.43 -5.37923 -1687.12 -6.5575 -1686.74 -7.69727L-1686.56 -8.21094L-1686.09 -8.04004C-1685.14 -10.64 -1683.75 -13.026 -1682 -15.1055L-1682.38 -15.4268C-1681.49 -16.4964 -1680.5 -17.4863 -1679.43 -18.3848L-1679.11 -18.0029C-1677.03 -19.7496 -1674.64 -21.1423 -1672.04 -22.0889L-1672.21 -22.5586C-1670.91 -23.0313 -1669.56 -23.3948 -1668.17 -23.6387L-1668.08 -23.1465C-1666.76 -23.3787 -1665.39 -23.5 -1664 -23.5H-1659.01V-24H-1654.02V-23.5H-1644.05V-24H-1639.06V-23.5H-1629.08V-24H-1624.09V-23.5H-1614.11V-24H-1609.12V-23.5H-1599.14V-24H-1594.15V-23.5H-1584.17V-24H-1579.19V-23.5H-1569.21V-24H-1564.22V-23.5H-1554.24V-24H-1549.25V-23.5H-1539.27V-24H-1534.28V-23.5H-1524.3V-24H-1519.31V-23.5H-1509.34V-24H-1504.35V-23.5H-1494.37V-24H-1489.38V-23.5H-1479.4V-24H-1474.41V-23.5H-1464.43V-24H-1459.44V-23.5H-1449.46V-24H-1444.48V-23.5H-1434.5V-24H-1429.51V-23.5H-1419.53V-24H-1414.54V-23.5H-1404.56V-24H-1399.57V-23.5H-1389.59V-24H-1384.6V-23.5H-1374.63V-24H-1369.64V-23.5H-1359.66V-24H-1354.67V-23.5H-1344.69V-24H-1339.7V-23.5H-1329.72V-24H-1324.73V-23.5H-1314.75V-24H-1309.77V-23.5H-1299.79V-24H-1294.8V-23.5H-1284.82V-24H-1279.83V-23.5H-1269.85V-24H-1264.86V-23.5H-1254.88V-24H-1249.89V-23.5H-1239.92V-24H-1234.93V-23.5H-1224.95V-24H-1219.96V-23.5H-1209.98V-24H-1204.99V-23.5H-1195.01V-24H-1190.02V-23.5H-1180.04V-24H-1175.06V-23.5H-1165.08V-24H-1160.09V-23.5H-1150.11V-24H-1145.12V-23.5H-1135.14V-24H-1130.15V-23.5H-1120.17V-24H-1115.18V-23.5H-1105.21V-24H-1100.22V-23.5H-1090.24V-24H-1085.25V-23.5H-1075.27V-24H-1070.28V-23.5H-1060.3V-24H-1055.31V-23.5H-1045.33V-24H-1040.35V-23.5H-1030.37V-24H-1025.38V-23.5H-1015.4V-24H-1010.41V-23.5H-1000.43V-24H-995.442V-23.5H-985.464V-24H-980.475V-23.5H-970.496V-24H-965.507V-23.5H-955.528V-24H-950.539V-23.5H-940.561V-24H-935.571V-23.5H-925.593V-24H-920.604V-23.5H-910.625V-24H-905.636V-23.5H-895.657V-24H-890.668V-23.5H-880.689V-24H-875.7V-23.5H-865.722V-24H-860.732V-23.5H-850.754V-24H-845.765V-23.5H-835.786V-24H-830.797V-23.5H-820.818V-24H-815.829V-23.5H-805.851V-24H-800.861V-23.5H-790.883V-24H-785.894V-23.5H-775.915V-24H-770.926V-23.5H-760.947V-24H-755.958V-23.5H-745.979V-24H-740.99V-23.5H-731.012V-24H-726.022V-23.5H-716.044V-24H-711.055V-23.5H-701.076V-24H-696.087V-23.5H-686.108V-24H-681.119V-23.5H-671.141V-24H-666.151V-23.5H-656.173V-24H-651.184V-23.5H-641.205V-24H-636.216V-23.5H-626.237V-24H-621.248V-23.5H-611.27V-24H-606.28V-23.5H-596.302V-24H-591.312V-23.5H-581.334V-24H-576.345V-23.5H-566.366V-24H-561.377V-23.5H-551.398V-24H-546.409V-23.5H-536.431V-24H-531.441V-23.5H-521.463V-24H-516.474V-23.5H-506.495V-24H-501.506V-23.5H-491.527V-24H-486.538V-23.5H-476.56V-24H-471.57V-23.5H-461.592V-24H-456.603V-23.5H-446.624V-24H-441.635V-23.5H-431.656V-24H-426.667V-23.5H-416.688V-24H-411.699V-23.5H-401.721V-24H-396.731V-23.5H-386.753V-24H-381.764V-23.5H-371.785V-24H-366.796V-23.5H-356.817V-24H-351.828V-23.5H-341.85V-24H-336.86V-23.5H-326.882V-24H-321.893V-23.5H-311.914V-24H-306.925V-23.5H-296.946V-24H-291.957V-23.5H-281.979V-24H-276.989V-23.5H-267.011V-24H-262.021V-23.5H-252.043V-24H-247.054V-23.5H-237.075V-24H-232.086V-23.5H-222.107V-24H-217.118V-23.5H-207.14V-24H-202.15V-23.5H-192.172V-24H-187.183V-23.5H-177.204V-24H-172.215V-23.5H-162.236V-24H-157.247V-23.5H-147.269V-24H-142.279V-23.5H-132.301V-24H-127.312V-23.5H-117.333V-24H-112.344V-23.5H-102.365V-24H-97.376V-23.5H-87.3975V-24H-82.4082V-23.5H-72.4297V-24H-67.4404V-23.5H-57.4619V-24H-52.4727V-23.5H-42.4941V-24H-37.5059V-23.5H-27.5273V-24H-22.5381V-23.5H-12.5596V-24H-7.57031V-23.5H2.4082V-24H7.39746V-23.5H17.376V-24H22.3652V-23.5H32.3438V-24H37.333V-23.5H47.3115V-24H52.3008V-23.5H62.2793V-24H67.2686V-23.5H77.2471V-24H82.2363V-23.5H92.2148V-24H97.2041V-23.5H107.183V-24H112.172V-23.5H122.15V-24H127.14V-23.5H137.118V-24H142.107V-23.5H152.086V-24H157.075V-23.5H167.054V-24H172.043V-23.5H182.021V-24H187.011V-23.5H192C193.393 -23.5 194.757 -23.3787 196.083 -23.1465L196.169 -23.6387C197.561 -23.3949 198.912 -23.0312 200.21 -22.5586L200.04 -22.0889C202.64 -21.1423 205.026 -19.7496 207.105 -18.0029L207.426 -18.3848C208.495 -17.4863 209.485 -16.4964 210.384 -15.4268L210.003 -15.1055C211.75 -13.026 213.142 -10.64 214.089 -8.04004L214.558 -8.21094Z" fill="white"/>
<path d="M214.558 -8.21094C215.03 -6.91254 215.394 -5.56192 215.638 -4.16992L215.146 -4.08301C215.379 -2.75727 215.5 -1.393 215.5 0V4.88867H216V9.77734H215.5V19.5557H216V24.4443H215.5V34.2227H216V39.1113H215.5V48.8887H216V53.7773H215.5V63.5557H216V68.4443H215.5V78.2227H216V83.1113H215.5V88C215.5 89.393 215.379 90.7573 215.146 92.083L215.638 92.1689C215.394 93.561 215.03 94.9115 214.558 96.21L214.089 96.04C213.142 98.64 211.75 101.026 210.003 103.105L210.384 103.426C209.485 104.495 208.495 105.485 207.426 106.384L207.105 106.003C205.026 107.75 202.64 109.142 200.04 110.089L200.21 110.558C198.912 111.03 197.561 111.394 196.169 111.638L196.083 111.146C194.757 111.379 193.393 111.5 192 111.5H187.014V112H182.024V111.5H172.046V112H167.057V111.5H157.078V112H152.089V111.5H142.11V112H137.121V111.5H127.143V112H122.153V111.5H112.175V112H107.186V111.5H97.207V112H92.2178V111.5H82.2393V112H77.25V111.5H67.2715V112H62.2822V111.5H52.3037V112H47.3145V111.5H37.3359V112H32.3467V111.5H22.3682V112H17.3789V111.5H7.40039V112H2.41113V111.5H-7.56738V112H-12.5566V111.5H-22.5352V112H-27.5244V111.5H-37.5029V112H-42.4922V111.5H-52.4707V112H-57.46V111.5H-67.4385V112H-72.4277V111.5H-82.4062V112H-87.3955V111.5H-97.374V112H-102.363V111.5H-112.342V112H-117.331V111.5H-127.31V112H-132.299V111.5H-142.277V112H-147.267V111.5H-157.245V112H-162.234V111.5H-172.213V112H-177.202V111.5H-187.181V112H-192.17V111.5H-202.148V112H-207.138V111.5H-217.116V112H-222.105V111.5H-232.084V112H-237.073V111.5H-247.052V112H-252.041V111.5H-262.02V112H-267.009V111.5H-276.987V112H-281.977V111.5H-291.955V112H-296.944V111.5H-306.923V112H-311.912V111.5H-321.891V112H-326.88V111.5H-336.858V112H-341.848V111.5H-351.826V112H-356.815V111.5H-366.794V112H-371.783V111.5H-381.762V112H-386.751V111.5H-396.729V112H-401.719V111.5H-411.697V112H-416.687V111.5H-426.665V112H-431.654V111.5H-441.633V112H-446.622V111.5H-456.601V112H-461.59V111.5H-471.568V112H-476.558V111.5H-486.536V112H-491.525V111.5H-501.504V112H-506.493V111.5H-516.472V112H-521.461V111.5H-531.439V112H-536.429V111.5H-546.407V112H-551.396V111.5H-561.375V112H-566.364V111.5H-576.343V112H-581.332V111.5H-591.311V112H-596.3V111.5H-606.278V112H-611.268V111.5H-621.246V112H-626.235V111.5H-636.214V112H-641.203V111.5H-651.182V112H-656.171V111.5H-666.149V112H-671.139V111.5H-681.117V112H-686.106V111.5H-696.085V112H-701.074V111.5H-711.053V112H-716.042V111.5H-726.021V112H-731.01V111.5H-740.988V112H-745.978V111.5H-755.956V112H-760.945V111.5H-770.924V112H-775.913V111.5H-785.892V112H-790.881V111.5H-800.859V112H-805.849V111.5H-815.827V112H-820.816V111.5H-830.795V112H-835.784V111.5H-845.763V112H-850.752V111.5H-860.73V112H-865.72V111.5H-875.698V112H-880.688V111.5H-890.666V112H-895.655V111.5H-905.634V112H-910.623V111.5H-920.602V112H-925.591V111.5H-935.569V112H-940.559V111.5H-950.537V112H-955.526V111.5H-965.505V112H-970.494V111.5H-980.473V112H-985.462V111.5H-995.44V112H-1000.43V111.5H-1010.41V112H-1015.4V111.5H-1025.38V112H-1030.37V111.5H-1040.34V112H-1045.33V111.5H-1055.31V112H-1060.3V111.5H-1070.28V112H-1075.27V111.5H-1085.25V112H-1090.24V111.5H-1100.21V112H-1105.2V111.5H-1115.18V112H-1120.17V111.5H-1130.15V112H-1135.14V111.5H-1145.12V112H-1150.11V111.5H-1160.09V112H-1165.08V111.5H-1175.05V112H-1180.04V111.5H-1190.02V112H-1195.01V111.5H-1204.99V112H-1209.98V111.5H-1219.96V112H-1224.95V111.5H-1234.92V112H-1239.91V111.5H-1249.89V112H-1254.88V111.5H-1264.86V112H-1269.85V111.5H-1279.83V112H-1284.82V111.5H-1294.8V112H-1299.79V111.5H-1309.76V112H-1314.75V111.5H-1324.73V112H-1329.72V111.5H-1339.7V112H-1344.69V111.5H-1354.67V112H-1359.66V111.5H-1369.63V112H-1374.62V111.5H-1384.6V112H-1389.59V111.5H-1399.57V112H-1404.56V111.5H-1414.54V112H-1419.53V111.5H-1429.5V112H-1434.49V111.5H-1444.47V112H-1449.46V111.5H-1459.44V112H-1464.43V111.5H-1474.41V112H-1479.4V111.5H-1489.38V112H-1494.37V111.5H-1504.34V112H-1509.33V111.5H-1519.31V112H-1524.3V111.5H-1534.28V112H-1539.27V111.5H-1549.25V112H-1554.24V111.5H-1564.21V112H-1569.2V111.5H-1579.18V112H-1584.17V111.5H-1594.15V112H-1599.14V111.5H-1609.12V112H-1614.11V111.5H-1624.09V112H-1629.08V111.5H-1639.05V112H-1644.04V111.5H-1654.02V112H-1659.01V111.5H-1664C-1665.39 111.5 -1666.76 111.379 -1668.08 111.146L-1668.17 111.638C-1669.56 111.394 -1670.91 111.03 -1672.21 110.558L-1672.04 110.089C-1674.64 109.142 -1677.03 107.75 -1679.11 106.003L-1679.43 106.384C-1680.5 105.485 -1681.49 104.495 -1682.38 103.426L-1682 103.105C-1683.75 101.026 -1685.14 98.64 -1686.09 96.04L-1686.56 96.21C-1687.03 94.9116 -1687.39 93.5609 -1687.64 92.1689L-1687.15 92.083C-1687.38 90.7573 -1687.5 89.393 -1687.5 88V83.1113H-1688V78.2227H-1687.5V68.4443H-1688V63.5557H-1687.5V53.7773H-1688V48.8887H-1687.5V39.1113H-1688V34.2227H-1687.5V24.4443H-1688V19.5557H-1687.5V9.77734H-1688V4.88867H-1687.5V0C-1687.5 -1.393 -1687.38 -2.75727 -1687.15 -4.08301L-1687.64 -4.16992C-1687.43 -5.37923 -1687.12 -6.5575 -1686.74 -7.69727L-1686.56 -8.21094L-1686.09 -8.04004C-1685.14 -10.64 -1683.75 -13.026 -1682 -15.1055L-1682.38 -15.4268C-1681.49 -16.4964 -1680.5 -17.4863 -1679.43 -18.3848L-1679.11 -18.0029C-1677.03 -19.7496 -1674.64 -21.1423 -1672.04 -22.0889L-1672.21 -22.5586C-1670.91 -23.0313 -1669.56 -23.3948 -1668.17 -23.6387L-1668.08 -23.1465C-1666.76 -23.3787 -1665.39 -23.5 -1664 -23.5H-1659.01V-24H-1654.02V-23.5H-1644.05V-24H-1639.06V-23.5H-1629.08V-24H-1624.09V-23.5H-1614.11V-24H-1609.12V-23.5H-1599.14V-24H-1594.15V-23.5H-1584.17V-24H-1579.19V-23.5H-1569.21V-24H-1564.22V-23.5H-1554.24V-24H-1549.25V-23.5H-1539.27V-24H-1534.28V-23.5H-1524.3V-24H-1519.31V-23.5H-1509.34V-24H-1504.35V-23.5H-1494.37V-24H-1489.38V-23.5H-1479.4V-24H-1474.41V-23.5H-1464.43V-24H-1459.44V-23.5H-1449.46V-24H-1444.48V-23.5H-1434.5V-24H-1429.51V-23.5H-1419.53V-24H-1414.54V-23.5H-1404.56V-24H-1399.57V-23.5H-1389.59V-24H-1384.6V-23.5H-1374.63V-24H-1369.64V-23.5H-1359.66V-24H-1354.67V-23.5H-1344.69V-24H-1339.7V-23.5H-1329.72V-24H-1324.73V-23.5H-1314.75V-24H-1309.77V-23.5H-1299.79V-24H-1294.8V-23.5H-1284.82V-24H-1279.83V-23.5H-1269.85V-24H-1264.86V-23.5H-1254.88V-24H-1249.89V-23.5H-1239.92V-24H-1234.93V-23.5H-1224.95V-24H-1219.96V-23.5H-1209.98V-24H-1204.99V-23.5H-1195.01V-24H-1190.02V-23.5H-1180.04V-24H-1175.06V-23.5H-1165.08V-24H-1160.09V-23.5H-1150.11V-24H-1145.12V-23.5H-1135.14V-24H-1130.15V-23.5H-1120.17V-24H-1115.18V-23.5H-1105.21V-24H-1100.22V-23.5H-1090.24V-24H-1085.25V-23.5H-1075.27V-24H-1070.28V-23.5H-1060.3V-24H-1055.31V-23.5H-1045.33V-24H-1040.35V-23.5H-1030.37V-24H-1025.38V-23.5H-1015.4V-24H-1010.41V-23.5H-1000.43V-24H-995.442V-23.5H-985.464V-24H-980.475V-23.5H-970.496V-24H-965.507V-23.5H-955.528V-24H-950.539V-23.5H-940.561V-24H-935.571V-23.5H-925.593V-24H-920.604V-23.5H-910.625V-24H-905.636V-23.5H-895.657V-24H-890.668V-23.5H-880.689V-24H-875.7V-23.5H-865.722V-24H-860.732V-23.5H-850.754V-24H-845.765V-23.5H-835.786V-24H-830.797V-23.5H-820.818V-24H-815.829V-23.5H-805.851V-24H-800.861V-23.5H-790.883V-24H-785.894V-23.5H-775.915V-24H-770.926V-23.5H-760.947V-24H-755.958V-23.5H-745.979V-24H-740.99V-23.5H-731.012V-24H-726.022V-23.5H-716.044V-24H-711.055V-23.5H-701.076V-24H-696.087V-23.5H-686.108V-24H-681.119V-23.5H-671.141V-24H-666.151V-23.5H-656.173V-24H-651.184V-23.5H-641.205V-24H-636.216V-23.5H-626.237V-24H-621.248V-23.5H-611.27V-24H-606.28V-23.5H-596.302V-24H-591.312V-23.5H-581.334V-24H-576.345V-23.5H-566.366V-24H-561.377V-23.5H-551.398V-24H-546.409V-23.5H-536.431V-24H-531.441V-23.5H-521.463V-24H-516.474V-23.5H-506.495V-24H-501.506V-23.5H-491.527V-24H-486.538V-23.5H-476.56V-24H-471.57V-23.5H-461.592V-24H-456.603V-23.5H-446.624V-24H-441.635V-23.5H-431.656V-24H-426.667V-23.5H-416.688V-24H-411.699V-23.5H-401.721V-24H-396.731V-23.5H-386.753V-24H-381.764V-23.5H-371.785V-24H-366.796V-23.5H-356.817V-24H-351.828V-23.5H-341.85V-24H-336.86V-23.5H-326.882V-24H-321.893V-23.5H-311.914V-24H-306.925V-23.5H-296.946V-24H-291.957V-23.5H-281.979V-24H-276.989V-23.5H-267.011V-24H-262.021V-23.5H-252.043V-24H-247.054V-23.5H-237.075V-24H-232.086V-23.5H-222.107V-24H-217.118V-23.5H-207.14V-24H-202.15V-23.5H-192.172V-24H-187.183V-23.5H-177.204V-24H-172.215V-23.5H-162.236V-24H-157.247V-23.5H-147.269V-24H-142.279V-23.5H-132.301V-24H-127.312V-23.5H-117.333V-24H-112.344V-23.5H-102.365V-24H-97.376V-23.5H-87.3975V-24H-82.4082V-23.5H-72.4297V-24H-67.4404V-23.5H-57.4619V-24H-52.4727V-23.5H-42.4941V-24H-37.5059V-23.5H-27.5273V-24H-22.5381V-23.5H-12.5596V-24H-7.57031V-23.5H2.4082V-24H7.39746V-23.5H17.376V-24H22.3652V-23.5H32.3438V-24H37.333V-23.5H47.3115V-24H52.3008V-23.5H62.2793V-24H67.2686V-23.5H77.2471V-24H82.2363V-23.5H92.2148V-24H97.2041V-23.5H107.183V-24H112.172V-23.5H122.15V-24H127.14V-23.5H137.118V-24H142.107V-23.5H152.086V-24H157.075V-23.5H167.054V-24H172.043V-23.5H182.021V-24H187.011V-23.5H192C193.393 -23.5 194.757 -23.3787 196.083 -23.1465L196.169 -23.6387C197.561 -23.3949 198.912 -23.0312 200.21 -22.5586L200.04 -22.0889C202.64 -21.1423 205.026 -19.7496 207.105 -18.0029L207.426 -18.3848C208.495 -17.4863 209.485 -16.4964 210.384 -15.4268L210.003 -15.1055C211.75 -13.026 213.142 -10.64 214.089 -8.04004L214.558 -8.21094Z" stroke="#8A38F5" stroke-dasharray="10 5"/>
<g id="Name=AI">
<rect width="88" height="88" fill="#909090"/>
</g>
</g>
</svg>
