<svg width="94" height="88" viewBox="0 0 94 88" fill="none" xmlns="http://www.w3.org/2000/svg">
<g id="Small Image"><g id="Name=&#208;&#158;&#209;&#130;&#208;&#186;&#208;&#187;&#208;&#184;&#208;&#186; &#208;&#189;&#208;&#176; &#208;&#178;&#208;&#176;&#208;&#186;&#208;&#176;&#208;&#189;&#209;&#129;&#208;&#184;&#209;&#142;">
<g id="Group 2087326336">
<path id="Rectangle 17" d="M10.749 15.6236C10.749 12.3409 13.4102 9.67969 16.6929 9.67969H66.5009C69.7836 9.67969 72.4448 12.3409 72.4448 15.6236V46.2994C72.4448 49.5822 69.7836 52.2433 66.5009 52.2433H16.6929C13.4102 52.2433 10.749 49.5822 10.749 46.2994V15.6236Z" fill="#008F50"/>
<g id="Mask group">
<mask id="mask0_6227_5096" style="mask-type:alpha" maskUnits="userSpaceOnUse" x="10" y="9" width="63" height="44">
<path id="Rectangle 19" d="M10.8271 15.6236C10.8271 12.3409 13.4883 9.67969 16.771 9.67969H66.4999C69.7826 9.67969 72.4438 12.3409 72.4438 15.6236V46.3337C72.4438 49.6164 69.7826 52.2776 66.4999 52.2776H16.771C13.4883 52.2776 10.8271 49.6164 10.8271 46.3337V15.6236Z" fill="#008F50"/>
</mask>
<g mask="url(#mask0_6227_5096)">
<path id="Rectangle 18" d="M8.47168 9.67969H74.8002L44.1857 33.4216C42.6851 34.5853 40.5868 34.5853 39.0862 33.4216L8.47168 9.67969Z" fill="#2DA771"/>
</g>
</g>
<path id="Ellipse 27" d="M32.2951 57.8683C32.2951 66.7863 25.0656 74.0158 16.1476 74.0158C7.22951 74.0158 0 66.7863 0 57.8683C0 48.9502 7.22951 41.7207 16.1476 41.7207C25.0656 41.7207 32.2951 48.9502 32.2951 57.8683Z" fill="#6600BA"/>
<path id="Union" d="M16.1768 62.998C16.9598 62.9981 17.6159 63.2624 18.1445 63.791C18.6927 64.3196 18.9668 64.9757 18.9668 65.7588C18.9668 66.1504 18.8881 66.5129 18.7314 66.8457C18.5944 67.1784 18.3989 67.4721 18.1445 67.7266C17.9097 67.9614 17.6159 68.1471 17.2637 68.2842C16.9309 68.4408 16.5683 68.5195 16.1768 68.5195C15.3936 68.5195 14.7376 68.2552 14.209 67.7266C13.6999 67.1784 13.4453 66.5224 13.4453 65.7588C13.4453 64.9757 13.7 64.3196 14.209 63.791C14.7376 63.2625 15.3937 62.998 16.1768 62.998ZM17.9971 61.5303H14.3848L13.6514 47.7266H18.7314L17.9971 61.5303Z" fill="#FFDF75"/>
<path id="Union_2" d="M85.7963 58.5525L74.5908 64.3796L78.4486 71.7971L70.862 75.7432L67.0043 68.3256L55.5272 74.2957L55.5479 37.3652L85.7963 58.5525Z" fill="#FFDF75"/>
<path id="Union_3" d="M85.7973 58.5523L74.5919 64.3802L78.4492 71.7965L70.8627 75.7424L67.0053 68.3261L55.5283 74.2957L55.5489 37.3652L85.7973 58.5523Z" fill="#FFDF75"/>
<g id="Intersect" filter="url(#filter0_f_6227_5096)">
<path d="M71.8887 48.8066C70.9427 50.8355 68.8872 52.2422 66.501 52.2422H55.542L55.5498 37.3633L71.8887 48.8066Z" fill="#008F50"/>
</g>
</g>
</g>
</g>
<defs>
<filter id="filter0_f_6227_5096" x="33.6286" y="15.4499" width="60.1735" height="58.7057" filterUnits="userSpaceOnUse" color-interpolation-filters="sRGB">
<feFlood flood-opacity="0" result="BackgroundImageFix"/>
<feBlend mode="normal" in="SourceGraphic" in2="BackgroundImageFix" result="shape"/>
<feGaussianBlur stdDeviation="10.9567" result="effect1_foregroundBlur_6227_5096"/>
</filter>
</defs>
</svg>
