<svg width="88" height="88" viewBox="0 0 88 88" fill="none" xmlns="http://www.w3.org/2000/svg">
<rect width="88" height="88" fill="#545454"/>
<g id="Small Image">
<path d="M318.558 -8.21094C319.03 -6.91254 319.394 -5.56192 319.638 -4.16992L319.146 -4.08301C319.379 -2.75727 319.5 -1.393 319.5 0V4.88867H320V9.77734H319.5V19.5557H320V24.4443H319.5V34.2227H320V39.1113H319.5V48.8887H320V53.7773H319.5V63.5557H320V68.4443H319.5V78.2227H320V83.1113H319.5V88C319.5 89.393 319.379 90.7573 319.146 92.083L319.638 92.1689C319.394 93.561 319.03 94.9115 318.558 96.21L318.089 96.04C317.142 98.64 315.75 101.026 314.003 103.105L314.384 103.426C313.485 104.495 312.495 105.485 311.426 106.384L311.105 106.003C309.026 107.75 306.64 109.142 304.04 110.089L304.21 110.558C302.912 111.03 301.561 111.394 300.169 111.638L300.083 111.146C298.757 111.379 297.393 111.5 296 111.5H291.014V112H286.024V111.5H276.046V112H271.057V111.5H261.078V112H256.089V111.5H246.11V112H241.121V111.5H231.143V112H226.153V111.5H216.175V112H211.186V111.5H201.207V112H196.218V111.5H186.239V112H181.25V111.5H171.271V112H166.282V111.5H156.304V112H151.314V111.5H141.336V112H136.347V111.5H126.368V112H121.379V111.5H111.4V112H106.411V111.5H96.4326V112H91.4434V111.5H81.4648V112H76.4756V111.5H66.4971V112H61.5078V111.5H51.5293V112H46.54V111.5H36.5615V112H31.5723V111.5H21.5938V112H16.6045V111.5H6.62598V112H1.63672V111.5H-8.3418V112H-13.3311V111.5H-23.3096V112H-28.2988V111.5H-38.2773V112H-43.2666V111.5H-53.2451V112H-58.2344V111.5H-68.2129V112H-73.2021V111.5H-83.1807V112H-88.1699V111.5H-98.1484V112H-103.138V111.5H-113.116V112H-118.105V111.5H-128.084V112H-133.073V111.5H-143.052V112H-148.041V111.5H-158.02V112H-163.009V111.5H-172.987V112H-177.977V111.5H-187.955V112H-192.944V111.5H-202.923V112H-207.912V111.5H-217.891V112H-222.88V111.5H-232.858V112H-237.848V111.5H-247.826V112H-252.815V111.5H-262.794V112H-267.783V111.5H-277.762V112H-282.751V111.5H-292.729V112H-297.719V111.5H-307.697V112H-312.687V111.5H-322.665V112H-327.654V111.5H-337.633V112H-342.622V111.5H-352.601V112H-357.59V111.5H-367.568V112H-372.558V111.5H-382.536V112H-387.525V111.5H-397.504V112H-402.493V111.5H-412.472V112H-417.461V111.5H-427.439V112H-432.429V111.5H-442.407V112H-447.396V111.5H-457.375V112H-462.364V111.5H-472.343V112H-477.332V111.5H-487.311V112H-492.3V111.5H-502.278V112H-507.268V111.5H-517.246V112H-522.235V111.5H-532.214V112H-537.203V111.5H-547.182V112H-552.171V111.5H-562.149V112H-567.139V111.5H-577.117V112H-582.106V111.5H-592.085V112H-597.074V111.5H-607.053V112H-612.042V111.5H-622.021V112H-627.01V111.5H-636.988V112H-641.978V111.5H-651.956V112H-656.945V111.5H-666.924V112H-671.913V111.5H-681.892V112H-686.881V111.5H-696.859V112H-701.849V111.5H-711.827V112H-716.816V111.5H-726.795V112H-731.784V111.5H-741.763V112H-746.752V111.5H-756.73V112H-761.72V111.5H-771.698V112H-776.688V111.5H-786.666V112H-791.655V111.5H-801.634V112H-806.623V111.5H-816.602V112H-821.591V111.5H-831.569V112H-836.559V111.5H-846.537V112H-851.526V111.5H-861.505V112H-866.494V111.5H-876.473V112H-881.462V111.5H-891.44V112H-896.43V111.5H-906.408V112H-911.397V111.5H-921.376V112H-926.365V111.5H-936.344V112H-941.333V111.5H-951.312V112H-956.301V111.5H-966.279V112H-971.269V111.5H-981.247V112H-986.236V111.5H-996.215V112H-1001.2V111.5H-1011.18V112H-1016.17V111.5H-1026.15V112H-1031.14V111.5H-1041.12V112H-1046.11V111.5H-1056.09V112H-1061.08V111.5H-1071.05V112H-1076.04V111.5H-1086.02V112H-1091.01V111.5H-1100.99V112H-1105.98V111.5H-1115.96V112H-1120.95V111.5H-1130.92V112H-1135.91V111.5H-1145.89V112H-1150.88V111.5H-1160.86V112H-1165.85V111.5H-1175.83V112H-1180.82V111.5H-1190.8V112H-1195.79V111.5H-1205.76V112H-1210.75V111.5H-1220.73V112H-1225.72V111.5H-1235.7V112H-1240.69V111.5H-1250.67V112H-1255.66V111.5H-1265.63V112H-1270.62V111.5H-1280.6V112H-1285.59V111.5H-1295.57V112H-1300.56V111.5H-1310.54V112H-1315.53V111.5H-1325.5V112H-1330.49V111.5H-1340.47V112H-1345.46V111.5H-1355.44V112H-1360.43V111.5H-1370.41V112H-1375.4V111.5H-1385.38V112H-1390.37V111.5H-1400.34V112H-1405.33V111.5H-1415.31V112H-1420.3V111.5H-1430.28V112H-1435.27V111.5H-1445.25V112H-1450.24V111.5H-1460.21V112H-1465.2V111.5H-1475.18V112H-1480.17V111.5H-1490.15V112H-1495.14V111.5H-1505.12V112H-1510.11V111.5H-1520.09V112H-1525.08V111.5H-1535.05V112H-1540.04V111.5H-1550.02V112H-1555.01V111.5H-1560C-1561.39 111.5 -1562.76 111.379 -1564.08 111.146L-1564.17 111.638C-1565.56 111.394 -1566.91 111.03 -1568.21 110.558L-1568.04 110.089C-1570.64 109.142 -1573.03 107.75 -1575.11 106.003L-1575.43 106.384C-1576.5 105.485 -1577.49 104.495 -1578.38 103.426L-1578 103.105C-1579.75 101.026 -1581.14 98.64 -1582.09 96.04L-1582.56 96.21C-1583.03 94.9116 -1583.39 93.5609 -1583.64 92.1689L-1583.15 92.083C-1583.38 90.7573 -1583.5 89.393 -1583.5 88V83.1113H-1584V78.2227H-1583.5V68.4443H-1584V63.5557H-1583.5V53.7773H-1584V48.8887H-1583.5V39.1113H-1584V34.2227H-1583.5V24.4443H-1584V19.5557H-1583.5V9.77734H-1584V4.88867H-1583.5V0C-1583.5 -1.393 -1583.38 -2.75727 -1583.15 -4.08301L-1583.64 -4.16992C-1583.43 -5.37923 -1583.12 -6.5575 -1582.74 -7.69727L-1582.56 -8.21094L-1582.09 -8.04004C-1581.14 -10.64 -1579.75 -13.026 -1578 -15.1055L-1578.38 -15.4268C-1577.49 -16.4964 -1576.5 -17.4863 -1575.43 -18.3848L-1575.11 -18.0029C-1573.03 -19.7496 -1570.64 -21.1423 -1568.04 -22.0889L-1568.21 -22.5586C-1566.91 -23.0313 -1565.56 -23.3948 -1564.17 -23.6387L-1564.08 -23.1465C-1562.76 -23.3787 -1561.39 -23.5 -1560 -23.5H-1555.01V-24H-1550.02V-23.5H-1540.05V-24H-1535.06V-23.5H-1525.08V-24H-1520.09V-23.5H-1510.11V-24H-1505.12V-23.5H-1495.14V-24H-1490.15V-23.5H-1480.17V-24H-1475.19V-23.5H-1465.21V-24H-1460.22V-23.5H-1450.24V-24H-1445.25V-23.5H-1435.27V-24H-1430.28V-23.5H-1420.3V-24H-1415.31V-23.5H-1405.34V-24H-1400.35V-23.5H-1390.37V-24H-1385.38V-23.5H-1375.4V-24H-1370.41V-23.5H-1360.43V-24H-1355.44V-23.5H-1345.46V-24H-1340.48V-23.5H-1330.5V-24H-1325.51V-23.5H-1315.53V-24H-1310.54V-23.5H-1300.56V-24H-1295.57V-23.5H-1285.59V-24H-1280.6V-23.5H-1270.63V-24H-1265.64V-23.5H-1255.66V-24H-1250.67V-23.5H-1240.69V-24H-1235.7V-23.5H-1225.72V-24H-1220.73V-23.5H-1210.75V-24H-1205.77V-23.5H-1195.79V-24H-1190.8V-23.5H-1180.82V-24H-1175.83V-23.5H-1165.85V-24H-1160.86V-23.5H-1150.88V-24H-1145.89V-23.5H-1135.92V-24H-1130.93V-23.5H-1120.95V-24H-1115.96V-23.5H-1105.98V-24H-1100.99V-23.5H-1091.01V-24H-1086.02V-23.5H-1076.04V-24H-1071.06V-23.5H-1061.08V-24H-1056.09V-23.5H-1046.11V-24H-1041.12V-23.5H-1031.14V-24H-1026.15V-23.5H-1016.17V-24H-1011.18V-23.5H-1001.21V-24H-996.217V-23.5H-986.238V-24H-981.249V-23.5H-971.271V-24H-966.281V-23.5H-956.303V-24H-951.313V-23.5H-941.335V-24H-936.346V-23.5H-926.367V-24H-921.378V-23.5H-911.399V-24H-906.41V-23.5H-896.432V-24H-891.442V-23.5H-881.464V-24H-876.475V-23.5H-866.496V-24H-861.507V-23.5H-851.528V-24H-846.539V-23.5H-836.561V-24H-831.571V-23.5H-821.593V-24H-816.604V-23.5H-806.625V-24H-801.636V-23.5H-791.657V-24H-786.668V-23.5H-776.689V-24H-771.7V-23.5H-761.722V-24H-756.732V-23.5H-746.754V-24H-741.765V-23.5H-731.786V-24H-726.797V-23.5H-716.818V-24H-711.829V-23.5H-701.851V-24H-696.861V-23.5H-686.883V-24H-681.894V-23.5H-671.915V-24H-666.926V-23.5H-656.947V-24H-651.958V-23.5H-641.979V-24H-636.99V-23.5H-627.012V-24H-622.022V-23.5H-612.044V-24H-607.055V-23.5H-597.076V-24H-592.087V-23.5H-582.108V-24H-577.119V-23.5H-567.141V-24H-562.151V-23.5H-552.173V-24H-547.184V-23.5H-537.205V-24H-532.216V-23.5H-522.237V-24H-517.248V-23.5H-507.27V-24H-502.28V-23.5H-492.302V-24H-487.312V-23.5H-477.334V-24H-472.345V-23.5H-462.366V-24H-457.377V-23.5H-447.398V-24H-442.409V-23.5H-432.431V-24H-427.441V-23.5H-417.463V-24H-412.474V-23.5H-402.495V-24H-397.506V-23.5H-387.527V-24H-382.538V-23.5H-372.56V-24H-367.57V-23.5H-357.592V-24H-352.603V-23.5H-342.624V-24H-337.635V-23.5H-327.656V-24H-322.667V-23.5H-312.688V-24H-307.699V-23.5H-297.721V-24H-292.731V-23.5H-282.753V-24H-277.764V-23.5H-267.785V-24H-262.796V-23.5H-252.817V-24H-247.828V-23.5H-237.85V-24H-232.86V-23.5H-222.882V-24H-217.893V-23.5H-207.914V-24H-202.925V-23.5H-192.946V-24H-187.957V-23.5H-177.979V-24H-172.989V-23.5H-163.011V-24H-158.021V-23.5H-148.043V-24H-143.054V-23.5H-133.075V-24H-128.086V-23.5H-118.107V-24H-113.118V-23.5H-103.14V-24H-98.1504V-23.5H-88.1719V-24H-83.1826V-23.5H-73.2041V-24H-68.2148V-23.5H-58.2363V-24H-53.2471V-23.5H-43.2686V-24H-38.2793V-23.5H-28.3008V-24H-23.3115V-23.5H-13.333V-24H-8.34375V-23.5H1.63477V-24H6.62402V-23.5H16.6025V-24H21.5918V-23.5H31.5703V-24H36.5596V-23.5H46.5381V-24H51.5273V-23.5H61.5059V-24H66.4941V-23.5H76.4727V-24H81.4619V-23.5H91.4404V-24H96.4297V-23.5H106.408V-24H111.397V-23.5H121.376V-24H126.365V-23.5H136.344V-24H141.333V-23.5H151.312V-24H156.301V-23.5H166.279V-24H171.269V-23.5H181.247V-24H186.236V-23.5H196.215V-24H201.204V-23.5H211.183V-24H216.172V-23.5H226.15V-24H231.14V-23.5H241.118V-24H246.107V-23.5H256.086V-24H261.075V-23.5H271.054V-24H276.043V-23.5H286.021V-24H291.011V-23.5H296C297.393 -23.5 298.757 -23.3787 300.083 -23.1465L300.169 -23.6387C301.561 -23.3949 302.912 -23.0312 304.21 -22.5586L304.04 -22.0889C306.64 -21.1423 309.026 -19.7496 311.105 -18.0029L311.426 -18.3848C312.495 -17.4863 313.485 -16.4964 314.384 -15.4268L314.003 -15.1055C315.75 -13.026 317.142 -10.64 318.089 -8.04004L318.558 -8.21094Z" fill="white"/>
<path d="M318.558 -8.21094C319.03 -6.91254 319.394 -5.56192 319.638 -4.16992L319.146 -4.08301C319.379 -2.75727 319.5 -1.393 319.5 0V4.88867H320V9.77734H319.5V19.5557H320V24.4443H319.5V34.2227H320V39.1113H319.5V48.8887H320V53.7773H319.5V63.5557H320V68.4443H319.5V78.2227H320V83.1113H319.5V88C319.5 89.393 319.379 90.7573 319.146 92.083L319.638 92.1689C319.394 93.561 319.03 94.9115 318.558 96.21L318.089 96.04C317.142 98.64 315.75 101.026 314.003 103.105L314.384 103.426C313.485 104.495 312.495 105.485 311.426 106.384L311.105 106.003C309.026 107.75 306.64 109.142 304.04 110.089L304.21 110.558C302.912 111.03 301.561 111.394 300.169 111.638L300.083 111.146C298.757 111.379 297.393 111.5 296 111.5H291.014V112H286.024V111.5H276.046V112H271.057V111.5H261.078V112H256.089V111.5H246.11V112H241.121V111.5H231.143V112H226.153V111.5H216.175V112H211.186V111.5H201.207V112H196.218V111.5H186.239V112H181.25V111.5H171.271V112H166.282V111.5H156.304V112H151.314V111.5H141.336V112H136.347V111.5H126.368V112H121.379V111.5H111.4V112H106.411V111.5H96.4326V112H91.4434V111.5H81.4648V112H76.4756V111.5H66.4971V112H61.5078V111.5H51.5293V112H46.54V111.5H36.5615V112H31.5723V111.5H21.5938V112H16.6045V111.5H6.62598V112H1.63672V111.5H-8.3418V112H-13.3311V111.5H-23.3096V112H-28.2988V111.5H-38.2773V112H-43.2666V111.5H-53.2451V112H-58.2344V111.5H-68.2129V112H-73.2021V111.5H-83.1807V112H-88.1699V111.5H-98.1484V112H-103.138V111.5H-113.116V112H-118.105V111.5H-128.084V112H-133.073V111.5H-143.052V112H-148.041V111.5H-158.02V112H-163.009V111.5H-172.987V112H-177.977V111.5H-187.955V112H-192.944V111.5H-202.923V112H-207.912V111.5H-217.891V112H-222.88V111.5H-232.858V112H-237.848V111.5H-247.826V112H-252.815V111.5H-262.794V112H-267.783V111.5H-277.762V112H-282.751V111.5H-292.729V112H-297.719V111.5H-307.697V112H-312.687V111.5H-322.665V112H-327.654V111.5H-337.633V112H-342.622V111.5H-352.601V112H-357.59V111.5H-367.568V112H-372.558V111.5H-382.536V112H-387.525V111.5H-397.504V112H-402.493V111.5H-412.472V112H-417.461V111.5H-427.439V112H-432.429V111.5H-442.407V112H-447.396V111.5H-457.375V112H-462.364V111.5H-472.343V112H-477.332V111.5H-487.311V112H-492.3V111.5H-502.278V112H-507.268V111.5H-517.246V112H-522.235V111.5H-532.214V112H-537.203V111.5H-547.182V112H-552.171V111.5H-562.149V112H-567.139V111.5H-577.117V112H-582.106V111.5H-592.085V112H-597.074V111.5H-607.053V112H-612.042V111.5H-622.021V112H-627.01V111.5H-636.988V112H-641.978V111.5H-651.956V112H-656.945V111.5H-666.924V112H-671.913V111.5H-681.892V112H-686.881V111.5H-696.859V112H-701.849V111.5H-711.827V112H-716.816V111.5H-726.795V112H-731.784V111.5H-741.763V112H-746.752V111.5H-756.73V112H-761.72V111.5H-771.698V112H-776.688V111.5H-786.666V112H-791.655V111.5H-801.634V112H-806.623V111.5H-816.602V112H-821.591V111.5H-831.569V112H-836.559V111.5H-846.537V112H-851.526V111.5H-861.505V112H-866.494V111.5H-876.473V112H-881.462V111.5H-891.44V112H-896.43V111.5H-906.408V112H-911.397V111.5H-921.376V112H-926.365V111.5H-936.344V112H-941.333V111.5H-951.312V112H-956.301V111.5H-966.279V112H-971.269V111.5H-981.247V112H-986.236V111.5H-996.215V112H-1001.2V111.5H-1011.18V112H-1016.17V111.5H-1026.15V112H-1031.14V111.5H-1041.12V112H-1046.11V111.5H-1056.09V112H-1061.08V111.5H-1071.05V112H-1076.04V111.5H-1086.02V112H-1091.01V111.5H-1100.99V112H-1105.98V111.5H-1115.96V112H-1120.95V111.5H-1130.92V112H-1135.91V111.5H-1145.89V112H-1150.88V111.5H-1160.86V112H-1165.85V111.5H-1175.83V112H-1180.82V111.5H-1190.8V112H-1195.79V111.5H-1205.76V112H-1210.75V111.5H-1220.73V112H-1225.72V111.5H-1235.7V112H-1240.69V111.5H-1250.67V112H-1255.66V111.5H-1265.63V112H-1270.62V111.5H-1280.6V112H-1285.59V111.5H-1295.57V112H-1300.56V111.5H-1310.54V112H-1315.53V111.5H-1325.5V112H-1330.49V111.5H-1340.47V112H-1345.46V111.5H-1355.44V112H-1360.43V111.5H-1370.41V112H-1375.4V111.5H-1385.38V112H-1390.37V111.5H-1400.34V112H-1405.33V111.5H-1415.31V112H-1420.3V111.5H-1430.28V112H-1435.27V111.5H-1445.25V112H-1450.24V111.5H-1460.21V112H-1465.2V111.5H-1475.18V112H-1480.17V111.5H-1490.15V112H-1495.14V111.5H-1505.12V112H-1510.11V111.5H-1520.09V112H-1525.08V111.5H-1535.05V112H-1540.04V111.5H-1550.02V112H-1555.01V111.5H-1560C-1561.39 111.5 -1562.76 111.379 -1564.08 111.146L-1564.17 111.638C-1565.56 111.394 -1566.91 111.03 -1568.21 110.558L-1568.04 110.089C-1570.64 109.142 -1573.03 107.75 -1575.11 106.003L-1575.43 106.384C-1576.5 105.485 -1577.49 104.495 -1578.38 103.426L-1578 103.105C-1579.75 101.026 -1581.14 98.64 -1582.09 96.04L-1582.56 96.21C-1583.03 94.9116 -1583.39 93.5609 -1583.64 92.1689L-1583.15 92.083C-1583.38 90.7573 -1583.5 89.393 -1583.5 88V83.1113H-1584V78.2227H-1583.5V68.4443H-1584V63.5557H-1583.5V53.7773H-1584V48.8887H-1583.5V39.1113H-1584V34.2227H-1583.5V24.4443H-1584V19.5557H-1583.5V9.77734H-1584V4.88867H-1583.5V0C-1583.5 -1.393 -1583.38 -2.75727 -1583.15 -4.08301L-1583.64 -4.16992C-1583.43 -5.37923 -1583.12 -6.5575 -1582.74 -7.69727L-1582.56 -8.21094L-1582.09 -8.04004C-1581.14 -10.64 -1579.75 -13.026 -1578 -15.1055L-1578.38 -15.4268C-1577.49 -16.4964 -1576.5 -17.4863 -1575.43 -18.3848L-1575.11 -18.0029C-1573.03 -19.7496 -1570.64 -21.1423 -1568.04 -22.0889L-1568.21 -22.5586C-1566.91 -23.0313 -1565.56 -23.3948 -1564.17 -23.6387L-1564.08 -23.1465C-1562.76 -23.3787 -1561.39 -23.5 -1560 -23.5H-1555.01V-24H-1550.02V-23.5H-1540.05V-24H-1535.06V-23.5H-1525.08V-24H-1520.09V-23.5H-1510.11V-24H-1505.12V-23.5H-1495.14V-24H-1490.15V-23.5H-1480.17V-24H-1475.19V-23.5H-1465.21V-24H-1460.22V-23.5H-1450.24V-24H-1445.25V-23.5H-1435.27V-24H-1430.28V-23.5H-1420.3V-24H-1415.31V-23.5H-1405.34V-24H-1400.35V-23.5H-1390.37V-24H-1385.38V-23.5H-1375.4V-24H-1370.41V-23.5H-1360.43V-24H-1355.44V-23.5H-1345.46V-24H-1340.48V-23.5H-1330.5V-24H-1325.51V-23.5H-1315.53V-24H-1310.54V-23.5H-1300.56V-24H-1295.57V-23.5H-1285.59V-24H-1280.6V-23.5H-1270.63V-24H-1265.64V-23.5H-1255.66V-24H-1250.67V-23.5H-1240.69V-24H-1235.7V-23.5H-1225.72V-24H-1220.73V-23.5H-1210.75V-24H-1205.77V-23.5H-1195.79V-24H-1190.8V-23.5H-1180.82V-24H-1175.83V-23.5H-1165.85V-24H-1160.86V-23.5H-1150.88V-24H-1145.89V-23.5H-1135.92V-24H-1130.93V-23.5H-1120.95V-24H-1115.96V-23.5H-1105.98V-24H-1100.99V-23.5H-1091.01V-24H-1086.02V-23.5H-1076.04V-24H-1071.06V-23.5H-1061.08V-24H-1056.09V-23.5H-1046.11V-24H-1041.12V-23.5H-1031.14V-24H-1026.15V-23.5H-1016.17V-24H-1011.18V-23.5H-1001.21V-24H-996.217V-23.5H-986.238V-24H-981.249V-23.5H-971.271V-24H-966.281V-23.5H-956.303V-24H-951.313V-23.5H-941.335V-24H-936.346V-23.5H-926.367V-24H-921.378V-23.5H-911.399V-24H-906.41V-23.5H-896.432V-24H-891.442V-23.5H-881.464V-24H-876.475V-23.5H-866.496V-24H-861.507V-23.5H-851.528V-24H-846.539V-23.5H-836.561V-24H-831.571V-23.5H-821.593V-24H-816.604V-23.5H-806.625V-24H-801.636V-23.5H-791.657V-24H-786.668V-23.5H-776.689V-24H-771.7V-23.5H-761.722V-24H-756.732V-23.5H-746.754V-24H-741.765V-23.5H-731.786V-24H-726.797V-23.5H-716.818V-24H-711.829V-23.5H-701.851V-24H-696.861V-23.5H-686.883V-24H-681.894V-23.5H-671.915V-24H-666.926V-23.5H-656.947V-24H-651.958V-23.5H-641.979V-24H-636.99V-23.5H-627.012V-24H-622.022V-23.5H-612.044V-24H-607.055V-23.5H-597.076V-24H-592.087V-23.5H-582.108V-24H-577.119V-23.5H-567.141V-24H-562.151V-23.5H-552.173V-24H-547.184V-23.5H-537.205V-24H-532.216V-23.5H-522.237V-24H-517.248V-23.5H-507.27V-24H-502.28V-23.5H-492.302V-24H-487.312V-23.5H-477.334V-24H-472.345V-23.5H-462.366V-24H-457.377V-23.5H-447.398V-24H-442.409V-23.5H-432.431V-24H-427.441V-23.5H-417.463V-24H-412.474V-23.5H-402.495V-24H-397.506V-23.5H-387.527V-24H-382.538V-23.5H-372.56V-24H-367.57V-23.5H-357.592V-24H-352.603V-23.5H-342.624V-24H-337.635V-23.5H-327.656V-24H-322.667V-23.5H-312.688V-24H-307.699V-23.5H-297.721V-24H-292.731V-23.5H-282.753V-24H-277.764V-23.5H-267.785V-24H-262.796V-23.5H-252.817V-24H-247.828V-23.5H-237.85V-24H-232.86V-23.5H-222.882V-24H-217.893V-23.5H-207.914V-24H-202.925V-23.5H-192.946V-24H-187.957V-23.5H-177.979V-24H-172.989V-23.5H-163.011V-24H-158.021V-23.5H-148.043V-24H-143.054V-23.5H-133.075V-24H-128.086V-23.5H-118.107V-24H-113.118V-23.5H-103.14V-24H-98.1504V-23.5H-88.1719V-24H-83.1826V-23.5H-73.2041V-24H-68.2148V-23.5H-58.2363V-24H-53.2471V-23.5H-43.2686V-24H-38.2793V-23.5H-28.3008V-24H-23.3115V-23.5H-13.333V-24H-8.34375V-23.5H1.63477V-24H6.62402V-23.5H16.6025V-24H21.5918V-23.5H31.5703V-24H36.5596V-23.5H46.5381V-24H51.5273V-23.5H61.5059V-24H66.4941V-23.5H76.4727V-24H81.4619V-23.5H91.4404V-24H96.4297V-23.5H106.408V-24H111.397V-23.5H121.376V-24H126.365V-23.5H136.344V-24H141.333V-23.5H151.312V-24H156.301V-23.5H166.279V-24H171.269V-23.5H181.247V-24H186.236V-23.5H196.215V-24H201.204V-23.5H211.183V-24H216.172V-23.5H226.15V-24H231.14V-23.5H241.118V-24H246.107V-23.5H256.086V-24H261.075V-23.5H271.054V-24H276.043V-23.5H286.021V-24H291.011V-23.5H296C297.393 -23.5 298.757 -23.3787 300.083 -23.1465L300.169 -23.6387C301.561 -23.3949 302.912 -23.0312 304.21 -22.5586L304.04 -22.0889C306.64 -21.1423 309.026 -19.7496 311.105 -18.0029L311.426 -18.3848C312.495 -17.4863 313.485 -16.4964 314.384 -15.4268L314.003 -15.1055C315.75 -13.026 317.142 -10.64 318.089 -8.04004L318.558 -8.21094Z" stroke="#8A38F5" stroke-dasharray="10 5"/>
<g id="Name=&#208;&#145;&#208;&#176;&#208;&#177;&#208;&#187;&#209;&#139;">
<g id="Group 2087326356">
<rect id="Rectangle 1005455" x="32.1426" y="17.5996" width="8.84889" height="37.9238" fill="#FFDF75"/>
<path id="Exclude" d="M73.0439 23.3643L75.7383 20.6699L81.9746 26.9053L79.3271 29.5527H83.0234V38.3711H79.1631L81.8926 41.1006L75.6562 47.3359L73.0439 44.7227V48.4668H64.2256V44.6543L61.4619 47.418L55.2256 41.1826L58.0371 38.3711H54.0146V29.5527H57.874L55.1445 26.8232L61.3799 20.5879L64.2256 23.4336V19.457H73.0439V23.3643ZM68.5195 28.9717C65.764 28.9718 63.5303 31.2063 63.5303 33.9619C63.5305 36.7173 65.7641 38.9511 68.5195 38.9512C71.2751 38.9512 73.5086 36.7174 73.5088 33.9619C73.5088 31.2063 71.2752 28.9717 68.5195 28.9717Z" fill="#E7C1FF"/>
<path id="Union" d="M53.4346 31.7559C66.8283 31.7559 77.6865 40.172 77.6865 50.5537C77.6865 53.9067 76.5523 57.0537 74.5674 59.7793L78.624 70.4795L67.8018 65.6973C63.7804 67.9931 58.8121 69.3516 53.4346 69.3516C40.0411 69.3514 29.1838 60.9353 29.1836 50.5537C29.1836 40.172 40.041 31.756 53.4346 31.7559Z" fill="#2DA771"/>
<g id="Mask group">
<mask id="mask0_6227_5096" style="mask-type:alpha" maskUnits="userSpaceOnUse" x="29" y="31" width="50" height="40">
<path id="Union_2" d="M53.4346 31.7559C66.8283 31.7559 77.6865 40.172 77.6865 50.5537C77.6865 53.9067 76.5523 57.0537 74.5674 59.7793L78.624 70.4785L67.8018 65.6973C63.7804 67.9931 58.8121 69.3516 53.4346 69.3516C40.0411 69.3514 29.1838 60.9353 29.1836 50.5537C29.1836 40.172 40.041 31.756 53.4346 31.7559Z" fill="#2DA771"/>
</mask>
<g mask="url(#mask0_6227_5096)">
<g id="Intersect" filter="url(#filter0_f_6227_5096)">
<path d="M41.0186 55.4258H32.2002V41.4678C34.2815 38.5514 37.3335 36.1102 41.0186 34.4043V55.4258Z" fill="#FFDF75"/>
</g>
<g id="Intersect_2" filter="url(#filter1_f_6227_5096)">
<path d="M54.0117 31.7578C57.4113 31.8194 60.6375 32.4231 63.5527 33.4619C63.5367 33.6245 63.5283 33.7893 63.5283 33.9561C63.5286 36.7114 65.7622 38.9452 68.5176 38.9453C69.621 38.9453 70.6397 38.5859 71.4658 37.9795C74.0805 40.2313 76.0016 42.9754 76.9727 46.0107L75.6543 47.3301L73.041 44.7168V48.46H64.2227V44.6484L61.46 47.4121L55.2236 41.1758L58.0342 38.3652H54.0117V31.7578Z" fill="#E7C1FF"/>
</g>
</g>
</g>
<rect id="Rectangle 1005453" x="5.27979" y="34.0332" width="8.84889" height="21.4902" fill="#6600BA"/>
<rect id="Rectangle 1005454" x="18.8691" y="26.4473" width="8.53286" height="29.0749" fill="#FFDF75"/>
</g>
</g>
</g>
<defs>
<filter id="filter0_f_6227_5096" x="23.5811" y="25.7852" width="26.0565" height="38.2596" filterUnits="userSpaceOnUse" color-interpolation-filters="sRGB">
<feFlood flood-opacity="0" result="BackgroundImageFix"/>
<feBlend mode="normal" in="SourceGraphic" in2="BackgroundImageFix" result="shape"/>
<feGaussianBlur stdDeviation="4.30952" result="effect1_foregroundBlur_6227_5096"/>
</filter>
<filter id="filter1_f_6227_5096" x="44.6744" y="22.4205" width="41.6355" height="35.3777" filterUnits="userSpaceOnUse" color-interpolation-filters="sRGB">
<feFlood flood-opacity="0" result="BackgroundImageFix"/>
<feBlend mode="normal" in="SourceGraphic" in2="BackgroundImageFix" result="shape"/>
<feGaussianBlur stdDeviation="4.66865" result="effect1_foregroundBlur_6227_5096"/>
</filter>
</defs>
</svg>
