<svg width="88" height="88" viewBox="0 0 88 88" fill="none" xmlns="http://www.w3.org/2000/svg">
<g id="Small Image"><g id="Name=&#208;&#145;&#208;&#176;&#208;&#177;&#208;&#187;&#209;&#139;">
<g id="Group 2087326356">
<rect id="Rectangle 1005455" x="32.1426" y="17.5996" width="8.84889" height="37.9238" fill="#FFDF75"/>
<path id="Exclude" d="M73.0439 23.3643L75.7383 20.6699L81.9746 26.9053L79.3271 29.5527H83.0234V38.3711H79.1631L81.8926 41.1006L75.6562 47.3359L73.0439 44.7227V48.4668H64.2256V44.6543L61.4619 47.418L55.2256 41.1826L58.0371 38.3711H54.0146V29.5527H57.874L55.1445 26.8232L61.3799 20.5879L64.2256 23.4336V19.457H73.0439V23.3643ZM68.5195 28.9717C65.764 28.9718 63.5303 31.2063 63.5303 33.9619C63.5305 36.7173 65.7641 38.9511 68.5195 38.9512C71.2751 38.9512 73.5086 36.7174 73.5088 33.9619C73.5088 31.2063 71.2752 28.9717 68.5195 28.9717Z" fill="#E7C1FF"/>
<path id="Union" d="M53.4346 31.7559C66.8283 31.7559 77.6865 40.172 77.6865 50.5537C77.6865 53.9067 76.5523 57.0537 74.5674 59.7793L78.624 70.4795L67.8018 65.6973C63.7804 67.9931 58.8121 69.3516 53.4346 69.3516C40.0411 69.3514 29.1838 60.9353 29.1836 50.5537C29.1836 40.172 40.041 31.756 53.4346 31.7559Z" fill="#2DA771"/>
<g id="Mask group">
<mask id="mask0_6227_5096" style="mask-type:alpha" maskUnits="userSpaceOnUse" x="29" y="31" width="50" height="40">
<path id="Union_2" d="M53.4346 31.7559C66.8283 31.7559 77.6865 40.172 77.6865 50.5537C77.6865 53.9067 76.5523 57.0537 74.5674 59.7793L78.624 70.4785L67.8018 65.6973C63.7804 67.9931 58.8121 69.3516 53.4346 69.3516C40.0411 69.3514 29.1838 60.9353 29.1836 50.5537C29.1836 40.172 40.041 31.756 53.4346 31.7559Z" fill="#2DA771"/>
</mask>
<g mask="url(#mask0_6227_5096)">
<g id="Intersect" filter="url(#filter0_f_6227_5096)">
<path d="M41.0186 55.4258H32.2002V41.4678C34.2815 38.5514 37.3335 36.1102 41.0186 34.4043V55.4258Z" fill="#FFDF75"/>
</g>
<g id="Intersect_2" filter="url(#filter1_f_6227_5096)">
<path d="M54.0117 31.7578C57.4113 31.8194 60.6375 32.4231 63.5527 33.4619C63.5367 33.6245 63.5283 33.7893 63.5283 33.9561C63.5286 36.7114 65.7622 38.9452 68.5176 38.9453C69.621 38.9453 70.6397 38.5859 71.4658 37.9795C74.0805 40.2313 76.0016 42.9754 76.9727 46.0107L75.6543 47.3301L73.041 44.7168V48.46H64.2227V44.6484L61.46 47.4121L55.2236 41.1758L58.0342 38.3652H54.0117V31.7578Z" fill="#E7C1FF"/>
</g>
</g>
</g>
<rect id="Rectangle 1005453" x="5.27979" y="34.0332" width="8.84889" height="21.4902" fill="#6600BA"/>
<rect id="Rectangle 1005454" x="18.8691" y="26.4473" width="8.53286" height="29.0749" fill="#FFDF75"/>
</g>
</g>
</g>
<defs>
<filter id="filter0_f_6227_5096" x="23.5811" y="25.7852" width="26.0565" height="38.2596" filterUnits="userSpaceOnUse" color-interpolation-filters="sRGB">
<feFlood flood-opacity="0" result="BackgroundImageFix"/>
<feBlend mode="normal" in="SourceGraphic" in2="BackgroundImageFix" result="shape"/>
<feGaussianBlur stdDeviation="4.30952" result="effect1_foregroundBlur_6227_5096"/>
</filter>
<filter id="filter1_f_6227_5096" x="44.6744" y="22.4205" width="41.6355" height="35.3777" filterUnits="userSpaceOnUse" color-interpolation-filters="sRGB">
<feFlood flood-opacity="0" result="BackgroundImageFix"/>
<feBlend mode="normal" in="SourceGraphic" in2="BackgroundImageFix" result="shape"/>
<feGaussianBlur stdDeviation="4.66865" result="effect1_foregroundBlur_6227_5096"/>
</filter>
</defs>
</svg>
