<svg width="88" height="88" viewBox="0 0 88 88" fill="none" xmlns="http://www.w3.org/2000/svg">
<g id="Small Image"><g id="Name=&#208;&#167;&#208;&#181;&#208;&#186;&#208;&#187;&#208;&#184;&#209;&#129;&#209;&#130;">
<g id="Group 2087326352">
<rect id="Rectangle 1005499" x="17.583" y="15.2422" width="28.6838" height="9.36613" fill="#6600BA"/>
<rect id="Rectangle 1005498" x="10.5601" y="19.9258" width="42.733" height="57.9529" fill="#FFDF75"/>
<rect id="Rectangle 1005500" x="23.438" y="10.5605" width="16.9761" height="5.85383" fill="#6600BA"/>
<g id="Intersect" filter="url(#filter0_f_6227_5096)">
<path d="M46.272 24.6094H17.5884V19.9258H46.272V24.6094Z" fill="#6600BA"/>
</g>
<rect id="Rectangle 1005503" x="14.6567" y="32.2188" width="8.78075" height="8.78075" fill="#2DA771"/>
<rect id="Rectangle 1005506" x="27.5361" y="32.2188" width="21.0738" height="8.78075" fill="#E7C1FF"/>
<rect id="Rectangle 1005504" x="14.6567" y="45.0977" width="8.78075" height="8.78075" fill="#2DA771"/>
<rect id="Rectangle 1005507" x="27.5361" y="45.0977" width="21.0738" height="8.78075" fill="#E7C1FF"/>
<rect id="Rectangle 1005505" x="14.6567" y="57.9766" width="8.78075" height="8.78075" fill="#2DA771"/>
<rect id="Rectangle 1005508" x="27.5361" y="57.9766" width="21.0738" height="8.78075" fill="#E7C1FF"/>
<circle id="Ellipse 146" cx="60.6111" cy="60.6106" r="17.2688" fill="#2DA771"/>
<g id="Vector 81" filter="url(#filter1_f_6227_5096)">
<path d="M52.7095 56.5123L59.2996 67.9273L69.1002 50.9512" stroke="#FFDF75" stroke-width="6.08695" stroke-linejoin="bevel"/>
</g>
</g>
</g>
</g>
<defs>
<filter id="filter0_f_6227_5096" x="15.1536" y="17.491" width="33.5532" height="9.55315" filterUnits="userSpaceOnUse" color-interpolation-filters="sRGB">
<feFlood flood-opacity="0" result="BackgroundImageFix"/>
<feBlend mode="normal" in="SourceGraphic" in2="BackgroundImageFix" result="shape"/>
<feGaussianBlur stdDeviation="1.21739" result="effect1_foregroundBlur_6227_5096"/>
</filter>
<filter id="filter1_f_6227_5096" x="48.2476" y="47.6036" width="25.3143" height="23.6717" filterUnits="userSpaceOnUse" color-interpolation-filters="sRGB">
<feFlood flood-opacity="0" result="BackgroundImageFix"/>
<feBlend mode="normal" in="SourceGraphic" in2="BackgroundImageFix" result="shape"/>
<feGaussianBlur stdDeviation="0.913043" result="effect1_foregroundBlur_6227_5096"/>
</filter>
</defs>
</svg>
