<svg width="88" height="88" viewBox="0 0 88 88" fill="none" xmlns="http://www.w3.org/2000/svg">
<rect width="88" height="88" fill="#545454"/>
<g id="Small Image">
<path d="M1046.56 -8.21094C1047.03 -6.91254 1047.39 -5.56192 1047.64 -4.16992L1047.15 -4.08301C1047.38 -2.75727 1047.5 -1.393 1047.5 0V4.88867H1048V9.77734H1047.5V19.5557H1048V24.4443H1047.5V34.2227H1048V39.1113H1047.5V48.8887H1048V53.7773H1047.5V63.5557H1048V68.4443H1047.5V78.2227H1048V83.1113H1047.5V88C1047.5 89.393 1047.38 90.7573 1047.15 92.083L1047.64 92.1689C1047.39 93.561 1047.03 94.9115 1046.56 96.21L1046.09 96.04C1045.14 98.64 1043.75 101.026 1042 103.105L1042.38 103.426C1041.49 104.495 1040.5 105.485 1039.43 106.384L1039.11 106.003C1037.03 107.75 1034.64 109.142 1032.04 110.089L1032.21 110.558C1030.91 111.03 1029.56 111.394 1028.17 111.638L1028.08 111.146C1026.76 111.379 1025.39 111.5 1024 111.5H1019.01V112H1014.02V111.5H1004.05V112H999.057V111.5H989.078V112H984.089V111.5H974.11V112H969.121V111.5H959.143V112H954.153V111.5H944.175V112H939.186V111.5H929.207V112H924.218V111.5H914.239V112H909.25V111.5H899.271V112H894.282V111.5H884.304V112H879.314V111.5H869.336V112H864.347V111.5H854.368V112H849.379V111.5H839.4V112H834.411V111.5H824.433V112H819.443V111.5H809.465V112H804.476V111.5H794.497V112H789.508V111.5H779.529V112H774.54V111.5H764.562V112H759.572V111.5H749.594V112H744.604V111.5H734.626V112H729.637V111.5H719.658V112H714.669V111.5H704.69V112H699.701V111.5H689.723V112H684.733V111.5H674.755V112H669.766V111.5H659.787V112H654.798V111.5H644.819V112H639.83V111.5H629.852V112H624.862V111.5H614.884V112H609.895V111.5H599.916V112H594.927V111.5H584.948V112H579.959V111.5H569.98V112H564.991V111.5H555.013V112H550.023V111.5H540.045V112H535.056V111.5H525.077V112H520.088V111.5H510.109V112H505.12V111.5H495.142V112H490.152V111.5H480.174V112H475.185V111.5H465.206V112H460.217V111.5H450.238V112H445.249V111.5H435.271V112H430.281V111.5H420.303V112H415.313V111.5H405.335V112H400.346V111.5H390.367V112H385.378V111.5H375.399V112H370.41V111.5H360.432V112H355.442V111.5H345.464V112H340.475V111.5H330.496V112H325.507V111.5H315.528V112H310.539V111.5H300.561V112H295.571V111.5H285.593V112H280.604V111.5H270.625V112H265.636V111.5H255.657V112H250.668V111.5H240.689V112H235.7V111.5H225.722V112H220.732V111.5H210.754V112H205.765V111.5H195.786V112H190.797V111.5H180.818V112H175.829V111.5H165.851V112H160.861V111.5H150.883V112H145.894V111.5H135.915V112H130.926V111.5H120.947V112H115.958V111.5H105.979V112H100.99V111.5H91.0117V112H86.0225V111.5H76.0439V112H71.0547V111.5H61.0762V112H56.0869V111.5H46.1084V112H41.1191V111.5H31.1406V112H26.1514V111.5H16.1729V112H11.1836V111.5H1.20508V112H-3.78418V111.5H-13.7627V112H-18.752V111.5H-28.7305V112H-33.7197V111.5H-43.6982V112H-48.6875V111.5H-58.666V112H-63.6553V111.5H-73.6338V112H-78.623V111.5H-88.6016V112H-93.5908V111.5H-103.569V112H-108.559V111.5H-118.537V112H-123.526V111.5H-133.505V112H-138.494V111.5H-148.473V112H-153.462V111.5H-163.44V112H-168.43V111.5H-178.408V112H-183.397V111.5H-193.376V112H-198.365V111.5H-208.344V112H-213.333V111.5H-223.312V112H-228.301V111.5H-238.279V112H-243.269V111.5H-253.247V112H-258.236V111.5H-268.215V112H-273.204V111.5H-283.183V112H-288.172V111.5H-298.15V112H-303.14V111.5H-313.118V112H-318.107V111.5H-328.086V112H-333.075V111.5H-343.054V112H-348.043V111.5H-358.021V112H-363.011V111.5H-372.989V112H-377.979V111.5H-387.957V112H-392.946V111.5H-402.925V112H-407.914V111.5H-417.893V112H-422.882V111.5H-432.86V112H-437.85V111.5H-447.828V112H-452.817V111.5H-462.796V112H-467.785V111.5H-477.764V112H-482.753V111.5H-492.731V112H-497.721V111.5H-507.699V112H-512.688V111.5H-522.667V112H-527.656V111.5H-537.635V112H-542.624V111.5H-552.603V112H-557.592V111.5H-567.57V112H-572.56V111.5H-582.537V112H-587.526V111.5H-597.505V112H-602.494V111.5H-612.473V112H-617.462V111.5H-627.44V112H-632.43V111.5H-642.408V112H-647.397V111.5H-657.376V112H-662.365V111.5H-672.344V112H-677.333V111.5H-687.312V112H-692.301V111.5H-702.279V112H-707.269V111.5H-717.247V112H-722.236V111.5H-732.215V112H-737.204V111.5H-747.183V112H-752.172V111.5H-762.15V112H-767.14V111.5H-777.118V112H-782.107V111.5H-792.086V112H-797.075V111.5H-807.054V112H-812.043V111.5H-822.021V112H-827.011V111.5H-832C-833.393 111.5 -834.757 111.379 -836.083 111.146L-836.17 111.638C-837.562 111.394 -838.913 111.03 -840.211 110.558L-840.04 110.089C-842.64 109.142 -845.026 107.75 -847.105 106.003L-847.427 106.384C-848.496 105.485 -849.486 104.495 -850.385 103.426L-850.003 103.105C-851.75 101.026 -853.142 98.64 -854.089 96.04L-854.559 96.21C-855.031 94.9116 -855.395 93.5609 -855.639 92.1689L-855.146 92.083C-855.379 90.7573 -855.5 89.393 -855.5 88V83.1113H-856V78.2227H-855.5V68.4443H-856V63.5557H-855.5V53.7773H-856V48.8887H-855.5V39.1113H-856V34.2227H-855.5V24.4443H-856V19.5557H-855.5V9.77734H-856V4.88867H-855.5V0C-855.5 -1.393 -855.379 -2.75727 -855.146 -4.08301L-855.639 -4.16992C-855.427 -5.37923 -855.125 -6.5575 -854.739 -7.69727L-854.559 -8.21094L-854.089 -8.04004C-853.142 -10.64 -851.75 -13.026 -850.003 -15.1055L-850.385 -15.4268C-849.486 -16.4964 -848.496 -17.4863 -847.427 -18.3848L-847.105 -18.0029C-845.026 -19.7496 -842.64 -21.1423 -840.04 -22.0889L-840.211 -22.5586C-838.913 -23.0313 -837.562 -23.3948 -836.17 -23.6387L-836.083 -23.1465C-834.757 -23.3787 -833.393 -23.5 -832 -23.5H-827.014V-24H-822.024V-23.5H-812.046V-24H-807.057V-23.5H-797.078V-24H-792.089V-23.5H-782.11V-24H-777.121V-23.5H-767.143V-24H-762.153V-23.5H-752.175V-24H-747.186V-23.5H-737.207V-24H-732.218V-23.5H-722.239V-24H-717.25V-23.5H-707.271V-24H-702.282V-23.5H-692.304V-24H-687.314V-23.5H-677.336V-24H-672.347V-23.5H-662.368V-24H-657.379V-23.5H-647.4V-24H-642.411V-23.5H-632.433V-24H-627.443V-23.5H-617.465V-24H-612.476V-23.5H-602.497V-24H-597.508V-23.5H-587.529V-24H-582.54V-23.5H-572.562V-24H-567.572V-23.5H-557.594V-24H-552.604V-23.5H-542.626V-24H-537.637V-23.5H-527.658V-24H-522.669V-23.5H-512.69V-24H-507.701V-23.5H-497.723V-24H-492.733V-23.5H-482.755V-24H-477.766V-23.5H-467.787V-24H-462.798V-23.5H-452.819V-24H-447.83V-23.5H-437.852V-24H-432.862V-23.5H-422.884V-24H-417.895V-23.5H-407.916V-24H-402.927V-23.5H-392.948V-24H-387.959V-23.5H-377.98V-24H-372.991V-23.5H-363.013V-24H-358.023V-23.5H-348.045V-24H-343.056V-23.5H-333.077V-24H-328.088V-23.5H-318.109V-24H-313.12V-23.5H-303.142V-24H-298.152V-23.5H-288.174V-24H-283.185V-23.5H-273.206V-24H-268.217V-23.5H-258.238V-24H-253.249V-23.5H-243.271V-24H-238.281V-23.5H-228.303V-24H-223.313V-23.5H-213.335V-24H-208.346V-23.5H-198.367V-24H-193.378V-23.5H-183.399V-24H-178.41V-23.5H-168.432V-24H-163.442V-23.5H-153.464V-24H-148.475V-23.5H-138.496V-24H-133.507V-23.5H-123.528V-24H-118.539V-23.5H-108.561V-24H-103.571V-23.5H-93.5928V-24H-88.6035V-23.5H-78.625V-24H-73.6357V-23.5H-63.6572V-24H-58.668V-23.5H-48.6895V-24H-43.7002V-23.5H-33.7217V-24H-28.7324V-23.5H-18.7539V-24H-13.7646V-23.5H-3.78613V-24H1.20312V-23.5H11.1816V-24H16.1709V-23.5H26.1494V-24H31.1387V-23.5H41.1172V-24H46.1064V-23.5H56.085V-24H61.0742V-23.5H71.0527V-24H76.042V-23.5H86.0205V-24H91.0098V-23.5H100.988V-24H105.978V-23.5H115.956V-24H120.945V-23.5H130.924V-24H135.913V-23.5H145.892V-24H150.881V-23.5H160.859V-24H165.849V-23.5H175.827V-24H180.816V-23.5H190.795V-24H195.784V-23.5H205.763V-24H210.752V-23.5H220.73V-24H225.72V-23.5H235.698V-24H240.688V-23.5H250.666V-24H255.655V-23.5H265.634V-24H270.623V-23.5H280.602V-24H285.591V-23.5H295.569V-24H300.559V-23.5H310.537V-24H315.526V-23.5H325.505V-24H330.494V-23.5H340.473V-24H345.462V-23.5H355.44V-24H360.43V-23.5H370.408V-24H375.397V-23.5H385.376V-24H390.365V-23.5H400.344V-24H405.333V-23.5H415.312V-24H420.301V-23.5H430.279V-24H435.269V-23.5H445.247V-24H450.236V-23.5H460.215V-24H465.204V-23.5H475.183V-24H480.172V-23.5H490.15V-24H495.14V-23.5H505.118V-24H510.107V-23.5H520.086V-24H525.075V-23.5H535.054V-24H540.043V-23.5H550.021V-24H555.011V-23.5H564.989V-24H569.979V-23.5H579.957V-24H584.946V-23.5H594.925V-24H599.914V-23.5H609.893V-24H614.882V-23.5H624.86V-24H629.85V-23.5H639.828V-24H644.817V-23.5H654.796V-24H659.785V-23.5H669.764V-24H674.753V-23.5H684.731V-24H689.721V-23.5H699.699V-24H704.688V-23.5H714.667V-24H719.656V-23.5H729.635V-24H734.624V-23.5H744.603V-24H749.592V-23.5H759.57V-24H764.56V-23.5H774.538V-24H779.527V-23.5H789.506V-24H794.494V-23.5H804.473V-24H809.462V-23.5H819.44V-24H824.43V-23.5H834.408V-24H839.397V-23.5H849.376V-24H854.365V-23.5H864.344V-24H869.333V-23.5H879.312V-24H884.301V-23.5H894.279V-24H899.269V-23.5H909.247V-24H914.236V-23.5H924.215V-24H929.204V-23.5H939.183V-24H944.172V-23.5H954.15V-24H959.14V-23.5H969.118V-24H974.107V-23.5H984.086V-24H989.075V-23.5H999.054V-24H1004.04V-23.5H1014.02V-24H1019.01V-23.5H1024C1025.39 -23.5 1026.76 -23.3787 1028.08 -23.1465L1028.17 -23.6387C1029.56 -23.3949 1030.91 -23.0312 1032.21 -22.5586L1032.04 -22.0889C1034.64 -21.1423 1037.03 -19.7496 1039.11 -18.0029L1039.43 -18.3848C1040.5 -17.4863 1041.49 -16.4964 1042.38 -15.4268L1042 -15.1055C1043.75 -13.026 1045.14 -10.64 1046.09 -8.04004L1046.56 -8.21094Z" fill="white"/>
<path d="M1046.56 -8.21094C1047.03 -6.91254 1047.39 -5.56192 1047.64 -4.16992L1047.15 -4.08301C1047.38 -2.75727 1047.5 -1.393 1047.5 0V4.88867H1048V9.77734H1047.5V19.5557H1048V24.4443H1047.5V34.2227H1048V39.1113H1047.5V48.8887H1048V53.7773H1047.5V63.5557H1048V68.4443H1047.5V78.2227H1048V83.1113H1047.5V88C1047.5 89.393 1047.38 90.7573 1047.15 92.083L1047.64 92.1689C1047.39 93.561 1047.03 94.9115 1046.56 96.21L1046.09 96.04C1045.14 98.64 1043.75 101.026 1042 103.105L1042.38 103.426C1041.49 104.495 1040.5 105.485 1039.43 106.384L1039.11 106.003C1037.03 107.75 1034.64 109.142 1032.04 110.089L1032.21 110.558C1030.91 111.03 1029.56 111.394 1028.17 111.638L1028.08 111.146C1026.76 111.379 1025.39 111.5 1024 111.5H1019.01V112H1014.02V111.5H1004.05V112H999.057V111.5H989.078V112H984.089V111.5H974.11V112H969.121V111.5H959.143V112H954.153V111.5H944.175V112H939.186V111.5H929.207V112H924.218V111.5H914.239V112H909.25V111.5H899.271V112H894.282V111.5H884.304V112H879.314V111.5H869.336V112H864.347V111.5H854.368V112H849.379V111.5H839.4V112H834.411V111.5H824.433V112H819.443V111.5H809.465V112H804.476V111.5H794.497V112H789.508V111.5H779.529V112H774.54V111.5H764.562V112H759.572V111.5H749.594V112H744.604V111.5H734.626V112H729.637V111.5H719.658V112H714.669V111.5H704.69V112H699.701V111.5H689.723V112H684.733V111.5H674.755V112H669.766V111.5H659.787V112H654.798V111.5H644.819V112H639.83V111.5H629.852V112H624.862V111.5H614.884V112H609.895V111.5H599.916V112H594.927V111.5H584.948V112H579.959V111.5H569.98V112H564.991V111.5H555.013V112H550.023V111.5H540.045V112H535.056V111.5H525.077V112H520.088V111.5H510.109V112H505.12V111.5H495.142V112H490.152V111.5H480.174V112H475.185V111.5H465.206V112H460.217V111.5H450.238V112H445.249V111.5H435.271V112H430.281V111.5H420.303V112H415.313V111.5H405.335V112H400.346V111.5H390.367V112H385.378V111.5H375.399V112H370.41V111.5H360.432V112H355.442V111.5H345.464V112H340.475V111.5H330.496V112H325.507V111.5H315.528V112H310.539V111.5H300.561V112H295.571V111.5H285.593V112H280.604V111.5H270.625V112H265.636V111.5H255.657V112H250.668V111.5H240.689V112H235.7V111.5H225.722V112H220.732V111.5H210.754V112H205.765V111.5H195.786V112H190.797V111.5H180.818V112H175.829V111.5H165.851V112H160.861V111.5H150.883V112H145.894V111.5H135.915V112H130.926V111.5H120.947V112H115.958V111.5H105.979V112H100.99V111.5H91.0117V112H86.0225V111.5H76.0439V112H71.0547V111.5H61.0762V112H56.0869V111.5H46.1084V112H41.1191V111.5H31.1406V112H26.1514V111.5H16.1729V112H11.1836V111.5H1.20508V112H-3.78418V111.5H-13.7627V112H-18.752V111.5H-28.7305V112H-33.7197V111.5H-43.6982V112H-48.6875V111.5H-58.666V112H-63.6553V111.5H-73.6338V112H-78.623V111.5H-88.6016V112H-93.5908V111.5H-103.569V112H-108.559V111.5H-118.537V112H-123.526V111.5H-133.505V112H-138.494V111.5H-148.473V112H-153.462V111.5H-163.44V112H-168.43V111.5H-178.408V112H-183.397V111.5H-193.376V112H-198.365V111.5H-208.344V112H-213.333V111.5H-223.312V112H-228.301V111.5H-238.279V112H-243.269V111.5H-253.247V112H-258.236V111.5H-268.215V112H-273.204V111.5H-283.183V112H-288.172V111.5H-298.15V112H-303.14V111.5H-313.118V112H-318.107V111.5H-328.086V112H-333.075V111.5H-343.054V112H-348.043V111.5H-358.021V112H-363.011V111.5H-372.989V112H-377.979V111.5H-387.957V112H-392.946V111.5H-402.925V112H-407.914V111.5H-417.893V112H-422.882V111.5H-432.86V112H-437.85V111.5H-447.828V112H-452.817V111.5H-462.796V112H-467.785V111.5H-477.764V112H-482.753V111.5H-492.731V112H-497.721V111.5H-507.699V112H-512.688V111.5H-522.667V112H-527.656V111.5H-537.635V112H-542.624V111.5H-552.603V112H-557.592V111.5H-567.57V112H-572.56V111.5H-582.537V112H-587.526V111.5H-597.505V112H-602.494V111.5H-612.473V112H-617.462V111.5H-627.44V112H-632.43V111.5H-642.408V112H-647.397V111.5H-657.376V112H-662.365V111.5H-672.344V112H-677.333V111.5H-687.312V112H-692.301V111.5H-702.279V112H-707.269V111.5H-717.247V112H-722.236V111.5H-732.215V112H-737.204V111.5H-747.183V112H-752.172V111.5H-762.15V112H-767.14V111.5H-777.118V112H-782.107V111.5H-792.086V112H-797.075V111.5H-807.054V112H-812.043V111.5H-822.021V112H-827.011V111.5H-832C-833.393 111.5 -834.757 111.379 -836.083 111.146L-836.17 111.638C-837.562 111.394 -838.913 111.03 -840.211 110.558L-840.04 110.089C-842.64 109.142 -845.026 107.75 -847.105 106.003L-847.427 106.384C-848.496 105.485 -849.486 104.495 -850.385 103.426L-850.003 103.105C-851.75 101.026 -853.142 98.64 -854.089 96.04L-854.559 96.21C-855.031 94.9116 -855.395 93.5609 -855.639 92.1689L-855.146 92.083C-855.379 90.7573 -855.5 89.393 -855.5 88V83.1113H-856V78.2227H-855.5V68.4443H-856V63.5557H-855.5V53.7773H-856V48.8887H-855.5V39.1113H-856V34.2227H-855.5V24.4443H-856V19.5557H-855.5V9.77734H-856V4.88867H-855.5V0C-855.5 -1.393 -855.379 -2.75727 -855.146 -4.08301L-855.639 -4.16992C-855.427 -5.37923 -855.125 -6.5575 -854.739 -7.69727L-854.559 -8.21094L-854.089 -8.04004C-853.142 -10.64 -851.75 -13.026 -850.003 -15.1055L-850.385 -15.4268C-849.486 -16.4964 -848.496 -17.4863 -847.427 -18.3848L-847.105 -18.0029C-845.026 -19.7496 -842.64 -21.1423 -840.04 -22.0889L-840.211 -22.5586C-838.913 -23.0313 -837.562 -23.3948 -836.17 -23.6387L-836.083 -23.1465C-834.757 -23.3787 -833.393 -23.5 -832 -23.5H-827.014V-24H-822.024V-23.5H-812.046V-24H-807.057V-23.5H-797.078V-24H-792.089V-23.5H-782.11V-24H-777.121V-23.5H-767.143V-24H-762.153V-23.5H-752.175V-24H-747.186V-23.5H-737.207V-24H-732.218V-23.5H-722.239V-24H-717.25V-23.5H-707.271V-24H-702.282V-23.5H-692.304V-24H-687.314V-23.5H-677.336V-24H-672.347V-23.5H-662.368V-24H-657.379V-23.5H-647.4V-24H-642.411V-23.5H-632.433V-24H-627.443V-23.5H-617.465V-24H-612.476V-23.5H-602.497V-24H-597.508V-23.5H-587.529V-24H-582.54V-23.5H-572.562V-24H-567.572V-23.5H-557.594V-24H-552.604V-23.5H-542.626V-24H-537.637V-23.5H-527.658V-24H-522.669V-23.5H-512.69V-24H-507.701V-23.5H-497.723V-24H-492.733V-23.5H-482.755V-24H-477.766V-23.5H-467.787V-24H-462.798V-23.5H-452.819V-24H-447.83V-23.5H-437.852V-24H-432.862V-23.5H-422.884V-24H-417.895V-23.5H-407.916V-24H-402.927V-23.5H-392.948V-24H-387.959V-23.5H-377.98V-24H-372.991V-23.5H-363.013V-24H-358.023V-23.5H-348.045V-24H-343.056V-23.5H-333.077V-24H-328.088V-23.5H-318.109V-24H-313.12V-23.5H-303.142V-24H-298.152V-23.5H-288.174V-24H-283.185V-23.5H-273.206V-24H-268.217V-23.5H-258.238V-24H-253.249V-23.5H-243.271V-24H-238.281V-23.5H-228.303V-24H-223.313V-23.5H-213.335V-24H-208.346V-23.5H-198.367V-24H-193.378V-23.5H-183.399V-24H-178.41V-23.5H-168.432V-24H-163.442V-23.5H-153.464V-24H-148.475V-23.5H-138.496V-24H-133.507V-23.5H-123.528V-24H-118.539V-23.5H-108.561V-24H-103.571V-23.5H-93.5928V-24H-88.6035V-23.5H-78.625V-24H-73.6357V-23.5H-63.6572V-24H-58.668V-23.5H-48.6895V-24H-43.7002V-23.5H-33.7217V-24H-28.7324V-23.5H-18.7539V-24H-13.7646V-23.5H-3.78613V-24H1.20312V-23.5H11.1816V-24H16.1709V-23.5H26.1494V-24H31.1387V-23.5H41.1172V-24H46.1064V-23.5H56.085V-24H61.0742V-23.5H71.0527V-24H76.042V-23.5H86.0205V-24H91.0098V-23.5H100.988V-24H105.978V-23.5H115.956V-24H120.945V-23.5H130.924V-24H135.913V-23.5H145.892V-24H150.881V-23.5H160.859V-24H165.849V-23.5H175.827V-24H180.816V-23.5H190.795V-24H195.784V-23.5H205.763V-24H210.752V-23.5H220.73V-24H225.72V-23.5H235.698V-24H240.688V-23.5H250.666V-24H255.655V-23.5H265.634V-24H270.623V-23.5H280.602V-24H285.591V-23.5H295.569V-24H300.559V-23.5H310.537V-24H315.526V-23.5H325.505V-24H330.494V-23.5H340.473V-24H345.462V-23.5H355.44V-24H360.43V-23.5H370.408V-24H375.397V-23.5H385.376V-24H390.365V-23.5H400.344V-24H405.333V-23.5H415.312V-24H420.301V-23.5H430.279V-24H435.269V-23.5H445.247V-24H450.236V-23.5H460.215V-24H465.204V-23.5H475.183V-24H480.172V-23.5H490.15V-24H495.14V-23.5H505.118V-24H510.107V-23.5H520.086V-24H525.075V-23.5H535.054V-24H540.043V-23.5H550.021V-24H555.011V-23.5H564.989V-24H569.979V-23.5H579.957V-24H584.946V-23.5H594.925V-24H599.914V-23.5H609.893V-24H614.882V-23.5H624.86V-24H629.85V-23.5H639.828V-24H644.817V-23.5H654.796V-24H659.785V-23.5H669.764V-24H674.753V-23.5H684.731V-24H689.721V-23.5H699.699V-24H704.688V-23.5H714.667V-24H719.656V-23.5H729.635V-24H734.624V-23.5H744.603V-24H749.592V-23.5H759.57V-24H764.56V-23.5H774.538V-24H779.527V-23.5H789.506V-24H794.494V-23.5H804.473V-24H809.462V-23.5H819.44V-24H824.43V-23.5H834.408V-24H839.397V-23.5H849.376V-24H854.365V-23.5H864.344V-24H869.333V-23.5H879.312V-24H884.301V-23.5H894.279V-24H899.269V-23.5H909.247V-24H914.236V-23.5H924.215V-24H929.204V-23.5H939.183V-24H944.172V-23.5H954.15V-24H959.14V-23.5H969.118V-24H974.107V-23.5H984.086V-24H989.075V-23.5H999.054V-24H1004.04V-23.5H1014.02V-24H1019.01V-23.5H1024C1025.39 -23.5 1026.76 -23.3787 1028.08 -23.1465L1028.17 -23.6387C1029.56 -23.3949 1030.91 -23.0312 1032.21 -22.5586L1032.04 -22.0889C1034.64 -21.1423 1037.03 -19.7496 1039.11 -18.0029L1039.43 -18.3848C1040.5 -17.4863 1041.49 -16.4964 1042.38 -15.4268L1042 -15.1055C1043.75 -13.026 1045.14 -10.64 1046.09 -8.04004L1046.56 -8.21094Z" stroke="#8A38F5" stroke-dasharray="10 5"/>
<g id="Name=&#208;&#167;&#208;&#181;&#208;&#186;&#208;&#187;&#208;&#184;&#209;&#129;&#209;&#130;">
<g id="Group 2087326352">
<rect id="Rectangle 1005499" x="17.583" y="15.2422" width="28.6838" height="9.36613" fill="#6600BA"/>
<rect id="Rectangle 1005498" x="10.5601" y="19.9258" width="42.733" height="57.9529" fill="#FFDF75"/>
<rect id="Rectangle 1005500" x="23.438" y="10.5605" width="16.9761" height="5.85383" fill="#6600BA"/>
<g id="Intersect" filter="url(#filter0_f_6227_5096)">
<path d="M46.272 24.6094H17.5884V19.9258H46.272V24.6094Z" fill="#6600BA"/>
</g>
<rect id="Rectangle 1005503" x="14.6567" y="32.2188" width="8.78075" height="8.78075" fill="#2DA771"/>
<rect id="Rectangle 1005506" x="27.5361" y="32.2188" width="21.0738" height="8.78075" fill="#E7C1FF"/>
<rect id="Rectangle 1005504" x="14.6567" y="45.0977" width="8.78075" height="8.78075" fill="#2DA771"/>
<rect id="Rectangle 1005507" x="27.5361" y="45.0977" width="21.0738" height="8.78075" fill="#E7C1FF"/>
<rect id="Rectangle 1005505" x="14.6567" y="57.9766" width="8.78075" height="8.78075" fill="#2DA771"/>
<rect id="Rectangle 1005508" x="27.5361" y="57.9766" width="21.0738" height="8.78075" fill="#E7C1FF"/>
<circle id="Ellipse 146" cx="60.6111" cy="60.6106" r="17.2688" fill="#2DA771"/>
<g id="Vector 81" filter="url(#filter1_f_6227_5096)">
<path d="M52.7095 56.5123L59.2996 67.9273L69.1002 50.9512" stroke="#FFDF75" stroke-width="6.08695" stroke-linejoin="bevel"/>
</g>
</g>
</g>
</g>
<defs>
<filter id="filter0_f_6227_5096" x="15.1536" y="17.491" width="33.5532" height="9.55315" filterUnits="userSpaceOnUse" color-interpolation-filters="sRGB">
<feFlood flood-opacity="0" result="BackgroundImageFix"/>
<feBlend mode="normal" in="SourceGraphic" in2="BackgroundImageFix" result="shape"/>
<feGaussianBlur stdDeviation="1.21739" result="effect1_foregroundBlur_6227_5096"/>
</filter>
<filter id="filter1_f_6227_5096" x="48.2476" y="47.6036" width="25.3143" height="23.6717" filterUnits="userSpaceOnUse" color-interpolation-filters="sRGB">
<feFlood flood-opacity="0" result="BackgroundImageFix"/>
<feBlend mode="normal" in="SourceGraphic" in2="BackgroundImageFix" result="shape"/>
<feGaussianBlur stdDeviation="0.913043" result="effect1_foregroundBlur_6227_5096"/>
</filter>
</defs>
</svg>
