<svg width="88" height="88" viewBox="0 0 88 88" fill="none" xmlns="http://www.w3.org/2000/svg">
<rect width="88" height="88" fill="#545454"/>
<g id="Small Image">
<path d="M734.558 -8.21094C735.03 -6.91254 735.394 -5.56192 735.638 -4.16992L735.146 -4.08301C735.379 -2.75727 735.5 -1.393 735.5 0V4.88867H736V9.77734H735.5V19.5557H736V24.4443H735.5V34.2227H736V39.1113H735.5V48.8887H736V53.7773H735.5V63.5557H736V68.4443H735.5V78.2227H736V83.1113H735.5V88C735.5 89.393 735.379 90.7573 735.146 92.083L735.638 92.1689C735.394 93.561 735.03 94.9115 734.558 96.21L734.089 96.04C733.142 98.64 731.75 101.026 730.003 103.105L730.384 103.426C729.485 104.495 728.495 105.485 727.426 106.384L727.105 106.003C725.026 107.75 722.64 109.142 720.04 110.089L720.21 110.558C718.912 111.03 717.561 111.394 716.169 111.638L716.083 111.146C714.757 111.379 713.393 111.5 712 111.5H707.014V112H702.024V111.5H692.046V112H687.057V111.5H677.078V112H672.089V111.5H662.11V112H657.121V111.5H647.143V112H642.153V111.5H632.175V112H627.186V111.5H617.207V112H612.218V111.5H602.239V112H597.25V111.5H587.271V112H582.282V111.5H572.304V112H567.314V111.5H557.336V112H552.347V111.5H542.368V112H537.379V111.5H527.4V112H522.411V111.5H512.433V112H507.443V111.5H497.465V112H492.476V111.5H482.497V112H477.508V111.5H467.529V112H462.54V111.5H452.562V112H447.572V111.5H437.594V112H432.604V111.5H422.626V112H417.637V111.5H407.658V112H402.669V111.5H392.69V112H387.701V111.5H377.723V112H372.733V111.5H362.755V112H357.766V111.5H347.787V112H342.798V111.5H332.819V112H327.83V111.5H317.852V112H312.862V111.5H302.884V112H297.895V111.5H287.916V112H282.927V111.5H272.948V112H267.959V111.5H257.98V112H252.991V111.5H243.013V112H238.023V111.5H228.045V112H223.056V111.5H213.077V112H208.088V111.5H198.109V112H193.12V111.5H183.142V112H178.152V111.5H168.174V112H163.185V111.5H153.206V112H148.217V111.5H138.238V112H133.249V111.5H123.271V112H118.281V111.5H108.303V112H103.313V111.5H93.335V112H88.3457V111.5H78.3672V112H73.3779V111.5H63.3994V112H58.4102V111.5H48.4316V112H43.4424V111.5H33.4639V112H28.4746V111.5H18.4961V112H13.5068V111.5H3.52832V112H-1.46094V111.5H-11.4395V112H-16.4287V111.5H-26.4072V112H-31.3965V111.5H-41.375V112H-46.3643V111.5H-56.3428V112H-61.332V111.5H-71.3105V112H-76.2998V111.5H-86.2783V112H-91.2676V111.5H-101.246V112H-106.235V111.5H-116.214V112H-121.203V111.5H-131.182V112H-136.171V111.5H-146.149V112H-151.139V111.5H-161.117V112H-166.106V111.5H-176.085V112H-181.074V111.5H-191.053V112H-196.042V111.5H-206.021V112H-211.01V111.5H-220.988V112H-225.978V111.5H-235.956V112H-240.945V111.5H-250.924V112H-255.913V111.5H-265.892V112H-270.881V111.5H-280.859V112H-285.849V111.5H-295.827V112H-300.816V111.5H-310.795V112H-315.784V111.5H-325.763V112H-330.752V111.5H-340.73V112H-345.72V111.5H-355.698V112H-360.688V111.5H-370.666V112H-375.655V111.5H-385.634V112H-390.623V111.5H-400.602V112H-405.591V111.5H-415.569V112H-420.559V111.5H-430.537V112H-435.526V111.5H-445.505V112H-450.494V111.5H-460.473V112H-465.462V111.5H-475.44V112H-480.43V111.5H-490.408V112H-495.397V111.5H-505.376V112H-510.365V111.5H-520.344V112H-525.333V111.5H-535.312V112H-540.301V111.5H-550.279V112H-555.269V111.5H-565.247V112H-570.236V111.5H-580.215V112H-585.204V111.5H-595.183V112H-600.172V111.5H-610.15V112H-615.14V111.5H-625.118V112H-630.107V111.5H-640.086V112H-645.075V111.5H-655.054V112H-660.043V111.5H-670.021V112H-675.011V111.5H-684.989V112H-689.979V111.5H-699.957V112H-704.946V111.5H-714.925V112H-719.914V111.5H-729.893V112H-734.882V111.5H-744.86V112H-749.85V111.5H-759.828V112H-764.817V111.5H-774.796V112H-779.785V111.5H-789.764V112H-794.753V111.5H-804.731V112H-809.721V111.5H-819.699V112H-824.688V111.5H-834.667V112H-839.656V111.5H-849.635V112H-854.624V111.5H-864.603V112H-869.592V111.5H-879.57V112H-884.56V111.5H-894.537V112H-899.526V111.5H-909.505V112H-914.494V111.5H-924.473V112H-929.462V111.5H-939.44V112H-944.43V111.5H-954.408V112H-959.397V111.5H-969.376V112H-974.365V111.5H-984.344V112H-989.333V111.5H-999.312V112H-1004.3V111.5H-1014.28V112H-1019.27V111.5H-1029.25V112H-1034.24V111.5H-1044.21V112H-1049.2V111.5H-1059.18V112H-1064.17V111.5H-1074.15V112H-1079.14V111.5H-1089.12V112H-1094.11V111.5H-1104.09V112H-1109.08V111.5H-1119.05V112H-1124.04V111.5H-1134.02V112H-1139.01V111.5H-1144C-1145.39 111.5 -1146.76 111.379 -1148.08 111.146L-1148.17 111.638C-1149.56 111.394 -1150.91 111.03 -1152.21 110.558L-1152.04 110.089C-1154.64 109.142 -1157.03 107.75 -1159.11 106.003L-1159.43 106.384C-1160.5 105.485 -1161.49 104.495 -1162.38 103.426L-1162 103.105C-1163.75 101.026 -1165.14 98.64 -1166.09 96.04L-1166.56 96.21C-1167.03 94.9116 -1167.39 93.5609 -1167.64 92.1689L-1167.15 92.083C-1167.38 90.7573 -1167.5 89.393 -1167.5 88V83.1113H-1168V78.2227H-1167.5V68.4443H-1168V63.5557H-1167.5V53.7773H-1168V48.8887H-1167.5V39.1113H-1168V34.2227H-1167.5V24.4443H-1168V19.5557H-1167.5V9.77734H-1168V4.88867H-1167.5V0C-1167.5 -1.393 -1167.38 -2.75727 -1167.15 -4.08301L-1167.64 -4.16992C-1167.43 -5.37923 -1167.12 -6.5575 -1166.74 -7.69727L-1166.56 -8.21094L-1166.09 -8.04004C-1165.14 -10.64 -1163.75 -13.026 -1162 -15.1055L-1162.38 -15.4268C-1161.49 -16.4964 -1160.5 -17.4863 -1159.43 -18.3848L-1159.11 -18.0029C-1157.03 -19.7496 -1154.64 -21.1423 -1152.04 -22.0889L-1152.21 -22.5586C-1150.91 -23.0313 -1149.56 -23.3948 -1148.17 -23.6387L-1148.08 -23.1465C-1146.76 -23.3787 -1145.39 -23.5 -1144 -23.5H-1139.01V-24H-1134.02V-23.5H-1124.05V-24H-1119.06V-23.5H-1109.08V-24H-1104.09V-23.5H-1094.11V-24H-1089.12V-23.5H-1079.14V-24H-1074.15V-23.5H-1064.17V-24H-1059.19V-23.5H-1049.21V-24H-1044.22V-23.5H-1034.24V-24H-1029.25V-23.5H-1019.27V-24H-1014.28V-23.5H-1004.3V-24H-999.314V-23.5H-989.336V-24H-984.347V-23.5H-974.368V-24H-969.379V-23.5H-959.4V-24H-954.411V-23.5H-944.433V-24H-939.443V-23.5H-929.465V-24H-924.476V-23.5H-914.497V-24H-909.508V-23.5H-899.529V-24H-894.54V-23.5H-884.562V-24H-879.572V-23.5H-869.594V-24H-864.604V-23.5H-854.626V-24H-849.637V-23.5H-839.658V-24H-834.669V-23.5H-824.69V-24H-819.701V-23.5H-809.723V-24H-804.733V-23.5H-794.755V-24H-789.766V-23.5H-779.787V-24H-774.798V-23.5H-764.819V-24H-759.83V-23.5H-749.852V-24H-744.862V-23.5H-734.884V-24H-729.895V-23.5H-719.916V-24H-714.927V-23.5H-704.948V-24H-699.959V-23.5H-689.98V-24H-684.991V-23.5H-675.013V-24H-670.023V-23.5H-660.045V-24H-655.056V-23.5H-645.077V-24H-640.088V-23.5H-630.109V-24H-625.12V-23.5H-615.142V-24H-610.152V-23.5H-600.174V-24H-595.185V-23.5H-585.206V-24H-580.217V-23.5H-570.238V-24H-565.249V-23.5H-555.271V-24H-550.281V-23.5H-540.303V-24H-535.313V-23.5H-525.335V-24H-520.346V-23.5H-510.367V-24H-505.378V-23.5H-495.399V-24H-490.41V-23.5H-480.432V-24H-475.442V-23.5H-465.464V-24H-460.475V-23.5H-450.496V-24H-445.507V-23.5H-435.528V-24H-430.539V-23.5H-420.561V-24H-415.571V-23.5H-405.593V-24H-400.604V-23.5H-390.625V-24H-385.636V-23.5H-375.657V-24H-370.668V-23.5H-360.689V-24H-355.7V-23.5H-345.722V-24H-340.732V-23.5H-330.754V-24H-325.765V-23.5H-315.786V-24H-310.797V-23.5H-300.818V-24H-295.829V-23.5H-285.851V-24H-280.861V-23.5H-270.883V-24H-265.894V-23.5H-255.915V-24H-250.926V-23.5H-240.947V-24H-235.958V-23.5H-225.979V-24H-220.99V-23.5H-211.012V-24H-206.022V-23.5H-196.044V-24H-191.055V-23.5H-181.076V-24H-176.087V-23.5H-166.108V-24H-161.119V-23.5H-151.141V-24H-146.151V-23.5H-136.173V-24H-131.184V-23.5H-121.205V-24H-116.216V-23.5H-106.237V-24H-101.248V-23.5H-91.2695V-24H-86.2803V-23.5H-76.3018V-24H-71.3125V-23.5H-61.334V-24H-56.3447V-23.5H-46.3662V-24H-41.377V-23.5H-31.3984V-24H-26.4092V-23.5H-16.4307V-24H-11.4414V-23.5H-1.46289V-24H3.52637V-23.5H13.5049V-24H18.4941V-23.5H28.4727V-24H33.4619V-23.5H43.4404V-24H48.4297V-23.5H58.4082V-24H63.3975V-23.5H73.376V-24H78.3652V-23.5H88.3438V-24H93.333V-23.5H103.312V-24H108.301V-23.5H118.279V-24H123.269V-23.5H133.247V-24H138.236V-23.5H148.215V-24H153.204V-23.5H163.183V-24H168.172V-23.5H178.15V-24H183.14V-23.5H193.118V-24H198.107V-23.5H208.086V-24H213.075V-23.5H223.054V-24H228.043V-23.5H238.021V-24H243.011V-23.5H252.989V-24H257.979V-23.5H267.957V-24H272.946V-23.5H282.925V-24H287.914V-23.5H297.893V-24H302.882V-23.5H312.86V-24H317.85V-23.5H327.828V-24H332.817V-23.5H342.796V-24H347.785V-23.5H357.764V-24H362.753V-23.5H372.731V-24H377.721V-23.5H387.699V-24H392.688V-23.5H402.667V-24H407.656V-23.5H417.635V-24H422.624V-23.5H432.603V-24H437.592V-23.5H447.57V-24H452.56V-23.5H462.538V-24H467.527V-23.5H477.506V-24H482.494V-23.5H492.473V-24H497.462V-23.5H507.44V-24H512.43V-23.5H522.408V-24H527.397V-23.5H537.376V-24H542.365V-23.5H552.344V-24H557.333V-23.5H567.312V-24H572.301V-23.5H582.279V-24H587.269V-23.5H597.247V-24H602.236V-23.5H612.215V-24H617.204V-23.5H627.183V-24H632.172V-23.5H642.15V-24H647.14V-23.5H657.118V-24H662.107V-23.5H672.086V-24H677.075V-23.5H687.054V-24H692.043V-23.5H702.021V-24H707.011V-23.5H712C713.393 -23.5 714.757 -23.3787 716.083 -23.1465L716.169 -23.6387C717.561 -23.3949 718.912 -23.0312 720.21 -22.5586L720.04 -22.0889C722.64 -21.1423 725.026 -19.7496 727.105 -18.0029L727.426 -18.3848C728.495 -17.4863 729.485 -16.4964 730.384 -15.4268L730.003 -15.1055C731.75 -13.026 733.142 -10.64 734.089 -8.04004L734.558 -8.21094Z" fill="white"/>
<path d="M734.558 -8.21094C735.03 -6.91254 735.394 -5.56192 735.638 -4.16992L735.146 -4.08301C735.379 -2.75727 735.5 -1.393 735.5 0V4.88867H736V9.77734H735.5V19.5557H736V24.4443H735.5V34.2227H736V39.1113H735.5V48.8887H736V53.7773H735.5V63.5557H736V68.4443H735.5V78.2227H736V83.1113H735.5V88C735.5 89.393 735.379 90.7573 735.146 92.083L735.638 92.1689C735.394 93.561 735.03 94.9115 734.558 96.21L734.089 96.04C733.142 98.64 731.75 101.026 730.003 103.105L730.384 103.426C729.485 104.495 728.495 105.485 727.426 106.384L727.105 106.003C725.026 107.75 722.64 109.142 720.04 110.089L720.21 110.558C718.912 111.03 717.561 111.394 716.169 111.638L716.083 111.146C714.757 111.379 713.393 111.5 712 111.5H707.014V112H702.024V111.5H692.046V112H687.057V111.5H677.078V112H672.089V111.5H662.11V112H657.121V111.5H647.143V112H642.153V111.5H632.175V112H627.186V111.5H617.207V112H612.218V111.5H602.239V112H597.25V111.5H587.271V112H582.282V111.5H572.304V112H567.314V111.5H557.336V112H552.347V111.5H542.368V112H537.379V111.5H527.4V112H522.411V111.5H512.433V112H507.443V111.5H497.465V112H492.476V111.5H482.497V112H477.508V111.5H467.529V112H462.54V111.5H452.562V112H447.572V111.5H437.594V112H432.604V111.5H422.626V112H417.637V111.5H407.658V112H402.669V111.5H392.69V112H387.701V111.5H377.723V112H372.733V111.5H362.755V112H357.766V111.5H347.787V112H342.798V111.5H332.819V112H327.83V111.5H317.852V112H312.862V111.5H302.884V112H297.895V111.5H287.916V112H282.927V111.5H272.948V112H267.959V111.5H257.98V112H252.991V111.5H243.013V112H238.023V111.5H228.045V112H223.056V111.5H213.077V112H208.088V111.5H198.109V112H193.12V111.5H183.142V112H178.152V111.5H168.174V112H163.185V111.5H153.206V112H148.217V111.5H138.238V112H133.249V111.5H123.271V112H118.281V111.5H108.303V112H103.313V111.5H93.335V112H88.3457V111.5H78.3672V112H73.3779V111.5H63.3994V112H58.4102V111.5H48.4316V112H43.4424V111.5H33.4639V112H28.4746V111.5H18.4961V112H13.5068V111.5H3.52832V112H-1.46094V111.5H-11.4395V112H-16.4287V111.5H-26.4072V112H-31.3965V111.5H-41.375V112H-46.3643V111.5H-56.3428V112H-61.332V111.5H-71.3105V112H-76.2998V111.5H-86.2783V112H-91.2676V111.5H-101.246V112H-106.235V111.5H-116.214V112H-121.203V111.5H-131.182V112H-136.171V111.5H-146.149V112H-151.139V111.5H-161.117V112H-166.106V111.5H-176.085V112H-181.074V111.5H-191.053V112H-196.042V111.5H-206.021V112H-211.01V111.5H-220.988V112H-225.978V111.5H-235.956V112H-240.945V111.5H-250.924V112H-255.913V111.5H-265.892V112H-270.881V111.5H-280.859V112H-285.849V111.5H-295.827V112H-300.816V111.5H-310.795V112H-315.784V111.5H-325.763V112H-330.752V111.5H-340.73V112H-345.72V111.5H-355.698V112H-360.688V111.5H-370.666V112H-375.655V111.5H-385.634V112H-390.623V111.5H-400.602V112H-405.591V111.5H-415.569V112H-420.559V111.5H-430.537V112H-435.526V111.5H-445.505V112H-450.494V111.5H-460.473V112H-465.462V111.5H-475.44V112H-480.43V111.5H-490.408V112H-495.397V111.5H-505.376V112H-510.365V111.5H-520.344V112H-525.333V111.5H-535.312V112H-540.301V111.5H-550.279V112H-555.269V111.5H-565.247V112H-570.236V111.5H-580.215V112H-585.204V111.5H-595.183V112H-600.172V111.5H-610.15V112H-615.14V111.5H-625.118V112H-630.107V111.5H-640.086V112H-645.075V111.5H-655.054V112H-660.043V111.5H-670.021V112H-675.011V111.5H-684.989V112H-689.979V111.5H-699.957V112H-704.946V111.5H-714.925V112H-719.914V111.5H-729.893V112H-734.882V111.5H-744.86V112H-749.85V111.5H-759.828V112H-764.817V111.5H-774.796V112H-779.785V111.5H-789.764V112H-794.753V111.5H-804.731V112H-809.721V111.5H-819.699V112H-824.688V111.5H-834.667V112H-839.656V111.5H-849.635V112H-854.624V111.5H-864.603V112H-869.592V111.5H-879.57V112H-884.56V111.5H-894.537V112H-899.526V111.5H-909.505V112H-914.494V111.5H-924.473V112H-929.462V111.5H-939.44V112H-944.43V111.5H-954.408V112H-959.397V111.5H-969.376V112H-974.365V111.5H-984.344V112H-989.333V111.5H-999.312V112H-1004.3V111.5H-1014.28V112H-1019.27V111.5H-1029.25V112H-1034.24V111.5H-1044.21V112H-1049.2V111.5H-1059.18V112H-1064.17V111.5H-1074.15V112H-1079.14V111.5H-1089.12V112H-1094.11V111.5H-1104.09V112H-1109.08V111.5H-1119.05V112H-1124.04V111.5H-1134.02V112H-1139.01V111.5H-1144C-1145.39 111.5 -1146.76 111.379 -1148.08 111.146L-1148.17 111.638C-1149.56 111.394 -1150.91 111.03 -1152.21 110.558L-1152.04 110.089C-1154.64 109.142 -1157.03 107.75 -1159.11 106.003L-1159.43 106.384C-1160.5 105.485 -1161.49 104.495 -1162.38 103.426L-1162 103.105C-1163.75 101.026 -1165.14 98.64 -1166.09 96.04L-1166.56 96.21C-1167.03 94.9116 -1167.39 93.5609 -1167.64 92.1689L-1167.15 92.083C-1167.38 90.7573 -1167.5 89.393 -1167.5 88V83.1113H-1168V78.2227H-1167.5V68.4443H-1168V63.5557H-1167.5V53.7773H-1168V48.8887H-1167.5V39.1113H-1168V34.2227H-1167.5V24.4443H-1168V19.5557H-1167.5V9.77734H-1168V4.88867H-1167.5V0C-1167.5 -1.393 -1167.38 -2.75727 -1167.15 -4.08301L-1167.64 -4.16992C-1167.43 -5.37923 -1167.12 -6.5575 -1166.74 -7.69727L-1166.56 -8.21094L-1166.09 -8.04004C-1165.14 -10.64 -1163.75 -13.026 -1162 -15.1055L-1162.38 -15.4268C-1161.49 -16.4964 -1160.5 -17.4863 -1159.43 -18.3848L-1159.11 -18.0029C-1157.03 -19.7496 -1154.64 -21.1423 -1152.04 -22.0889L-1152.21 -22.5586C-1150.91 -23.0313 -1149.56 -23.3948 -1148.17 -23.6387L-1148.08 -23.1465C-1146.76 -23.3787 -1145.39 -23.5 -1144 -23.5H-1139.01V-24H-1134.02V-23.5H-1124.05V-24H-1119.06V-23.5H-1109.08V-24H-1104.09V-23.5H-1094.11V-24H-1089.12V-23.5H-1079.14V-24H-1074.15V-23.5H-1064.17V-24H-1059.19V-23.5H-1049.21V-24H-1044.22V-23.5H-1034.24V-24H-1029.25V-23.5H-1019.27V-24H-1014.28V-23.5H-1004.3V-24H-999.314V-23.5H-989.336V-24H-984.347V-23.5H-974.368V-24H-969.379V-23.5H-959.4V-24H-954.411V-23.5H-944.433V-24H-939.443V-23.5H-929.465V-24H-924.476V-23.5H-914.497V-24H-909.508V-23.5H-899.529V-24H-894.54V-23.5H-884.562V-24H-879.572V-23.5H-869.594V-24H-864.604V-23.5H-854.626V-24H-849.637V-23.5H-839.658V-24H-834.669V-23.5H-824.69V-24H-819.701V-23.5H-809.723V-24H-804.733V-23.5H-794.755V-24H-789.766V-23.5H-779.787V-24H-774.798V-23.5H-764.819V-24H-759.83V-23.5H-749.852V-24H-744.862V-23.5H-734.884V-24H-729.895V-23.5H-719.916V-24H-714.927V-23.5H-704.948V-24H-699.959V-23.5H-689.98V-24H-684.991V-23.5H-675.013V-24H-670.023V-23.5H-660.045V-24H-655.056V-23.5H-645.077V-24H-640.088V-23.5H-630.109V-24H-625.12V-23.5H-615.142V-24H-610.152V-23.5H-600.174V-24H-595.185V-23.5H-585.206V-24H-580.217V-23.5H-570.238V-24H-565.249V-23.5H-555.271V-24H-550.281V-23.5H-540.303V-24H-535.313V-23.5H-525.335V-24H-520.346V-23.5H-510.367V-24H-505.378V-23.5H-495.399V-24H-490.41V-23.5H-480.432V-24H-475.442V-23.5H-465.464V-24H-460.475V-23.5H-450.496V-24H-445.507V-23.5H-435.528V-24H-430.539V-23.5H-420.561V-24H-415.571V-23.5H-405.593V-24H-400.604V-23.5H-390.625V-24H-385.636V-23.5H-375.657V-24H-370.668V-23.5H-360.689V-24H-355.7V-23.5H-345.722V-24H-340.732V-23.5H-330.754V-24H-325.765V-23.5H-315.786V-24H-310.797V-23.5H-300.818V-24H-295.829V-23.5H-285.851V-24H-280.861V-23.5H-270.883V-24H-265.894V-23.5H-255.915V-24H-250.926V-23.5H-240.947V-24H-235.958V-23.5H-225.979V-24H-220.99V-23.5H-211.012V-24H-206.022V-23.5H-196.044V-24H-191.055V-23.5H-181.076V-24H-176.087V-23.5H-166.108V-24H-161.119V-23.5H-151.141V-24H-146.151V-23.5H-136.173V-24H-131.184V-23.5H-121.205V-24H-116.216V-23.5H-106.237V-24H-101.248V-23.5H-91.2695V-24H-86.2803V-23.5H-76.3018V-24H-71.3125V-23.5H-61.334V-24H-56.3447V-23.5H-46.3662V-24H-41.377V-23.5H-31.3984V-24H-26.4092V-23.5H-16.4307V-24H-11.4414V-23.5H-1.46289V-24H3.52637V-23.5H13.5049V-24H18.4941V-23.5H28.4727V-24H33.4619V-23.5H43.4404V-24H48.4297V-23.5H58.4082V-24H63.3975V-23.5H73.376V-24H78.3652V-23.5H88.3438V-24H93.333V-23.5H103.312V-24H108.301V-23.5H118.279V-24H123.269V-23.5H133.247V-24H138.236V-23.5H148.215V-24H153.204V-23.5H163.183V-24H168.172V-23.5H178.15V-24H183.14V-23.5H193.118V-24H198.107V-23.5H208.086V-24H213.075V-23.5H223.054V-24H228.043V-23.5H238.021V-24H243.011V-23.5H252.989V-24H257.979V-23.5H267.957V-24H272.946V-23.5H282.925V-24H287.914V-23.5H297.893V-24H302.882V-23.5H312.86V-24H317.85V-23.5H327.828V-24H332.817V-23.5H342.796V-24H347.785V-23.5H357.764V-24H362.753V-23.5H372.731V-24H377.721V-23.5H387.699V-24H392.688V-23.5H402.667V-24H407.656V-23.5H417.635V-24H422.624V-23.5H432.603V-24H437.592V-23.5H447.57V-24H452.56V-23.5H462.538V-24H467.527V-23.5H477.506V-24H482.494V-23.5H492.473V-24H497.462V-23.5H507.44V-24H512.43V-23.5H522.408V-24H527.397V-23.5H537.376V-24H542.365V-23.5H552.344V-24H557.333V-23.5H567.312V-24H572.301V-23.5H582.279V-24H587.269V-23.5H597.247V-24H602.236V-23.5H612.215V-24H617.204V-23.5H627.183V-24H632.172V-23.5H642.15V-24H647.14V-23.5H657.118V-24H662.107V-23.5H672.086V-24H677.075V-23.5H687.054V-24H692.043V-23.5H702.021V-24H707.011V-23.5H712C713.393 -23.5 714.757 -23.3787 716.083 -23.1465L716.169 -23.6387C717.561 -23.3949 718.912 -23.0312 720.21 -22.5586L720.04 -22.0889C722.64 -21.1423 725.026 -19.7496 727.105 -18.0029L727.426 -18.3848C728.495 -17.4863 729.485 -16.4964 730.384 -15.4268L730.003 -15.1055C731.75 -13.026 733.142 -10.64 734.089 -8.04004L734.558 -8.21094Z" stroke="#8A38F5" stroke-dasharray="10 5"/>
<g id="Name=&#208;&#147;&#208;&#176;&#208;&#187;&#208;&#186;&#208;&#176;">
<g id="Vector 43 (Stroke)" filter="url(#filter0_f_6227_5096)">
<path d="M72.1807 13.4568L44.1199 78.3165L34.4544 78.332L16.7407 37.7526L26.3995 33.5168L39.2618 62.9832L62.5087 9.25195L72.1807 13.4568Z" fill="#EB7D38"/>
</g>
</g>
</g>
<defs>
<filter id="filter0_f_6227_5096" x="15.0618" y="7.57305" width="58.7977" height="72.4379" filterUnits="userSpaceOnUse" color-interpolation-filters="sRGB">
<feFlood flood-opacity="0" result="BackgroundImageFix"/>
<feBlend mode="normal" in="SourceGraphic" in2="BackgroundImageFix" result="shape"/>
<feGaussianBlur stdDeviation="0" result="effect1_foregroundBlur_6227_5096"/>
</filter>
</defs>
</svg>
