<svg width="88" height="88" viewBox="0 0 88 88" fill="none" xmlns="http://www.w3.org/2000/svg">
<rect width="88" height="88" fill="#545454"/>
<g id="Small Image">
<path d="M838.558 -8.21094C839.03 -6.91254 839.394 -5.56192 839.638 -4.16992L839.146 -4.08301C839.379 -2.75727 839.5 -1.393 839.5 0V4.88867H840V9.77734H839.5V19.5557H840V24.4443H839.5V34.2227H840V39.1113H839.5V48.8887H840V53.7773H839.5V63.5557H840V68.4443H839.5V78.2227H840V83.1113H839.5V88C839.5 89.393 839.379 90.7573 839.146 92.083L839.638 92.1689C839.394 93.561 839.03 94.9115 838.558 96.21L838.089 96.04C837.142 98.64 835.75 101.026 834.003 103.105L834.384 103.426C833.485 104.495 832.495 105.485 831.426 106.384L831.105 106.003C829.026 107.75 826.64 109.142 824.04 110.089L824.21 110.558C822.912 111.03 821.561 111.394 820.169 111.638L820.083 111.146C818.757 111.379 817.393 111.5 816 111.5H811.014V112H806.024V111.5H796.046V112H791.057V111.5H781.078V112H776.089V111.5H766.11V112H761.121V111.5H751.143V112H746.153V111.5H736.175V112H731.186V111.5H721.207V112H716.218V111.5H706.239V112H701.25V111.5H691.271V112H686.282V111.5H676.304V112H671.314V111.5H661.336V112H656.347V111.5H646.368V112H641.379V111.5H631.4V112H626.411V111.5H616.433V112H611.443V111.5H601.465V112H596.476V111.5H586.497V112H581.508V111.5H571.529V112H566.54V111.5H556.562V112H551.572V111.5H541.594V112H536.604V111.5H526.626V112H521.637V111.5H511.658V112H506.669V111.5H496.69V112H491.701V111.5H481.723V112H476.733V111.5H466.755V112H461.766V111.5H451.787V112H446.798V111.5H436.819V112H431.83V111.5H421.852V112H416.862V111.5H406.884V112H401.895V111.5H391.916V112H386.927V111.5H376.948V112H371.959V111.5H361.98V112H356.991V111.5H347.013V112H342.023V111.5H332.045V112H327.056V111.5H317.077V112H312.088V111.5H302.109V112H297.12V111.5H287.142V112H282.152V111.5H272.174V112H267.185V111.5H257.206V112H252.217V111.5H242.238V112H237.249V111.5H227.271V112H222.281V111.5H212.303V112H207.313V111.5H197.335V112H192.346V111.5H182.367V112H177.378V111.5H167.399V112H162.41V111.5H152.432V112H147.442V111.5H137.464V112H132.475V111.5H122.496V112H117.507V111.5H107.528V112H102.539V111.5H92.5605V112H87.5713V111.5H77.5928V112H72.6035V111.5H62.625V112H57.6357V111.5H47.6572V112H42.668V111.5H32.6895V112H27.7002V111.5H17.7217V112H12.7324V111.5H2.75391V112H-2.23535V111.5H-12.2139V112H-17.2031V111.5H-27.1816V112H-32.1709V111.5H-42.1494V112H-47.1387V111.5H-57.1172V112H-62.1064V111.5H-72.085V112H-77.0742V111.5H-87.0527V112H-92.042V111.5H-102.021V112H-107.01V111.5H-116.988V112H-121.978V111.5H-131.956V112H-136.945V111.5H-146.924V112H-151.913V111.5H-161.892V112H-166.881V111.5H-176.859V112H-181.849V111.5H-191.827V112H-196.816V111.5H-206.795V112H-211.784V111.5H-221.763V112H-226.752V111.5H-236.73V112H-241.72V111.5H-251.698V112H-256.688V111.5H-266.666V112H-271.655V111.5H-281.634V112H-286.623V111.5H-296.602V112H-301.591V111.5H-311.569V112H-316.559V111.5H-326.537V112H-331.526V111.5H-341.505V112H-346.494V111.5H-356.473V112H-361.462V111.5H-371.44V112H-376.43V111.5H-386.408V112H-391.397V111.5H-401.376V112H-406.365V111.5H-416.344V112H-421.333V111.5H-431.312V112H-436.301V111.5H-446.279V112H-451.269V111.5H-461.247V112H-466.236V111.5H-476.215V112H-481.204V111.5H-491.183V112H-496.172V111.5H-506.15V112H-511.14V111.5H-521.118V112H-526.107V111.5H-536.086V112H-541.075V111.5H-551.054V112H-556.043V111.5H-566.021V112H-571.011V111.5H-580.989V112H-585.979V111.5H-595.957V112H-600.946V111.5H-610.925V112H-615.914V111.5H-625.893V112H-630.882V111.5H-640.86V112H-645.85V111.5H-655.828V112H-660.817V111.5H-670.796V112H-675.785V111.5H-685.764V112H-690.753V111.5H-700.731V112H-705.721V111.5H-715.699V112H-720.688V111.5H-730.667V112H-735.656V111.5H-745.635V112H-750.624V111.5H-760.603V112H-765.592V111.5H-775.57V112H-780.56V111.5H-790.537V112H-795.526V111.5H-805.505V112H-810.494V111.5H-820.473V112H-825.462V111.5H-835.44V112H-840.43V111.5H-850.408V112H-855.397V111.5H-865.376V112H-870.365V111.5H-880.344V112H-885.333V111.5H-895.312V112H-900.301V111.5H-910.279V112H-915.269V111.5H-925.247V112H-930.236V111.5H-940.215V112H-945.204V111.5H-955.183V112H-960.172V111.5H-970.15V112H-975.14V111.5H-985.118V112H-990.107V111.5H-1000.09V112H-1005.08V111.5H-1015.05V112H-1020.04V111.5H-1030.02V112H-1035.01V111.5H-1040C-1041.39 111.5 -1042.76 111.379 -1044.08 111.146L-1044.17 111.638C-1045.56 111.394 -1046.91 111.03 -1048.21 110.558L-1048.04 110.089C-1050.64 109.142 -1053.03 107.75 -1055.11 106.003L-1055.43 106.384C-1056.5 105.485 -1057.49 104.495 -1058.38 103.426L-1058 103.105C-1059.75 101.026 -1061.14 98.64 -1062.09 96.04L-1062.56 96.21C-1063.03 94.9116 -1063.39 93.5609 -1063.64 92.1689L-1063.15 92.083C-1063.38 90.7573 -1063.5 89.393 -1063.5 88V83.1113H-1064V78.2227H-1063.5V68.4443H-1064V63.5557H-1063.5V53.7773H-1064V48.8887H-1063.5V39.1113H-1064V34.2227H-1063.5V24.4443H-1064V19.5557H-1063.5V9.77734H-1064V4.88867H-1063.5V0C-1063.5 -1.393 -1063.38 -2.75727 -1063.15 -4.08301L-1063.64 -4.16992C-1063.43 -5.37923 -1063.12 -6.5575 -1062.74 -7.69727L-1062.56 -8.21094L-1062.09 -8.04004C-1061.14 -10.64 -1059.75 -13.026 -1058 -15.1055L-1058.38 -15.4268C-1057.49 -16.4964 -1056.5 -17.4863 -1055.43 -18.3848L-1055.11 -18.0029C-1053.03 -19.7496 -1050.64 -21.1423 -1048.04 -22.0889L-1048.21 -22.5586C-1046.91 -23.0313 -1045.56 -23.3948 -1044.17 -23.6387L-1044.08 -23.1465C-1042.76 -23.3787 -1041.39 -23.5 -1040 -23.5H-1035.01V-24H-1030.02V-23.5H-1020.05V-24H-1015.06V-23.5H-1005.08V-24H-1000.09V-23.5H-990.11V-24H-985.121V-23.5H-975.143V-24H-970.153V-23.5H-960.175V-24H-955.186V-23.5H-945.207V-24H-940.218V-23.5H-930.239V-24H-925.25V-23.5H-915.271V-24H-910.282V-23.5H-900.304V-24H-895.314V-23.5H-885.336V-24H-880.347V-23.5H-870.368V-24H-865.379V-23.5H-855.4V-24H-850.411V-23.5H-840.433V-24H-835.443V-23.5H-825.465V-24H-820.476V-23.5H-810.497V-24H-805.508V-23.5H-795.529V-24H-790.54V-23.5H-780.562V-24H-775.572V-23.5H-765.594V-24H-760.604V-23.5H-750.626V-24H-745.637V-23.5H-735.658V-24H-730.669V-23.5H-720.69V-24H-715.701V-23.5H-705.723V-24H-700.733V-23.5H-690.755V-24H-685.766V-23.5H-675.787V-24H-670.798V-23.5H-660.819V-24H-655.83V-23.5H-645.852V-24H-640.862V-23.5H-630.884V-24H-625.895V-23.5H-615.916V-24H-610.927V-23.5H-600.948V-24H-595.959V-23.5H-585.98V-24H-580.991V-23.5H-571.013V-24H-566.023V-23.5H-556.045V-24H-551.056V-23.5H-541.077V-24H-536.088V-23.5H-526.109V-24H-521.12V-23.5H-511.142V-24H-506.152V-23.5H-496.174V-24H-491.185V-23.5H-481.206V-24H-476.217V-23.5H-466.238V-24H-461.249V-23.5H-451.271V-24H-446.281V-23.5H-436.303V-24H-431.313V-23.5H-421.335V-24H-416.346V-23.5H-406.367V-24H-401.378V-23.5H-391.399V-24H-386.41V-23.5H-376.432V-24H-371.442V-23.5H-361.464V-24H-356.475V-23.5H-346.496V-24H-341.507V-23.5H-331.528V-24H-326.539V-23.5H-316.561V-24H-311.571V-23.5H-301.593V-24H-296.604V-23.5H-286.625V-24H-281.636V-23.5H-271.657V-24H-266.668V-23.5H-256.689V-24H-251.7V-23.5H-241.722V-24H-236.732V-23.5H-226.754V-24H-221.765V-23.5H-211.786V-24H-206.797V-23.5H-196.818V-24H-191.829V-23.5H-181.851V-24H-176.861V-23.5H-166.883V-24H-161.894V-23.5H-151.915V-24H-146.926V-23.5H-136.947V-24H-131.958V-23.5H-121.979V-24H-116.99V-23.5H-107.012V-24H-102.022V-23.5H-92.0439V-24H-87.0547V-23.5H-77.0762V-24H-72.0869V-23.5H-62.1084V-24H-57.1191V-23.5H-47.1406V-24H-42.1514V-23.5H-32.1729V-24H-27.1836V-23.5H-17.2051V-24H-12.2158V-23.5H-2.2373V-24H2.75195V-23.5H12.7305V-24H17.7197V-23.5H27.6982V-24H32.6875V-23.5H42.666V-24H47.6553V-23.5H57.6338V-24H62.623V-23.5H72.6016V-24H77.5908V-23.5H87.5693V-24H92.5586V-23.5H102.537V-24H107.526V-23.5H117.505V-24H122.494V-23.5H132.473V-24H137.462V-23.5H147.44V-24H152.43V-23.5H162.408V-24H167.397V-23.5H177.376V-24H182.365V-23.5H192.344V-24H197.333V-23.5H207.312V-24H212.301V-23.5H222.279V-24H227.269V-23.5H237.247V-24H242.236V-23.5H252.215V-24H257.204V-23.5H267.183V-24H272.172V-23.5H282.15V-24H287.14V-23.5H297.118V-24H302.107V-23.5H312.086V-24H317.075V-23.5H327.054V-24H332.043V-23.5H342.021V-24H347.011V-23.5H356.989V-24H361.979V-23.5H371.957V-24H376.946V-23.5H386.925V-24H391.914V-23.5H401.893V-24H406.882V-23.5H416.86V-24H421.85V-23.5H431.828V-24H436.817V-23.5H446.796V-24H451.785V-23.5H461.764V-24H466.753V-23.5H476.731V-24H481.721V-23.5H491.699V-24H496.688V-23.5H506.667V-24H511.656V-23.5H521.635V-24H526.624V-23.5H536.603V-24H541.592V-23.5H551.57V-24H556.56V-23.5H566.538V-24H571.527V-23.5H581.506V-24H586.494V-23.5H596.473V-24H601.462V-23.5H611.44V-24H616.43V-23.5H626.408V-24H631.397V-23.5H641.376V-24H646.365V-23.5H656.344V-24H661.333V-23.5H671.312V-24H676.301V-23.5H686.279V-24H691.269V-23.5H701.247V-24H706.236V-23.5H716.215V-24H721.204V-23.5H731.183V-24H736.172V-23.5H746.15V-24H751.14V-23.5H761.118V-24H766.107V-23.5H776.086V-24H781.075V-23.5H791.054V-24H796.043V-23.5H806.021V-24H811.011V-23.5H816C817.393 -23.5 818.757 -23.3787 820.083 -23.1465L820.169 -23.6387C821.561 -23.3949 822.912 -23.0312 824.21 -22.5586L824.04 -22.0889C826.64 -21.1423 829.026 -19.7496 831.105 -18.0029L831.426 -18.3848C832.495 -17.4863 833.485 -16.4964 834.384 -15.4268L834.003 -15.1055C835.75 -13.026 837.142 -10.64 838.089 -8.04004L838.558 -8.21094Z" fill="white"/>
<path d="M838.558 -8.21094C839.03 -6.91254 839.394 -5.56192 839.638 -4.16992L839.146 -4.08301C839.379 -2.75727 839.5 -1.393 839.5 0V4.88867H840V9.77734H839.5V19.5557H840V24.4443H839.5V34.2227H840V39.1113H839.5V48.8887H840V53.7773H839.5V63.5557H840V68.4443H839.5V78.2227H840V83.1113H839.5V88C839.5 89.393 839.379 90.7573 839.146 92.083L839.638 92.1689C839.394 93.561 839.03 94.9115 838.558 96.21L838.089 96.04C837.142 98.64 835.75 101.026 834.003 103.105L834.384 103.426C833.485 104.495 832.495 105.485 831.426 106.384L831.105 106.003C829.026 107.75 826.64 109.142 824.04 110.089L824.21 110.558C822.912 111.03 821.561 111.394 820.169 111.638L820.083 111.146C818.757 111.379 817.393 111.5 816 111.5H811.014V112H806.024V111.5H796.046V112H791.057V111.5H781.078V112H776.089V111.5H766.11V112H761.121V111.5H751.143V112H746.153V111.5H736.175V112H731.186V111.5H721.207V112H716.218V111.5H706.239V112H701.25V111.5H691.271V112H686.282V111.5H676.304V112H671.314V111.5H661.336V112H656.347V111.5H646.368V112H641.379V111.5H631.4V112H626.411V111.5H616.433V112H611.443V111.5H601.465V112H596.476V111.5H586.497V112H581.508V111.5H571.529V112H566.54V111.5H556.562V112H551.572V111.5H541.594V112H536.604V111.5H526.626V112H521.637V111.5H511.658V112H506.669V111.5H496.69V112H491.701V111.5H481.723V112H476.733V111.5H466.755V112H461.766V111.5H451.787V112H446.798V111.5H436.819V112H431.83V111.5H421.852V112H416.862V111.5H406.884V112H401.895V111.5H391.916V112H386.927V111.5H376.948V112H371.959V111.5H361.98V112H356.991V111.5H347.013V112H342.023V111.5H332.045V112H327.056V111.5H317.077V112H312.088V111.5H302.109V112H297.12V111.5H287.142V112H282.152V111.5H272.174V112H267.185V111.5H257.206V112H252.217V111.5H242.238V112H237.249V111.5H227.271V112H222.281V111.5H212.303V112H207.313V111.5H197.335V112H192.346V111.5H182.367V112H177.378V111.5H167.399V112H162.41V111.5H152.432V112H147.442V111.5H137.464V112H132.475V111.5H122.496V112H117.507V111.5H107.528V112H102.539V111.5H92.5605V112H87.5713V111.5H77.5928V112H72.6035V111.5H62.625V112H57.6357V111.5H47.6572V112H42.668V111.5H32.6895V112H27.7002V111.5H17.7217V112H12.7324V111.5H2.75391V112H-2.23535V111.5H-12.2139V112H-17.2031V111.5H-27.1816V112H-32.1709V111.5H-42.1494V112H-47.1387V111.5H-57.1172V112H-62.1064V111.5H-72.085V112H-77.0742V111.5H-87.0527V112H-92.042V111.5H-102.021V112H-107.01V111.5H-116.988V112H-121.978V111.5H-131.956V112H-136.945V111.5H-146.924V112H-151.913V111.5H-161.892V112H-166.881V111.5H-176.859V112H-181.849V111.5H-191.827V112H-196.816V111.5H-206.795V112H-211.784V111.5H-221.763V112H-226.752V111.5H-236.73V112H-241.72V111.5H-251.698V112H-256.688V111.5H-266.666V112H-271.655V111.5H-281.634V112H-286.623V111.5H-296.602V112H-301.591V111.5H-311.569V112H-316.559V111.5H-326.537V112H-331.526V111.5H-341.505V112H-346.494V111.5H-356.473V112H-361.462V111.5H-371.44V112H-376.43V111.5H-386.408V112H-391.397V111.5H-401.376V112H-406.365V111.5H-416.344V112H-421.333V111.5H-431.312V112H-436.301V111.5H-446.279V112H-451.269V111.5H-461.247V112H-466.236V111.5H-476.215V112H-481.204V111.5H-491.183V112H-496.172V111.5H-506.15V112H-511.14V111.5H-521.118V112H-526.107V111.5H-536.086V112H-541.075V111.5H-551.054V112H-556.043V111.5H-566.021V112H-571.011V111.5H-580.989V112H-585.979V111.5H-595.957V112H-600.946V111.5H-610.925V112H-615.914V111.5H-625.893V112H-630.882V111.5H-640.86V112H-645.85V111.5H-655.828V112H-660.817V111.5H-670.796V112H-675.785V111.5H-685.764V112H-690.753V111.5H-700.731V112H-705.721V111.5H-715.699V112H-720.688V111.5H-730.667V112H-735.656V111.5H-745.635V112H-750.624V111.5H-760.603V112H-765.592V111.5H-775.57V112H-780.56V111.5H-790.537V112H-795.526V111.5H-805.505V112H-810.494V111.5H-820.473V112H-825.462V111.5H-835.44V112H-840.43V111.5H-850.408V112H-855.397V111.5H-865.376V112H-870.365V111.5H-880.344V112H-885.333V111.5H-895.312V112H-900.301V111.5H-910.279V112H-915.269V111.5H-925.247V112H-930.236V111.5H-940.215V112H-945.204V111.5H-955.183V112H-960.172V111.5H-970.15V112H-975.14V111.5H-985.118V112H-990.107V111.5H-1000.09V112H-1005.08V111.5H-1015.05V112H-1020.04V111.5H-1030.02V112H-1035.01V111.5H-1040C-1041.39 111.5 -1042.76 111.379 -1044.08 111.146L-1044.17 111.638C-1045.56 111.394 -1046.91 111.03 -1048.21 110.558L-1048.04 110.089C-1050.64 109.142 -1053.03 107.75 -1055.11 106.003L-1055.43 106.384C-1056.5 105.485 -1057.49 104.495 -1058.38 103.426L-1058 103.105C-1059.75 101.026 -1061.14 98.64 -1062.09 96.04L-1062.56 96.21C-1063.03 94.9116 -1063.39 93.5609 -1063.64 92.1689L-1063.15 92.083C-1063.38 90.7573 -1063.5 89.393 -1063.5 88V83.1113H-1064V78.2227H-1063.5V68.4443H-1064V63.5557H-1063.5V53.7773H-1064V48.8887H-1063.5V39.1113H-1064V34.2227H-1063.5V24.4443H-1064V19.5557H-1063.5V9.77734H-1064V4.88867H-1063.5V0C-1063.5 -1.393 -1063.38 -2.75727 -1063.15 -4.08301L-1063.64 -4.16992C-1063.43 -5.37923 -1063.12 -6.5575 -1062.74 -7.69727L-1062.56 -8.21094L-1062.09 -8.04004C-1061.14 -10.64 -1059.75 -13.026 -1058 -15.1055L-1058.38 -15.4268C-1057.49 -16.4964 -1056.5 -17.4863 -1055.43 -18.3848L-1055.11 -18.0029C-1053.03 -19.7496 -1050.64 -21.1423 -1048.04 -22.0889L-1048.21 -22.5586C-1046.91 -23.0313 -1045.56 -23.3948 -1044.17 -23.6387L-1044.08 -23.1465C-1042.76 -23.3787 -1041.39 -23.5 -1040 -23.5H-1035.01V-24H-1030.02V-23.5H-1020.05V-24H-1015.06V-23.5H-1005.08V-24H-1000.09V-23.5H-990.11V-24H-985.121V-23.5H-975.143V-24H-970.153V-23.5H-960.175V-24H-955.186V-23.5H-945.207V-24H-940.218V-23.5H-930.239V-24H-925.25V-23.5H-915.271V-24H-910.282V-23.5H-900.304V-24H-895.314V-23.5H-885.336V-24H-880.347V-23.5H-870.368V-24H-865.379V-23.5H-855.4V-24H-850.411V-23.5H-840.433V-24H-835.443V-23.5H-825.465V-24H-820.476V-23.5H-810.497V-24H-805.508V-23.5H-795.529V-24H-790.54V-23.5H-780.562V-24H-775.572V-23.5H-765.594V-24H-760.604V-23.5H-750.626V-24H-745.637V-23.5H-735.658V-24H-730.669V-23.5H-720.69V-24H-715.701V-23.5H-705.723V-24H-700.733V-23.5H-690.755V-24H-685.766V-23.5H-675.787V-24H-670.798V-23.5H-660.819V-24H-655.83V-23.5H-645.852V-24H-640.862V-23.5H-630.884V-24H-625.895V-23.5H-615.916V-24H-610.927V-23.5H-600.948V-24H-595.959V-23.5H-585.98V-24H-580.991V-23.5H-571.013V-24H-566.023V-23.5H-556.045V-24H-551.056V-23.5H-541.077V-24H-536.088V-23.5H-526.109V-24H-521.12V-23.5H-511.142V-24H-506.152V-23.5H-496.174V-24H-491.185V-23.5H-481.206V-24H-476.217V-23.5H-466.238V-24H-461.249V-23.5H-451.271V-24H-446.281V-23.5H-436.303V-24H-431.313V-23.5H-421.335V-24H-416.346V-23.5H-406.367V-24H-401.378V-23.5H-391.399V-24H-386.41V-23.5H-376.432V-24H-371.442V-23.5H-361.464V-24H-356.475V-23.5H-346.496V-24H-341.507V-23.5H-331.528V-24H-326.539V-23.5H-316.561V-24H-311.571V-23.5H-301.593V-24H-296.604V-23.5H-286.625V-24H-281.636V-23.5H-271.657V-24H-266.668V-23.5H-256.689V-24H-251.7V-23.5H-241.722V-24H-236.732V-23.5H-226.754V-24H-221.765V-23.5H-211.786V-24H-206.797V-23.5H-196.818V-24H-191.829V-23.5H-181.851V-24H-176.861V-23.5H-166.883V-24H-161.894V-23.5H-151.915V-24H-146.926V-23.5H-136.947V-24H-131.958V-23.5H-121.979V-24H-116.99V-23.5H-107.012V-24H-102.022V-23.5H-92.0439V-24H-87.0547V-23.5H-77.0762V-24H-72.0869V-23.5H-62.1084V-24H-57.1191V-23.5H-47.1406V-24H-42.1514V-23.5H-32.1729V-24H-27.1836V-23.5H-17.2051V-24H-12.2158V-23.5H-2.2373V-24H2.75195V-23.5H12.7305V-24H17.7197V-23.5H27.6982V-24H32.6875V-23.5H42.666V-24H47.6553V-23.5H57.6338V-24H62.623V-23.5H72.6016V-24H77.5908V-23.5H87.5693V-24H92.5586V-23.5H102.537V-24H107.526V-23.5H117.505V-24H122.494V-23.5H132.473V-24H137.462V-23.5H147.44V-24H152.43V-23.5H162.408V-24H167.397V-23.5H177.376V-24H182.365V-23.5H192.344V-24H197.333V-23.5H207.312V-24H212.301V-23.5H222.279V-24H227.269V-23.5H237.247V-24H242.236V-23.5H252.215V-24H257.204V-23.5H267.183V-24H272.172V-23.5H282.15V-24H287.14V-23.5H297.118V-24H302.107V-23.5H312.086V-24H317.075V-23.5H327.054V-24H332.043V-23.5H342.021V-24H347.011V-23.5H356.989V-24H361.979V-23.5H371.957V-24H376.946V-23.5H386.925V-24H391.914V-23.5H401.893V-24H406.882V-23.5H416.86V-24H421.85V-23.5H431.828V-24H436.817V-23.5H446.796V-24H451.785V-23.5H461.764V-24H466.753V-23.5H476.731V-24H481.721V-23.5H491.699V-24H496.688V-23.5H506.667V-24H511.656V-23.5H521.635V-24H526.624V-23.5H536.603V-24H541.592V-23.5H551.57V-24H556.56V-23.5H566.538V-24H571.527V-23.5H581.506V-24H586.494V-23.5H596.473V-24H601.462V-23.5H611.44V-24H616.43V-23.5H626.408V-24H631.397V-23.5H641.376V-24H646.365V-23.5H656.344V-24H661.333V-23.5H671.312V-24H676.301V-23.5H686.279V-24H691.269V-23.5H701.247V-24H706.236V-23.5H716.215V-24H721.204V-23.5H731.183V-24H736.172V-23.5H746.15V-24H751.14V-23.5H761.118V-24H766.107V-23.5H776.086V-24H781.075V-23.5H791.054V-24H796.043V-23.5H806.021V-24H811.011V-23.5H816C817.393 -23.5 818.757 -23.3787 820.083 -23.1465L820.169 -23.6387C821.561 -23.3949 822.912 -23.0312 824.21 -22.5586L824.04 -22.0889C826.64 -21.1423 829.026 -19.7496 831.105 -18.0029L831.426 -18.3848C832.495 -17.4863 833.485 -16.4964 834.384 -15.4268L834.003 -15.1055C835.75 -13.026 837.142 -10.64 838.089 -8.04004L838.558 -8.21094Z" stroke="#8A38F5" stroke-dasharray="10 5"/>
<g id="Name=&#208;&#161;&#208;&#186;&#209;&#128;&#208;&#181;&#208;&#191;&#208;&#186;&#208;&#176;">
<g id="Vector 41 (Stroke)" filter="url(#filter0_f_6227_5096)">
<path d="M40.008 44.366L47.6292 28.3914L52.3845 30.6601L44.7632 46.6347C44.3129 47.5785 44.713 48.7086 45.6568 49.1589C46.6006 49.6091 47.7307 49.2091 48.181 48.2653L59.2762 25.0092C60.6857 22.0547 59.4333 18.5169 56.4788 17.1074C53.5243 15.6978 49.9865 16.9502 48.5769 19.9048L28.2299 62.5532C26.8203 65.5077 28.0728 69.0455 31.0273 70.455C33.9818 71.8646 37.5196 70.6122 38.9291 67.6577L43.1829 58.7416L47.9381 61.0103L43.6844 69.9263C41.0219 75.5071 34.3394 77.8728 28.7586 75.2103C23.1779 72.5478 20.8122 65.8653 23.4747 60.2845L43.8217 17.6361C46.4842 12.0553 53.1667 9.68964 58.7474 12.3521C64.3282 15.0147 66.6939 21.6971 64.0314 27.2779L52.9362 50.5339C51.233 54.104 46.9582 55.6173 43.3881 53.9141C39.8181 52.2109 38.3047 47.936 40.008 44.366Z" fill="#6600BA"/>
</g>
</g>
</g>
<defs>
<filter id="filter0_f_6227_5096" x="19.9085" y="8.78547" width="47.6888" height="69.9916" filterUnits="userSpaceOnUse" color-interpolation-filters="sRGB">
<feFlood flood-opacity="0" result="BackgroundImageFix"/>
<feBlend mode="normal" in="SourceGraphic" in2="BackgroundImageFix" result="shape"/>
<feGaussianBlur stdDeviation="1.23617" result="effect1_foregroundBlur_6227_5096"/>
</filter>
</defs>
</svg>
