<svg width="88" height="88" viewBox="0 0 88 88" fill="none" xmlns="http://www.w3.org/2000/svg">
<g id="Small Image"><g id="Name=&#208;&#161;&#208;&#186;&#209;&#128;&#208;&#181;&#208;&#191;&#208;&#186;&#208;&#176;">
<g id="Vector 41 (Stroke)" filter="url(#filter0_f_6227_5096)">
<path d="M40.008 44.366L47.6292 28.3914L52.3845 30.6601L44.7632 46.6347C44.3129 47.5785 44.713 48.7086 45.6568 49.1589C46.6006 49.6091 47.7307 49.2091 48.181 48.2653L59.2762 25.0092C60.6857 22.0547 59.4333 18.5169 56.4788 17.1074C53.5243 15.6978 49.9865 16.9502 48.5769 19.9048L28.2299 62.5532C26.8203 65.5077 28.0728 69.0455 31.0273 70.455C33.9818 71.8646 37.5196 70.6122 38.9291 67.6577L43.1829 58.7416L47.9381 61.0103L43.6844 69.9263C41.0219 75.5071 34.3394 77.8728 28.7586 75.2103C23.1779 72.5478 20.8122 65.8653 23.4747 60.2845L43.8217 17.6361C46.4842 12.0553 53.1667 9.68964 58.7474 12.3521C64.3282 15.0147 66.6939 21.6971 64.0314 27.2779L52.9362 50.5339C51.233 54.104 46.9582 55.6173 43.3881 53.9141C39.8181 52.2109 38.3047 47.936 40.008 44.366Z" fill="#6600BA"/>
</g>
</g>
</g>
<defs>
<filter id="filter0_f_6227_5096" x="19.9085" y="8.78547" width="47.6888" height="69.9916" filterUnits="userSpaceOnUse" color-interpolation-filters="sRGB">
<feFlood flood-opacity="0" result="BackgroundImageFix"/>
<feBlend mode="normal" in="SourceGraphic" in2="BackgroundImageFix" result="shape"/>
<feGaussianBlur stdDeviation="1.23617" result="effect1_foregroundBlur_6227_5096"/>
</filter>
</defs>
</svg>
