<svg width="88" height="88" viewBox="0 0 88 88" fill="none" xmlns="http://www.w3.org/2000/svg">
<rect width="88" height="88" fill="#545454"/>
<g id="Small Image">
<path d="M1254.56 -8.21094C1255.03 -6.91254 1255.39 -5.56192 1255.64 -4.16992L1255.15 -4.08301C1255.38 -2.75727 1255.5 -1.393 1255.5 0V4.88867H1256V9.77734H1255.5V19.5557H1256V24.4443H1255.5V34.2227H1256V39.1113H1255.5V48.8887H1256V53.7773H1255.5V63.5557H1256V68.4443H1255.5V78.2227H1256V83.1113H1255.5V88C1255.5 89.393 1255.38 90.7573 1255.15 92.083L1255.64 92.1689C1255.39 93.561 1255.03 94.9115 1254.56 96.21L1254.09 96.04C1253.14 98.64 1251.75 101.026 1250 103.105L1250.38 103.426C1249.49 104.495 1248.5 105.485 1247.43 106.384L1247.11 106.003C1245.03 107.75 1242.64 109.142 1240.04 110.089L1240.21 110.558C1238.91 111.03 1237.56 111.394 1236.17 111.638L1236.08 111.146C1234.76 111.379 1233.39 111.5 1232 111.5H1227.01V112H1222.02V111.5H1212.05V112H1207.06V111.5H1197.08V112H1192.09V111.5H1182.11V112H1177.12V111.5H1167.14V112H1162.15V111.5H1152.17V112H1147.19V111.5H1137.21V112H1132.22V111.5H1122.24V112H1117.25V111.5H1107.27V112H1102.28V111.5H1092.3V112H1087.31V111.5H1077.34V112H1072.35V111.5H1062.37V112H1057.38V111.5H1047.4V112H1042.41V111.5H1032.43V112H1027.44V111.5H1017.46V112H1012.48V111.5H1002.5V112H997.508V111.5H987.529V112H982.54V111.5H972.562V112H967.572V111.5H957.594V112H952.604V111.5H942.626V112H937.637V111.5H927.658V112H922.669V111.5H912.69V112H907.701V111.5H897.723V112H892.733V111.5H882.755V112H877.766V111.5H867.787V112H862.798V111.5H852.819V112H847.83V111.5H837.852V112H832.862V111.5H822.884V112H817.895V111.5H807.916V112H802.927V111.5H792.948V112H787.959V111.5H777.98V112H772.991V111.5H763.013V112H758.023V111.5H748.045V112H743.056V111.5H733.077V112H728.088V111.5H718.109V112H713.12V111.5H703.142V112H698.152V111.5H688.174V112H683.185V111.5H673.206V112H668.217V111.5H658.238V112H653.249V111.5H643.271V112H638.281V111.5H628.303V112H623.313V111.5H613.335V112H608.346V111.5H598.367V112H593.378V111.5H583.399V112H578.41V111.5H568.432V112H563.442V111.5H553.464V112H548.475V111.5H538.496V112H533.507V111.5H523.528V112H518.539V111.5H508.561V112H503.571V111.5H493.593V112H488.604V111.5H478.625V112H473.636V111.5H463.657V112H458.668V111.5H448.689V112H443.7V111.5H433.722V112H428.732V111.5H418.754V112H413.765V111.5H403.786V112H398.797V111.5H388.818V112H383.829V111.5H373.851V112H368.861V111.5H358.883V112H353.894V111.5H343.915V112H338.926V111.5H328.947V112H323.958V111.5H313.979V112H308.99V111.5H299.012V112H294.022V111.5H284.044V112H279.055V111.5H269.076V112H264.087V111.5H254.108V112H249.119V111.5H239.141V112H234.151V111.5H224.173V112H219.184V111.5H209.205V112H204.216V111.5H194.237V112H189.248V111.5H179.27V112H174.28V111.5H164.302V112H159.312V111.5H149.334V112H144.345V111.5H134.366V112H129.377V111.5H119.398V112H114.409V111.5H104.431V112H99.4414V111.5H89.4629V112H84.4736V111.5H74.4951V112H69.5059V111.5H59.5273V112H54.5381V111.5H44.5596V112H39.5703V111.5H29.5918V112H24.6025V111.5H14.624V112H9.63477V111.5H-0.34375V112H-5.33301V111.5H-15.3115V112H-20.3008V111.5H-30.2793V112H-35.2686V111.5H-45.2471V112H-50.2363V111.5H-60.2148V112H-65.2041V111.5H-75.1826V112H-80.1719V111.5H-90.1504V112H-95.1396V111.5H-105.118V112H-110.107V111.5H-120.086V112H-125.075V111.5H-135.054V112H-140.043V111.5H-150.021V112H-155.011V111.5H-164.989V112H-169.979V111.5H-179.957V112H-184.946V111.5H-194.925V112H-199.914V111.5H-209.893V112H-214.882V111.5H-224.86V112H-229.85V111.5H-239.828V112H-244.817V111.5H-254.796V112H-259.785V111.5H-269.764V112H-274.753V111.5H-284.731V112H-289.721V111.5H-299.699V112H-304.688V111.5H-314.667V112H-319.656V111.5H-329.635V112H-334.624V111.5H-344.603V112H-349.592V111.5H-359.57V112H-364.56V111.5H-374.537V112H-379.526V111.5H-389.505V112H-394.494V111.5H-404.473V112H-409.462V111.5H-419.44V112H-424.43V111.5H-434.408V112H-439.397V111.5H-449.376V112H-454.365V111.5H-464.344V112H-469.333V111.5H-479.312V112H-484.301V111.5H-494.279V112H-499.269V111.5H-509.247V112H-514.236V111.5H-524.215V112H-529.204V111.5H-539.183V112H-544.172V111.5H-554.15V112H-559.14V111.5H-569.118V112H-574.107V111.5H-584.086V112H-589.075V111.5H-599.054V112H-604.043V111.5H-614.021V112H-619.011V111.5H-624C-625.393 111.5 -626.757 111.379 -628.083 111.146L-628.17 111.638C-629.562 111.394 -630.913 111.03 -632.211 110.558L-632.04 110.089C-634.64 109.142 -637.026 107.75 -639.105 106.003L-639.427 106.384C-640.496 105.485 -641.486 104.495 -642.385 103.426L-642.003 103.105C-643.75 101.026 -645.142 98.64 -646.089 96.04L-646.559 96.21C-647.031 94.9116 -647.395 93.5609 -647.639 92.1689L-647.146 92.083C-647.379 90.7573 -647.5 89.393 -647.5 88V83.1113H-648V78.2227H-647.5V68.4443H-648V63.5557H-647.5V53.7773H-648V48.8887H-647.5V39.1113H-648V34.2227H-647.5V24.4443H-648V19.5557H-647.5V9.77734H-648V4.88867H-647.5V0C-647.5 -1.393 -647.379 -2.75727 -647.146 -4.08301L-647.639 -4.16992C-647.427 -5.37923 -647.125 -6.5575 -646.739 -7.69727L-646.559 -8.21094L-646.089 -8.04004C-645.142 -10.64 -643.75 -13.026 -642.003 -15.1055L-642.385 -15.4268C-641.486 -16.4964 -640.496 -17.4863 -639.427 -18.3848L-639.105 -18.0029C-637.026 -19.7496 -634.64 -21.1423 -632.04 -22.0889L-632.211 -22.5586C-630.913 -23.0313 -629.562 -23.3948 -628.17 -23.6387L-628.083 -23.1465C-626.757 -23.3787 -625.393 -23.5 -624 -23.5H-619.014V-24H-614.024V-23.5H-604.046V-24H-599.057V-23.5H-589.078V-24H-584.089V-23.5H-574.11V-24H-569.121V-23.5H-559.143V-24H-554.153V-23.5H-544.175V-24H-539.186V-23.5H-529.207V-24H-524.218V-23.5H-514.239V-24H-509.25V-23.5H-499.271V-24H-494.282V-23.5H-484.304V-24H-479.314V-23.5H-469.336V-24H-464.347V-23.5H-454.368V-24H-449.379V-23.5H-439.4V-24H-434.411V-23.5H-424.433V-24H-419.443V-23.5H-409.465V-24H-404.476V-23.5H-394.497V-24H-389.508V-23.5H-379.529V-24H-374.54V-23.5H-364.562V-24H-359.572V-23.5H-349.594V-24H-344.604V-23.5H-334.626V-24H-329.637V-23.5H-319.658V-24H-314.669V-23.5H-304.69V-24H-299.701V-23.5H-289.723V-24H-284.733V-23.5H-274.755V-24H-269.766V-23.5H-259.787V-24H-254.798V-23.5H-244.819V-24H-239.83V-23.5H-229.852V-24H-224.862V-23.5H-214.884V-24H-209.895V-23.5H-199.916V-24H-194.927V-23.5H-184.948V-24H-179.959V-23.5H-169.98V-24H-164.991V-23.5H-155.013V-24H-150.023V-23.5H-140.045V-24H-135.056V-23.5H-125.077V-24H-120.088V-23.5H-110.109V-24H-105.12V-23.5H-95.1416V-24H-90.1523V-23.5H-80.1738V-24H-75.1846V-23.5H-65.2061V-24H-60.2168V-23.5H-50.2383V-24H-45.249V-23.5H-35.2705V-24H-30.2812V-23.5H-20.3027V-24H-15.3135V-23.5H-5.33496V-24H-0.345703V-23.5H9.63281V-24H14.6221V-23.5H24.6006V-24H29.5898V-23.5H39.5684V-24H44.5576V-23.5H54.5361V-24H59.5254V-23.5H69.5039V-24H74.4932V-23.5H84.4717V-24H89.4609V-23.5H99.4395V-24H104.429V-23.5H114.407V-24H119.396V-23.5H129.375V-24H134.364V-23.5H144.343V-24H149.332V-23.5H159.311V-24H164.3V-23.5H174.278V-24H179.268V-23.5H189.246V-24H194.235V-23.5H204.214V-24H209.203V-23.5H219.182V-24H224.171V-23.5H234.149V-24H239.139V-23.5H249.117V-24H254.106V-23.5H264.085V-24H269.074V-23.5H279.053V-24H284.042V-23.5H294.021V-24H299.01V-23.5H308.988V-24H313.978V-23.5H323.956V-24H328.945V-23.5H338.924V-24H343.913V-23.5H353.892V-24H358.881V-23.5H368.859V-24H373.849V-23.5H383.827V-24H388.816V-23.5H398.795V-24H403.784V-23.5H413.763V-24H418.752V-23.5H428.73V-24H433.72V-23.5H443.698V-24H448.688V-23.5H458.666V-24H463.655V-23.5H473.634V-24H478.623V-23.5H488.602V-24H493.591V-23.5H503.569V-24H508.559V-23.5H518.537V-24H523.526V-23.5H533.505V-24H538.494V-23.5H548.473V-24H553.462V-23.5H563.44V-24H568.43V-23.5H578.408V-24H583.397V-23.5H593.376V-24H598.365V-23.5H608.344V-24H613.333V-23.5H623.312V-24H628.301V-23.5H638.279V-24H643.269V-23.5H653.247V-24H658.236V-23.5H668.215V-24H673.204V-23.5H683.183V-24H688.172V-23.5H698.15V-24H703.14V-23.5H713.118V-24H718.107V-23.5H728.086V-24H733.075V-23.5H743.054V-24H748.043V-23.5H758.021V-24H763.011V-23.5H772.989V-24H777.979V-23.5H787.957V-24H792.946V-23.5H802.925V-24H807.914V-23.5H817.893V-24H822.882V-23.5H832.86V-24H837.85V-23.5H847.828V-24H852.817V-23.5H862.796V-24H867.785V-23.5H877.764V-24H882.753V-23.5H892.731V-24H897.721V-23.5H907.699V-24H912.688V-23.5H922.667V-24H927.656V-23.5H937.635V-24H942.624V-23.5H952.603V-24H957.592V-23.5H967.57V-24H972.56V-23.5H982.538V-24H987.527V-23.5H997.506V-24H1002.49V-23.5H1012.47V-24H1017.46V-23.5H1027.44V-24H1032.43V-23.5H1042.41V-24H1047.4V-23.5H1057.38V-24H1062.37V-23.5H1072.34V-24H1077.33V-23.5H1087.31V-24H1092.3V-23.5H1102.28V-24H1107.27V-23.5H1117.25V-24H1122.24V-23.5H1132.21V-24H1137.2V-23.5H1147.18V-24H1152.17V-23.5H1162.15V-24H1167.14V-23.5H1177.12V-24H1182.11V-23.5H1192.09V-24H1197.08V-23.5H1207.05V-24H1212.04V-23.5H1222.02V-24H1227.01V-23.5H1232C1233.39 -23.5 1234.76 -23.3787 1236.08 -23.1465L1236.17 -23.6387C1237.56 -23.3949 1238.91 -23.0312 1240.21 -22.5586L1240.04 -22.0889C1242.64 -21.1423 1245.03 -19.7496 1247.11 -18.0029L1247.43 -18.3848C1248.5 -17.4863 1249.49 -16.4964 1250.38 -15.4268L1250 -15.1055C1251.75 -13.026 1253.14 -10.64 1254.09 -8.04004L1254.56 -8.21094Z" fill="white"/>
<path d="M1254.56 -8.21094C1255.03 -6.91254 1255.39 -5.56192 1255.64 -4.16992L1255.15 -4.08301C1255.38 -2.75727 1255.5 -1.393 1255.5 0V4.88867H1256V9.77734H1255.5V19.5557H1256V24.4443H1255.5V34.2227H1256V39.1113H1255.5V48.8887H1256V53.7773H1255.5V63.5557H1256V68.4443H1255.5V78.2227H1256V83.1113H1255.5V88C1255.5 89.393 1255.38 90.7573 1255.15 92.083L1255.64 92.1689C1255.39 93.561 1255.03 94.9115 1254.56 96.21L1254.09 96.04C1253.14 98.64 1251.75 101.026 1250 103.105L1250.38 103.426C1249.49 104.495 1248.5 105.485 1247.43 106.384L1247.11 106.003C1245.03 107.75 1242.64 109.142 1240.04 110.089L1240.21 110.558C1238.91 111.03 1237.56 111.394 1236.17 111.638L1236.08 111.146C1234.76 111.379 1233.39 111.5 1232 111.5H1227.01V112H1222.02V111.5H1212.05V112H1207.06V111.5H1197.08V112H1192.09V111.5H1182.11V112H1177.12V111.5H1167.14V112H1162.15V111.5H1152.17V112H1147.19V111.5H1137.21V112H1132.22V111.5H1122.24V112H1117.25V111.5H1107.27V112H1102.28V111.5H1092.3V112H1087.31V111.5H1077.34V112H1072.35V111.5H1062.37V112H1057.38V111.5H1047.4V112H1042.41V111.5H1032.43V112H1027.44V111.5H1017.46V112H1012.48V111.5H1002.5V112H997.508V111.5H987.529V112H982.54V111.5H972.562V112H967.572V111.5H957.594V112H952.604V111.5H942.626V112H937.637V111.5H927.658V112H922.669V111.5H912.69V112H907.701V111.5H897.723V112H892.733V111.5H882.755V112H877.766V111.5H867.787V112H862.798V111.5H852.819V112H847.83V111.5H837.852V112H832.862V111.5H822.884V112H817.895V111.5H807.916V112H802.927V111.5H792.948V112H787.959V111.5H777.98V112H772.991V111.5H763.013V112H758.023V111.5H748.045V112H743.056V111.5H733.077V112H728.088V111.5H718.109V112H713.12V111.5H703.142V112H698.152V111.5H688.174V112H683.185V111.5H673.206V112H668.217V111.5H658.238V112H653.249V111.5H643.271V112H638.281V111.5H628.303V112H623.313V111.5H613.335V112H608.346V111.5H598.367V112H593.378V111.5H583.399V112H578.41V111.5H568.432V112H563.442V111.5H553.464V112H548.475V111.5H538.496V112H533.507V111.5H523.528V112H518.539V111.5H508.561V112H503.571V111.5H493.593V112H488.604V111.5H478.625V112H473.636V111.5H463.657V112H458.668V111.5H448.689V112H443.7V111.5H433.722V112H428.732V111.5H418.754V112H413.765V111.5H403.786V112H398.797V111.5H388.818V112H383.829V111.5H373.851V112H368.861V111.5H358.883V112H353.894V111.5H343.915V112H338.926V111.5H328.947V112H323.958V111.5H313.979V112H308.99V111.5H299.012V112H294.022V111.5H284.044V112H279.055V111.5H269.076V112H264.087V111.5H254.108V112H249.119V111.5H239.141V112H234.151V111.5H224.173V112H219.184V111.5H209.205V112H204.216V111.5H194.237V112H189.248V111.5H179.27V112H174.28V111.5H164.302V112H159.312V111.5H149.334V112H144.345V111.5H134.366V112H129.377V111.5H119.398V112H114.409V111.5H104.431V112H99.4414V111.5H89.4629V112H84.4736V111.5H74.4951V112H69.5059V111.5H59.5273V112H54.5381V111.5H44.5596V112H39.5703V111.5H29.5918V112H24.6025V111.5H14.624V112H9.63477V111.5H-0.34375V112H-5.33301V111.5H-15.3115V112H-20.3008V111.5H-30.2793V112H-35.2686V111.5H-45.2471V112H-50.2363V111.5H-60.2148V112H-65.2041V111.5H-75.1826V112H-80.1719V111.5H-90.1504V112H-95.1396V111.5H-105.118V112H-110.107V111.5H-120.086V112H-125.075V111.5H-135.054V112H-140.043V111.5H-150.021V112H-155.011V111.5H-164.989V112H-169.979V111.5H-179.957V112H-184.946V111.5H-194.925V112H-199.914V111.5H-209.893V112H-214.882V111.5H-224.86V112H-229.85V111.5H-239.828V112H-244.817V111.5H-254.796V112H-259.785V111.5H-269.764V112H-274.753V111.5H-284.731V112H-289.721V111.5H-299.699V112H-304.688V111.5H-314.667V112H-319.656V111.5H-329.635V112H-334.624V111.5H-344.603V112H-349.592V111.5H-359.57V112H-364.56V111.5H-374.537V112H-379.526V111.5H-389.505V112H-394.494V111.5H-404.473V112H-409.462V111.5H-419.44V112H-424.43V111.5H-434.408V112H-439.397V111.5H-449.376V112H-454.365V111.5H-464.344V112H-469.333V111.5H-479.312V112H-484.301V111.5H-494.279V112H-499.269V111.5H-509.247V112H-514.236V111.5H-524.215V112H-529.204V111.5H-539.183V112H-544.172V111.5H-554.15V112H-559.14V111.5H-569.118V112H-574.107V111.5H-584.086V112H-589.075V111.5H-599.054V112H-604.043V111.5H-614.021V112H-619.011V111.5H-624C-625.393 111.5 -626.757 111.379 -628.083 111.146L-628.17 111.638C-629.562 111.394 -630.913 111.03 -632.211 110.558L-632.04 110.089C-634.64 109.142 -637.026 107.75 -639.105 106.003L-639.427 106.384C-640.496 105.485 -641.486 104.495 -642.385 103.426L-642.003 103.105C-643.75 101.026 -645.142 98.64 -646.089 96.04L-646.559 96.21C-647.031 94.9116 -647.395 93.5609 -647.639 92.1689L-647.146 92.083C-647.379 90.7573 -647.5 89.393 -647.5 88V83.1113H-648V78.2227H-647.5V68.4443H-648V63.5557H-647.5V53.7773H-648V48.8887H-647.5V39.1113H-648V34.2227H-647.5V24.4443H-648V19.5557H-647.5V9.77734H-648V4.88867H-647.5V0C-647.5 -1.393 -647.379 -2.75727 -647.146 -4.08301L-647.639 -4.16992C-647.427 -5.37923 -647.125 -6.5575 -646.739 -7.69727L-646.559 -8.21094L-646.089 -8.04004C-645.142 -10.64 -643.75 -13.026 -642.003 -15.1055L-642.385 -15.4268C-641.486 -16.4964 -640.496 -17.4863 -639.427 -18.3848L-639.105 -18.0029C-637.026 -19.7496 -634.64 -21.1423 -632.04 -22.0889L-632.211 -22.5586C-630.913 -23.0313 -629.562 -23.3948 -628.17 -23.6387L-628.083 -23.1465C-626.757 -23.3787 -625.393 -23.5 -624 -23.5H-619.014V-24H-614.024V-23.5H-604.046V-24H-599.057V-23.5H-589.078V-24H-584.089V-23.5H-574.11V-24H-569.121V-23.5H-559.143V-24H-554.153V-23.5H-544.175V-24H-539.186V-23.5H-529.207V-24H-524.218V-23.5H-514.239V-24H-509.25V-23.5H-499.271V-24H-494.282V-23.5H-484.304V-24H-479.314V-23.5H-469.336V-24H-464.347V-23.5H-454.368V-24H-449.379V-23.5H-439.4V-24H-434.411V-23.5H-424.433V-24H-419.443V-23.5H-409.465V-24H-404.476V-23.5H-394.497V-24H-389.508V-23.5H-379.529V-24H-374.54V-23.5H-364.562V-24H-359.572V-23.5H-349.594V-24H-344.604V-23.5H-334.626V-24H-329.637V-23.5H-319.658V-24H-314.669V-23.5H-304.69V-24H-299.701V-23.5H-289.723V-24H-284.733V-23.5H-274.755V-24H-269.766V-23.5H-259.787V-24H-254.798V-23.5H-244.819V-24H-239.83V-23.5H-229.852V-24H-224.862V-23.5H-214.884V-24H-209.895V-23.5H-199.916V-24H-194.927V-23.5H-184.948V-24H-179.959V-23.5H-169.98V-24H-164.991V-23.5H-155.013V-24H-150.023V-23.5H-140.045V-24H-135.056V-23.5H-125.077V-24H-120.088V-23.5H-110.109V-24H-105.12V-23.5H-95.1416V-24H-90.1523V-23.5H-80.1738V-24H-75.1846V-23.5H-65.2061V-24H-60.2168V-23.5H-50.2383V-24H-45.249V-23.5H-35.2705V-24H-30.2812V-23.5H-20.3027V-24H-15.3135V-23.5H-5.33496V-24H-0.345703V-23.5H9.63281V-24H14.6221V-23.5H24.6006V-24H29.5898V-23.5H39.5684V-24H44.5576V-23.5H54.5361V-24H59.5254V-23.5H69.5039V-24H74.4932V-23.5H84.4717V-24H89.4609V-23.5H99.4395V-24H104.429V-23.5H114.407V-24H119.396V-23.5H129.375V-24H134.364V-23.5H144.343V-24H149.332V-23.5H159.311V-24H164.3V-23.5H174.278V-24H179.268V-23.5H189.246V-24H194.235V-23.5H204.214V-24H209.203V-23.5H219.182V-24H224.171V-23.5H234.149V-24H239.139V-23.5H249.117V-24H254.106V-23.5H264.085V-24H269.074V-23.5H279.053V-24H284.042V-23.5H294.021V-24H299.01V-23.5H308.988V-24H313.978V-23.5H323.956V-24H328.945V-23.5H338.924V-24H343.913V-23.5H353.892V-24H358.881V-23.5H368.859V-24H373.849V-23.5H383.827V-24H388.816V-23.5H398.795V-24H403.784V-23.5H413.763V-24H418.752V-23.5H428.73V-24H433.72V-23.5H443.698V-24H448.688V-23.5H458.666V-24H463.655V-23.5H473.634V-24H478.623V-23.5H488.602V-24H493.591V-23.5H503.569V-24H508.559V-23.5H518.537V-24H523.526V-23.5H533.505V-24H538.494V-23.5H548.473V-24H553.462V-23.5H563.44V-24H568.43V-23.5H578.408V-24H583.397V-23.5H593.376V-24H598.365V-23.5H608.344V-24H613.333V-23.5H623.312V-24H628.301V-23.5H638.279V-24H643.269V-23.5H653.247V-24H658.236V-23.5H668.215V-24H673.204V-23.5H683.183V-24H688.172V-23.5H698.15V-24H703.14V-23.5H713.118V-24H718.107V-23.5H728.086V-24H733.075V-23.5H743.054V-24H748.043V-23.5H758.021V-24H763.011V-23.5H772.989V-24H777.979V-23.5H787.957V-24H792.946V-23.5H802.925V-24H807.914V-23.5H817.893V-24H822.882V-23.5H832.86V-24H837.85V-23.5H847.828V-24H852.817V-23.5H862.796V-24H867.785V-23.5H877.764V-24H882.753V-23.5H892.731V-24H897.721V-23.5H907.699V-24H912.688V-23.5H922.667V-24H927.656V-23.5H937.635V-24H942.624V-23.5H952.603V-24H957.592V-23.5H967.57V-24H972.56V-23.5H982.538V-24H987.527V-23.5H997.506V-24H1002.49V-23.5H1012.47V-24H1017.46V-23.5H1027.44V-24H1032.43V-23.5H1042.41V-24H1047.4V-23.5H1057.38V-24H1062.37V-23.5H1072.34V-24H1077.33V-23.5H1087.31V-24H1092.3V-23.5H1102.28V-24H1107.27V-23.5H1117.25V-24H1122.24V-23.5H1132.21V-24H1137.2V-23.5H1147.18V-24H1152.17V-23.5H1162.15V-24H1167.14V-23.5H1177.12V-24H1182.11V-23.5H1192.09V-24H1197.08V-23.5H1207.05V-24H1212.04V-23.5H1222.02V-24H1227.01V-23.5H1232C1233.39 -23.5 1234.76 -23.3787 1236.08 -23.1465L1236.17 -23.6387C1237.56 -23.3949 1238.91 -23.0312 1240.21 -22.5586L1240.04 -22.0889C1242.64 -21.1423 1245.03 -19.7496 1247.11 -18.0029L1247.43 -18.3848C1248.5 -17.4863 1249.49 -16.4964 1250.38 -15.4268L1250 -15.1055C1251.75 -13.026 1253.14 -10.64 1254.09 -8.04004L1254.56 -8.21094Z" stroke="#8A38F5" stroke-dasharray="10 5"/>
<g id="Name=&#208;&#154;&#208;&#190;&#208;&#188;&#208;&#191;">
<g id="Group 2087326341">
<rect id="Rectangle 1005527" x="15.8398" y="60.7207" width="56.32" height="14.96" fill="#FFDF75"/>
<rect id="Rectangle 1005525" x="39.313" y="47.5625" width="9.37264" height="15.1004" fill="#E7C1FF"/>
<rect id="Rectangle 1005517" x="11.7168" y="12.6758" width="64.5671" height="40.0941" rx="7.10049" fill="#E7C1FF"/>
<path id="Intersect" d="M76.2842 45.6699C76.2842 49.5913 73.105 52.7704 69.1836 52.7705H18.8174C14.8959 52.7705 11.7168 49.5914 11.7168 45.6699V44.4395H76.2842V45.6699Z" fill="#6600BA"/>
<rect id="Rectangle 1005522" x="38.2715" y="16.3203" width="28.6386" height="20.3074" fill="#FFDF75"/>
<rect id="Rectangle 1005521" x="15.3623" y="19.9648" width="28.6386" height="20.3074" fill="#2DA771"/>
<g id="Intersect_2" filter="url(#filter0_f_6227_5096)">
<path d="M44.001 36.4229H38.2744V20.1699H44.001V36.4229Z" fill="#FFDF75"/>
</g>
<circle id="Ellipse 149" cx="66.3908" cy="35.5871" r="5.72772" fill="#6600BA"/>
<rect id="Rectangle 1005526" x="30.9824" y="58.498" width="26.0351" height="7.28983" fill="#6600BA"/>
</g>
</g>
</g>
<defs>
<filter id="filter0_f_6227_5096" x="35.9076" y="17.8031" width="10.4602" height="20.9856" filterUnits="userSpaceOnUse" color-interpolation-filters="sRGB">
<feFlood flood-opacity="0" result="BackgroundImageFix"/>
<feBlend mode="normal" in="SourceGraphic" in2="BackgroundImageFix" result="shape"/>
<feGaussianBlur stdDeviation="1.18341" result="effect1_foregroundBlur_6227_5096"/>
</filter>
</defs>
</svg>
