<svg width="88" height="88" viewBox="0 0 88 88" fill="none" xmlns="http://www.w3.org/2000/svg">
<rect width="88" height="88" fill="#545454"/>
<g id="Small Image">
<path d="M526.558 -8.21094C527.03 -6.91254 527.394 -5.56192 527.638 -4.16992L527.146 -4.08301C527.379 -2.75727 527.5 -1.393 527.5 0V4.88867H528V9.77734H527.5V19.5557H528V24.4443H527.5V34.2227H528V39.1113H527.5V48.8887H528V53.7773H527.5V63.5557H528V68.4443H527.5V78.2227H528V83.1113H527.5V88C527.5 89.393 527.379 90.7573 527.146 92.083L527.638 92.1689C527.394 93.561 527.03 94.9115 526.558 96.21L526.089 96.04C525.142 98.64 523.75 101.026 522.003 103.105L522.384 103.426C521.485 104.495 520.495 105.485 519.426 106.384L519.105 106.003C517.026 107.75 514.64 109.142 512.04 110.089L512.21 110.558C510.912 111.03 509.561 111.394 508.169 111.638L508.083 111.146C506.757 111.379 505.393 111.5 504 111.5H499.014V112H494.024V111.5H484.046V112H479.057V111.5H469.078V112H464.089V111.5H454.11V112H449.121V111.5H439.143V112H434.153V111.5H424.175V112H419.186V111.5H409.207V112H404.218V111.5H394.239V112H389.25V111.5H379.271V112H374.282V111.5H364.304V112H359.314V111.5H349.336V112H344.347V111.5H334.368V112H329.379V111.5H319.4V112H314.411V111.5H304.433V112H299.443V111.5H289.465V112H284.476V111.5H274.497V112H269.508V111.5H259.529V112H254.54V111.5H244.562V112H239.572V111.5H229.594V112H224.604V111.5H214.626V112H209.637V111.5H199.658V112H194.669V111.5H184.69V112H179.701V111.5H169.723V112H164.733V111.5H154.755V112H149.766V111.5H139.787V112H134.798V111.5H124.819V112H119.83V111.5H109.852V112H104.862V111.5H94.8838V112H89.8945V111.5H79.916V112H74.9268V111.5H64.9482V112H59.959V111.5H49.9805V112H44.9912V111.5H35.0127V112H30.0234V111.5H20.0449V112H15.0557V111.5H5.07715V112H0.0878906V111.5H-9.89062V112H-14.8799V111.5H-24.8584V112H-29.8477V111.5H-39.8262V112H-44.8154V111.5H-54.7939V112H-59.7832V111.5H-69.7617V112H-74.751V111.5H-84.7295V112H-89.7188V111.5H-99.6973V112H-104.687V111.5H-114.665V112H-119.654V111.5H-129.633V112H-134.622V111.5H-144.601V112H-149.59V111.5H-159.568V112H-164.558V111.5H-174.536V112H-179.525V111.5H-189.504V112H-194.493V111.5H-204.472V112H-209.461V111.5H-219.439V112H-224.429V111.5H-234.407V112H-239.396V111.5H-249.375V112H-254.364V111.5H-264.343V112H-269.332V111.5H-279.311V112H-284.3V111.5H-294.278V112H-299.268V111.5H-309.246V112H-314.235V111.5H-324.214V112H-329.203V111.5H-339.182V112H-344.171V111.5H-354.149V112H-359.139V111.5H-369.117V112H-374.106V111.5H-384.085V112H-389.074V111.5H-399.053V112H-404.042V111.5H-414.021V112H-419.01V111.5H-428.988V112H-433.978V111.5H-443.956V112H-448.945V111.5H-458.924V112H-463.913V111.5H-473.892V112H-478.881V111.5H-488.859V112H-493.849V111.5H-503.827V112H-508.816V111.5H-518.795V112H-523.784V111.5H-533.763V112H-538.752V111.5H-548.73V112H-553.72V111.5H-563.698V112H-568.688V111.5H-578.666V112H-583.655V111.5H-593.634V112H-598.623V111.5H-608.602V112H-613.591V111.5H-623.569V112H-628.559V111.5H-638.537V112H-643.526V111.5H-653.505V112H-658.494V111.5H-668.473V112H-673.462V111.5H-683.44V112H-688.43V111.5H-698.408V112H-703.397V111.5H-713.376V112H-718.365V111.5H-728.344V112H-733.333V111.5H-743.312V112H-748.301V111.5H-758.279V112H-763.269V111.5H-773.247V112H-778.236V111.5H-788.215V112H-793.204V111.5H-803.183V112H-808.172V111.5H-818.15V112H-823.14V111.5H-833.118V112H-838.107V111.5H-848.086V112H-853.075V111.5H-863.054V112H-868.043V111.5H-878.021V112H-883.011V111.5H-892.989V112H-897.979V111.5H-907.957V112H-912.946V111.5H-922.925V112H-927.914V111.5H-937.893V112H-942.882V111.5H-952.86V112H-957.85V111.5H-967.828V112H-972.817V111.5H-982.796V112H-987.785V111.5H-997.764V112H-1002.75V111.5H-1012.73V112H-1017.72V111.5H-1027.7V112H-1032.69V111.5H-1042.67V112H-1047.66V111.5H-1057.63V112H-1062.62V111.5H-1072.6V112H-1077.59V111.5H-1087.57V112H-1092.56V111.5H-1102.54V112H-1107.53V111.5H-1117.5V112H-1122.49V111.5H-1132.47V112H-1137.46V111.5H-1147.44V112H-1152.43V111.5H-1162.41V112H-1167.4V111.5H-1177.38V112H-1182.37V111.5H-1192.34V112H-1197.33V111.5H-1207.31V112H-1212.3V111.5H-1222.28V112H-1227.27V111.5H-1237.25V112H-1242.24V111.5H-1252.21V112H-1257.2V111.5H-1267.18V112H-1272.17V111.5H-1282.15V112H-1287.14V111.5H-1297.12V112H-1302.11V111.5H-1312.09V112H-1317.08V111.5H-1327.05V112H-1332.04V111.5H-1342.02V112H-1347.01V111.5H-1352C-1353.39 111.5 -1354.76 111.379 -1356.08 111.146L-1356.17 111.638C-1357.56 111.394 -1358.91 111.03 -1360.21 110.558L-1360.04 110.089C-1362.64 109.142 -1365.03 107.75 -1367.11 106.003L-1367.43 106.384C-1368.5 105.485 -1369.49 104.495 -1370.38 103.426L-1370 103.105C-1371.75 101.026 -1373.14 98.64 -1374.09 96.04L-1374.56 96.21C-1375.03 94.9116 -1375.39 93.5609 -1375.64 92.1689L-1375.15 92.083C-1375.38 90.7573 -1375.5 89.393 -1375.5 88V83.1113H-1376V78.2227H-1375.5V68.4443H-1376V63.5557H-1375.5V53.7773H-1376V48.8887H-1375.5V39.1113H-1376V34.2227H-1375.5V24.4443H-1376V19.5557H-1375.5V9.77734H-1376V4.88867H-1375.5V0C-1375.5 -1.393 -1375.38 -2.75727 -1375.15 -4.08301L-1375.64 -4.16992C-1375.43 -5.37923 -1375.12 -6.5575 -1374.74 -7.69727L-1374.56 -8.21094L-1374.09 -8.04004C-1373.14 -10.64 -1371.75 -13.026 -1370 -15.1055L-1370.38 -15.4268C-1369.49 -16.4964 -1368.5 -17.4863 -1367.43 -18.3848L-1367.11 -18.0029C-1365.03 -19.7496 -1362.64 -21.1423 -1360.04 -22.0889L-1360.21 -22.5586C-1358.91 -23.0313 -1357.56 -23.3948 -1356.17 -23.6387L-1356.08 -23.1465C-1354.76 -23.3787 -1353.39 -23.5 -1352 -23.5H-1347.01V-24H-1342.02V-23.5H-1332.05V-24H-1327.06V-23.5H-1317.08V-24H-1312.09V-23.5H-1302.11V-24H-1297.12V-23.5H-1287.14V-24H-1282.15V-23.5H-1272.17V-24H-1267.19V-23.5H-1257.21V-24H-1252.22V-23.5H-1242.24V-24H-1237.25V-23.5H-1227.27V-24H-1222.28V-23.5H-1212.3V-24H-1207.31V-23.5H-1197.34V-24H-1192.35V-23.5H-1182.37V-24H-1177.38V-23.5H-1167.4V-24H-1162.41V-23.5H-1152.43V-24H-1147.44V-23.5H-1137.46V-24H-1132.48V-23.5H-1122.5V-24H-1117.51V-23.5H-1107.53V-24H-1102.54V-23.5H-1092.56V-24H-1087.57V-23.5H-1077.59V-24H-1072.6V-23.5H-1062.63V-24H-1057.64V-23.5H-1047.66V-24H-1042.67V-23.5H-1032.69V-24H-1027.7V-23.5H-1017.72V-24H-1012.73V-23.5H-1002.75V-24H-997.766V-23.5H-987.787V-24H-982.798V-23.5H-972.819V-24H-967.83V-23.5H-957.852V-24H-952.862V-23.5H-942.884V-24H-937.895V-23.5H-927.916V-24H-922.927V-23.5H-912.948V-24H-907.959V-23.5H-897.98V-24H-892.991V-23.5H-883.013V-24H-878.023V-23.5H-868.045V-24H-863.056V-23.5H-853.077V-24H-848.088V-23.5H-838.109V-24H-833.12V-23.5H-823.142V-24H-818.152V-23.5H-808.174V-24H-803.185V-23.5H-793.206V-24H-788.217V-23.5H-778.238V-24H-773.249V-23.5H-763.271V-24H-758.281V-23.5H-748.303V-24H-743.313V-23.5H-733.335V-24H-728.346V-23.5H-718.367V-24H-713.378V-23.5H-703.399V-24H-698.41V-23.5H-688.432V-24H-683.442V-23.5H-673.464V-24H-668.475V-23.5H-658.496V-24H-653.507V-23.5H-643.528V-24H-638.539V-23.5H-628.561V-24H-623.571V-23.5H-613.593V-24H-608.604V-23.5H-598.625V-24H-593.636V-23.5H-583.657V-24H-578.668V-23.5H-568.689V-24H-563.7V-23.5H-553.722V-24H-548.732V-23.5H-538.754V-24H-533.765V-23.5H-523.786V-24H-518.797V-23.5H-508.818V-24H-503.829V-23.5H-493.851V-24H-488.861V-23.5H-478.883V-24H-473.894V-23.5H-463.915V-24H-458.926V-23.5H-448.947V-24H-443.958V-23.5H-433.979V-24H-428.99V-23.5H-419.012V-24H-414.022V-23.5H-404.044V-24H-399.055V-23.5H-389.076V-24H-384.087V-23.5H-374.108V-24H-369.119V-23.5H-359.141V-24H-354.151V-23.5H-344.173V-24H-339.184V-23.5H-329.205V-24H-324.216V-23.5H-314.237V-24H-309.248V-23.5H-299.27V-24H-294.28V-23.5H-284.302V-24H-279.312V-23.5H-269.334V-24H-264.345V-23.5H-254.366V-24H-249.377V-23.5H-239.398V-24H-234.409V-23.5H-224.431V-24H-219.441V-23.5H-209.463V-24H-204.474V-23.5H-194.495V-24H-189.506V-23.5H-179.527V-24H-174.538V-23.5H-164.56V-24H-159.57V-23.5H-149.592V-24H-144.603V-23.5H-134.624V-24H-129.635V-23.5H-119.656V-24H-114.667V-23.5H-104.688V-24H-99.6992V-23.5H-89.7207V-24H-84.7314V-23.5H-74.7529V-24H-69.7637V-23.5H-59.7852V-24H-54.7959V-23.5H-44.8174V-24H-39.8281V-23.5H-29.8496V-24H-24.8604V-23.5H-14.8818V-24H-9.89258V-23.5H0.0859375V-24H5.0752V-23.5H15.0537V-24H20.043V-23.5H30.0215V-24H35.0107V-23.5H44.9893V-24H49.9785V-23.5H59.957V-24H64.9463V-23.5H74.9248V-24H79.9141V-23.5H89.8926V-24H94.8818V-23.5H104.86V-24H109.85V-23.5H119.828V-24H124.817V-23.5H134.796V-24H139.785V-23.5H149.764V-24H154.753V-23.5H164.731V-24H169.721V-23.5H179.699V-24H184.688V-23.5H194.667V-24H199.656V-23.5H209.635V-24H214.624V-23.5H224.603V-24H229.592V-23.5H239.57V-24H244.56V-23.5H254.538V-24H259.527V-23.5H269.506V-24H274.494V-23.5H284.473V-24H289.462V-23.5H299.44V-24H304.43V-23.5H314.408V-24H319.397V-23.5H329.376V-24H334.365V-23.5H344.344V-24H349.333V-23.5H359.312V-24H364.301V-23.5H374.279V-24H379.269V-23.5H389.247V-24H394.236V-23.5H404.215V-24H409.204V-23.5H419.183V-24H424.172V-23.5H434.15V-24H439.14V-23.5H449.118V-24H454.107V-23.5H464.086V-24H469.075V-23.5H479.054V-24H484.043V-23.5H494.021V-24H499.011V-23.5H504C505.393 -23.5 506.757 -23.3787 508.083 -23.1465L508.169 -23.6387C509.561 -23.3949 510.912 -23.0312 512.21 -22.5586L512.04 -22.0889C514.64 -21.1423 517.026 -19.7496 519.105 -18.0029L519.426 -18.3848C520.495 -17.4863 521.485 -16.4964 522.384 -15.4268L522.003 -15.1055C523.75 -13.026 525.142 -10.64 526.089 -8.04004L526.558 -8.21094Z" fill="white"/>
<path d="M526.558 -8.21094C527.03 -6.91254 527.394 -5.56192 527.638 -4.16992L527.146 -4.08301C527.379 -2.75727 527.5 -1.393 527.5 0V4.88867H528V9.77734H527.5V19.5557H528V24.4443H527.5V34.2227H528V39.1113H527.5V48.8887H528V53.7773H527.5V63.5557H528V68.4443H527.5V78.2227H528V83.1113H527.5V88C527.5 89.393 527.379 90.7573 527.146 92.083L527.638 92.1689C527.394 93.561 527.03 94.9115 526.558 96.21L526.089 96.04C525.142 98.64 523.75 101.026 522.003 103.105L522.384 103.426C521.485 104.495 520.495 105.485 519.426 106.384L519.105 106.003C517.026 107.75 514.64 109.142 512.04 110.089L512.21 110.558C510.912 111.03 509.561 111.394 508.169 111.638L508.083 111.146C506.757 111.379 505.393 111.5 504 111.5H499.014V112H494.024V111.5H484.046V112H479.057V111.5H469.078V112H464.089V111.5H454.11V112H449.121V111.5H439.143V112H434.153V111.5H424.175V112H419.186V111.5H409.207V112H404.218V111.5H394.239V112H389.25V111.5H379.271V112H374.282V111.5H364.304V112H359.314V111.5H349.336V112H344.347V111.5H334.368V112H329.379V111.5H319.4V112H314.411V111.5H304.433V112H299.443V111.5H289.465V112H284.476V111.5H274.497V112H269.508V111.5H259.529V112H254.54V111.5H244.562V112H239.572V111.5H229.594V112H224.604V111.5H214.626V112H209.637V111.5H199.658V112H194.669V111.5H184.69V112H179.701V111.5H169.723V112H164.733V111.5H154.755V112H149.766V111.5H139.787V112H134.798V111.5H124.819V112H119.83V111.5H109.852V112H104.862V111.5H94.8838V112H89.8945V111.5H79.916V112H74.9268V111.5H64.9482V112H59.959V111.5H49.9805V112H44.9912V111.5H35.0127V112H30.0234V111.5H20.0449V112H15.0557V111.5H5.07715V112H0.0878906V111.5H-9.89062V112H-14.8799V111.5H-24.8584V112H-29.8477V111.5H-39.8262V112H-44.8154V111.5H-54.7939V112H-59.7832V111.5H-69.7617V112H-74.751V111.5H-84.7295V112H-89.7188V111.5H-99.6973V112H-104.687V111.5H-114.665V112H-119.654V111.5H-129.633V112H-134.622V111.5H-144.601V112H-149.59V111.5H-159.568V112H-164.558V111.5H-174.536V112H-179.525V111.5H-189.504V112H-194.493V111.5H-204.472V112H-209.461V111.5H-219.439V112H-224.429V111.5H-234.407V112H-239.396V111.5H-249.375V112H-254.364V111.5H-264.343V112H-269.332V111.5H-279.311V112H-284.3V111.5H-294.278V112H-299.268V111.5H-309.246V112H-314.235V111.5H-324.214V112H-329.203V111.5H-339.182V112H-344.171V111.5H-354.149V112H-359.139V111.5H-369.117V112H-374.106V111.5H-384.085V112H-389.074V111.5H-399.053V112H-404.042V111.5H-414.021V112H-419.01V111.5H-428.988V112H-433.978V111.5H-443.956V112H-448.945V111.5H-458.924V112H-463.913V111.5H-473.892V112H-478.881V111.5H-488.859V112H-493.849V111.5H-503.827V112H-508.816V111.5H-518.795V112H-523.784V111.5H-533.763V112H-538.752V111.5H-548.73V112H-553.72V111.5H-563.698V112H-568.688V111.5H-578.666V112H-583.655V111.5H-593.634V112H-598.623V111.5H-608.602V112H-613.591V111.5H-623.569V112H-628.559V111.5H-638.537V112H-643.526V111.5H-653.505V112H-658.494V111.5H-668.473V112H-673.462V111.5H-683.44V112H-688.43V111.5H-698.408V112H-703.397V111.5H-713.376V112H-718.365V111.5H-728.344V112H-733.333V111.5H-743.312V112H-748.301V111.5H-758.279V112H-763.269V111.5H-773.247V112H-778.236V111.5H-788.215V112H-793.204V111.5H-803.183V112H-808.172V111.5H-818.15V112H-823.14V111.5H-833.118V112H-838.107V111.5H-848.086V112H-853.075V111.5H-863.054V112H-868.043V111.5H-878.021V112H-883.011V111.5H-892.989V112H-897.979V111.5H-907.957V112H-912.946V111.5H-922.925V112H-927.914V111.5H-937.893V112H-942.882V111.5H-952.86V112H-957.85V111.5H-967.828V112H-972.817V111.5H-982.796V112H-987.785V111.5H-997.764V112H-1002.75V111.5H-1012.73V112H-1017.72V111.5H-1027.7V112H-1032.69V111.5H-1042.67V112H-1047.66V111.5H-1057.63V112H-1062.62V111.5H-1072.6V112H-1077.59V111.5H-1087.57V112H-1092.56V111.5H-1102.54V112H-1107.53V111.5H-1117.5V112H-1122.49V111.5H-1132.47V112H-1137.46V111.5H-1147.44V112H-1152.43V111.5H-1162.41V112H-1167.4V111.5H-1177.38V112H-1182.37V111.5H-1192.34V112H-1197.33V111.5H-1207.31V112H-1212.3V111.5H-1222.28V112H-1227.27V111.5H-1237.25V112H-1242.24V111.5H-1252.21V112H-1257.2V111.5H-1267.18V112H-1272.17V111.5H-1282.15V112H-1287.14V111.5H-1297.12V112H-1302.11V111.5H-1312.09V112H-1317.08V111.5H-1327.05V112H-1332.04V111.5H-1342.02V112H-1347.01V111.5H-1352C-1353.39 111.5 -1354.76 111.379 -1356.08 111.146L-1356.17 111.638C-1357.56 111.394 -1358.91 111.03 -1360.21 110.558L-1360.04 110.089C-1362.64 109.142 -1365.03 107.75 -1367.11 106.003L-1367.43 106.384C-1368.5 105.485 -1369.49 104.495 -1370.38 103.426L-1370 103.105C-1371.75 101.026 -1373.14 98.64 -1374.09 96.04L-1374.56 96.21C-1375.03 94.9116 -1375.39 93.5609 -1375.64 92.1689L-1375.15 92.083C-1375.38 90.7573 -1375.5 89.393 -1375.5 88V83.1113H-1376V78.2227H-1375.5V68.4443H-1376V63.5557H-1375.5V53.7773H-1376V48.8887H-1375.5V39.1113H-1376V34.2227H-1375.5V24.4443H-1376V19.5557H-1375.5V9.77734H-1376V4.88867H-1375.5V0C-1375.5 -1.393 -1375.38 -2.75727 -1375.15 -4.08301L-1375.64 -4.16992C-1375.43 -5.37923 -1375.12 -6.5575 -1374.74 -7.69727L-1374.56 -8.21094L-1374.09 -8.04004C-1373.14 -10.64 -1371.75 -13.026 -1370 -15.1055L-1370.38 -15.4268C-1369.49 -16.4964 -1368.5 -17.4863 -1367.43 -18.3848L-1367.11 -18.0029C-1365.03 -19.7496 -1362.64 -21.1423 -1360.04 -22.0889L-1360.21 -22.5586C-1358.91 -23.0313 -1357.56 -23.3948 -1356.17 -23.6387L-1356.08 -23.1465C-1354.76 -23.3787 -1353.39 -23.5 -1352 -23.5H-1347.01V-24H-1342.02V-23.5H-1332.05V-24H-1327.06V-23.5H-1317.08V-24H-1312.09V-23.5H-1302.11V-24H-1297.12V-23.5H-1287.14V-24H-1282.15V-23.5H-1272.17V-24H-1267.19V-23.5H-1257.21V-24H-1252.22V-23.5H-1242.24V-24H-1237.25V-23.5H-1227.27V-24H-1222.28V-23.5H-1212.3V-24H-1207.31V-23.5H-1197.34V-24H-1192.35V-23.5H-1182.37V-24H-1177.38V-23.5H-1167.4V-24H-1162.41V-23.5H-1152.43V-24H-1147.44V-23.5H-1137.46V-24H-1132.48V-23.5H-1122.5V-24H-1117.51V-23.5H-1107.53V-24H-1102.54V-23.5H-1092.56V-24H-1087.57V-23.5H-1077.59V-24H-1072.6V-23.5H-1062.63V-24H-1057.64V-23.5H-1047.66V-24H-1042.67V-23.5H-1032.69V-24H-1027.7V-23.5H-1017.72V-24H-1012.73V-23.5H-1002.75V-24H-997.766V-23.5H-987.787V-24H-982.798V-23.5H-972.819V-24H-967.83V-23.5H-957.852V-24H-952.862V-23.5H-942.884V-24H-937.895V-23.5H-927.916V-24H-922.927V-23.5H-912.948V-24H-907.959V-23.5H-897.98V-24H-892.991V-23.5H-883.013V-24H-878.023V-23.5H-868.045V-24H-863.056V-23.5H-853.077V-24H-848.088V-23.5H-838.109V-24H-833.12V-23.5H-823.142V-24H-818.152V-23.5H-808.174V-24H-803.185V-23.5H-793.206V-24H-788.217V-23.5H-778.238V-24H-773.249V-23.5H-763.271V-24H-758.281V-23.5H-748.303V-24H-743.313V-23.5H-733.335V-24H-728.346V-23.5H-718.367V-24H-713.378V-23.5H-703.399V-24H-698.41V-23.5H-688.432V-24H-683.442V-23.5H-673.464V-24H-668.475V-23.5H-658.496V-24H-653.507V-23.5H-643.528V-24H-638.539V-23.5H-628.561V-24H-623.571V-23.5H-613.593V-24H-608.604V-23.5H-598.625V-24H-593.636V-23.5H-583.657V-24H-578.668V-23.5H-568.689V-24H-563.7V-23.5H-553.722V-24H-548.732V-23.5H-538.754V-24H-533.765V-23.5H-523.786V-24H-518.797V-23.5H-508.818V-24H-503.829V-23.5H-493.851V-24H-488.861V-23.5H-478.883V-24H-473.894V-23.5H-463.915V-24H-458.926V-23.5H-448.947V-24H-443.958V-23.5H-433.979V-24H-428.99V-23.5H-419.012V-24H-414.022V-23.5H-404.044V-24H-399.055V-23.5H-389.076V-24H-384.087V-23.5H-374.108V-24H-369.119V-23.5H-359.141V-24H-354.151V-23.5H-344.173V-24H-339.184V-23.5H-329.205V-24H-324.216V-23.5H-314.237V-24H-309.248V-23.5H-299.27V-24H-294.28V-23.5H-284.302V-24H-279.312V-23.5H-269.334V-24H-264.345V-23.5H-254.366V-24H-249.377V-23.5H-239.398V-24H-234.409V-23.5H-224.431V-24H-219.441V-23.5H-209.463V-24H-204.474V-23.5H-194.495V-24H-189.506V-23.5H-179.527V-24H-174.538V-23.5H-164.56V-24H-159.57V-23.5H-149.592V-24H-144.603V-23.5H-134.624V-24H-129.635V-23.5H-119.656V-24H-114.667V-23.5H-104.688V-24H-99.6992V-23.5H-89.7207V-24H-84.7314V-23.5H-74.7529V-24H-69.7637V-23.5H-59.7852V-24H-54.7959V-23.5H-44.8174V-24H-39.8281V-23.5H-29.8496V-24H-24.8604V-23.5H-14.8818V-24H-9.89258V-23.5H0.0859375V-24H5.0752V-23.5H15.0537V-24H20.043V-23.5H30.0215V-24H35.0107V-23.5H44.9893V-24H49.9785V-23.5H59.957V-24H64.9463V-23.5H74.9248V-24H79.9141V-23.5H89.8926V-24H94.8818V-23.5H104.86V-24H109.85V-23.5H119.828V-24H124.817V-23.5H134.796V-24H139.785V-23.5H149.764V-24H154.753V-23.5H164.731V-24H169.721V-23.5H179.699V-24H184.688V-23.5H194.667V-24H199.656V-23.5H209.635V-24H214.624V-23.5H224.603V-24H229.592V-23.5H239.57V-24H244.56V-23.5H254.538V-24H259.527V-23.5H269.506V-24H274.494V-23.5H284.473V-24H289.462V-23.5H299.44V-24H304.43V-23.5H314.408V-24H319.397V-23.5H329.376V-24H334.365V-23.5H344.344V-24H349.333V-23.5H359.312V-24H364.301V-23.5H374.279V-24H379.269V-23.5H389.247V-24H394.236V-23.5H404.215V-24H409.204V-23.5H419.183V-24H424.172V-23.5H434.15V-24H439.14V-23.5H449.118V-24H454.107V-23.5H464.086V-24H469.075V-23.5H479.054V-24H484.043V-23.5H494.021V-24H499.011V-23.5H504C505.393 -23.5 506.757 -23.3787 508.083 -23.1465L508.169 -23.6387C509.561 -23.3949 510.912 -23.0312 512.21 -22.5586L512.04 -22.0889C514.64 -21.1423 517.026 -19.7496 519.105 -18.0029L519.426 -18.3848C520.495 -17.4863 521.485 -16.4964 522.384 -15.4268L522.003 -15.1055C523.75 -13.026 525.142 -10.64 526.089 -8.04004L526.558 -8.21094Z" stroke="#8A38F5" stroke-dasharray="10 5"/>
<g id="Name=&#208;&#160;&#208;&#176;&#208;&#177;&#208;&#190;&#209;&#135;&#208;&#184;&#208;&#185; &#209;&#129;&#209;&#130;&#208;&#190;&#208;&#187;">
<g id="Group 2087326357">
<rect id="Rectangle 1005465" x="52.9092" y="44.2207" width="4.938" height="20.7396" fill="#6600BA"/>
<path id="Union" d="M65.748 34.3447H70.6865V48.3682H40.0713V34.3447H45.0088V17.1602H65.748V34.3447Z" fill="#2DA771"/>
<rect id="Rectangle 1005466" x="46.7861" y="59.627" width="17.1842" height="5.33304" fill="#E7C1FF"/>
<rect id="Rectangle 1005460" x="7.47998" y="37.3066" width="72.6873" height="13.8264" fill="#FFDF75"/>
<g id="Group 2087326335">
<rect id="Rectangle 1005461" x="11.2324" y="37.3066" width="7.70327" height="33.7759" fill="#FFDF75"/>
<rect id="Rectangle 1005462" x="68.7109" y="37.3066" width="7.70327" height="33.7759" fill="#FFDF75"/>
</g>
<rect id="Rectangle 1005463" x="23.2812" y="20.9141" width="23.4661" height="16.3941" rx="5.84462" fill="#6600BA"/>
<g id="Ellipse 132" filter="url(#filter0_f_6227_5096)">
<circle cx="35.0148" cy="29.11" r="4.01817" fill="#E7C1FF"/>
</g>
<g id="Mask group">
<mask id="mask0_6227_5096" style="mask-type:alpha" maskUnits="userSpaceOnUse" x="7" y="37" width="74" height="15">
<rect id="Rectangle 1005467" x="7.47998" y="37.3066" width="72.6873" height="13.8264" fill="#FFDF75"/>
</mask>
<g mask="url(#mask0_6227_5096)">
<g id="Intersect" filter="url(#filter1_f_6227_5096)">
<path d="M70.6865 48.3701H40.0713V37.3086H70.6865V48.3701Z" fill="#2DA771"/>
</g>
</g>
</g>
</g>
</g>
</g>
<defs>
<filter id="filter0_f_6227_5096" x="29.5354" y="23.6306" width="10.9584" height="10.9594" filterUnits="userSpaceOnUse" color-interpolation-filters="sRGB">
<feFlood flood-opacity="0" result="BackgroundImageFix"/>
<feBlend mode="normal" in="SourceGraphic" in2="BackgroundImageFix" result="shape"/>
<feGaussianBlur stdDeviation="0.730577" result="effect1_foregroundBlur_6227_5096"/>
</filter>
<filter id="filter1_f_6227_5096" x="31.9909" y="29.2282" width="46.7759" height="27.2232" filterUnits="userSpaceOnUse" color-interpolation-filters="sRGB">
<feFlood flood-opacity="0" result="BackgroundImageFix"/>
<feBlend mode="normal" in="SourceGraphic" in2="BackgroundImageFix" result="shape"/>
<feGaussianBlur stdDeviation="4.04018" result="effect1_foregroundBlur_6227_5096"/>
</filter>
</defs>
</svg>
