<svg width="88" height="88" viewBox="0 0 88 88" fill="none" xmlns="http://www.w3.org/2000/svg">
<g id="Small Image"><g id="Name=&#208;&#160;&#208;&#176;&#208;&#177;&#208;&#190;&#209;&#135;&#208;&#184;&#208;&#185; &#209;&#129;&#209;&#130;&#208;&#190;&#208;&#187;">
<g id="Group 2087326357">
<rect id="Rectangle 1005465" x="52.9092" y="44.2207" width="4.938" height="20.7396" fill="#6600BA"/>
<path id="Union" d="M65.748 34.3447H70.6865V48.3682H40.0713V34.3447H45.0088V17.1602H65.748V34.3447Z" fill="#2DA771"/>
<rect id="Rectangle 1005466" x="46.7861" y="59.627" width="17.1842" height="5.33304" fill="#E7C1FF"/>
<rect id="Rectangle 1005460" x="7.47998" y="37.3066" width="72.6873" height="13.8264" fill="#FFDF75"/>
<g id="Group 2087326335">
<rect id="Rectangle 1005461" x="11.2324" y="37.3066" width="7.70327" height="33.7759" fill="#FFDF75"/>
<rect id="Rectangle 1005462" x="68.7109" y="37.3066" width="7.70327" height="33.7759" fill="#FFDF75"/>
</g>
<rect id="Rectangle 1005463" x="23.2812" y="20.9141" width="23.4661" height="16.3941" rx="5.84462" fill="#6600BA"/>
<g id="Ellipse 132" filter="url(#filter0_f_6227_5096)">
<circle cx="35.0148" cy="29.11" r="4.01817" fill="#E7C1FF"/>
</g>
<g id="Mask group">
<mask id="mask0_6227_5096" style="mask-type:alpha" maskUnits="userSpaceOnUse" x="7" y="37" width="74" height="15">
<rect id="Rectangle 1005467" x="7.47998" y="37.3066" width="72.6873" height="13.8264" fill="#FFDF75"/>
</mask>
<g mask="url(#mask0_6227_5096)">
<g id="Intersect" filter="url(#filter1_f_6227_5096)">
<path d="M70.6865 48.3701H40.0713V37.3086H70.6865V48.3701Z" fill="#2DA771"/>
</g>
</g>
</g>
</g>
</g>
</g>
<defs>
<filter id="filter0_f_6227_5096" x="29.5354" y="23.6306" width="10.9584" height="10.9594" filterUnits="userSpaceOnUse" color-interpolation-filters="sRGB">
<feFlood flood-opacity="0" result="BackgroundImageFix"/>
<feBlend mode="normal" in="SourceGraphic" in2="BackgroundImageFix" result="shape"/>
<feGaussianBlur stdDeviation="0.730577" result="effect1_foregroundBlur_6227_5096"/>
</filter>
<filter id="filter1_f_6227_5096" x="31.9909" y="29.2282" width="46.7759" height="27.2232" filterUnits="userSpaceOnUse" color-interpolation-filters="sRGB">
<feFlood flood-opacity="0" result="BackgroundImageFix"/>
<feBlend mode="normal" in="SourceGraphic" in2="BackgroundImageFix" result="shape"/>
<feGaussianBlur stdDeviation="4.04018" result="effect1_foregroundBlur_6227_5096"/>
</filter>
</defs>
</svg>
