<svg width="88" height="88" viewBox="0 0 88 88" fill="none" xmlns="http://www.w3.org/2000/svg">
<g id="Small Image"><g id="Name=&#208;&#148;&#208;&#190;&#208;&#186;&#209;&#131;&#208;&#188;&#208;&#181;&#208;&#189;&#209;&#130;&#209;&#139;">
<g id="Group 2087326355">
<rect id="Rectangle 1005446" x="67.879" y="28.6115" width="11.7854" height="12.127" rx="5.89271" stroke="#FFDF75" stroke-width="11.7854"/>
<path id="Rectangle 1005445" d="M40.4658 14.5195H57.2045H73.9433V58.5868H57.2045H40.4658V14.5195Z" fill="#2DA771"/>
<g id="Intersect" filter="url(#filter0_f_6227_5096)">
<path d="M73.9492 22.7959V30.4678L73.8184 30.4648C71.477 30.4648 69.5791 32.3627 69.5791 34.7041L69.584 34.9219C69.6975 37.1619 71.5501 38.9434 73.8184 38.9434C73.8622 38.9434 73.9057 38.9408 73.9492 38.9395V46.6113C73.9057 46.6118 73.862 46.6133 73.8184 46.6133C67.2412 46.6133 61.9094 41.2812 61.9092 34.7041C61.9092 28.1268 67.2411 22.7949 73.8184 22.7949C73.862 22.7949 73.9057 22.7954 73.9492 22.7959Z" fill="#FFDF75"/>
</g>
<rect id="Rectangle 1005447" x="13.542" y="24.8203" width="35.5967" height="38.941" transform="rotate(12.249 13.542 24.8203)" fill="#E7C1FF"/>
<g id="Rectangle 1005448" filter="url(#filter1_f_6227_5096)">
<rect x="17.9692" y="32.2422" width="23.8184" height="5.2348" transform="rotate(12.249 17.9692 32.2422)" fill="#6600BA"/>
</g>
<g id="Rectangle 1005449" filter="url(#filter2_f_6227_5096)">
<rect x="15.9697" y="41.4492" width="23.8184" height="5.2348" transform="rotate(12.249 15.9697 41.4492)" fill="#6600BA"/>
</g>
<g id="Rectangle 1005450" filter="url(#filter3_f_6227_5096)">
<rect x="13.9717" y="50.6582" width="23.8184" height="5.2348" transform="rotate(12.249 13.9717 50.6582)" fill="#6600BA"/>
</g>
</g>
</g>
</g>
<defs>
<filter id="filter0_f_6227_5096" x="54.4559" y="15.3417" width="26.9465" height="38.7248" filterUnits="userSpaceOnUse" color-interpolation-filters="sRGB">
<feFlood flood-opacity="0" result="BackgroundImageFix"/>
<feBlend mode="normal" in="SourceGraphic" in2="BackgroundImageFix" result="shape"/>
<feGaussianBlur stdDeviation="3.72662" result="effect1_foregroundBlur_6227_5096"/>
</filter>
<filter id="filter1_f_6227_5096" x="9.46727" y="24.8511" width="39.1695" height="24.9522" filterUnits="userSpaceOnUse" color-interpolation-filters="sRGB">
<feFlood flood-opacity="0" result="BackgroundImageFix"/>
<feBlend mode="normal" in="SourceGraphic" in2="BackgroundImageFix" result="shape"/>
<feGaussianBlur stdDeviation="3.69556" result="effect1_foregroundBlur_6227_5096"/>
</filter>
<filter id="filter2_f_6227_5096" x="7.46776" y="34.0581" width="39.1695" height="24.9522" filterUnits="userSpaceOnUse" color-interpolation-filters="sRGB">
<feFlood flood-opacity="0" result="BackgroundImageFix"/>
<feBlend mode="normal" in="SourceGraphic" in2="BackgroundImageFix" result="shape"/>
<feGaussianBlur stdDeviation="3.69556" result="effect1_foregroundBlur_6227_5096"/>
</filter>
<filter id="filter3_f_6227_5096" x="5.46972" y="43.2671" width="39.1695" height="24.9522" filterUnits="userSpaceOnUse" color-interpolation-filters="sRGB">
<feFlood flood-opacity="0" result="BackgroundImageFix"/>
<feBlend mode="normal" in="SourceGraphic" in2="BackgroundImageFix" result="shape"/>
<feGaussianBlur stdDeviation="3.69556" result="effect1_foregroundBlur_6227_5096"/>
</filter>
</defs>
</svg>
