<svg width="88" height="88" viewBox="0 0 88 88" fill="none" xmlns="http://www.w3.org/2000/svg">
<rect width="88" height="88" fill="#545454"/>
<g id="Small Image">
<path d="M422.558 -8.21094C423.03 -6.91254 423.394 -5.56192 423.638 -4.16992L423.146 -4.08301C423.379 -2.75727 423.5 -1.393 423.5 0V4.88867H424V9.77734H423.5V19.5557H424V24.4443H423.5V34.2227H424V39.1113H423.5V48.8887H424V53.7773H423.5V63.5557H424V68.4443H423.5V78.2227H424V83.1113H423.5V88C423.5 89.393 423.379 90.7573 423.146 92.083L423.638 92.1689C423.394 93.561 423.03 94.9115 422.558 96.21L422.089 96.04C421.142 98.64 419.75 101.026 418.003 103.105L418.384 103.426C417.485 104.495 416.495 105.485 415.426 106.384L415.105 106.003C413.026 107.75 410.64 109.142 408.04 110.089L408.21 110.558C406.912 111.03 405.561 111.394 404.169 111.638L404.083 111.146C402.757 111.379 401.393 111.5 400 111.5H395.014V112H390.024V111.5H380.046V112H375.057V111.5H365.078V112H360.089V111.5H350.11V112H345.121V111.5H335.143V112H330.153V111.5H320.175V112H315.186V111.5H305.207V112H300.218V111.5H290.239V112H285.25V111.5H275.271V112H270.282V111.5H260.304V112H255.314V111.5H245.336V112H240.347V111.5H230.368V112H225.379V111.5H215.4V112H210.411V111.5H200.433V112H195.443V111.5H185.465V112H180.476V111.5H170.497V112H165.508V111.5H155.529V112H150.54V111.5H140.562V112H135.572V111.5H125.594V112H120.604V111.5H110.626V112H105.637V111.5H95.6582V112H90.6689V111.5H80.6904V112H75.7012V111.5H65.7227V112H60.7334V111.5H50.7549V112H45.7656V111.5H35.7871V112H30.7979V111.5H20.8193V112H15.8301V111.5H5.85156V112H0.862305V111.5H-9.11621V112H-14.1055V111.5H-24.084V112H-29.0732V111.5H-39.0518V112H-44.041V111.5H-54.0195V112H-59.0088V111.5H-68.9873V112H-73.9766V111.5H-83.9551V112H-88.9443V111.5H-98.9229V112H-103.912V111.5H-113.891V112H-118.88V111.5H-128.858V112H-133.848V111.5H-143.826V112H-148.815V111.5H-158.794V112H-163.783V111.5H-173.762V112H-178.751V111.5H-188.729V112H-193.719V111.5H-203.697V112H-208.687V111.5H-218.665V112H-223.654V111.5H-233.633V112H-238.622V111.5H-248.601V112H-253.59V111.5H-263.568V112H-268.558V111.5H-278.536V112H-283.525V111.5H-293.504V112H-298.493V111.5H-308.472V112H-313.461V111.5H-323.439V112H-328.429V111.5H-338.407V112H-343.396V111.5H-353.375V112H-358.364V111.5H-368.343V112H-373.332V111.5H-383.311V112H-388.3V111.5H-398.278V112H-403.268V111.5H-413.246V112H-418.235V111.5H-428.214V112H-433.203V111.5H-443.182V112H-448.171V111.5H-458.149V112H-463.139V111.5H-473.117V112H-478.106V111.5H-488.085V112H-493.074V111.5H-503.053V112H-508.042V111.5H-518.021V112H-523.01V111.5H-532.988V112H-537.978V111.5H-547.956V112H-552.945V111.5H-562.924V112H-567.913V111.5H-577.892V112H-582.881V111.5H-592.859V112H-597.849V111.5H-607.827V112H-612.816V111.5H-622.795V112H-627.784V111.5H-637.763V112H-642.752V111.5H-652.73V112H-657.72V111.5H-667.698V112H-672.688V111.5H-682.666V112H-687.655V111.5H-697.634V112H-702.623V111.5H-712.602V112H-717.591V111.5H-727.569V112H-732.559V111.5H-742.537V112H-747.526V111.5H-757.505V112H-762.494V111.5H-772.473V112H-777.462V111.5H-787.44V112H-792.43V111.5H-802.408V112H-807.397V111.5H-817.376V112H-822.365V111.5H-832.344V112H-837.333V111.5H-847.312V112H-852.301V111.5H-862.279V112H-867.269V111.5H-877.247V112H-882.236V111.5H-892.215V112H-897.204V111.5H-907.183V112H-912.172V111.5H-922.15V112H-927.14V111.5H-937.118V112H-942.107V111.5H-952.086V112H-957.075V111.5H-967.054V112H-972.043V111.5H-982.021V112H-987.011V111.5H-996.989V112H-1001.98V111.5H-1011.96V112H-1016.95V111.5H-1026.92V112H-1031.91V111.5H-1041.89V112H-1046.88V111.5H-1056.86V112H-1061.85V111.5H-1071.83V112H-1076.82V111.5H-1086.8V112H-1091.79V111.5H-1101.76V112H-1106.75V111.5H-1116.73V112H-1121.72V111.5H-1131.7V112H-1136.69V111.5H-1146.67V112H-1151.66V111.5H-1161.63V112H-1166.62V111.5H-1176.6V112H-1181.59V111.5H-1191.57V112H-1196.56V111.5H-1206.54V112H-1211.53V111.5H-1221.5V112H-1226.49V111.5H-1236.47V112H-1241.46V111.5H-1251.44V112H-1256.43V111.5H-1266.41V112H-1271.4V111.5H-1281.38V112H-1286.37V111.5H-1296.34V112H-1301.33V111.5H-1311.31V112H-1316.3V111.5H-1326.28V112H-1331.27V111.5H-1341.25V112H-1346.24V111.5H-1356.21V112H-1361.2V111.5H-1371.18V112H-1376.17V111.5H-1386.15V112H-1391.14V111.5H-1401.12V112H-1406.11V111.5H-1416.09V112H-1421.08V111.5H-1431.05V112H-1436.04V111.5H-1446.02V112H-1451.01V111.5H-1456C-1457.39 111.5 -1458.76 111.379 -1460.08 111.146L-1460.17 111.638C-1461.56 111.394 -1462.91 111.03 -1464.21 110.558L-1464.04 110.089C-1466.64 109.142 -1469.03 107.75 -1471.11 106.003L-1471.43 106.384C-1472.5 105.485 -1473.49 104.495 -1474.38 103.426L-1474 103.105C-1475.75 101.026 -1477.14 98.64 -1478.09 96.04L-1478.56 96.21C-1479.03 94.9116 -1479.39 93.5609 -1479.64 92.1689L-1479.15 92.083C-1479.38 90.7573 -1479.5 89.393 -1479.5 88V83.1113H-1480V78.2227H-1479.5V68.4443H-1480V63.5557H-1479.5V53.7773H-1480V48.8887H-1479.5V39.1113H-1480V34.2227H-1479.5V24.4443H-1480V19.5557H-1479.5V9.77734H-1480V4.88867H-1479.5V0C-1479.5 -1.393 -1479.38 -2.75727 -1479.15 -4.08301L-1479.64 -4.16992C-1479.43 -5.37923 -1479.12 -6.5575 -1478.74 -7.69727L-1478.56 -8.21094L-1478.09 -8.04004C-1477.14 -10.64 -1475.75 -13.026 -1474 -15.1055L-1474.38 -15.4268C-1473.49 -16.4964 -1472.5 -17.4863 -1471.43 -18.3848L-1471.11 -18.0029C-1469.03 -19.7496 -1466.64 -21.1423 -1464.04 -22.0889L-1464.21 -22.5586C-1462.91 -23.0313 -1461.56 -23.3948 -1460.17 -23.6387L-1460.08 -23.1465C-1458.76 -23.3787 -1457.39 -23.5 -1456 -23.5H-1451.01V-24H-1446.02V-23.5H-1436.05V-24H-1431.06V-23.5H-1421.08V-24H-1416.09V-23.5H-1406.11V-24H-1401.12V-23.5H-1391.14V-24H-1386.15V-23.5H-1376.17V-24H-1371.19V-23.5H-1361.21V-24H-1356.22V-23.5H-1346.24V-24H-1341.25V-23.5H-1331.27V-24H-1326.28V-23.5H-1316.3V-24H-1311.31V-23.5H-1301.34V-24H-1296.35V-23.5H-1286.37V-24H-1281.38V-23.5H-1271.4V-24H-1266.41V-23.5H-1256.43V-24H-1251.44V-23.5H-1241.46V-24H-1236.48V-23.5H-1226.5V-24H-1221.51V-23.5H-1211.53V-24H-1206.54V-23.5H-1196.56V-24H-1191.57V-23.5H-1181.59V-24H-1176.6V-23.5H-1166.63V-24H-1161.64V-23.5H-1151.66V-24H-1146.67V-23.5H-1136.69V-24H-1131.7V-23.5H-1121.72V-24H-1116.73V-23.5H-1106.75V-24H-1101.77V-23.5H-1091.79V-24H-1086.8V-23.5H-1076.82V-24H-1071.83V-23.5H-1061.85V-24H-1056.86V-23.5H-1046.88V-24H-1041.89V-23.5H-1031.92V-24H-1026.93V-23.5H-1016.95V-24H-1011.96V-23.5H-1001.98V-24H-996.991V-23.5H-987.013V-24H-982.023V-23.5H-972.045V-24H-967.056V-23.5H-957.077V-24H-952.088V-23.5H-942.109V-24H-937.12V-23.5H-927.142V-24H-922.152V-23.5H-912.174V-24H-907.185V-23.5H-897.206V-24H-892.217V-23.5H-882.238V-24H-877.249V-23.5H-867.271V-24H-862.281V-23.5H-852.303V-24H-847.313V-23.5H-837.335V-24H-832.346V-23.5H-822.367V-24H-817.378V-23.5H-807.399V-24H-802.41V-23.5H-792.432V-24H-787.442V-23.5H-777.464V-24H-772.475V-23.5H-762.496V-24H-757.507V-23.5H-747.528V-24H-742.539V-23.5H-732.561V-24H-727.571V-23.5H-717.593V-24H-712.604V-23.5H-702.625V-24H-697.636V-23.5H-687.657V-24H-682.668V-23.5H-672.689V-24H-667.7V-23.5H-657.722V-24H-652.732V-23.5H-642.754V-24H-637.765V-23.5H-627.786V-24H-622.797V-23.5H-612.818V-24H-607.829V-23.5H-597.851V-24H-592.861V-23.5H-582.883V-24H-577.894V-23.5H-567.915V-24H-562.926V-23.5H-552.947V-24H-547.958V-23.5H-537.979V-24H-532.99V-23.5H-523.012V-24H-518.022V-23.5H-508.044V-24H-503.055V-23.5H-493.076V-24H-488.087V-23.5H-478.108V-24H-473.119V-23.5H-463.141V-24H-458.151V-23.5H-448.173V-24H-443.184V-23.5H-433.205V-24H-428.216V-23.5H-418.237V-24H-413.248V-23.5H-403.27V-24H-398.28V-23.5H-388.302V-24H-383.312V-23.5H-373.334V-24H-368.345V-23.5H-358.366V-24H-353.377V-23.5H-343.398V-24H-338.409V-23.5H-328.431V-24H-323.441V-23.5H-313.463V-24H-308.474V-23.5H-298.495V-24H-293.506V-23.5H-283.527V-24H-278.538V-23.5H-268.56V-24H-263.57V-23.5H-253.592V-24H-248.603V-23.5H-238.624V-24H-233.635V-23.5H-223.656V-24H-218.667V-23.5H-208.688V-24H-203.699V-23.5H-193.721V-24H-188.731V-23.5H-178.753V-24H-173.764V-23.5H-163.785V-24H-158.796V-23.5H-148.817V-24H-143.828V-23.5H-133.85V-24H-128.86V-23.5H-118.882V-24H-113.893V-23.5H-103.914V-24H-98.9248V-23.5H-88.9463V-24H-83.957V-23.5H-73.9785V-24H-68.9893V-23.5H-59.0107V-24H-54.0215V-23.5H-44.043V-24H-39.0537V-23.5H-29.0752V-24H-24.0859V-23.5H-14.1074V-24H-9.11816V-23.5H0.860352V-24H5.84961V-23.5H15.8281V-24H20.8174V-23.5H30.7959V-24H35.7852V-23.5H45.7637V-24H50.7529V-23.5H60.7314V-24H65.7207V-23.5H75.6992V-24H80.6885V-23.5H90.667V-24H95.6562V-23.5H105.635V-24H110.624V-23.5H120.603V-24H125.592V-23.5H135.57V-24H140.56V-23.5H150.538V-24H155.527V-23.5H165.506V-24H170.494V-23.5H180.473V-24H185.462V-23.5H195.44V-24H200.43V-23.5H210.408V-24H215.397V-23.5H225.376V-24H230.365V-23.5H240.344V-24H245.333V-23.5H255.312V-24H260.301V-23.5H270.279V-24H275.269V-23.5H285.247V-24H290.236V-23.5H300.215V-24H305.204V-23.5H315.183V-24H320.172V-23.5H330.15V-24H335.14V-23.5H345.118V-24H350.107V-23.5H360.086V-24H365.075V-23.5H375.054V-24H380.043V-23.5H390.021V-24H395.011V-23.5H400C401.393 -23.5 402.757 -23.3787 404.083 -23.1465L404.169 -23.6387C405.561 -23.3949 406.912 -23.0312 408.21 -22.5586L408.04 -22.0889C410.64 -21.1423 413.026 -19.7496 415.105 -18.0029L415.426 -18.3848C416.495 -17.4863 417.485 -16.4964 418.384 -15.4268L418.003 -15.1055C419.75 -13.026 421.142 -10.64 422.089 -8.04004L422.558 -8.21094Z" fill="white"/>
<path d="M422.558 -8.21094C423.03 -6.91254 423.394 -5.56192 423.638 -4.16992L423.146 -4.08301C423.379 -2.75727 423.5 -1.393 423.5 0V4.88867H424V9.77734H423.5V19.5557H424V24.4443H423.5V34.2227H424V39.1113H423.5V48.8887H424V53.7773H423.5V63.5557H424V68.4443H423.5V78.2227H424V83.1113H423.5V88C423.5 89.393 423.379 90.7573 423.146 92.083L423.638 92.1689C423.394 93.561 423.03 94.9115 422.558 96.21L422.089 96.04C421.142 98.64 419.75 101.026 418.003 103.105L418.384 103.426C417.485 104.495 416.495 105.485 415.426 106.384L415.105 106.003C413.026 107.75 410.64 109.142 408.04 110.089L408.21 110.558C406.912 111.03 405.561 111.394 404.169 111.638L404.083 111.146C402.757 111.379 401.393 111.5 400 111.5H395.014V112H390.024V111.5H380.046V112H375.057V111.5H365.078V112H360.089V111.5H350.11V112H345.121V111.5H335.143V112H330.153V111.5H320.175V112H315.186V111.5H305.207V112H300.218V111.5H290.239V112H285.25V111.5H275.271V112H270.282V111.5H260.304V112H255.314V111.5H245.336V112H240.347V111.5H230.368V112H225.379V111.5H215.4V112H210.411V111.5H200.433V112H195.443V111.5H185.465V112H180.476V111.5H170.497V112H165.508V111.5H155.529V112H150.54V111.5H140.562V112H135.572V111.5H125.594V112H120.604V111.5H110.626V112H105.637V111.5H95.6582V112H90.6689V111.5H80.6904V112H75.7012V111.5H65.7227V112H60.7334V111.5H50.7549V112H45.7656V111.5H35.7871V112H30.7979V111.5H20.8193V112H15.8301V111.5H5.85156V112H0.862305V111.5H-9.11621V112H-14.1055V111.5H-24.084V112H-29.0732V111.5H-39.0518V112H-44.041V111.5H-54.0195V112H-59.0088V111.5H-68.9873V112H-73.9766V111.5H-83.9551V112H-88.9443V111.5H-98.9229V112H-103.912V111.5H-113.891V112H-118.88V111.5H-128.858V112H-133.848V111.5H-143.826V112H-148.815V111.5H-158.794V112H-163.783V111.5H-173.762V112H-178.751V111.5H-188.729V112H-193.719V111.5H-203.697V112H-208.687V111.5H-218.665V112H-223.654V111.5H-233.633V112H-238.622V111.5H-248.601V112H-253.59V111.5H-263.568V112H-268.558V111.5H-278.536V112H-283.525V111.5H-293.504V112H-298.493V111.5H-308.472V112H-313.461V111.5H-323.439V112H-328.429V111.5H-338.407V112H-343.396V111.5H-353.375V112H-358.364V111.5H-368.343V112H-373.332V111.5H-383.311V112H-388.3V111.5H-398.278V112H-403.268V111.5H-413.246V112H-418.235V111.5H-428.214V112H-433.203V111.5H-443.182V112H-448.171V111.5H-458.149V112H-463.139V111.5H-473.117V112H-478.106V111.5H-488.085V112H-493.074V111.5H-503.053V112H-508.042V111.5H-518.021V112H-523.01V111.5H-532.988V112H-537.978V111.5H-547.956V112H-552.945V111.5H-562.924V112H-567.913V111.5H-577.892V112H-582.881V111.5H-592.859V112H-597.849V111.5H-607.827V112H-612.816V111.5H-622.795V112H-627.784V111.5H-637.763V112H-642.752V111.5H-652.73V112H-657.72V111.5H-667.698V112H-672.688V111.5H-682.666V112H-687.655V111.5H-697.634V112H-702.623V111.5H-712.602V112H-717.591V111.5H-727.569V112H-732.559V111.5H-742.537V112H-747.526V111.5H-757.505V112H-762.494V111.5H-772.473V112H-777.462V111.5H-787.44V112H-792.43V111.5H-802.408V112H-807.397V111.5H-817.376V112H-822.365V111.5H-832.344V112H-837.333V111.5H-847.312V112H-852.301V111.5H-862.279V112H-867.269V111.5H-877.247V112H-882.236V111.5H-892.215V112H-897.204V111.5H-907.183V112H-912.172V111.5H-922.15V112H-927.14V111.5H-937.118V112H-942.107V111.5H-952.086V112H-957.075V111.5H-967.054V112H-972.043V111.5H-982.021V112H-987.011V111.5H-996.989V112H-1001.98V111.5H-1011.96V112H-1016.95V111.5H-1026.92V112H-1031.91V111.5H-1041.89V112H-1046.88V111.5H-1056.86V112H-1061.85V111.5H-1071.83V112H-1076.82V111.5H-1086.8V112H-1091.79V111.5H-1101.76V112H-1106.75V111.5H-1116.73V112H-1121.72V111.5H-1131.7V112H-1136.69V111.5H-1146.67V112H-1151.66V111.5H-1161.63V112H-1166.62V111.5H-1176.6V112H-1181.59V111.5H-1191.57V112H-1196.56V111.5H-1206.54V112H-1211.53V111.5H-1221.5V112H-1226.49V111.5H-1236.47V112H-1241.46V111.5H-1251.44V112H-1256.43V111.5H-1266.41V112H-1271.4V111.5H-1281.38V112H-1286.37V111.5H-1296.34V112H-1301.33V111.5H-1311.31V112H-1316.3V111.5H-1326.28V112H-1331.27V111.5H-1341.25V112H-1346.24V111.5H-1356.21V112H-1361.2V111.5H-1371.18V112H-1376.17V111.5H-1386.15V112H-1391.14V111.5H-1401.12V112H-1406.11V111.5H-1416.09V112H-1421.08V111.5H-1431.05V112H-1436.04V111.5H-1446.02V112H-1451.01V111.5H-1456C-1457.39 111.5 -1458.76 111.379 -1460.08 111.146L-1460.17 111.638C-1461.56 111.394 -1462.91 111.03 -1464.21 110.558L-1464.04 110.089C-1466.64 109.142 -1469.03 107.75 -1471.11 106.003L-1471.43 106.384C-1472.5 105.485 -1473.49 104.495 -1474.38 103.426L-1474 103.105C-1475.75 101.026 -1477.14 98.64 -1478.09 96.04L-1478.56 96.21C-1479.03 94.9116 -1479.39 93.5609 -1479.64 92.1689L-1479.15 92.083C-1479.38 90.7573 -1479.5 89.393 -1479.5 88V83.1113H-1480V78.2227H-1479.5V68.4443H-1480V63.5557H-1479.5V53.7773H-1480V48.8887H-1479.5V39.1113H-1480V34.2227H-1479.5V24.4443H-1480V19.5557H-1479.5V9.77734H-1480V4.88867H-1479.5V0C-1479.5 -1.393 -1479.38 -2.75727 -1479.15 -4.08301L-1479.64 -4.16992C-1479.43 -5.37923 -1479.12 -6.5575 -1478.74 -7.69727L-1478.56 -8.21094L-1478.09 -8.04004C-1477.14 -10.64 -1475.75 -13.026 -1474 -15.1055L-1474.38 -15.4268C-1473.49 -16.4964 -1472.5 -17.4863 -1471.43 -18.3848L-1471.11 -18.0029C-1469.03 -19.7496 -1466.64 -21.1423 -1464.04 -22.0889L-1464.21 -22.5586C-1462.91 -23.0313 -1461.56 -23.3948 -1460.17 -23.6387L-1460.08 -23.1465C-1458.76 -23.3787 -1457.39 -23.5 -1456 -23.5H-1451.01V-24H-1446.02V-23.5H-1436.05V-24H-1431.06V-23.5H-1421.08V-24H-1416.09V-23.5H-1406.11V-24H-1401.12V-23.5H-1391.14V-24H-1386.15V-23.5H-1376.17V-24H-1371.19V-23.5H-1361.21V-24H-1356.22V-23.5H-1346.24V-24H-1341.25V-23.5H-1331.27V-24H-1326.28V-23.5H-1316.3V-24H-1311.31V-23.5H-1301.34V-24H-1296.35V-23.5H-1286.37V-24H-1281.38V-23.5H-1271.4V-24H-1266.41V-23.5H-1256.43V-24H-1251.44V-23.5H-1241.46V-24H-1236.48V-23.5H-1226.5V-24H-1221.51V-23.5H-1211.53V-24H-1206.54V-23.5H-1196.56V-24H-1191.57V-23.5H-1181.59V-24H-1176.6V-23.5H-1166.63V-24H-1161.64V-23.5H-1151.66V-24H-1146.67V-23.5H-1136.69V-24H-1131.7V-23.5H-1121.72V-24H-1116.73V-23.5H-1106.75V-24H-1101.77V-23.5H-1091.79V-24H-1086.8V-23.5H-1076.82V-24H-1071.83V-23.5H-1061.85V-24H-1056.86V-23.5H-1046.88V-24H-1041.89V-23.5H-1031.92V-24H-1026.93V-23.5H-1016.95V-24H-1011.96V-23.5H-1001.98V-24H-996.991V-23.5H-987.013V-24H-982.023V-23.5H-972.045V-24H-967.056V-23.5H-957.077V-24H-952.088V-23.5H-942.109V-24H-937.12V-23.5H-927.142V-24H-922.152V-23.5H-912.174V-24H-907.185V-23.5H-897.206V-24H-892.217V-23.5H-882.238V-24H-877.249V-23.5H-867.271V-24H-862.281V-23.5H-852.303V-24H-847.313V-23.5H-837.335V-24H-832.346V-23.5H-822.367V-24H-817.378V-23.5H-807.399V-24H-802.41V-23.5H-792.432V-24H-787.442V-23.5H-777.464V-24H-772.475V-23.5H-762.496V-24H-757.507V-23.5H-747.528V-24H-742.539V-23.5H-732.561V-24H-727.571V-23.5H-717.593V-24H-712.604V-23.5H-702.625V-24H-697.636V-23.5H-687.657V-24H-682.668V-23.5H-672.689V-24H-667.7V-23.5H-657.722V-24H-652.732V-23.5H-642.754V-24H-637.765V-23.5H-627.786V-24H-622.797V-23.5H-612.818V-24H-607.829V-23.5H-597.851V-24H-592.861V-23.5H-582.883V-24H-577.894V-23.5H-567.915V-24H-562.926V-23.5H-552.947V-24H-547.958V-23.5H-537.979V-24H-532.99V-23.5H-523.012V-24H-518.022V-23.5H-508.044V-24H-503.055V-23.5H-493.076V-24H-488.087V-23.5H-478.108V-24H-473.119V-23.5H-463.141V-24H-458.151V-23.5H-448.173V-24H-443.184V-23.5H-433.205V-24H-428.216V-23.5H-418.237V-24H-413.248V-23.5H-403.27V-24H-398.28V-23.5H-388.302V-24H-383.312V-23.5H-373.334V-24H-368.345V-23.5H-358.366V-24H-353.377V-23.5H-343.398V-24H-338.409V-23.5H-328.431V-24H-323.441V-23.5H-313.463V-24H-308.474V-23.5H-298.495V-24H-293.506V-23.5H-283.527V-24H-278.538V-23.5H-268.56V-24H-263.57V-23.5H-253.592V-24H-248.603V-23.5H-238.624V-24H-233.635V-23.5H-223.656V-24H-218.667V-23.5H-208.688V-24H-203.699V-23.5H-193.721V-24H-188.731V-23.5H-178.753V-24H-173.764V-23.5H-163.785V-24H-158.796V-23.5H-148.817V-24H-143.828V-23.5H-133.85V-24H-128.86V-23.5H-118.882V-24H-113.893V-23.5H-103.914V-24H-98.9248V-23.5H-88.9463V-24H-83.957V-23.5H-73.9785V-24H-68.9893V-23.5H-59.0107V-24H-54.0215V-23.5H-44.043V-24H-39.0537V-23.5H-29.0752V-24H-24.0859V-23.5H-14.1074V-24H-9.11816V-23.5H0.860352V-24H5.84961V-23.5H15.8281V-24H20.8174V-23.5H30.7959V-24H35.7852V-23.5H45.7637V-24H50.7529V-23.5H60.7314V-24H65.7207V-23.5H75.6992V-24H80.6885V-23.5H90.667V-24H95.6562V-23.5H105.635V-24H110.624V-23.5H120.603V-24H125.592V-23.5H135.57V-24H140.56V-23.5H150.538V-24H155.527V-23.5H165.506V-24H170.494V-23.5H180.473V-24H185.462V-23.5H195.44V-24H200.43V-23.5H210.408V-24H215.397V-23.5H225.376V-24H230.365V-23.5H240.344V-24H245.333V-23.5H255.312V-24H260.301V-23.5H270.279V-24H275.269V-23.5H285.247V-24H290.236V-23.5H300.215V-24H305.204V-23.5H315.183V-24H320.172V-23.5H330.15V-24H335.14V-23.5H345.118V-24H350.107V-23.5H360.086V-24H365.075V-23.5H375.054V-24H380.043V-23.5H390.021V-24H395.011V-23.5H400C401.393 -23.5 402.757 -23.3787 404.083 -23.1465L404.169 -23.6387C405.561 -23.3949 406.912 -23.0312 408.21 -22.5586L408.04 -22.0889C410.64 -21.1423 413.026 -19.7496 415.105 -18.0029L415.426 -18.3848C416.495 -17.4863 417.485 -16.4964 418.384 -15.4268L418.003 -15.1055C419.75 -13.026 421.142 -10.64 422.089 -8.04004L422.558 -8.21094Z" stroke="#8A38F5" stroke-dasharray="10 5"/>
<g id="Name=&#208;&#148;&#208;&#190;&#208;&#186;&#209;&#131;&#208;&#188;&#208;&#181;&#208;&#189;&#209;&#130;&#209;&#139;">
<g id="Group 2087326355">
<rect id="Rectangle 1005446" x="67.879" y="28.6115" width="11.7854" height="12.127" rx="5.89271" stroke="#FFDF75" stroke-width="11.7854"/>
<path id="Rectangle 1005445" d="M40.4658 14.5195H57.2045H73.9433V58.5868H57.2045H40.4658V14.5195Z" fill="#2DA771"/>
<g id="Intersect" filter="url(#filter0_f_6227_5096)">
<path d="M73.9492 22.7959V30.4678L73.8184 30.4648C71.477 30.4648 69.5791 32.3627 69.5791 34.7041L69.584 34.9219C69.6975 37.1619 71.5501 38.9434 73.8184 38.9434C73.8622 38.9434 73.9057 38.9408 73.9492 38.9395V46.6113C73.9057 46.6118 73.862 46.6133 73.8184 46.6133C67.2412 46.6133 61.9094 41.2812 61.9092 34.7041C61.9092 28.1268 67.2411 22.7949 73.8184 22.7949C73.862 22.7949 73.9057 22.7954 73.9492 22.7959Z" fill="#FFDF75"/>
</g>
<rect id="Rectangle 1005447" x="13.542" y="24.8203" width="35.5967" height="38.941" transform="rotate(12.249 13.542 24.8203)" fill="#E7C1FF"/>
<g id="Rectangle 1005448" filter="url(#filter1_f_6227_5096)">
<rect x="17.9692" y="32.2422" width="23.8184" height="5.2348" transform="rotate(12.249 17.9692 32.2422)" fill="#6600BA"/>
</g>
<g id="Rectangle 1005449" filter="url(#filter2_f_6227_5096)">
<rect x="15.9697" y="41.4492" width="23.8184" height="5.2348" transform="rotate(12.249 15.9697 41.4492)" fill="#6600BA"/>
</g>
<g id="Rectangle 1005450" filter="url(#filter3_f_6227_5096)">
<rect x="13.9717" y="50.6582" width="23.8184" height="5.2348" transform="rotate(12.249 13.9717 50.6582)" fill="#6600BA"/>
</g>
</g>
</g>
</g>
<defs>
<filter id="filter0_f_6227_5096" x="54.4559" y="15.3417" width="26.9465" height="38.7248" filterUnits="userSpaceOnUse" color-interpolation-filters="sRGB">
<feFlood flood-opacity="0" result="BackgroundImageFix"/>
<feBlend mode="normal" in="SourceGraphic" in2="BackgroundImageFix" result="shape"/>
<feGaussianBlur stdDeviation="3.72662" result="effect1_foregroundBlur_6227_5096"/>
</filter>
<filter id="filter1_f_6227_5096" x="9.46727" y="24.8511" width="39.1695" height="24.9522" filterUnits="userSpaceOnUse" color-interpolation-filters="sRGB">
<feFlood flood-opacity="0" result="BackgroundImageFix"/>
<feBlend mode="normal" in="SourceGraphic" in2="BackgroundImageFix" result="shape"/>
<feGaussianBlur stdDeviation="3.69556" result="effect1_foregroundBlur_6227_5096"/>
</filter>
<filter id="filter2_f_6227_5096" x="7.46776" y="34.0581" width="39.1695" height="24.9522" filterUnits="userSpaceOnUse" color-interpolation-filters="sRGB">
<feFlood flood-opacity="0" result="BackgroundImageFix"/>
<feBlend mode="normal" in="SourceGraphic" in2="BackgroundImageFix" result="shape"/>
<feGaussianBlur stdDeviation="3.69556" result="effect1_foregroundBlur_6227_5096"/>
</filter>
<filter id="filter3_f_6227_5096" x="5.46972" y="43.2671" width="39.1695" height="24.9522" filterUnits="userSpaceOnUse" color-interpolation-filters="sRGB">
<feFlood flood-opacity="0" result="BackgroundImageFix"/>
<feBlend mode="normal" in="SourceGraphic" in2="BackgroundImageFix" result="shape"/>
<feGaussianBlur stdDeviation="3.69556" result="effect1_foregroundBlur_6227_5096"/>
</filter>
</defs>
</svg>
