<svg width="88" height="88" viewBox="0 0 88 88" fill="none" xmlns="http://www.w3.org/2000/svg">
<g id="Small Image"><g id="Name=&#208;&#160;&#208;&#176;&#208;&#188;&#208;&#186;&#208;&#176;">
<g id="Group 2087326340">
<rect id="Rectangle 1005510" x="37.7803" y="19.7266" width="35.8964" height="19.0359" fill="#2DA771"/>
<rect id="Rectangle 1005509" x="12.7598" y="13.1992" width="35.8964" height="51.1251" fill="#FFDF75"/>
<g id="Intersect" filter="url(#filter0_f_6227_5096)">
<path d="M48.6572 38.7627H41.7998V19.7266H48.6572V38.7627Z" fill="#2DA771"/>
</g>
<path id="Union" d="M43.834 50.3366C48.3537 45.6591 56.2781 48.319 57.0605 54.7761L52.7656 55.2956C52.421 52.4548 48.9341 51.2848 46.9453 53.3425L34.127 66.6081L31.0166 63.6023L43.834 50.3366ZM56.4883 48.8894C59.2072 42.8402 67.8772 43.0785 70.2588 49.2683L75.4219 62.6892L73.4023 63.4665L71.3838 64.2429L66.2197 50.822C65.2188 48.2214 61.5769 48.1211 60.4346 50.6628L58.4609 49.7761L56.4883 48.8894Z" fill="#E7C1FF"/>
<path id="Union_2" d="M65.5332 53.9609C70.9785 54.2372 75.3086 58.7399 75.3086 64.2539L75.2959 64.7842C75.0197 70.2294 70.5167 74.5592 65.0029 74.5596L64.4727 74.5469C60.0233 74.3215 56.3181 71.2742 55.1113 67.1592H50.9072C49.6527 71.4361 45.7003 74.5593 41.0176 74.5596L40.4873 74.5469C35.2173 74.2799 30.9919 70.0541 30.7246 64.7842L30.7109 64.2539C30.7109 58.5619 35.3255 53.9473 41.0176 53.9473L41.5479 53.9609C46.3934 54.2068 50.352 57.7999 51.166 62.4736H54.8525C55.6962 57.6302 59.9181 53.9473 65.0029 53.9473L65.5332 53.9609ZM41.0176 58.6318C37.9128 58.6318 35.3955 61.1491 35.3955 64.2539C35.3957 67.3585 37.9129 69.875 41.0176 69.875C44.122 69.8747 46.6385 67.3583 46.6387 64.2539C46.6387 61.1493 44.1221 58.6321 41.0176 58.6318ZM65.0029 58.6318C61.8982 58.6318 59.3809 61.1491 59.3809 64.2539C59.3811 67.3585 61.8983 69.875 65.0029 69.875C68.1073 69.8747 70.6238 67.3583 70.624 64.2539C70.624 61.1494 68.1074 58.6322 65.0029 58.6318Z" fill="#6600BA"/>
<g id="Intersect_2" filter="url(#filter1_f_6227_5096)">
<path d="M41.5479 53.9609C42.9244 54.0308 44.2295 54.3706 45.4111 54.9287L41.7822 58.6846C41.5322 58.6505 41.277 58.6319 41.0176 58.6318C37.9128 58.6318 35.3955 61.1491 35.3955 64.2539C35.3955 64.5799 35.4243 64.8992 35.4775 65.21L34.127 66.6084L31.0166 63.6025L40.3193 53.9727C40.5501 53.9572 40.7829 53.9473 41.0176 53.9473L41.5479 53.9609ZM67.5439 54.2637C70.5806 55.0339 73.0791 57.1522 74.3662 59.9443L74.832 61.1572C74.9963 61.6792 75.1224 62.2183 75.2021 62.7725L73.4023 63.4658L71.3838 64.2422L67.5439 54.2637Z" fill="#E7C1FF"/>
</g>
<rect id="Rectangle 1005513" x="15.4805" y="19.7266" width="19.5798" height="4.89496" fill="#6600BA"/>
<rect id="Rectangle 1005514" x="15.4805" y="27.8848" width="19.5798" height="4.89496" fill="#6600BA"/>
<rect id="Rectangle 1005515" x="15.4805" y="36.043" width="19.5798" height="4.89496" fill="#6600BA"/>
</g>
</g>
</g>
<defs>
<filter id="filter0_f_6227_5096" x="39.3276" y="17.2544" width="11.8018" height="23.9796" filterUnits="userSpaceOnUse" color-interpolation-filters="sRGB">
<feFlood flood-opacity="0" result="BackgroundImageFix"/>
<feBlend mode="normal" in="SourceGraphic" in2="BackgroundImageFix" result="shape"/>
<feGaussianBlur stdDeviation="1.2361" result="effect1_foregroundBlur_6227_5096"/>
</filter>
<filter id="filter1_f_6227_5096" x="28.5444" y="51.4751" width="49.1299" height="17.6065" filterUnits="userSpaceOnUse" color-interpolation-filters="sRGB">
<feFlood flood-opacity="0" result="BackgroundImageFix"/>
<feBlend mode="normal" in="SourceGraphic" in2="BackgroundImageFix" result="shape"/>
<feGaussianBlur stdDeviation="1.2361" result="effect1_foregroundBlur_6227_5096"/>
</filter>
</defs>
</svg>
