<svg width="88" height="88" viewBox="0 0 88 88" fill="none" xmlns="http://www.w3.org/2000/svg">
<rect width="88" height="88" fill="#545454"/>
<g id="Small Image">
<path d="M1774.56 -8.21094C1775.03 -6.91254 1775.39 -5.56192 1775.64 -4.16992L1775.15 -4.08301C1775.38 -2.75727 1775.5 -1.393 1775.5 0V4.88867H1776V9.77734H1775.5V19.5557H1776V24.4443H1775.5V34.2227H1776V39.1113H1775.5V48.8887H1776V53.7773H1775.5V63.5557H1776V68.4443H1775.5V78.2227H1776V83.1113H1775.5V88C1775.5 89.393 1775.38 90.7573 1775.15 92.083L1775.64 92.1689C1775.39 93.561 1775.03 94.9115 1774.56 96.21L1774.09 96.04C1773.14 98.64 1771.75 101.026 1770 103.105L1770.38 103.426C1769.49 104.495 1768.5 105.485 1767.43 106.384L1767.11 106.003C1765.03 107.75 1762.64 109.142 1760.04 110.089L1760.21 110.558C1758.91 111.03 1757.56 111.394 1756.17 111.638L1756.08 111.146C1754.76 111.379 1753.39 111.5 1752 111.5H1747.01V112H1742.02V111.5H1732.05V112H1727.06V111.5H1717.08V112H1712.09V111.5H1702.11V112H1697.12V111.5H1687.14V112H1682.15V111.5H1672.17V112H1667.19V111.5H1657.21V112H1652.22V111.5H1642.24V112H1637.25V111.5H1627.27V112H1622.28V111.5H1612.3V112H1607.31V111.5H1597.34V112H1592.35V111.5H1582.37V112H1577.38V111.5H1567.4V112H1562.41V111.5H1552.43V112H1547.44V111.5H1537.46V112H1532.48V111.5H1522.5V112H1517.51V111.5H1507.53V112H1502.54V111.5H1492.56V112H1487.57V111.5H1477.59V112H1472.6V111.5H1462.63V112H1457.64V111.5H1447.66V112H1442.67V111.5H1432.69V112H1427.7V111.5H1417.72V112H1412.73V111.5H1402.75V112H1397.77V111.5H1387.79V112H1382.8V111.5H1372.82V112H1367.83V111.5H1357.85V112H1352.86V111.5H1342.88V112H1337.89V111.5H1327.92V112H1322.93V111.5H1312.95V112H1307.96V111.5H1297.98V112H1292.99V111.5H1283.01V112H1278.02V111.5H1268.04V112H1263.06V111.5H1253.08V112H1248.09V111.5H1238.11V112H1233.12V111.5H1223.14V112H1218.15V111.5H1208.17V112H1203.18V111.5H1193.21V112H1188.22V111.5H1178.24V112H1173.25V111.5H1163.27V112H1158.28V111.5H1148.3V112H1143.31V111.5H1133.33V112H1128.35V111.5H1118.37V112H1113.38V111.5H1103.4V112H1098.41V111.5H1088.43V112H1083.44V111.5H1073.46V112H1068.47V111.5H1058.5V112H1053.51V111.5H1043.53V112H1038.54V111.5H1028.56V112H1023.57V111.5H1013.59V112H1008.6V111.5H998.625V112H993.636V111.5H983.657V112H978.668V111.5H968.689V112H963.7V111.5H953.722V112H948.732V111.5H938.754V112H933.765V111.5H923.786V112H918.797V111.5H908.818V112H903.829V111.5H893.851V112H888.861V111.5H878.883V112H873.894V111.5H863.915V112H858.926V111.5H848.947V112H843.958V111.5H833.979V112H828.99V111.5H819.012V112H814.022V111.5H804.044V112H799.055V111.5H789.076V112H784.087V111.5H774.108V112H769.119V111.5H759.141V112H754.151V111.5H744.173V112H739.184V111.5H729.205V112H724.216V111.5H714.237V112H709.248V111.5H699.27V112H694.28V111.5H684.302V112H679.312V111.5H669.334V112H664.345V111.5H654.366V112H649.377V111.5H639.398V112H634.409V111.5H624.431V112H619.441V111.5H609.463V112H604.474V111.5H594.495V112H589.506V111.5H579.527V112H574.538V111.5H564.56V112H559.57V111.5H549.592V112H544.603V111.5H534.624V112H529.635V111.5H519.656V112H514.667V111.5H504.688V112H499.699V111.5H489.721V112H484.731V111.5H474.753V112H469.764V111.5H459.785V112H454.796V111.5H444.817V112H439.828V111.5H429.85V112H424.86V111.5H414.882V112H409.893V111.5H399.914V112H394.925V111.5H384.946V112H379.957V111.5H369.979V112H364.989V111.5H355.011V112H350.021V111.5H340.043V112H335.054V111.5H325.075V112H320.086V111.5H310.107V112H305.118V111.5H295.14V112H290.15V111.5H280.172V112H275.183V111.5H265.204V112H260.215V111.5H250.236V112H245.247V111.5H235.269V112H230.279V111.5H220.301V112H215.312V111.5H205.333V112H200.344V111.5H190.365V112H185.376V111.5H175.397V112H170.408V111.5H160.43V112H155.44V111.5H145.463V112H140.474V111.5H130.495V112H125.506V111.5H115.527V112H110.538V111.5H100.56V112H95.5703V111.5H85.5918V112H80.6025V111.5H70.624V112H65.6348V111.5H55.6562V112H50.667V111.5H40.6885V112H35.6992V111.5H25.7207V112H20.7314V111.5H10.7529V112H5.76367V111.5H-4.21484V112H-9.2041V111.5H-19.1826V112H-24.1719V111.5H-34.1504V112H-39.1396V111.5H-49.1182V112H-54.1074V111.5H-64.0859V112H-69.0752V111.5H-79.0537V112H-84.043V111.5H-94.0215V112H-99.0107V111.5H-104C-105.393 111.5 -106.757 111.379 -108.083 111.146L-108.17 111.638C-109.562 111.394 -110.913 111.03 -112.211 110.558L-112.04 110.089C-114.64 109.142 -117.026 107.75 -119.105 106.003L-119.427 106.384C-120.496 105.485 -121.486 104.495 -122.385 103.426L-122.003 103.105C-123.75 101.026 -125.142 98.64 -126.089 96.04L-126.559 96.21C-127.031 94.9116 -127.395 93.5609 -127.639 92.1689L-127.146 92.083C-127.379 90.7573 -127.5 89.393 -127.5 88V83.1113H-128V78.2227H-127.5V68.4443H-128V63.5557H-127.5V53.7773H-128V48.8887H-127.5V39.1113H-128V34.2227H-127.5V24.4443H-128V19.5557H-127.5V9.77734H-128V4.88867H-127.5V0C-127.5 -1.393 -127.379 -2.75727 -127.146 -4.08301L-127.639 -4.16992C-127.427 -5.37923 -127.125 -6.5575 -126.739 -7.69727L-126.559 -8.21094L-126.089 -8.04004C-125.142 -10.64 -123.75 -13.026 -122.003 -15.1055L-122.385 -15.4268C-121.486 -16.4964 -120.496 -17.4863 -119.427 -18.3848L-119.105 -18.0029C-117.026 -19.7496 -114.64 -21.1423 -112.04 -22.0889L-112.211 -22.5586C-110.913 -23.0313 -109.562 -23.3948 -108.17 -23.6387L-108.083 -23.1465C-106.757 -23.3787 -105.393 -23.5 -104 -23.5H-99.0137V-24H-94.0244V-23.5H-84.0459V-24H-79.0566V-23.5H-69.0781V-24H-64.0889V-23.5H-54.1104V-24H-49.1211V-23.5H-39.1426V-24H-34.1533V-23.5H-24.1748V-24H-19.1855V-23.5H-9.20703V-24H-4.21777V-23.5H5.76074V-24H10.75V-23.5H20.7285V-24H25.7178V-23.5H35.6963V-24H40.6855V-23.5H50.6641V-24H55.6533V-23.5H65.6318V-24H70.6211V-23.5H80.5996V-24H85.5889V-23.5H95.5674V-24H100.557V-23.5H110.535V-24H115.524V-23.5H125.503V-24H130.492V-23.5H140.471V-24H145.46V-23.5H155.438V-24H160.428V-23.5H170.406V-24H175.396V-23.5H185.374V-24H190.363V-23.5H200.342V-24H205.331V-23.5H215.31V-24H220.299V-23.5H230.277V-24H235.267V-23.5H245.245V-24H250.234V-23.5H260.213V-24H265.202V-23.5H275.181V-24H280.17V-23.5H290.148V-24H295.138V-23.5H305.116V-24H310.105V-23.5H320.084V-24H325.073V-23.5H335.052V-24H340.041V-23.5H350.02V-24H355.009V-23.5H364.987V-24H369.977V-23.5H379.955V-24H384.944V-23.5H394.923V-24H399.912V-23.5H409.891V-24H414.88V-23.5H424.858V-24H429.848V-23.5H439.826V-24H444.815V-23.5H454.794V-24H459.783V-23.5H469.762V-24H474.751V-23.5H484.729V-24H489.719V-23.5H499.697V-24H504.687V-23.5H514.665V-24H519.654V-23.5H529.633V-24H534.622V-23.5H544.601V-24H549.59V-23.5H559.568V-24H564.558V-23.5H574.536V-24H579.525V-23.5H589.504V-24H594.493V-23.5H604.472V-24H609.461V-23.5H619.439V-24H624.429V-23.5H634.407V-24H639.396V-23.5H649.375V-24H654.364V-23.5H664.343V-24H669.332V-23.5H679.311V-24H684.3V-23.5H694.278V-24H699.268V-23.5H709.246V-24H714.235V-23.5H724.214V-24H729.203V-23.5H739.182V-24H744.171V-23.5H754.149V-24H759.139V-23.5H769.117V-24H774.106V-23.5H784.085V-24H789.074V-23.5H799.053V-24H804.042V-23.5H814.021V-24H819.01V-23.5H828.988V-24H833.978V-23.5H843.956V-24H848.945V-23.5H858.924V-24H863.913V-23.5H873.892V-24H878.881V-23.5H888.859V-24H893.849V-23.5H903.827V-24H908.816V-23.5H918.795V-24H923.784V-23.5H933.763V-24H938.752V-23.5H948.73V-24H953.72V-23.5H963.698V-24H968.688V-23.5H978.666V-24H983.655V-23.5H993.634V-24H998.623V-23.5H1008.6V-24H1013.59V-23.5H1023.57V-24H1028.56V-23.5H1038.54V-24H1043.53V-23.5H1053.5V-24H1058.49V-23.5H1068.47V-24H1073.46V-23.5H1083.44V-24H1088.43V-23.5H1098.41V-24H1103.4V-23.5H1113.38V-24H1118.37V-23.5H1128.34V-24H1133.33V-23.5H1143.31V-24H1148.3V-23.5H1158.28V-24H1163.27V-23.5H1173.25V-24H1178.24V-23.5H1188.21V-24H1193.2V-23.5H1203.18V-24H1208.17V-23.5H1218.15V-24H1223.14V-23.5H1233.12V-24H1238.11V-23.5H1248.09V-24H1253.08V-23.5H1263.05V-24H1268.04V-23.5H1278.02V-24H1283.01V-23.5H1292.99V-24H1297.98V-23.5H1307.96V-24H1312.95V-23.5H1322.92V-24H1327.91V-23.5H1337.89V-24H1342.88V-23.5H1352.86V-24H1357.85V-23.5H1367.83V-24H1372.82V-23.5H1382.8V-24H1387.79V-23.5H1397.76V-24H1402.75V-23.5H1412.73V-24H1417.72V-23.5H1427.7V-24H1432.69V-23.5H1442.67V-24H1447.66V-23.5H1457.63V-24H1462.62V-23.5H1472.6V-24H1477.59V-23.5H1487.57V-24H1492.56V-23.5H1502.54V-24H1507.53V-23.5H1517.51V-24H1522.49V-23.5H1532.47V-24H1537.46V-23.5H1547.44V-24H1552.43V-23.5H1562.41V-24H1567.4V-23.5H1577.38V-24H1582.37V-23.5H1592.34V-24H1597.33V-23.5H1607.31V-24H1612.3V-23.5H1622.28V-24H1627.27V-23.5H1637.25V-24H1642.24V-23.5H1652.21V-24H1657.2V-23.5H1667.18V-24H1672.17V-23.5H1682.15V-24H1687.14V-23.5H1697.12V-24H1702.11V-23.5H1712.09V-24H1717.08V-23.5H1727.05V-24H1732.04V-23.5H1742.02V-24H1747.01V-23.5H1752C1753.39 -23.5 1754.76 -23.3787 1756.08 -23.1465L1756.17 -23.6387C1757.56 -23.3949 1758.91 -23.0312 1760.21 -22.5586L1760.04 -22.0889C1762.64 -21.1423 1765.03 -19.7496 1767.11 -18.0029L1767.43 -18.3848C1768.5 -17.4863 1769.49 -16.4964 1770.38 -15.4268L1770 -15.1055C1771.75 -13.026 1773.14 -10.64 1774.09 -8.04004L1774.56 -8.21094Z" fill="white"/>
<path d="M1774.56 -8.21094C1775.03 -6.91254 1775.39 -5.56192 1775.64 -4.16992L1775.15 -4.08301C1775.38 -2.75727 1775.5 -1.393 1775.5 0V4.88867H1776V9.77734H1775.5V19.5557H1776V24.4443H1775.5V34.2227H1776V39.1113H1775.5V48.8887H1776V53.7773H1775.5V63.5557H1776V68.4443H1775.5V78.2227H1776V83.1113H1775.5V88C1775.5 89.393 1775.38 90.7573 1775.15 92.083L1775.64 92.1689C1775.39 93.561 1775.03 94.9115 1774.56 96.21L1774.09 96.04C1773.14 98.64 1771.75 101.026 1770 103.105L1770.38 103.426C1769.49 104.495 1768.5 105.485 1767.43 106.384L1767.11 106.003C1765.03 107.75 1762.64 109.142 1760.04 110.089L1760.21 110.558C1758.91 111.03 1757.56 111.394 1756.17 111.638L1756.08 111.146C1754.76 111.379 1753.39 111.5 1752 111.5H1747.01V112H1742.02V111.5H1732.05V112H1727.06V111.5H1717.08V112H1712.09V111.5H1702.11V112H1697.12V111.5H1687.14V112H1682.15V111.5H1672.17V112H1667.19V111.5H1657.21V112H1652.22V111.5H1642.24V112H1637.25V111.5H1627.27V112H1622.28V111.5H1612.3V112H1607.31V111.5H1597.34V112H1592.35V111.5H1582.37V112H1577.38V111.5H1567.4V112H1562.41V111.5H1552.43V112H1547.44V111.5H1537.46V112H1532.48V111.5H1522.5V112H1517.51V111.5H1507.53V112H1502.54V111.5H1492.56V112H1487.57V111.5H1477.59V112H1472.6V111.5H1462.63V112H1457.64V111.5H1447.66V112H1442.67V111.5H1432.69V112H1427.7V111.5H1417.72V112H1412.73V111.5H1402.75V112H1397.77V111.5H1387.79V112H1382.8V111.5H1372.82V112H1367.83V111.5H1357.85V112H1352.86V111.5H1342.88V112H1337.89V111.5H1327.92V112H1322.93V111.5H1312.95V112H1307.96V111.5H1297.98V112H1292.99V111.5H1283.01V112H1278.02V111.5H1268.04V112H1263.06V111.5H1253.08V112H1248.09V111.5H1238.11V112H1233.12V111.5H1223.14V112H1218.15V111.5H1208.17V112H1203.18V111.5H1193.21V112H1188.22V111.5H1178.24V112H1173.25V111.5H1163.27V112H1158.28V111.5H1148.3V112H1143.31V111.5H1133.33V112H1128.35V111.5H1118.37V112H1113.38V111.5H1103.4V112H1098.41V111.5H1088.43V112H1083.44V111.5H1073.46V112H1068.47V111.5H1058.5V112H1053.51V111.5H1043.53V112H1038.54V111.5H1028.56V112H1023.57V111.5H1013.59V112H1008.6V111.5H998.625V112H993.636V111.5H983.657V112H978.668V111.5H968.689V112H963.7V111.5H953.722V112H948.732V111.5H938.754V112H933.765V111.5H923.786V112H918.797V111.5H908.818V112H903.829V111.5H893.851V112H888.861V111.5H878.883V112H873.894V111.5H863.915V112H858.926V111.5H848.947V112H843.958V111.5H833.979V112H828.99V111.5H819.012V112H814.022V111.5H804.044V112H799.055V111.5H789.076V112H784.087V111.5H774.108V112H769.119V111.5H759.141V112H754.151V111.5H744.173V112H739.184V111.5H729.205V112H724.216V111.5H714.237V112H709.248V111.5H699.27V112H694.28V111.5H684.302V112H679.312V111.5H669.334V112H664.345V111.5H654.366V112H649.377V111.5H639.398V112H634.409V111.5H624.431V112H619.441V111.5H609.463V112H604.474V111.5H594.495V112H589.506V111.5H579.527V112H574.538V111.5H564.56V112H559.57V111.5H549.592V112H544.603V111.5H534.624V112H529.635V111.5H519.656V112H514.667V111.5H504.688V112H499.699V111.5H489.721V112H484.731V111.5H474.753V112H469.764V111.5H459.785V112H454.796V111.5H444.817V112H439.828V111.5H429.85V112H424.86V111.5H414.882V112H409.893V111.5H399.914V112H394.925V111.5H384.946V112H379.957V111.5H369.979V112H364.989V111.5H355.011V112H350.021V111.5H340.043V112H335.054V111.5H325.075V112H320.086V111.5H310.107V112H305.118V111.5H295.14V112H290.15V111.5H280.172V112H275.183V111.5H265.204V112H260.215V111.5H250.236V112H245.247V111.5H235.269V112H230.279V111.5H220.301V112H215.312V111.5H205.333V112H200.344V111.5H190.365V112H185.376V111.5H175.397V112H170.408V111.5H160.43V112H155.44V111.5H145.463V112H140.474V111.5H130.495V112H125.506V111.5H115.527V112H110.538V111.5H100.56V112H95.5703V111.5H85.5918V112H80.6025V111.5H70.624V112H65.6348V111.5H55.6562V112H50.667V111.5H40.6885V112H35.6992V111.5H25.7207V112H20.7314V111.5H10.7529V112H5.76367V111.5H-4.21484V112H-9.2041V111.5H-19.1826V112H-24.1719V111.5H-34.1504V112H-39.1396V111.5H-49.1182V112H-54.1074V111.5H-64.0859V112H-69.0752V111.5H-79.0537V112H-84.043V111.5H-94.0215V112H-99.0107V111.5H-104C-105.393 111.5 -106.757 111.379 -108.083 111.146L-108.17 111.638C-109.562 111.394 -110.913 111.03 -112.211 110.558L-112.04 110.089C-114.64 109.142 -117.026 107.75 -119.105 106.003L-119.427 106.384C-120.496 105.485 -121.486 104.495 -122.385 103.426L-122.003 103.105C-123.75 101.026 -125.142 98.64 -126.089 96.04L-126.559 96.21C-127.031 94.9116 -127.395 93.5609 -127.639 92.1689L-127.146 92.083C-127.379 90.7573 -127.5 89.393 -127.5 88V83.1113H-128V78.2227H-127.5V68.4443H-128V63.5557H-127.5V53.7773H-128V48.8887H-127.5V39.1113H-128V34.2227H-127.5V24.4443H-128V19.5557H-127.5V9.77734H-128V4.88867H-127.5V0C-127.5 -1.393 -127.379 -2.75727 -127.146 -4.08301L-127.639 -4.16992C-127.427 -5.37923 -127.125 -6.5575 -126.739 -7.69727L-126.559 -8.21094L-126.089 -8.04004C-125.142 -10.64 -123.75 -13.026 -122.003 -15.1055L-122.385 -15.4268C-121.486 -16.4964 -120.496 -17.4863 -119.427 -18.3848L-119.105 -18.0029C-117.026 -19.7496 -114.64 -21.1423 -112.04 -22.0889L-112.211 -22.5586C-110.913 -23.0313 -109.562 -23.3948 -108.17 -23.6387L-108.083 -23.1465C-106.757 -23.3787 -105.393 -23.5 -104 -23.5H-99.0137V-24H-94.0244V-23.5H-84.0459V-24H-79.0566V-23.5H-69.0781V-24H-64.0889V-23.5H-54.1104V-24H-49.1211V-23.5H-39.1426V-24H-34.1533V-23.5H-24.1748V-24H-19.1855V-23.5H-9.20703V-24H-4.21777V-23.5H5.76074V-24H10.75V-23.5H20.7285V-24H25.7178V-23.5H35.6963V-24H40.6855V-23.5H50.6641V-24H55.6533V-23.5H65.6318V-24H70.6211V-23.5H80.5996V-24H85.5889V-23.5H95.5674V-24H100.557V-23.5H110.535V-24H115.524V-23.5H125.503V-24H130.492V-23.5H140.471V-24H145.46V-23.5H155.438V-24H160.428V-23.5H170.406V-24H175.396V-23.5H185.374V-24H190.363V-23.5H200.342V-24H205.331V-23.5H215.31V-24H220.299V-23.5H230.277V-24H235.267V-23.5H245.245V-24H250.234V-23.5H260.213V-24H265.202V-23.5H275.181V-24H280.17V-23.5H290.148V-24H295.138V-23.5H305.116V-24H310.105V-23.5H320.084V-24H325.073V-23.5H335.052V-24H340.041V-23.5H350.02V-24H355.009V-23.5H364.987V-24H369.977V-23.5H379.955V-24H384.944V-23.5H394.923V-24H399.912V-23.5H409.891V-24H414.88V-23.5H424.858V-24H429.848V-23.5H439.826V-24H444.815V-23.5H454.794V-24H459.783V-23.5H469.762V-24H474.751V-23.5H484.729V-24H489.719V-23.5H499.697V-24H504.687V-23.5H514.665V-24H519.654V-23.5H529.633V-24H534.622V-23.5H544.601V-24H549.59V-23.5H559.568V-24H564.558V-23.5H574.536V-24H579.525V-23.5H589.504V-24H594.493V-23.5H604.472V-24H609.461V-23.5H619.439V-24H624.429V-23.5H634.407V-24H639.396V-23.5H649.375V-24H654.364V-23.5H664.343V-24H669.332V-23.5H679.311V-24H684.3V-23.5H694.278V-24H699.268V-23.5H709.246V-24H714.235V-23.5H724.214V-24H729.203V-23.5H739.182V-24H744.171V-23.5H754.149V-24H759.139V-23.5H769.117V-24H774.106V-23.5H784.085V-24H789.074V-23.5H799.053V-24H804.042V-23.5H814.021V-24H819.01V-23.5H828.988V-24H833.978V-23.5H843.956V-24H848.945V-23.5H858.924V-24H863.913V-23.5H873.892V-24H878.881V-23.5H888.859V-24H893.849V-23.5H903.827V-24H908.816V-23.5H918.795V-24H923.784V-23.5H933.763V-24H938.752V-23.5H948.73V-24H953.72V-23.5H963.698V-24H968.688V-23.5H978.666V-24H983.655V-23.5H993.634V-24H998.623V-23.5H1008.6V-24H1013.59V-23.5H1023.57V-24H1028.56V-23.5H1038.54V-24H1043.53V-23.5H1053.5V-24H1058.49V-23.5H1068.47V-24H1073.46V-23.5H1083.44V-24H1088.43V-23.5H1098.41V-24H1103.4V-23.5H1113.38V-24H1118.37V-23.5H1128.34V-24H1133.33V-23.5H1143.31V-24H1148.3V-23.5H1158.28V-24H1163.27V-23.5H1173.25V-24H1178.24V-23.5H1188.21V-24H1193.2V-23.5H1203.18V-24H1208.17V-23.5H1218.15V-24H1223.14V-23.5H1233.12V-24H1238.11V-23.5H1248.09V-24H1253.08V-23.5H1263.05V-24H1268.04V-23.5H1278.02V-24H1283.01V-23.5H1292.99V-24H1297.98V-23.5H1307.96V-24H1312.95V-23.5H1322.92V-24H1327.91V-23.5H1337.89V-24H1342.88V-23.5H1352.86V-24H1357.85V-23.5H1367.83V-24H1372.82V-23.5H1382.8V-24H1387.79V-23.5H1397.76V-24H1402.75V-23.5H1412.73V-24H1417.72V-23.5H1427.7V-24H1432.69V-23.5H1442.67V-24H1447.66V-23.5H1457.63V-24H1462.62V-23.5H1472.6V-24H1477.59V-23.5H1487.57V-24H1492.56V-23.5H1502.54V-24H1507.53V-23.5H1517.51V-24H1522.49V-23.5H1532.47V-24H1537.46V-23.5H1547.44V-24H1552.43V-23.5H1562.41V-24H1567.4V-23.5H1577.38V-24H1582.37V-23.5H1592.34V-24H1597.33V-23.5H1607.31V-24H1612.3V-23.5H1622.28V-24H1627.27V-23.5H1637.25V-24H1642.24V-23.5H1652.21V-24H1657.2V-23.5H1667.18V-24H1672.17V-23.5H1682.15V-24H1687.14V-23.5H1697.12V-24H1702.11V-23.5H1712.09V-24H1717.08V-23.5H1727.05V-24H1732.04V-23.5H1742.02V-24H1747.01V-23.5H1752C1753.39 -23.5 1754.76 -23.3787 1756.08 -23.1465L1756.17 -23.6387C1757.56 -23.3949 1758.91 -23.0312 1760.21 -22.5586L1760.04 -22.0889C1762.64 -21.1423 1765.03 -19.7496 1767.11 -18.0029L1767.43 -18.3848C1768.5 -17.4863 1769.49 -16.4964 1770.38 -15.4268L1770 -15.1055C1771.75 -13.026 1773.14 -10.64 1774.09 -8.04004L1774.56 -8.21094Z" stroke="#8A38F5" stroke-dasharray="10 5"/>
<g id="Name=&#208;&#160;&#208;&#176;&#208;&#188;&#208;&#186;&#208;&#176;">
<g id="Group 2087326340">
<rect id="Rectangle 1005510" x="37.7803" y="19.7266" width="35.8964" height="19.0359" fill="#2DA771"/>
<rect id="Rectangle 1005509" x="12.7598" y="13.1992" width="35.8964" height="51.1251" fill="#FFDF75"/>
<g id="Intersect" filter="url(#filter0_f_6227_5096)">
<path d="M48.6572 38.7627H41.7998V19.7266H48.6572V38.7627Z" fill="#2DA771"/>
</g>
<path id="Union" d="M43.834 50.3366C48.3537 45.6591 56.2781 48.319 57.0605 54.7761L52.7656 55.2956C52.421 52.4548 48.9341 51.2848 46.9453 53.3425L34.127 66.6081L31.0166 63.6023L43.834 50.3366ZM56.4883 48.8894C59.2072 42.8402 67.8772 43.0785 70.2588 49.2683L75.4219 62.6892L73.4023 63.4665L71.3838 64.2429L66.2197 50.822C65.2188 48.2214 61.5769 48.1211 60.4346 50.6628L58.4609 49.7761L56.4883 48.8894Z" fill="#E7C1FF"/>
<path id="Union_2" d="M65.5332 53.9609C70.9785 54.2372 75.3086 58.7399 75.3086 64.2539L75.2959 64.7842C75.0197 70.2294 70.5167 74.5592 65.0029 74.5596L64.4727 74.5469C60.0233 74.3215 56.3181 71.2742 55.1113 67.1592H50.9072C49.6527 71.4361 45.7003 74.5593 41.0176 74.5596L40.4873 74.5469C35.2173 74.2799 30.9919 70.0541 30.7246 64.7842L30.7109 64.2539C30.7109 58.5619 35.3255 53.9473 41.0176 53.9473L41.5479 53.9609C46.3934 54.2068 50.352 57.7999 51.166 62.4736H54.8525C55.6962 57.6302 59.9181 53.9473 65.0029 53.9473L65.5332 53.9609ZM41.0176 58.6318C37.9128 58.6318 35.3955 61.1491 35.3955 64.2539C35.3957 67.3585 37.9129 69.875 41.0176 69.875C44.122 69.8747 46.6385 67.3583 46.6387 64.2539C46.6387 61.1493 44.1221 58.6321 41.0176 58.6318ZM65.0029 58.6318C61.8982 58.6318 59.3809 61.1491 59.3809 64.2539C59.3811 67.3585 61.8983 69.875 65.0029 69.875C68.1073 69.8747 70.6238 67.3583 70.624 64.2539C70.624 61.1494 68.1074 58.6322 65.0029 58.6318Z" fill="#6600BA"/>
<g id="Intersect_2" filter="url(#filter1_f_6227_5096)">
<path d="M41.5479 53.9609C42.9244 54.0308 44.2295 54.3706 45.4111 54.9287L41.7822 58.6846C41.5322 58.6505 41.277 58.6319 41.0176 58.6318C37.9128 58.6318 35.3955 61.1491 35.3955 64.2539C35.3955 64.5799 35.4243 64.8992 35.4775 65.21L34.127 66.6084L31.0166 63.6025L40.3193 53.9727C40.5501 53.9572 40.7829 53.9473 41.0176 53.9473L41.5479 53.9609ZM67.5439 54.2637C70.5806 55.0339 73.0791 57.1522 74.3662 59.9443L74.832 61.1572C74.9963 61.6792 75.1224 62.2183 75.2021 62.7725L73.4023 63.4658L71.3838 64.2422L67.5439 54.2637Z" fill="#E7C1FF"/>
</g>
<rect id="Rectangle 1005513" x="15.4805" y="19.7266" width="19.5798" height="4.89496" fill="#6600BA"/>
<rect id="Rectangle 1005514" x="15.4805" y="27.8848" width="19.5798" height="4.89496" fill="#6600BA"/>
<rect id="Rectangle 1005515" x="15.4805" y="36.043" width="19.5798" height="4.89496" fill="#6600BA"/>
</g>
</g>
</g>
<defs>
<filter id="filter0_f_6227_5096" x="39.3276" y="17.2544" width="11.8018" height="23.9796" filterUnits="userSpaceOnUse" color-interpolation-filters="sRGB">
<feFlood flood-opacity="0" result="BackgroundImageFix"/>
<feBlend mode="normal" in="SourceGraphic" in2="BackgroundImageFix" result="shape"/>
<feGaussianBlur stdDeviation="1.2361" result="effect1_foregroundBlur_6227_5096"/>
</filter>
<filter id="filter1_f_6227_5096" x="28.5444" y="51.4751" width="49.1299" height="17.6065" filterUnits="userSpaceOnUse" color-interpolation-filters="sRGB">
<feFlood flood-opacity="0" result="BackgroundImageFix"/>
<feBlend mode="normal" in="SourceGraphic" in2="BackgroundImageFix" result="shape"/>
<feGaussianBlur stdDeviation="1.2361" result="effect1_foregroundBlur_6227_5096"/>
</filter>
</defs>
</svg>
