<svg width="88" height="88" viewBox="0 0 88 88" fill="none" xmlns="http://www.w3.org/2000/svg">
<rect width="88" height="88" fill="#545454"/>
<g id="Small Image">
<path d="M110.558 -8.21094C111.03 -6.91254 111.394 -5.56192 111.638 -4.16992L111.146 -4.08301C111.379 -2.75727 111.5 -1.393 111.5 0V4.88867H112V9.77734H111.5V19.5557H112V24.4443H111.5V34.2227H112V39.1113H111.5V48.8887H112V53.7773H111.5V63.5557H112V68.4443H111.5V78.2227H112V83.1113H111.5V88C111.5 89.393 111.379 90.7573 111.146 92.083L111.638 92.1689C111.394 93.561 111.03 94.9115 110.558 96.21L110.089 96.04C109.142 98.64 107.75 101.026 106.003 103.105L106.384 103.426C105.485 104.495 104.495 105.485 103.426 106.384L103.105 106.003C101.026 107.75 98.64 109.142 96.04 110.089L96.21 110.558C94.9115 111.03 93.561 111.394 92.1689 111.638L92.083 111.146C90.7573 111.379 89.393 111.5 88 111.5H83.0137V112H78.0244V111.5H68.0459V112H63.0566V111.5H53.0781V112H48.0889V111.5H38.1104V112H33.1211V111.5H23.1426V112H18.1533V111.5H8.1748V112H3.18555V111.5H-6.79297V112H-11.7822V111.5H-21.7607V112H-26.75V111.5H-36.7285V112H-41.7178V111.5H-51.6963V112H-56.6855V111.5H-66.6641V112H-71.6533V111.5H-81.6318V112H-86.6211V111.5H-96.5996V112H-101.589V111.5H-111.567V112H-116.557V111.5H-126.535V112H-131.524V111.5H-141.503V112H-146.492V111.5H-156.471V112H-161.46V111.5H-171.438V112H-176.428V111.5H-186.406V112H-191.396V111.5H-201.374V112H-206.363V111.5H-216.342V112H-221.331V111.5H-231.31V112H-236.299V111.5H-246.277V112H-251.267V111.5H-261.245V112H-266.234V111.5H-276.213V112H-281.202V111.5H-291.181V112H-296.17V111.5H-306.148V112H-311.138V111.5H-321.116V112H-326.105V111.5H-336.084V112H-341.073V111.5H-351.052V112H-356.041V111.5H-366.02V112H-371.009V111.5H-380.987V112H-385.977V111.5H-395.955V112H-400.944V111.5H-410.923V112H-415.912V111.5H-425.891V112H-430.88V111.5H-440.858V112H-445.848V111.5H-455.826V112H-460.815V111.5H-470.794V112H-475.783V111.5H-485.762V112H-490.751V111.5H-500.729V112H-505.719V111.5H-515.697V112H-520.687V111.5H-530.665V112H-535.654V111.5H-545.633V112H-550.622V111.5H-560.601V112H-565.59V111.5H-575.568V112H-580.558V111.5H-590.536V112H-595.525V111.5H-605.504V112H-610.493V111.5H-620.472V112H-625.461V111.5H-635.439V112H-640.429V111.5H-650.407V112H-655.396V111.5H-665.375V112H-670.364V111.5H-680.343V112H-685.332V111.5H-695.311V112H-700.3V111.5H-710.278V112H-715.268V111.5H-725.246V112H-730.235V111.5H-740.214V112H-745.203V111.5H-755.182V112H-760.171V111.5H-770.149V112H-775.139V111.5H-785.117V112H-790.106V111.5H-800.085V112H-805.074V111.5H-815.053V112H-820.042V111.5H-830.021V112H-835.01V111.5H-844.988V112H-849.978V111.5H-859.956V112H-864.945V111.5H-874.924V112H-879.913V111.5H-889.892V112H-894.881V111.5H-904.859V112H-909.849V111.5H-919.827V112H-924.816V111.5H-934.795V112H-939.784V111.5H-949.763V112H-954.752V111.5H-964.73V112H-969.72V111.5H-979.698V112H-984.688V111.5H-994.666V112H-999.655V111.5H-1009.63V112H-1014.62V111.5H-1024.6V112H-1029.59V111.5H-1039.57V112H-1044.56V111.5H-1054.54V112H-1059.53V111.5H-1069.5V112H-1074.49V111.5H-1084.47V112H-1089.46V111.5H-1099.44V112H-1104.43V111.5H-1114.41V112H-1119.4V111.5H-1129.38V112H-1134.37V111.5H-1144.34V112H-1149.33V111.5H-1159.31V112H-1164.3V111.5H-1174.28V112H-1179.27V111.5H-1189.25V112H-1194.24V111.5H-1204.21V112H-1209.2V111.5H-1219.18V112H-1224.17V111.5H-1234.15V112H-1239.14V111.5H-1249.12V112H-1254.11V111.5H-1264.09V112H-1269.08V111.5H-1279.05V112H-1284.04V111.5H-1294.02V112H-1299.01V111.5H-1308.99V112H-1313.98V111.5H-1323.96V112H-1328.95V111.5H-1338.92V112H-1343.91V111.5H-1353.89V112H-1358.88V111.5H-1368.86V112H-1373.85V111.5H-1383.83V112H-1388.82V111.5H-1398.8V112H-1403.79V111.5H-1413.76V112H-1418.75V111.5H-1428.73V112H-1433.72V111.5H-1443.7V112H-1448.69V111.5H-1458.67V112H-1463.66V111.5H-1473.63V112H-1478.62V111.5H-1488.6V112H-1493.59V111.5H-1503.57V112H-1508.56V111.5H-1518.54V112H-1523.53V111.5H-1533.5V112H-1538.49V111.5H-1548.47V112H-1553.46V111.5H-1563.44V112H-1568.43V111.5H-1578.41V112H-1583.4V111.5H-1593.38V112H-1598.37V111.5H-1608.34V112H-1613.33V111.5H-1623.31V112H-1628.3V111.5H-1638.28V112H-1643.27V111.5H-1653.25V112H-1658.24V111.5H-1668.21V112H-1673.2V111.5H-1683.18V112H-1688.17V111.5H-1698.15V112H-1703.14V111.5H-1713.12V112H-1718.11V111.5H-1728.09V112H-1733.08V111.5H-1743.05V112H-1748.04V111.5H-1758.02V112H-1763.01V111.5H-1768C-1769.39 111.5 -1770.76 111.379 -1772.08 111.146L-1772.17 111.638C-1773.56 111.394 -1774.91 111.03 -1776.21 110.558L-1776.04 110.089C-1778.64 109.142 -1781.03 107.75 -1783.11 106.003L-1783.43 106.384C-1784.5 105.485 -1785.49 104.495 -1786.38 103.426L-1786 103.105C-1787.75 101.026 -1789.14 98.64 -1790.09 96.04L-1790.56 96.21C-1791.03 94.9116 -1791.39 93.5609 -1791.64 92.1689L-1791.15 92.083C-1791.38 90.7573 -1791.5 89.393 -1791.5 88V83.1113H-1792V78.2227H-1791.5V68.4443H-1792V63.5557H-1791.5V53.7773H-1792V48.8887H-1791.5V39.1113H-1792V34.2227H-1791.5V24.4443H-1792V19.5557H-1791.5V9.77734H-1792V4.88867H-1791.5V0C-1791.5 -1.393 -1791.38 -2.75727 -1791.15 -4.08301L-1791.64 -4.16992C-1791.43 -5.37923 -1791.12 -6.5575 -1790.74 -7.69727L-1790.56 -8.21094L-1790.09 -8.04004C-1789.14 -10.64 -1787.75 -13.026 -1786 -15.1055L-1786.38 -15.4268C-1785.49 -16.4964 -1784.5 -17.4863 -1783.43 -18.3848L-1783.11 -18.0029C-1781.03 -19.7496 -1778.64 -21.1423 -1776.04 -22.0889L-1776.21 -22.5586C-1774.91 -23.0313 -1773.56 -23.3948 -1772.17 -23.6387L-1772.08 -23.1465C-1770.76 -23.3787 -1769.39 -23.5 -1768 -23.5H-1763.01V-24H-1758.02V-23.5H-1748.05V-24H-1743.06V-23.5H-1733.08V-24H-1728.09V-23.5H-1718.11V-24H-1713.12V-23.5H-1703.14V-24H-1698.15V-23.5H-1688.17V-24H-1683.19V-23.5H-1673.21V-24H-1668.22V-23.5H-1658.24V-24H-1653.25V-23.5H-1643.27V-24H-1638.28V-23.5H-1628.3V-24H-1623.31V-23.5H-1613.34V-24H-1608.35V-23.5H-1598.37V-24H-1593.38V-23.5H-1583.4V-24H-1578.41V-23.5H-1568.43V-24H-1563.44V-23.5H-1553.46V-24H-1548.48V-23.5H-1538.5V-24H-1533.51V-23.5H-1523.53V-24H-1518.54V-23.5H-1508.56V-24H-1503.57V-23.5H-1493.59V-24H-1488.6V-23.5H-1478.63V-24H-1473.64V-23.5H-1463.66V-24H-1458.67V-23.5H-1448.69V-24H-1443.7V-23.5H-1433.72V-24H-1428.73V-23.5H-1418.75V-24H-1413.77V-23.5H-1403.79V-24H-1398.8V-23.5H-1388.82V-24H-1383.83V-23.5H-1373.85V-24H-1368.86V-23.5H-1358.88V-24H-1353.89V-23.5H-1343.92V-24H-1338.93V-23.5H-1328.95V-24H-1323.96V-23.5H-1313.98V-24H-1308.99V-23.5H-1299.01V-24H-1294.02V-23.5H-1284.04V-24H-1279.06V-23.5H-1269.08V-24H-1264.09V-23.5H-1254.11V-24H-1249.12V-23.5H-1239.14V-24H-1234.15V-23.5H-1224.17V-24H-1219.18V-23.5H-1209.21V-24H-1204.22V-23.5H-1194.24V-24H-1189.25V-23.5H-1179.27V-24H-1174.28V-23.5H-1164.3V-24H-1159.31V-23.5H-1149.33V-24H-1144.35V-23.5H-1134.37V-24H-1129.38V-23.5H-1119.4V-24H-1114.41V-23.5H-1104.43V-24H-1099.44V-23.5H-1089.46V-24H-1084.47V-23.5H-1074.5V-24H-1069.51V-23.5H-1059.53V-24H-1054.54V-23.5H-1044.56V-24H-1039.57V-23.5H-1029.59V-24H-1024.6V-23.5H-1014.62V-24H-1009.64V-23.5H-999.657V-24H-994.668V-23.5H-984.689V-24H-979.7V-23.5H-969.722V-24H-964.732V-23.5H-954.754V-24H-949.765V-23.5H-939.786V-24H-934.797V-23.5H-924.818V-24H-919.829V-23.5H-909.851V-24H-904.861V-23.5H-894.883V-24H-889.894V-23.5H-879.915V-24H-874.926V-23.5H-864.947V-24H-859.958V-23.5H-849.979V-24H-844.99V-23.5H-835.012V-24H-830.022V-23.5H-820.044V-24H-815.055V-23.5H-805.076V-24H-800.087V-23.5H-790.108V-24H-785.119V-23.5H-775.141V-24H-770.151V-23.5H-760.173V-24H-755.184V-23.5H-745.205V-24H-740.216V-23.5H-730.237V-24H-725.248V-23.5H-715.27V-24H-710.28V-23.5H-700.302V-24H-695.312V-23.5H-685.334V-24H-680.345V-23.5H-670.366V-24H-665.377V-23.5H-655.398V-24H-650.409V-23.5H-640.431V-24H-635.441V-23.5H-625.463V-24H-620.474V-23.5H-610.495V-24H-605.506V-23.5H-595.527V-24H-590.538V-23.5H-580.56V-24H-575.57V-23.5H-565.592V-24H-560.603V-23.5H-550.624V-24H-545.635V-23.5H-535.656V-24H-530.667V-23.5H-520.688V-24H-515.699V-23.5H-505.721V-24H-500.731V-23.5H-490.753V-24H-485.764V-23.5H-475.785V-24H-470.796V-23.5H-460.817V-24H-455.828V-23.5H-445.85V-24H-440.86V-23.5H-430.882V-24H-425.893V-23.5H-415.914V-24H-410.925V-23.5H-400.946V-24H-395.957V-23.5H-385.979V-24H-380.989V-23.5H-371.011V-24H-366.021V-23.5H-356.043V-24H-351.054V-23.5H-341.075V-24H-336.086V-23.5H-326.107V-24H-321.118V-23.5H-311.14V-24H-306.15V-23.5H-296.172V-24H-291.183V-23.5H-281.204V-24H-276.215V-23.5H-266.236V-24H-261.247V-23.5H-251.269V-24H-246.279V-23.5H-236.301V-24H-231.312V-23.5H-221.333V-24H-216.344V-23.5H-206.365V-24H-201.376V-23.5H-191.397V-24H-186.408V-23.5H-176.43V-24H-171.44V-23.5H-161.462V-24H-156.473V-23.5H-146.494V-24H-141.506V-23.5H-131.527V-24H-126.538V-23.5H-116.56V-24H-111.57V-23.5H-101.592V-24H-96.6025V-23.5H-86.624V-24H-81.6348V-23.5H-71.6562V-24H-66.667V-23.5H-56.6885V-24H-51.6992V-23.5H-41.7207V-24H-36.7314V-23.5H-26.7529V-24H-21.7637V-23.5H-11.7852V-24H-6.7959V-23.5H3.18262V-24H8.17188V-23.5H18.1504V-24H23.1396V-23.5H33.1182V-24H38.1074V-23.5H48.0859V-24H53.0752V-23.5H63.0537V-24H68.043V-23.5H78.0215V-24H83.0107V-23.5H88C89.393 -23.5 90.7573 -23.3787 92.083 -23.1465L92.1689 -23.6387C93.5609 -23.3949 94.9116 -23.0312 96.21 -22.5586L96.04 -22.0889C98.64 -21.1423 101.026 -19.7496 103.105 -18.0029L103.426 -18.3848C104.495 -17.4863 105.485 -16.4964 106.384 -15.4268L106.003 -15.1055C107.75 -13.026 109.142 -10.64 110.089 -8.04004L110.558 -8.21094Z" fill="white"/>
<path d="M110.558 -8.21094C111.03 -6.91254 111.394 -5.56192 111.638 -4.16992L111.146 -4.08301C111.379 -2.75727 111.5 -1.393 111.5 0V4.88867H112V9.77734H111.5V19.5557H112V24.4443H111.5V34.2227H112V39.1113H111.5V48.8887H112V53.7773H111.5V63.5557H112V68.4443H111.5V78.2227H112V83.1113H111.5V88C111.5 89.393 111.379 90.7573 111.146 92.083L111.638 92.1689C111.394 93.561 111.03 94.9115 110.558 96.21L110.089 96.04C109.142 98.64 107.75 101.026 106.003 103.105L106.384 103.426C105.485 104.495 104.495 105.485 103.426 106.384L103.105 106.003C101.026 107.75 98.64 109.142 96.04 110.089L96.21 110.558C94.9115 111.03 93.561 111.394 92.1689 111.638L92.083 111.146C90.7573 111.379 89.393 111.5 88 111.5H83.0137V112H78.0244V111.5H68.0459V112H63.0566V111.5H53.0781V112H48.0889V111.5H38.1104V112H33.1211V111.5H23.1426V112H18.1533V111.5H8.1748V112H3.18555V111.5H-6.79297V112H-11.7822V111.5H-21.7607V112H-26.75V111.5H-36.7285V112H-41.7178V111.5H-51.6963V112H-56.6855V111.5H-66.6641V112H-71.6533V111.5H-81.6318V112H-86.6211V111.5H-96.5996V112H-101.589V111.5H-111.567V112H-116.557V111.5H-126.535V112H-131.524V111.5H-141.503V112H-146.492V111.5H-156.471V112H-161.46V111.5H-171.438V112H-176.428V111.5H-186.406V112H-191.396V111.5H-201.374V112H-206.363V111.5H-216.342V112H-221.331V111.5H-231.31V112H-236.299V111.5H-246.277V112H-251.267V111.5H-261.245V112H-266.234V111.5H-276.213V112H-281.202V111.5H-291.181V112H-296.17V111.5H-306.148V112H-311.138V111.5H-321.116V112H-326.105V111.5H-336.084V112H-341.073V111.5H-351.052V112H-356.041V111.5H-366.02V112H-371.009V111.5H-380.987V112H-385.977V111.5H-395.955V112H-400.944V111.5H-410.923V112H-415.912V111.5H-425.891V112H-430.88V111.5H-440.858V112H-445.848V111.5H-455.826V112H-460.815V111.5H-470.794V112H-475.783V111.5H-485.762V112H-490.751V111.5H-500.729V112H-505.719V111.5H-515.697V112H-520.687V111.5H-530.665V112H-535.654V111.5H-545.633V112H-550.622V111.5H-560.601V112H-565.59V111.5H-575.568V112H-580.558V111.5H-590.536V112H-595.525V111.5H-605.504V112H-610.493V111.5H-620.472V112H-625.461V111.5H-635.439V112H-640.429V111.5H-650.407V112H-655.396V111.5H-665.375V112H-670.364V111.5H-680.343V112H-685.332V111.5H-695.311V112H-700.3V111.5H-710.278V112H-715.268V111.5H-725.246V112H-730.235V111.5H-740.214V112H-745.203V111.5H-755.182V112H-760.171V111.5H-770.149V112H-775.139V111.5H-785.117V112H-790.106V111.5H-800.085V112H-805.074V111.5H-815.053V112H-820.042V111.5H-830.021V112H-835.01V111.5H-844.988V112H-849.978V111.5H-859.956V112H-864.945V111.5H-874.924V112H-879.913V111.5H-889.892V112H-894.881V111.5H-904.859V112H-909.849V111.5H-919.827V112H-924.816V111.5H-934.795V112H-939.784V111.5H-949.763V112H-954.752V111.5H-964.73V112H-969.72V111.5H-979.698V112H-984.688V111.5H-994.666V112H-999.655V111.5H-1009.63V112H-1014.62V111.5H-1024.6V112H-1029.59V111.5H-1039.57V112H-1044.56V111.5H-1054.54V112H-1059.53V111.5H-1069.5V112H-1074.49V111.5H-1084.47V112H-1089.46V111.5H-1099.44V112H-1104.43V111.5H-1114.41V112H-1119.4V111.5H-1129.38V112H-1134.37V111.5H-1144.34V112H-1149.33V111.5H-1159.31V112H-1164.3V111.5H-1174.28V112H-1179.27V111.5H-1189.25V112H-1194.24V111.5H-1204.21V112H-1209.2V111.5H-1219.18V112H-1224.17V111.5H-1234.15V112H-1239.14V111.5H-1249.12V112H-1254.11V111.5H-1264.09V112H-1269.08V111.5H-1279.05V112H-1284.04V111.5H-1294.02V112H-1299.01V111.5H-1308.99V112H-1313.98V111.5H-1323.96V112H-1328.95V111.5H-1338.92V112H-1343.91V111.5H-1353.89V112H-1358.88V111.5H-1368.86V112H-1373.85V111.5H-1383.83V112H-1388.82V111.5H-1398.8V112H-1403.79V111.5H-1413.76V112H-1418.75V111.5H-1428.73V112H-1433.72V111.5H-1443.7V112H-1448.69V111.5H-1458.67V112H-1463.66V111.5H-1473.63V112H-1478.62V111.5H-1488.6V112H-1493.59V111.5H-1503.57V112H-1508.56V111.5H-1518.54V112H-1523.53V111.5H-1533.5V112H-1538.49V111.5H-1548.47V112H-1553.46V111.5H-1563.44V112H-1568.43V111.5H-1578.41V112H-1583.4V111.5H-1593.38V112H-1598.37V111.5H-1608.34V112H-1613.33V111.5H-1623.31V112H-1628.3V111.5H-1638.28V112H-1643.27V111.5H-1653.25V112H-1658.24V111.5H-1668.21V112H-1673.2V111.5H-1683.18V112H-1688.17V111.5H-1698.15V112H-1703.14V111.5H-1713.12V112H-1718.11V111.5H-1728.09V112H-1733.08V111.5H-1743.05V112H-1748.04V111.5H-1758.02V112H-1763.01V111.5H-1768C-1769.39 111.5 -1770.76 111.379 -1772.08 111.146L-1772.17 111.638C-1773.56 111.394 -1774.91 111.03 -1776.21 110.558L-1776.04 110.089C-1778.64 109.142 -1781.03 107.75 -1783.11 106.003L-1783.43 106.384C-1784.5 105.485 -1785.49 104.495 -1786.38 103.426L-1786 103.105C-1787.75 101.026 -1789.14 98.64 -1790.09 96.04L-1790.56 96.21C-1791.03 94.9116 -1791.39 93.5609 -1791.64 92.1689L-1791.15 92.083C-1791.38 90.7573 -1791.5 89.393 -1791.5 88V83.1113H-1792V78.2227H-1791.5V68.4443H-1792V63.5557H-1791.5V53.7773H-1792V48.8887H-1791.5V39.1113H-1792V34.2227H-1791.5V24.4443H-1792V19.5557H-1791.5V9.77734H-1792V4.88867H-1791.5V0C-1791.5 -1.393 -1791.38 -2.75727 -1791.15 -4.08301L-1791.64 -4.16992C-1791.43 -5.37923 -1791.12 -6.5575 -1790.74 -7.69727L-1790.56 -8.21094L-1790.09 -8.04004C-1789.14 -10.64 -1787.75 -13.026 -1786 -15.1055L-1786.38 -15.4268C-1785.49 -16.4964 -1784.5 -17.4863 -1783.43 -18.3848L-1783.11 -18.0029C-1781.03 -19.7496 -1778.64 -21.1423 -1776.04 -22.0889L-1776.21 -22.5586C-1774.91 -23.0313 -1773.56 -23.3948 -1772.17 -23.6387L-1772.08 -23.1465C-1770.76 -23.3787 -1769.39 -23.5 -1768 -23.5H-1763.01V-24H-1758.02V-23.5H-1748.05V-24H-1743.06V-23.5H-1733.08V-24H-1728.09V-23.5H-1718.11V-24H-1713.12V-23.5H-1703.14V-24H-1698.15V-23.5H-1688.17V-24H-1683.19V-23.5H-1673.21V-24H-1668.22V-23.5H-1658.24V-24H-1653.25V-23.5H-1643.27V-24H-1638.28V-23.5H-1628.3V-24H-1623.31V-23.5H-1613.34V-24H-1608.35V-23.5H-1598.37V-24H-1593.38V-23.5H-1583.4V-24H-1578.41V-23.5H-1568.43V-24H-1563.44V-23.5H-1553.46V-24H-1548.48V-23.5H-1538.5V-24H-1533.51V-23.5H-1523.53V-24H-1518.54V-23.5H-1508.56V-24H-1503.57V-23.5H-1493.59V-24H-1488.6V-23.5H-1478.63V-24H-1473.64V-23.5H-1463.66V-24H-1458.67V-23.5H-1448.69V-24H-1443.7V-23.5H-1433.72V-24H-1428.73V-23.5H-1418.75V-24H-1413.77V-23.5H-1403.79V-24H-1398.8V-23.5H-1388.82V-24H-1383.83V-23.5H-1373.85V-24H-1368.86V-23.5H-1358.88V-24H-1353.89V-23.5H-1343.92V-24H-1338.93V-23.5H-1328.95V-24H-1323.96V-23.5H-1313.98V-24H-1308.99V-23.5H-1299.01V-24H-1294.02V-23.5H-1284.04V-24H-1279.06V-23.5H-1269.08V-24H-1264.09V-23.5H-1254.11V-24H-1249.12V-23.5H-1239.14V-24H-1234.15V-23.5H-1224.17V-24H-1219.18V-23.5H-1209.21V-24H-1204.22V-23.5H-1194.24V-24H-1189.25V-23.5H-1179.27V-24H-1174.28V-23.5H-1164.3V-24H-1159.31V-23.5H-1149.33V-24H-1144.35V-23.5H-1134.37V-24H-1129.38V-23.5H-1119.4V-24H-1114.41V-23.5H-1104.43V-24H-1099.44V-23.5H-1089.46V-24H-1084.47V-23.5H-1074.5V-24H-1069.51V-23.5H-1059.53V-24H-1054.54V-23.5H-1044.56V-24H-1039.57V-23.5H-1029.59V-24H-1024.6V-23.5H-1014.62V-24H-1009.64V-23.5H-999.657V-24H-994.668V-23.5H-984.689V-24H-979.7V-23.5H-969.722V-24H-964.732V-23.5H-954.754V-24H-949.765V-23.5H-939.786V-24H-934.797V-23.5H-924.818V-24H-919.829V-23.5H-909.851V-24H-904.861V-23.5H-894.883V-24H-889.894V-23.5H-879.915V-24H-874.926V-23.5H-864.947V-24H-859.958V-23.5H-849.979V-24H-844.99V-23.5H-835.012V-24H-830.022V-23.5H-820.044V-24H-815.055V-23.5H-805.076V-24H-800.087V-23.5H-790.108V-24H-785.119V-23.5H-775.141V-24H-770.151V-23.5H-760.173V-24H-755.184V-23.5H-745.205V-24H-740.216V-23.5H-730.237V-24H-725.248V-23.5H-715.27V-24H-710.28V-23.5H-700.302V-24H-695.312V-23.5H-685.334V-24H-680.345V-23.5H-670.366V-24H-665.377V-23.5H-655.398V-24H-650.409V-23.5H-640.431V-24H-635.441V-23.5H-625.463V-24H-620.474V-23.5H-610.495V-24H-605.506V-23.5H-595.527V-24H-590.538V-23.5H-580.56V-24H-575.57V-23.5H-565.592V-24H-560.603V-23.5H-550.624V-24H-545.635V-23.5H-535.656V-24H-530.667V-23.5H-520.688V-24H-515.699V-23.5H-505.721V-24H-500.731V-23.5H-490.753V-24H-485.764V-23.5H-475.785V-24H-470.796V-23.5H-460.817V-24H-455.828V-23.5H-445.85V-24H-440.86V-23.5H-430.882V-24H-425.893V-23.5H-415.914V-24H-410.925V-23.5H-400.946V-24H-395.957V-23.5H-385.979V-24H-380.989V-23.5H-371.011V-24H-366.021V-23.5H-356.043V-24H-351.054V-23.5H-341.075V-24H-336.086V-23.5H-326.107V-24H-321.118V-23.5H-311.14V-24H-306.15V-23.5H-296.172V-24H-291.183V-23.5H-281.204V-24H-276.215V-23.5H-266.236V-24H-261.247V-23.5H-251.269V-24H-246.279V-23.5H-236.301V-24H-231.312V-23.5H-221.333V-24H-216.344V-23.5H-206.365V-24H-201.376V-23.5H-191.397V-24H-186.408V-23.5H-176.43V-24H-171.44V-23.5H-161.462V-24H-156.473V-23.5H-146.494V-24H-141.506V-23.5H-131.527V-24H-126.538V-23.5H-116.56V-24H-111.57V-23.5H-101.592V-24H-96.6025V-23.5H-86.624V-24H-81.6348V-23.5H-71.6562V-24H-66.667V-23.5H-56.6885V-24H-51.6992V-23.5H-41.7207V-24H-36.7314V-23.5H-26.7529V-24H-21.7637V-23.5H-11.7852V-24H-6.7959V-23.5H3.18262V-24H8.17188V-23.5H18.1504V-24H23.1396V-23.5H33.1182V-24H38.1074V-23.5H48.0859V-24H53.0752V-23.5H63.0537V-24H68.043V-23.5H78.0215V-24H83.0107V-23.5H88C89.393 -23.5 90.7573 -23.3787 92.083 -23.1465L92.1689 -23.6387C93.5609 -23.3949 94.9116 -23.0312 96.21 -22.5586L96.04 -22.0889C98.64 -21.1423 101.026 -19.7496 103.105 -18.0029L103.426 -18.3848C104.495 -17.4863 105.485 -16.4964 106.384 -15.4268L106.003 -15.1055C107.75 -13.026 109.142 -10.64 110.089 -8.04004L110.558 -8.21094Z" stroke="#8A38F5" stroke-dasharray="10 5"/>
<g id="Name=&#208;&#146;&#208;&#176;&#208;&#182;&#208;&#189;&#208;&#176;&#209;&#143; &#208;&#184;&#208;&#189;&#209;&#132;&#208;&#190;&#209;&#128;&#208;&#188;&#208;&#176;&#209;&#134;&#208;&#184;&#209;&#143;">
<rect width="88" height="88" fill="#909090"/>
</g>
</g>
</svg>
