<svg width="88" height="88" viewBox="0 0 88 88" fill="none" xmlns="http://www.w3.org/2000/svg">
<rect width="88" height="88" fill="#545454"/>
<g id="Small Image">
<path d="M1566.56 -8.21094C1567.03 -6.91254 1567.39 -5.56192 1567.64 -4.16992L1567.15 -4.08301C1567.38 -2.75727 1567.5 -1.393 1567.5 0V4.88867H1568V9.77734H1567.5V19.5557H1568V24.4443H1567.5V34.2227H1568V39.1113H1567.5V48.8887H1568V53.7773H1567.5V63.5557H1568V68.4443H1567.5V78.2227H1568V83.1113H1567.5V88C1567.5 89.393 1567.38 90.7573 1567.15 92.083L1567.64 92.1689C1567.39 93.561 1567.03 94.9115 1566.56 96.21L1566.09 96.04C1565.14 98.64 1563.75 101.026 1562 103.105L1562.38 103.426C1561.49 104.495 1560.5 105.485 1559.43 106.384L1559.11 106.003C1557.03 107.75 1554.64 109.142 1552.04 110.089L1552.21 110.558C1550.91 111.03 1549.56 111.394 1548.17 111.638L1548.08 111.146C1546.76 111.379 1545.39 111.5 1544 111.5H1539.01V112H1534.02V111.5H1524.05V112H1519.06V111.5H1509.08V112H1504.09V111.5H1494.11V112H1489.12V111.5H1479.14V112H1474.15V111.5H1464.17V112H1459.19V111.5H1449.21V112H1444.22V111.5H1434.24V112H1429.25V111.5H1419.27V112H1414.28V111.5H1404.3V112H1399.31V111.5H1389.34V112H1384.35V111.5H1374.37V112H1369.38V111.5H1359.4V112H1354.41V111.5H1344.43V112H1339.44V111.5H1329.46V112H1324.48V111.5H1314.5V112H1309.51V111.5H1299.53V112H1294.54V111.5H1284.56V112H1279.57V111.5H1269.59V112H1264.6V111.5H1254.63V112H1249.64V111.5H1239.66V112H1234.67V111.5H1224.69V112H1219.7V111.5H1209.72V112H1204.73V111.5H1194.75V112H1189.77V111.5H1179.79V112H1174.8V111.5H1164.82V112H1159.83V111.5H1149.85V112H1144.86V111.5H1134.88V112H1129.89V111.5H1119.92V112H1114.93V111.5H1104.95V112H1099.96V111.5H1089.98V112H1084.99V111.5H1075.01V112H1070.02V111.5H1060.04V112H1055.06V111.5H1045.08V112H1040.09V111.5H1030.11V112H1025.12V111.5H1015.14V112H1010.15V111.5H1000.17V112H995.185V111.5H985.206V112H980.217V111.5H970.238V112H965.249V111.5H955.271V112H950.281V111.5H940.303V112H935.313V111.5H925.335V112H920.346V111.5H910.367V112H905.378V111.5H895.399V112H890.41V111.5H880.432V112H875.442V111.5H865.464V112H860.475V111.5H850.496V112H845.507V111.5H835.528V112H830.539V111.5H820.561V112H815.571V111.5H805.593V112H800.604V111.5H790.625V112H785.636V111.5H775.657V112H770.668V111.5H760.689V112H755.7V111.5H745.722V112H740.732V111.5H730.754V112H725.765V111.5H715.786V112H710.797V111.5H700.818V112H695.829V111.5H685.851V112H680.861V111.5H670.883V112H665.894V111.5H655.915V112H650.926V111.5H640.947V112H635.958V111.5H625.979V112H620.99V111.5H611.012V112H606.022V111.5H596.044V112H591.055V111.5H581.076V112H576.087V111.5H566.108V112H561.119V111.5H551.141V112H546.151V111.5H536.173V112H531.184V111.5H521.205V112H516.216V111.5H506.237V112H501.248V111.5H491.27V112H486.28V111.5H476.302V112H471.312V111.5H461.334V112H456.345V111.5H446.366V112H441.377V111.5H431.398V112H426.409V111.5H416.431V112H411.441V111.5H401.463V112H396.474V111.5H386.495V112H381.506V111.5H371.527V112H366.538V111.5H356.56V112H351.57V111.5H341.592V112H336.603V111.5H326.624V112H321.635V111.5H311.656V112H306.667V111.5H296.688V112H291.699V111.5H281.721V112H276.731V111.5H266.753V112H261.764V111.5H251.785V112H246.796V111.5H236.817V112H231.828V111.5H221.85V112H216.86V111.5H206.882V112H201.893V111.5H191.914V112H186.925V111.5H176.946V112H171.957V111.5H161.979V112H156.989V111.5H147.011V112H142.021V111.5H132.043V112H127.054V111.5H117.075V112H112.086V111.5H102.107V112H97.1182V111.5H87.1396V112H82.1504V111.5H72.1719V112H67.1826V111.5H57.2041V112H52.2148V111.5H42.2363V112H37.2471V111.5H27.2686V112H22.2793V111.5H12.3008V112H7.31152V111.5H-2.66699V112H-7.65625V111.5H-17.6348V112H-22.624V111.5H-32.6025V112H-37.5918V111.5H-47.5703V112H-52.5596V111.5H-62.5371V112H-67.5264V111.5H-77.5049V112H-82.4941V111.5H-92.4727V112H-97.4619V111.5H-107.44V112H-112.43V111.5H-122.408V112H-127.397V111.5H-137.376V112H-142.365V111.5H-152.344V112H-157.333V111.5H-167.312V112H-172.301V111.5H-182.279V112H-187.269V111.5H-197.247V112H-202.236V111.5H-212.215V112H-217.204V111.5H-227.183V112H-232.172V111.5H-242.15V112H-247.14V111.5H-257.118V112H-262.107V111.5H-272.086V112H-277.075V111.5H-287.054V112H-292.043V111.5H-302.021V112H-307.011V111.5H-312C-313.393 111.5 -314.757 111.379 -316.083 111.146L-316.17 111.638C-317.562 111.394 -318.913 111.03 -320.211 110.558L-320.04 110.089C-322.64 109.142 -325.026 107.75 -327.105 106.003L-327.427 106.384C-328.496 105.485 -329.486 104.495 -330.385 103.426L-330.003 103.105C-331.75 101.026 -333.142 98.64 -334.089 96.04L-334.559 96.21C-335.031 94.9116 -335.395 93.5609 -335.639 92.1689L-335.146 92.083C-335.379 90.7573 -335.5 89.393 -335.5 88V83.1113H-336V78.2227H-335.5V68.4443H-336V63.5557H-335.5V53.7773H-336V48.8887H-335.5V39.1113H-336V34.2227H-335.5V24.4443H-336V19.5557H-335.5V9.77734H-336V4.88867H-335.5V0C-335.5 -1.393 -335.379 -2.75727 -335.146 -4.08301L-335.639 -4.16992C-335.427 -5.37923 -335.125 -6.5575 -334.739 -7.69727L-334.559 -8.21094L-334.089 -8.04004C-333.142 -10.64 -331.75 -13.026 -330.003 -15.1055L-330.385 -15.4268C-329.486 -16.4964 -328.496 -17.4863 -327.427 -18.3848L-327.105 -18.0029C-325.026 -19.7496 -322.64 -21.1423 -320.04 -22.0889L-320.211 -22.5586C-318.913 -23.0313 -317.562 -23.3948 -316.17 -23.6387L-316.083 -23.1465C-314.757 -23.3787 -313.393 -23.5 -312 -23.5H-307.014V-24H-302.024V-23.5H-292.046V-24H-287.057V-23.5H-277.078V-24H-272.089V-23.5H-262.11V-24H-257.121V-23.5H-247.143V-24H-242.153V-23.5H-232.175V-24H-227.186V-23.5H-217.207V-24H-212.218V-23.5H-202.239V-24H-197.25V-23.5H-187.271V-24H-182.282V-23.5H-172.304V-24H-167.314V-23.5H-157.336V-24H-152.347V-23.5H-142.368V-24H-137.379V-23.5H-127.4V-24H-122.411V-23.5H-112.433V-24H-107.443V-23.5H-97.4648V-24H-92.4756V-23.5H-82.4971V-24H-77.5078V-23.5H-67.5293V-24H-62.54V-23.5H-52.5615V-24H-47.5723V-23.5H-37.5938V-24H-32.6045V-23.5H-22.626V-24H-17.6367V-23.5H-7.6582V-24H-2.66895V-23.5H7.30957V-24H12.2988V-23.5H22.2773V-24H27.2666V-23.5H37.2451V-24H42.2344V-23.5H52.2129V-24H57.2021V-23.5H67.1807V-24H72.1699V-23.5H82.1484V-24H87.1377V-23.5H97.1162V-24H102.105V-23.5H112.084V-24H117.073V-23.5H127.052V-24H132.041V-23.5H142.02V-24H147.009V-23.5H156.987V-24H161.977V-23.5H171.955V-24H176.944V-23.5H186.923V-24H191.912V-23.5H201.891V-24H206.88V-23.5H216.858V-24H221.848V-23.5H231.826V-24H236.815V-23.5H246.794V-24H251.783V-23.5H261.762V-24H266.751V-23.5H276.729V-24H281.719V-23.5H291.697V-24H296.687V-23.5H306.665V-24H311.654V-23.5H321.633V-24H326.622V-23.5H336.601V-24H341.59V-23.5H351.568V-24H356.558V-23.5H366.536V-24H371.525V-23.5H381.504V-24H386.493V-23.5H396.472V-24H401.461V-23.5H411.439V-24H416.429V-23.5H426.407V-24H431.396V-23.5H441.375V-24H446.364V-23.5H456.343V-24H461.332V-23.5H471.311V-24H476.3V-23.5H486.278V-24H491.268V-23.5H501.246V-24H506.235V-23.5H516.214V-24H521.203V-23.5H531.182V-24H536.171V-23.5H546.149V-24H551.139V-23.5H561.117V-24H566.106V-23.5H576.085V-24H581.074V-23.5H591.053V-24H596.042V-23.5H606.021V-24H611.01V-23.5H620.988V-24H625.978V-23.5H635.956V-24H640.945V-23.5H650.924V-24H655.913V-23.5H665.892V-24H670.881V-23.5H680.859V-24H685.849V-23.5H695.827V-24H700.816V-23.5H710.795V-24H715.784V-23.5H725.763V-24H730.752V-23.5H740.73V-24H745.72V-23.5H755.698V-24H760.688V-23.5H770.666V-24H775.655V-23.5H785.634V-24H790.623V-23.5H800.602V-24H805.591V-23.5H815.569V-24H820.559V-23.5H830.537V-24H835.526V-23.5H845.505V-24H850.494V-23.5H860.473V-24H865.462V-23.5H875.44V-24H880.43V-23.5H890.408V-24H895.397V-23.5H905.376V-24H910.365V-23.5H920.344V-24H925.333V-23.5H935.312V-24H940.301V-23.5H950.279V-24H955.269V-23.5H965.247V-24H970.236V-23.5H980.215V-24H985.204V-23.5H995.183V-24H1000.17V-23.5H1010.15V-24H1015.14V-23.5H1025.12V-24H1030.11V-23.5H1040.09V-24H1045.08V-23.5H1055.05V-24H1060.04V-23.5H1070.02V-24H1075.01V-23.5H1084.99V-24H1089.98V-23.5H1099.96V-24H1104.95V-23.5H1114.92V-24H1119.91V-23.5H1129.89V-24H1134.88V-23.5H1144.86V-24H1149.85V-23.5H1159.83V-24H1164.82V-23.5H1174.8V-24H1179.79V-23.5H1189.76V-24H1194.75V-23.5H1204.73V-24H1209.72V-23.5H1219.7V-24H1224.69V-23.5H1234.67V-24H1239.66V-23.5H1249.63V-24H1254.62V-23.5H1264.6V-24H1269.59V-23.5H1279.57V-24H1284.56V-23.5H1294.54V-24H1299.53V-23.5H1309.51V-24H1314.49V-23.5H1324.47V-24H1329.46V-23.5H1339.44V-24H1344.43V-23.5H1354.41V-24H1359.4V-23.5H1369.38V-24H1374.37V-23.5H1384.34V-24H1389.33V-23.5H1399.31V-24H1404.3V-23.5H1414.28V-24H1419.27V-23.5H1429.25V-24H1434.24V-23.5H1444.21V-24H1449.2V-23.5H1459.18V-24H1464.17V-23.5H1474.15V-24H1479.14V-23.5H1489.12V-24H1494.11V-23.5H1504.09V-24H1509.08V-23.5H1519.05V-24H1524.04V-23.5H1534.02V-24H1539.01V-23.5H1544C1545.39 -23.5 1546.76 -23.3787 1548.08 -23.1465L1548.17 -23.6387C1549.56 -23.3949 1550.91 -23.0312 1552.21 -22.5586L1552.04 -22.0889C1554.64 -21.1423 1557.03 -19.7496 1559.11 -18.0029L1559.43 -18.3848C1560.5 -17.4863 1561.49 -16.4964 1562.38 -15.4268L1562 -15.1055C1563.75 -13.026 1565.14 -10.64 1566.09 -8.04004L1566.56 -8.21094Z" fill="white"/>
<path d="M1566.56 -8.21094C1567.03 -6.91254 1567.39 -5.56192 1567.64 -4.16992L1567.15 -4.08301C1567.38 -2.75727 1567.5 -1.393 1567.5 0V4.88867H1568V9.77734H1567.5V19.5557H1568V24.4443H1567.5V34.2227H1568V39.1113H1567.5V48.8887H1568V53.7773H1567.5V63.5557H1568V68.4443H1567.5V78.2227H1568V83.1113H1567.5V88C1567.5 89.393 1567.38 90.7573 1567.15 92.083L1567.64 92.1689C1567.39 93.561 1567.03 94.9115 1566.56 96.21L1566.09 96.04C1565.14 98.64 1563.75 101.026 1562 103.105L1562.38 103.426C1561.49 104.495 1560.5 105.485 1559.43 106.384L1559.11 106.003C1557.03 107.75 1554.64 109.142 1552.04 110.089L1552.21 110.558C1550.91 111.03 1549.56 111.394 1548.17 111.638L1548.08 111.146C1546.76 111.379 1545.39 111.5 1544 111.5H1539.01V112H1534.02V111.5H1524.05V112H1519.06V111.5H1509.08V112H1504.09V111.5H1494.11V112H1489.12V111.5H1479.14V112H1474.15V111.5H1464.17V112H1459.19V111.5H1449.21V112H1444.22V111.5H1434.24V112H1429.25V111.5H1419.27V112H1414.28V111.5H1404.3V112H1399.31V111.5H1389.34V112H1384.35V111.5H1374.37V112H1369.38V111.5H1359.4V112H1354.41V111.5H1344.43V112H1339.44V111.5H1329.46V112H1324.48V111.5H1314.5V112H1309.51V111.5H1299.53V112H1294.54V111.5H1284.56V112H1279.57V111.5H1269.59V112H1264.6V111.5H1254.63V112H1249.64V111.5H1239.66V112H1234.67V111.5H1224.69V112H1219.7V111.5H1209.72V112H1204.73V111.5H1194.75V112H1189.77V111.5H1179.79V112H1174.8V111.5H1164.82V112H1159.83V111.5H1149.85V112H1144.86V111.5H1134.88V112H1129.89V111.5H1119.92V112H1114.93V111.5H1104.95V112H1099.96V111.5H1089.98V112H1084.99V111.5H1075.01V112H1070.02V111.5H1060.04V112H1055.06V111.5H1045.08V112H1040.09V111.5H1030.11V112H1025.12V111.5H1015.14V112H1010.15V111.5H1000.17V112H995.185V111.5H985.206V112H980.217V111.5H970.238V112H965.249V111.5H955.271V112H950.281V111.5H940.303V112H935.313V111.5H925.335V112H920.346V111.5H910.367V112H905.378V111.5H895.399V112H890.41V111.5H880.432V112H875.442V111.5H865.464V112H860.475V111.5H850.496V112H845.507V111.5H835.528V112H830.539V111.5H820.561V112H815.571V111.5H805.593V112H800.604V111.5H790.625V112H785.636V111.5H775.657V112H770.668V111.5H760.689V112H755.7V111.5H745.722V112H740.732V111.5H730.754V112H725.765V111.5H715.786V112H710.797V111.5H700.818V112H695.829V111.5H685.851V112H680.861V111.5H670.883V112H665.894V111.5H655.915V112H650.926V111.5H640.947V112H635.958V111.5H625.979V112H620.99V111.5H611.012V112H606.022V111.5H596.044V112H591.055V111.5H581.076V112H576.087V111.5H566.108V112H561.119V111.5H551.141V112H546.151V111.5H536.173V112H531.184V111.5H521.205V112H516.216V111.5H506.237V112H501.248V111.5H491.27V112H486.28V111.5H476.302V112H471.312V111.5H461.334V112H456.345V111.5H446.366V112H441.377V111.5H431.398V112H426.409V111.5H416.431V112H411.441V111.5H401.463V112H396.474V111.5H386.495V112H381.506V111.5H371.527V112H366.538V111.5H356.56V112H351.57V111.5H341.592V112H336.603V111.5H326.624V112H321.635V111.5H311.656V112H306.667V111.5H296.688V112H291.699V111.5H281.721V112H276.731V111.5H266.753V112H261.764V111.5H251.785V112H246.796V111.5H236.817V112H231.828V111.5H221.85V112H216.86V111.5H206.882V112H201.893V111.5H191.914V112H186.925V111.5H176.946V112H171.957V111.5H161.979V112H156.989V111.5H147.011V112H142.021V111.5H132.043V112H127.054V111.5H117.075V112H112.086V111.5H102.107V112H97.1182V111.5H87.1396V112H82.1504V111.5H72.1719V112H67.1826V111.5H57.2041V112H52.2148V111.5H42.2363V112H37.2471V111.5H27.2686V112H22.2793V111.5H12.3008V112H7.31152V111.5H-2.66699V112H-7.65625V111.5H-17.6348V112H-22.624V111.5H-32.6025V112H-37.5918V111.5H-47.5703V112H-52.5596V111.5H-62.5371V112H-67.5264V111.5H-77.5049V112H-82.4941V111.5H-92.4727V112H-97.4619V111.5H-107.44V112H-112.43V111.5H-122.408V112H-127.397V111.5H-137.376V112H-142.365V111.5H-152.344V112H-157.333V111.5H-167.312V112H-172.301V111.5H-182.279V112H-187.269V111.5H-197.247V112H-202.236V111.5H-212.215V112H-217.204V111.5H-227.183V112H-232.172V111.5H-242.15V112H-247.14V111.5H-257.118V112H-262.107V111.5H-272.086V112H-277.075V111.5H-287.054V112H-292.043V111.5H-302.021V112H-307.011V111.5H-312C-313.393 111.5 -314.757 111.379 -316.083 111.146L-316.17 111.638C-317.562 111.394 -318.913 111.03 -320.211 110.558L-320.04 110.089C-322.64 109.142 -325.026 107.75 -327.105 106.003L-327.427 106.384C-328.496 105.485 -329.486 104.495 -330.385 103.426L-330.003 103.105C-331.75 101.026 -333.142 98.64 -334.089 96.04L-334.559 96.21C-335.031 94.9116 -335.395 93.5609 -335.639 92.1689L-335.146 92.083C-335.379 90.7573 -335.5 89.393 -335.5 88V83.1113H-336V78.2227H-335.5V68.4443H-336V63.5557H-335.5V53.7773H-336V48.8887H-335.5V39.1113H-336V34.2227H-335.5V24.4443H-336V19.5557H-335.5V9.77734H-336V4.88867H-335.5V0C-335.5 -1.393 -335.379 -2.75727 -335.146 -4.08301L-335.639 -4.16992C-335.427 -5.37923 -335.125 -6.5575 -334.739 -7.69727L-334.559 -8.21094L-334.089 -8.04004C-333.142 -10.64 -331.75 -13.026 -330.003 -15.1055L-330.385 -15.4268C-329.486 -16.4964 -328.496 -17.4863 -327.427 -18.3848L-327.105 -18.0029C-325.026 -19.7496 -322.64 -21.1423 -320.04 -22.0889L-320.211 -22.5586C-318.913 -23.0313 -317.562 -23.3948 -316.17 -23.6387L-316.083 -23.1465C-314.757 -23.3787 -313.393 -23.5 -312 -23.5H-307.014V-24H-302.024V-23.5H-292.046V-24H-287.057V-23.5H-277.078V-24H-272.089V-23.5H-262.11V-24H-257.121V-23.5H-247.143V-24H-242.153V-23.5H-232.175V-24H-227.186V-23.5H-217.207V-24H-212.218V-23.5H-202.239V-24H-197.25V-23.5H-187.271V-24H-182.282V-23.5H-172.304V-24H-167.314V-23.5H-157.336V-24H-152.347V-23.5H-142.368V-24H-137.379V-23.5H-127.4V-24H-122.411V-23.5H-112.433V-24H-107.443V-23.5H-97.4648V-24H-92.4756V-23.5H-82.4971V-24H-77.5078V-23.5H-67.5293V-24H-62.54V-23.5H-52.5615V-24H-47.5723V-23.5H-37.5938V-24H-32.6045V-23.5H-22.626V-24H-17.6367V-23.5H-7.6582V-24H-2.66895V-23.5H7.30957V-24H12.2988V-23.5H22.2773V-24H27.2666V-23.5H37.2451V-24H42.2344V-23.5H52.2129V-24H57.2021V-23.5H67.1807V-24H72.1699V-23.5H82.1484V-24H87.1377V-23.5H97.1162V-24H102.105V-23.5H112.084V-24H117.073V-23.5H127.052V-24H132.041V-23.5H142.02V-24H147.009V-23.5H156.987V-24H161.977V-23.5H171.955V-24H176.944V-23.5H186.923V-24H191.912V-23.5H201.891V-24H206.88V-23.5H216.858V-24H221.848V-23.5H231.826V-24H236.815V-23.5H246.794V-24H251.783V-23.5H261.762V-24H266.751V-23.5H276.729V-24H281.719V-23.5H291.697V-24H296.687V-23.5H306.665V-24H311.654V-23.5H321.633V-24H326.622V-23.5H336.601V-24H341.59V-23.5H351.568V-24H356.558V-23.5H366.536V-24H371.525V-23.5H381.504V-24H386.493V-23.5H396.472V-24H401.461V-23.5H411.439V-24H416.429V-23.5H426.407V-24H431.396V-23.5H441.375V-24H446.364V-23.5H456.343V-24H461.332V-23.5H471.311V-24H476.3V-23.5H486.278V-24H491.268V-23.5H501.246V-24H506.235V-23.5H516.214V-24H521.203V-23.5H531.182V-24H536.171V-23.5H546.149V-24H551.139V-23.5H561.117V-24H566.106V-23.5H576.085V-24H581.074V-23.5H591.053V-24H596.042V-23.5H606.021V-24H611.01V-23.5H620.988V-24H625.978V-23.5H635.956V-24H640.945V-23.5H650.924V-24H655.913V-23.5H665.892V-24H670.881V-23.5H680.859V-24H685.849V-23.5H695.827V-24H700.816V-23.5H710.795V-24H715.784V-23.5H725.763V-24H730.752V-23.5H740.73V-24H745.72V-23.5H755.698V-24H760.688V-23.5H770.666V-24H775.655V-23.5H785.634V-24H790.623V-23.5H800.602V-24H805.591V-23.5H815.569V-24H820.559V-23.5H830.537V-24H835.526V-23.5H845.505V-24H850.494V-23.5H860.473V-24H865.462V-23.5H875.44V-24H880.43V-23.5H890.408V-24H895.397V-23.5H905.376V-24H910.365V-23.5H920.344V-24H925.333V-23.5H935.312V-24H940.301V-23.5H950.279V-24H955.269V-23.5H965.247V-24H970.236V-23.5H980.215V-24H985.204V-23.5H995.183V-24H1000.17V-23.5H1010.15V-24H1015.14V-23.5H1025.12V-24H1030.11V-23.5H1040.09V-24H1045.08V-23.5H1055.05V-24H1060.04V-23.5H1070.02V-24H1075.01V-23.5H1084.99V-24H1089.98V-23.5H1099.96V-24H1104.95V-23.5H1114.92V-24H1119.91V-23.5H1129.89V-24H1134.88V-23.5H1144.86V-24H1149.85V-23.5H1159.83V-24H1164.82V-23.5H1174.8V-24H1179.79V-23.5H1189.76V-24H1194.75V-23.5H1204.73V-24H1209.72V-23.5H1219.7V-24H1224.69V-23.5H1234.67V-24H1239.66V-23.5H1249.63V-24H1254.62V-23.5H1264.6V-24H1269.59V-23.5H1279.57V-24H1284.56V-23.5H1294.54V-24H1299.53V-23.5H1309.51V-24H1314.49V-23.5H1324.47V-24H1329.46V-23.5H1339.44V-24H1344.43V-23.5H1354.41V-24H1359.4V-23.5H1369.38V-24H1374.37V-23.5H1384.34V-24H1389.33V-23.5H1399.31V-24H1404.3V-23.5H1414.28V-24H1419.27V-23.5H1429.25V-24H1434.24V-23.5H1444.21V-24H1449.2V-23.5H1459.18V-24H1464.17V-23.5H1474.15V-24H1479.14V-23.5H1489.12V-24H1494.11V-23.5H1504.09V-24H1509.08V-23.5H1519.05V-24H1524.04V-23.5H1534.02V-24H1539.01V-23.5H1544C1545.39 -23.5 1546.76 -23.3787 1548.08 -23.1465L1548.17 -23.6387C1549.56 -23.3949 1550.91 -23.0312 1552.21 -22.5586L1552.04 -22.0889C1554.64 -21.1423 1557.03 -19.7496 1559.11 -18.0029L1559.43 -18.3848C1560.5 -17.4863 1561.49 -16.4964 1562.38 -15.4268L1562 -15.1055C1563.75 -13.026 1565.14 -10.64 1566.09 -8.04004L1566.56 -8.21094Z" stroke="#8A38F5" stroke-dasharray="10 5"/>
<g id="Name=&#208;&#161;&#208;&#190;&#208;&#177;&#208;&#181;&#209;&#129;&#208;&#181;&#208;&#180;&#208;&#190;&#208;&#178;&#208;&#176;&#208;&#189;&#208;&#184;&#208;&#181;">
<g id="Group 2087326337">
<path id="Rectangle 1005445" d="M46.8763 54.4898H78.2426C81.3704 54.4898 83.906 51.9543 83.906 48.8265V12.1235L75.302 3.51953H46.8763C43.7485 3.51953 41.2129 6.05511 41.2129 9.1829V48.8265C41.2129 51.9543 43.7485 54.4898 46.8763 54.4898Z" fill="#008F50"/>
<path id="Vector 7067" d="M75.1924 12.2324V3.51953L83.9053 12.2324H75.1924Z" fill="#2DA771"/>
<path id="Union" d="M74.1042 24.0745H72.1866C71.8245 22.3094 71.3153 21.1214 70.659 20.5104C70.0028 19.8881 68.9562 19.577 67.5193 19.577H65.5338V35.8356C65.5338 36.8878 65.7092 37.6232 66.0599 38.0419C66.422 38.4491 67.1743 38.6528 68.317 38.6528H68.9111V40.5366H56.1994V38.6528H56.7425C57.8965 38.6528 58.6434 38.4435 58.9828 38.0249C59.3335 37.5949 59.5089 36.8651 59.5089 35.8356V19.577H57.5742C56.4201 19.577 55.5715 19.7014 55.0284 19.9503C54.4853 20.1992 54.0272 20.6971 53.6538 21.4438C53.2918 22.1792 53.0711 23.0562 52.9919 24.0745H51.0742V17.5234H74.1042V24.0745Z" fill="#FFDF75"/>
<path id="Polygon 2" d="M51.0134 67.9961L51.0134 52.3129L61.3281 52.3129L51.0134 67.9961Z" fill="#008F50"/>
<path id="Vector 7069" d="M7.99414 66.0072L10.2813 40.1144L45.8951 39.4609V66.0072H7.99414Z" fill="#6600BA"/>
<path id="Star 2" d="M43.7657 44.7226L44.5327 49.6029L49.3438 50.725L44.9394 52.9625L45.3589 57.8848L41.8698 54.3874L37.3181 56.3075L39.5661 51.9085L36.3334 48.1728L41.2119 48.9514L43.7657 44.7226Z" fill="#E7C1FF"/>
<path id="Rectangle 1005446" d="M4.40039 84.3328C4.40039 72.784 13.7625 63.4219 25.3113 63.4219H31.6281C43.1769 63.4219 52.539 72.784 52.539 84.3328H4.40039Z" fill="#2DA771"/>
<path id="Rectangle 76" d="M34.46 56.0156H22.6976V64.5107C22.6976 67.7588 25.3307 70.3919 28.5788 70.3919C31.8269 70.3919 34.46 67.7588 34.46 64.5107V56.0156Z" fill="url(#paint0_linear_6227_5096)"/>
<ellipse id="Ellipse 108" cx="15.7921" cy="20.0396" rx="15.7921" ry="20.0396" transform="matrix(-1 0 0 1 45.3506 19.4219)" fill="#FFEAD1"/>
<path id="Vector 47 (Stroke)" d="M31.5355 40.3439C30.9638 39.7451 29.4329 38.7614 27.4043 39.0018C25.3731 39.2425 24.1332 40.5572 23.7277 41.2794L25.2472 42.1327C25.4357 41.7971 26.2352 40.8951 27.6093 40.7323C28.9858 40.5692 29.9998 41.2589 30.2751 41.5472L31.5355 40.3439Z" fill="#6600BA"/>
<path id="Vector 46 (Stroke)" d="M44.3661 41.4896C43.992 40.7509 42.8112 39.3664 40.7998 39.0096C38.7859 38.6523 37.2187 39.552 36.6214 40.1261L37.8292 41.3825C38.1067 41.1157 39.133 40.4837 40.4954 40.7254C41.8602 40.9675 42.6313 41.9211 42.8114 42.2767L44.3661 41.4896Z" fill="#6600BA"/>
<g id="Ellipse 87" filter="url(#filter0_f_6227_5096)">
<circle cx="1.85149" cy="1.85149" r="1.85149" transform="matrix(-1 0 0 1 42.7373 47.3027)" fill="#FFBFA6"/>
</g>
<g id="Ellipse 86" filter="url(#filter1_f_6227_5096)">
<circle cx="2.06931" cy="2.06931" r="2.06931" transform="matrix(-1 0 0 1 26.8359 46.4316)" fill="#FFBFA6"/>
</g>
<circle id="Ellipse 85" cx="1.52475" cy="1.52475" r="1.52475" transform="matrix(-1 0 0 1 35.7666 44.6895)" fill="#FFBFA6"/>
<ellipse id="Ellipse 114" cx="1.63366" cy="2.17822" rx="1.63366" ry="2.17822" transform="matrix(-1 0 0 1 34.46 50.5703)" fill="#FFBFA6"/>
<circle id="Ellipse 111" cx="0.980198" cy="0.980198" r="0.980198" transform="matrix(-1 0 0 1 40.9941 42.293)" fill="#6600BA"/>
<circle id="Ellipse 115" cx="0.980198" cy="0.980198" r="0.980198" transform="matrix(-1 0 0 1 29.2324 42.293)" fill="#6600BA"/>
<path id="Vector 7068" d="M45.9063 39.9973C40.4321 37.9816 34.1338 30.832 31.6689 27.5091C26.1947 37.8502 21.3898 42.5105 10.2813 41.4214C9.95437 33.253 15.9084 17.4529 30.1237 18.8551C44.3391 20.2572 46.0092 33.4709 45.9063 39.9973Z" fill="#6600BA"/>
<ellipse id="Ellipse 109" cx="3.81188" cy="4.0297" rx="3.81188" ry="4.0297" transform="matrix(-1 0 0 1 18.7764 40.5508)" fill="#FFEAD1"/>
<circle id="Ellipse 113" cx="1.30693" cy="1.30693" r="1.30693" transform="matrix(-1 0 0 1 16.3809 43.3809)" fill="#FFBFA6"/>
<path id="Star 1" d="M17.627 44.0703L18.394 48.9505L23.2051 50.0726L18.8007 52.3102L19.2202 57.2325L15.7312 53.7351L11.1794 55.6552L13.4274 51.2561L10.1948 47.5205L15.0732 48.2991L17.627 44.0703Z" fill="#E7C1FF"/>
</g>
</g>
</g>
<defs>
<filter id="filter0_f_6227_5096" x="32.2475" y="40.516" width="17.2766" height="17.2766" filterUnits="userSpaceOnUse" color-interpolation-filters="sRGB">
<feFlood flood-opacity="0" result="BackgroundImageFix"/>
<feBlend mode="normal" in="SourceGraphic" in2="BackgroundImageFix" result="shape"/>
<feGaussianBlur stdDeviation="3.39336" result="effect1_foregroundBlur_6227_5096"/>
</filter>
<filter id="filter1_f_6227_5096" x="15.9106" y="39.6449" width="17.7121" height="17.7121" filterUnits="userSpaceOnUse" color-interpolation-filters="sRGB">
<feFlood flood-opacity="0" result="BackgroundImageFix"/>
<feBlend mode="normal" in="SourceGraphic" in2="BackgroundImageFix" result="shape"/>
<feGaussianBlur stdDeviation="3.39336" result="effect1_foregroundBlur_6227_5096"/>
</filter>
<linearGradient id="paint0_linear_6227_5096" x1="28.5788" y1="56.0156" x2="28.5788" y2="70.3919" gradientUnits="userSpaceOnUse">
<stop stop-color="#FFBFA6"/>
<stop offset="1" stop-color="#FFEAD1"/>
</linearGradient>
</defs>
</svg>
