<svg width="88" height="88" viewBox="0 0 88 88" fill="none" xmlns="http://www.w3.org/2000/svg">
<g id="Small Image"><g id="Name=&#208;&#161;&#208;&#190;&#208;&#177;&#208;&#181;&#209;&#129;&#208;&#181;&#208;&#180;&#208;&#190;&#208;&#178;&#208;&#176;&#208;&#189;&#208;&#184;&#208;&#181;">
<g id="Group 2087326337">
<path id="Rectangle 1005445" d="M46.8763 54.4898H78.2426C81.3704 54.4898 83.906 51.9543 83.906 48.8265V12.1235L75.302 3.51953H46.8763C43.7485 3.51953 41.2129 6.05511 41.2129 9.1829V48.8265C41.2129 51.9543 43.7485 54.4898 46.8763 54.4898Z" fill="#008F50"/>
<path id="Vector 7067" d="M75.1924 12.2324V3.51953L83.9053 12.2324H75.1924Z" fill="#2DA771"/>
<path id="Union" d="M74.1042 24.0745H72.1866C71.8245 22.3094 71.3153 21.1214 70.659 20.5104C70.0028 19.8881 68.9562 19.577 67.5193 19.577H65.5338V35.8356C65.5338 36.8878 65.7092 37.6232 66.0599 38.0419C66.422 38.4491 67.1743 38.6528 68.317 38.6528H68.9111V40.5366H56.1994V38.6528H56.7425C57.8965 38.6528 58.6434 38.4435 58.9828 38.0249C59.3335 37.5949 59.5089 36.8651 59.5089 35.8356V19.577H57.5742C56.4201 19.577 55.5715 19.7014 55.0284 19.9503C54.4853 20.1992 54.0272 20.6971 53.6538 21.4438C53.2918 22.1792 53.0711 23.0562 52.9919 24.0745H51.0742V17.5234H74.1042V24.0745Z" fill="#FFDF75"/>
<path id="Polygon 2" d="M51.0134 67.9961L51.0134 52.3129L61.3281 52.3129L51.0134 67.9961Z" fill="#008F50"/>
<path id="Vector 7069" d="M7.99414 66.0072L10.2813 40.1144L45.8951 39.4609V66.0072H7.99414Z" fill="#6600BA"/>
<path id="Star 2" d="M43.7657 44.7226L44.5327 49.6029L49.3438 50.725L44.9394 52.9625L45.3589 57.8848L41.8698 54.3874L37.3181 56.3075L39.5661 51.9085L36.3334 48.1728L41.2119 48.9514L43.7657 44.7226Z" fill="#E7C1FF"/>
<path id="Rectangle 1005446" d="M4.40039 84.3328C4.40039 72.784 13.7625 63.4219 25.3113 63.4219H31.6281C43.1769 63.4219 52.539 72.784 52.539 84.3328H4.40039Z" fill="#2DA771"/>
<path id="Rectangle 76" d="M34.46 56.0156H22.6976V64.5107C22.6976 67.7588 25.3307 70.3919 28.5788 70.3919C31.8269 70.3919 34.46 67.7588 34.46 64.5107V56.0156Z" fill="url(#paint0_linear_6227_5096)"/>
<ellipse id="Ellipse 108" cx="15.7921" cy="20.0396" rx="15.7921" ry="20.0396" transform="matrix(-1 0 0 1 45.3506 19.4219)" fill="#FFEAD1"/>
<path id="Vector 47 (Stroke)" d="M31.5355 40.3439C30.9638 39.7451 29.4329 38.7614 27.4043 39.0018C25.3731 39.2425 24.1332 40.5572 23.7277 41.2794L25.2472 42.1327C25.4357 41.7971 26.2352 40.8951 27.6093 40.7323C28.9858 40.5692 29.9998 41.2589 30.2751 41.5472L31.5355 40.3439Z" fill="#6600BA"/>
<path id="Vector 46 (Stroke)" d="M44.3661 41.4896C43.992 40.7509 42.8112 39.3664 40.7998 39.0096C38.7859 38.6523 37.2187 39.552 36.6214 40.1261L37.8292 41.3825C38.1067 41.1157 39.133 40.4837 40.4954 40.7254C41.8602 40.9675 42.6313 41.9211 42.8114 42.2767L44.3661 41.4896Z" fill="#6600BA"/>
<g id="Ellipse 87" filter="url(#filter0_f_6227_5096)">
<circle cx="1.85149" cy="1.85149" r="1.85149" transform="matrix(-1 0 0 1 42.7373 47.3027)" fill="#FFBFA6"/>
</g>
<g id="Ellipse 86" filter="url(#filter1_f_6227_5096)">
<circle cx="2.06931" cy="2.06931" r="2.06931" transform="matrix(-1 0 0 1 26.8359 46.4316)" fill="#FFBFA6"/>
</g>
<circle id="Ellipse 85" cx="1.52475" cy="1.52475" r="1.52475" transform="matrix(-1 0 0 1 35.7666 44.6895)" fill="#FFBFA6"/>
<ellipse id="Ellipse 114" cx="1.63366" cy="2.17822" rx="1.63366" ry="2.17822" transform="matrix(-1 0 0 1 34.46 50.5703)" fill="#FFBFA6"/>
<circle id="Ellipse 111" cx="0.980198" cy="0.980198" r="0.980198" transform="matrix(-1 0 0 1 40.9941 42.293)" fill="#6600BA"/>
<circle id="Ellipse 115" cx="0.980198" cy="0.980198" r="0.980198" transform="matrix(-1 0 0 1 29.2324 42.293)" fill="#6600BA"/>
<path id="Vector 7068" d="M45.9063 39.9973C40.4321 37.9816 34.1338 30.832 31.6689 27.5091C26.1947 37.8502 21.3898 42.5105 10.2813 41.4214C9.95437 33.253 15.9084 17.4529 30.1237 18.8551C44.3391 20.2572 46.0092 33.4709 45.9063 39.9973Z" fill="#6600BA"/>
<ellipse id="Ellipse 109" cx="3.81188" cy="4.0297" rx="3.81188" ry="4.0297" transform="matrix(-1 0 0 1 18.7764 40.5508)" fill="#FFEAD1"/>
<circle id="Ellipse 113" cx="1.30693" cy="1.30693" r="1.30693" transform="matrix(-1 0 0 1 16.3809 43.3809)" fill="#FFBFA6"/>
<path id="Star 1" d="M17.627 44.0703L18.394 48.9505L23.2051 50.0726L18.8007 52.3102L19.2202 57.2325L15.7312 53.7351L11.1794 55.6552L13.4274 51.2561L10.1948 47.5205L15.0732 48.2991L17.627 44.0703Z" fill="#E7C1FF"/>
</g>
</g>
</g>
<defs>
<filter id="filter0_f_6227_5096" x="32.2475" y="40.516" width="17.2766" height="17.2766" filterUnits="userSpaceOnUse" color-interpolation-filters="sRGB">
<feFlood flood-opacity="0" result="BackgroundImageFix"/>
<feBlend mode="normal" in="SourceGraphic" in2="BackgroundImageFix" result="shape"/>
<feGaussianBlur stdDeviation="3.39336" result="effect1_foregroundBlur_6227_5096"/>
</filter>
<filter id="filter1_f_6227_5096" x="15.9106" y="39.6449" width="17.7121" height="17.7121" filterUnits="userSpaceOnUse" color-interpolation-filters="sRGB">
<feFlood flood-opacity="0" result="BackgroundImageFix"/>
<feBlend mode="normal" in="SourceGraphic" in2="BackgroundImageFix" result="shape"/>
<feGaussianBlur stdDeviation="3.39336" result="effect1_foregroundBlur_6227_5096"/>
</filter>
<linearGradient id="paint0_linear_6227_5096" x1="28.5788" y1="56.0156" x2="28.5788" y2="70.3919" gradientUnits="userSpaceOnUse">
<stop stop-color="#FFBFA6"/>
<stop offset="1" stop-color="#FFEAD1"/>
</linearGradient>
</defs>
</svg>
