<svg width="97" height="88" viewBox="0 0 97 88" fill="none" xmlns="http://www.w3.org/2000/svg">
<rect width="97" height="88" fill="#545454"/>
<g id="Small Image">
<path d="M1462.56 -8.21094C1463.03 -6.91254 1463.39 -5.56192 1463.64 -4.16992L1463.15 -4.08301C1463.38 -2.75727 1463.5 -1.393 1463.5 0V4.88867H1464V9.77734H1463.5V19.5557H1464V24.4443H1463.5V34.2227H1464V39.1113H1463.5V48.8887H1464V53.7773H1463.5V63.5557H1464V68.4443H1463.5V78.2227H1464V83.1113H1463.5V88C1463.5 89.393 1463.38 90.7573 1463.15 92.083L1463.64 92.1689C1463.39 93.561 1463.03 94.9115 1462.56 96.21L1462.09 96.04C1461.14 98.64 1459.75 101.026 1458 103.105L1458.38 103.426C1457.49 104.495 1456.5 105.485 1455.43 106.384L1455.11 106.003C1453.03 107.75 1450.64 109.142 1448.04 110.089L1448.21 110.558C1446.91 111.03 1445.56 111.394 1444.17 111.638L1444.08 111.146C1442.76 111.379 1441.39 111.5 1440 111.5H1435.01V112H1430.02V111.5H1420.05V112H1415.06V111.5H1405.08V112H1400.09V111.5H1390.11V112H1385.12V111.5H1375.14V112H1370.15V111.5H1360.17V112H1355.19V111.5H1345.21V112H1340.22V111.5H1330.24V112H1325.25V111.5H1315.27V112H1310.28V111.5H1300.3V112H1295.31V111.5H1285.34V112H1280.35V111.5H1270.37V112H1265.38V111.5H1255.4V112H1250.41V111.5H1240.43V112H1235.44V111.5H1225.46V112H1220.48V111.5H1210.5V112H1205.51V111.5H1195.53V112H1190.54V111.5H1180.56V112H1175.57V111.5H1165.59V112H1160.6V111.5H1150.63V112H1145.64V111.5H1135.66V112H1130.67V111.5H1120.69V112H1115.7V111.5H1105.72V112H1100.73V111.5H1090.75V112H1085.77V111.5H1075.79V112H1070.8V111.5H1060.82V112H1055.83V111.5H1045.85V112H1040.86V111.5H1030.88V112H1025.89V111.5H1015.92V112H1010.93V111.5H1000.95V112H995.959V111.5H985.98V112H980.991V111.5H971.013V112H966.023V111.5H956.045V112H951.056V111.5H941.077V112H936.088V111.5H926.109V112H921.12V111.5H911.142V112H906.152V111.5H896.174V112H891.185V111.5H881.206V112H876.217V111.5H866.238V112H861.249V111.5H851.271V112H846.281V111.5H836.303V112H831.313V111.5H821.335V112H816.346V111.5H806.367V112H801.378V111.5H791.399V112H786.41V111.5H776.432V112H771.442V111.5H761.464V112H756.475V111.5H746.496V112H741.507V111.5H731.528V112H726.539V111.5H716.561V112H711.571V111.5H701.593V112H696.604V111.5H686.625V112H681.636V111.5H671.657V112H666.668V111.5H656.689V112H651.7V111.5H641.722V112H636.732V111.5H626.754V112H621.765V111.5H611.786V112H606.797V111.5H596.818V112H591.829V111.5H581.851V112H576.861V111.5H566.883V112H561.894V111.5H551.915V112H546.926V111.5H536.947V112H531.958V111.5H521.979V112H516.99V111.5H507.012V112H502.022V111.5H492.044V112H487.055V111.5H477.076V112H472.087V111.5H462.108V112H457.119V111.5H447.141V112H442.151V111.5H432.173V112H427.184V111.5H417.205V112H412.216V111.5H402.237V112H397.248V111.5H387.27V112H382.28V111.5H372.302V112H367.312V111.5H357.334V112H352.345V111.5H342.366V112H337.377V111.5H327.398V112H322.409V111.5H312.431V112H307.441V111.5H297.463V112H292.474V111.5H282.495V112H277.506V111.5H267.527V112H262.538V111.5H252.56V112H247.57V111.5H237.592V112H232.603V111.5H222.624V112H217.635V111.5H207.656V112H202.667V111.5H192.688V112H187.699V111.5H177.721V112H172.731V111.5H162.753V112H157.764V111.5H147.785V112H142.796V111.5H132.817V112H127.828V111.5H117.85V112H112.86V111.5H102.882V112H97.8926V111.5H87.9141V112H82.9248V111.5H72.9463V112H67.957V111.5H57.9785V112H52.9893V111.5H43.0107V112H38.0215V111.5H28.043V112H23.0537V111.5H13.0752V112H8.08594V111.5H-1.89258V112H-6.88184V111.5H-16.8604V112H-21.8496V111.5H-31.8281V112H-36.8174V111.5H-46.7959V112H-51.7852V111.5H-61.7637V112H-66.7529V111.5H-76.7314V112H-81.7207V111.5H-91.6992V112H-96.6885V111.5H-106.667V112H-111.656V111.5H-121.635V112H-126.624V111.5H-136.603V112H-141.592V111.5H-151.57V112H-156.56V111.5H-166.537V112H-171.526V111.5H-181.505V112H-186.494V111.5H-196.473V112H-201.462V111.5H-211.44V112H-216.43V111.5H-226.408V112H-231.397V111.5H-241.376V112H-246.365V111.5H-256.344V112H-261.333V111.5H-271.312V112H-276.301V111.5H-286.279V112H-291.269V111.5H-301.247V112H-306.236V111.5H-316.215V112H-321.204V111.5H-331.183V112H-336.172V111.5H-346.15V112H-351.14V111.5H-361.118V112H-366.107V111.5H-376.086V112H-381.075V111.5H-391.054V112H-396.043V111.5H-406.021V112H-411.011V111.5H-416C-417.393 111.5 -418.757 111.379 -420.083 111.146L-420.17 111.638C-421.562 111.394 -422.913 111.03 -424.211 110.558L-424.04 110.089C-426.64 109.142 -429.026 107.75 -431.105 106.003L-431.427 106.384C-432.496 105.485 -433.486 104.495 -434.385 103.426L-434.003 103.105C-435.75 101.026 -437.142 98.64 -438.089 96.04L-438.559 96.21C-439.031 94.9116 -439.395 93.5609 -439.639 92.1689L-439.146 92.083C-439.379 90.7573 -439.5 89.393 -439.5 88V83.1113H-440V78.2227H-439.5V68.4443H-440V63.5557H-439.5V53.7773H-440V48.8887H-439.5V39.1113H-440V34.2227H-439.5V24.4443H-440V19.5557H-439.5V9.77734H-440V4.88867H-439.5V0C-439.5 -1.393 -439.379 -2.75727 -439.146 -4.08301L-439.639 -4.16992C-439.427 -5.37923 -439.125 -6.5575 -438.739 -7.69727L-438.559 -8.21094L-438.089 -8.04004C-437.142 -10.64 -435.75 -13.026 -434.003 -15.1055L-434.385 -15.4268C-433.486 -16.4964 -432.496 -17.4863 -431.427 -18.3848L-431.105 -18.0029C-429.026 -19.7496 -426.64 -21.1423 -424.04 -22.0889L-424.211 -22.5586C-422.913 -23.0313 -421.562 -23.3948 -420.17 -23.6387L-420.083 -23.1465C-418.757 -23.3787 -417.393 -23.5 -416 -23.5H-411.014V-24H-406.024V-23.5H-396.046V-24H-391.057V-23.5H-381.078V-24H-376.089V-23.5H-366.11V-24H-361.121V-23.5H-351.143V-24H-346.153V-23.5H-336.175V-24H-331.186V-23.5H-321.207V-24H-316.218V-23.5H-306.239V-24H-301.25V-23.5H-291.271V-24H-286.282V-23.5H-276.304V-24H-271.314V-23.5H-261.336V-24H-256.347V-23.5H-246.368V-24H-241.379V-23.5H-231.4V-24H-226.411V-23.5H-216.433V-24H-211.443V-23.5H-201.465V-24H-196.476V-23.5H-186.497V-24H-181.508V-23.5H-171.529V-24H-166.54V-23.5H-156.562V-24H-151.572V-23.5H-141.594V-24H-136.604V-23.5H-126.626V-24H-121.637V-23.5H-111.658V-24H-106.669V-23.5H-96.6904V-24H-91.7012V-23.5H-81.7227V-24H-76.7334V-23.5H-66.7549V-24H-61.7656V-23.5H-51.7871V-24H-46.7979V-23.5H-36.8193V-24H-31.8301V-23.5H-21.8516V-24H-16.8623V-23.5H-6.88379V-24H-1.89453V-23.5H8.08398V-24H13.0732V-23.5H23.0518V-24H28.041V-23.5H38.0195V-24H43.0088V-23.5H52.9873V-24H57.9766V-23.5H67.9551V-24H72.9443V-23.5H82.9229V-24H87.9121V-23.5H97.8906V-24H102.88V-23.5H112.858V-24H117.848V-23.5H127.826V-24H132.815V-23.5H142.794V-24H147.783V-23.5H157.762V-24H162.751V-23.5H172.729V-24H177.719V-23.5H187.697V-24H192.687V-23.5H202.665V-24H207.654V-23.5H217.633V-24H222.622V-23.5H232.601V-24H237.59V-23.5H247.568V-24H252.558V-23.5H262.536V-24H267.525V-23.5H277.504V-24H282.493V-23.5H292.472V-24H297.461V-23.5H307.439V-24H312.429V-23.5H322.407V-24H327.396V-23.5H337.375V-24H342.364V-23.5H352.343V-24H357.332V-23.5H367.311V-24H372.3V-23.5H382.278V-24H387.268V-23.5H397.246V-24H402.235V-23.5H412.214V-24H417.203V-23.5H427.182V-24H432.171V-23.5H442.149V-24H447.139V-23.5H457.117V-24H462.106V-23.5H472.085V-24H477.074V-23.5H487.053V-24H492.042V-23.5H502.021V-24H507.01V-23.5H516.988V-24H521.978V-23.5H531.956V-24H536.945V-23.5H546.924V-24H551.913V-23.5H561.892V-24H566.881V-23.5H576.859V-24H581.849V-23.5H591.827V-24H596.816V-23.5H606.795V-24H611.784V-23.5H621.763V-24H626.752V-23.5H636.73V-24H641.72V-23.5H651.698V-24H656.688V-23.5H666.666V-24H671.655V-23.5H681.634V-24H686.623V-23.5H696.602V-24H701.591V-23.5H711.569V-24H716.559V-23.5H726.537V-24H731.526V-23.5H741.505V-24H746.494V-23.5H756.473V-24H761.462V-23.5H771.44V-24H776.43V-23.5H786.408V-24H791.397V-23.5H801.376V-24H806.365V-23.5H816.344V-24H821.333V-23.5H831.312V-24H836.301V-23.5H846.279V-24H851.269V-23.5H861.247V-24H866.236V-23.5H876.215V-24H881.204V-23.5H891.183V-24H896.172V-23.5H906.15V-24H911.14V-23.5H921.118V-24H926.107V-23.5H936.086V-24H941.075V-23.5H951.054V-24H956.043V-23.5H966.021V-24H971.011V-23.5H980.989V-24H985.979V-23.5H995.957V-24H1000.95V-23.5H1010.92V-24H1015.91V-23.5H1025.89V-24H1030.88V-23.5H1040.86V-24H1045.85V-23.5H1055.83V-24H1060.82V-23.5H1070.8V-24H1075.79V-23.5H1085.76V-24H1090.75V-23.5H1100.73V-24H1105.72V-23.5H1115.7V-24H1120.69V-23.5H1130.67V-24H1135.66V-23.5H1145.63V-24H1150.62V-23.5H1160.6V-24H1165.59V-23.5H1175.57V-24H1180.56V-23.5H1190.54V-24H1195.53V-23.5H1205.51V-24H1210.49V-23.5H1220.47V-24H1225.46V-23.5H1235.44V-24H1240.43V-23.5H1250.41V-24H1255.4V-23.5H1265.38V-24H1270.37V-23.5H1280.34V-24H1285.33V-23.5H1295.31V-24H1300.3V-23.5H1310.28V-24H1315.27V-23.5H1325.25V-24H1330.24V-23.5H1340.21V-24H1345.2V-23.5H1355.18V-24H1360.17V-23.5H1370.15V-24H1375.14V-23.5H1385.12V-24H1390.11V-23.5H1400.09V-24H1405.08V-23.5H1415.05V-24H1420.04V-23.5H1430.02V-24H1435.01V-23.5H1440C1441.39 -23.5 1442.76 -23.3787 1444.08 -23.1465L1444.17 -23.6387C1445.56 -23.3949 1446.91 -23.0312 1448.21 -22.5586L1448.04 -22.0889C1450.64 -21.1423 1453.03 -19.7496 1455.11 -18.0029L1455.43 -18.3848C1456.5 -17.4863 1457.49 -16.4964 1458.38 -15.4268L1458 -15.1055C1459.75 -13.026 1461.14 -10.64 1462.09 -8.04004L1462.56 -8.21094Z" fill="white"/>
<path d="M1462.56 -8.21094C1463.03 -6.91254 1463.39 -5.56192 1463.64 -4.16992L1463.15 -4.08301C1463.38 -2.75727 1463.5 -1.393 1463.5 0V4.88867H1464V9.77734H1463.5V19.5557H1464V24.4443H1463.5V34.2227H1464V39.1113H1463.5V48.8887H1464V53.7773H1463.5V63.5557H1464V68.4443H1463.5V78.2227H1464V83.1113H1463.5V88C1463.5 89.393 1463.38 90.7573 1463.15 92.083L1463.64 92.1689C1463.39 93.561 1463.03 94.9115 1462.56 96.21L1462.09 96.04C1461.14 98.64 1459.75 101.026 1458 103.105L1458.38 103.426C1457.49 104.495 1456.5 105.485 1455.43 106.384L1455.11 106.003C1453.03 107.75 1450.64 109.142 1448.04 110.089L1448.21 110.558C1446.91 111.03 1445.56 111.394 1444.17 111.638L1444.08 111.146C1442.76 111.379 1441.39 111.5 1440 111.5H1435.01V112H1430.02V111.5H1420.05V112H1415.06V111.5H1405.08V112H1400.09V111.5H1390.11V112H1385.12V111.5H1375.14V112H1370.15V111.5H1360.17V112H1355.19V111.5H1345.21V112H1340.22V111.5H1330.24V112H1325.25V111.5H1315.27V112H1310.28V111.5H1300.3V112H1295.31V111.5H1285.34V112H1280.35V111.5H1270.37V112H1265.38V111.5H1255.4V112H1250.41V111.5H1240.43V112H1235.44V111.5H1225.46V112H1220.48V111.5H1210.5V112H1205.51V111.5H1195.53V112H1190.54V111.5H1180.56V112H1175.57V111.5H1165.59V112H1160.6V111.5H1150.63V112H1145.64V111.5H1135.66V112H1130.67V111.5H1120.69V112H1115.7V111.5H1105.72V112H1100.73V111.5H1090.75V112H1085.77V111.5H1075.79V112H1070.8V111.5H1060.82V112H1055.83V111.5H1045.85V112H1040.86V111.5H1030.88V112H1025.89V111.5H1015.92V112H1010.93V111.5H1000.95V112H995.959V111.5H985.98V112H980.991V111.5H971.013V112H966.023V111.5H956.045V112H951.056V111.5H941.077V112H936.088V111.5H926.109V112H921.12V111.5H911.142V112H906.152V111.5H896.174V112H891.185V111.5H881.206V112H876.217V111.5H866.238V112H861.249V111.5H851.271V112H846.281V111.5H836.303V112H831.313V111.5H821.335V112H816.346V111.5H806.367V112H801.378V111.5H791.399V112H786.41V111.5H776.432V112H771.442V111.5H761.464V112H756.475V111.5H746.496V112H741.507V111.5H731.528V112H726.539V111.5H716.561V112H711.571V111.5H701.593V112H696.604V111.5H686.625V112H681.636V111.5H671.657V112H666.668V111.5H656.689V112H651.7V111.5H641.722V112H636.732V111.5H626.754V112H621.765V111.5H611.786V112H606.797V111.5H596.818V112H591.829V111.5H581.851V112H576.861V111.5H566.883V112H561.894V111.5H551.915V112H546.926V111.5H536.947V112H531.958V111.5H521.979V112H516.99V111.5H507.012V112H502.022V111.5H492.044V112H487.055V111.5H477.076V112H472.087V111.5H462.108V112H457.119V111.5H447.141V112H442.151V111.5H432.173V112H427.184V111.5H417.205V112H412.216V111.5H402.237V112H397.248V111.5H387.27V112H382.28V111.5H372.302V112H367.312V111.5H357.334V112H352.345V111.5H342.366V112H337.377V111.5H327.398V112H322.409V111.5H312.431V112H307.441V111.5H297.463V112H292.474V111.5H282.495V112H277.506V111.5H267.527V112H262.538V111.5H252.56V112H247.57V111.5H237.592V112H232.603V111.5H222.624V112H217.635V111.5H207.656V112H202.667V111.5H192.688V112H187.699V111.5H177.721V112H172.731V111.5H162.753V112H157.764V111.5H147.785V112H142.796V111.5H132.817V112H127.828V111.5H117.85V112H112.86V111.5H102.882V112H97.8926V111.5H87.9141V112H82.9248V111.5H72.9463V112H67.957V111.5H57.9785V112H52.9893V111.5H43.0107V112H38.0215V111.5H28.043V112H23.0537V111.5H13.0752V112H8.08594V111.5H-1.89258V112H-6.88184V111.5H-16.8604V112H-21.8496V111.5H-31.8281V112H-36.8174V111.5H-46.7959V112H-51.7852V111.5H-61.7637V112H-66.7529V111.5H-76.7314V112H-81.7207V111.5H-91.6992V112H-96.6885V111.5H-106.667V112H-111.656V111.5H-121.635V112H-126.624V111.5H-136.603V112H-141.592V111.5H-151.57V112H-156.56V111.5H-166.537V112H-171.526V111.5H-181.505V112H-186.494V111.5H-196.473V112H-201.462V111.5H-211.44V112H-216.43V111.5H-226.408V112H-231.397V111.5H-241.376V112H-246.365V111.5H-256.344V112H-261.333V111.5H-271.312V112H-276.301V111.5H-286.279V112H-291.269V111.5H-301.247V112H-306.236V111.5H-316.215V112H-321.204V111.5H-331.183V112H-336.172V111.5H-346.15V112H-351.14V111.5H-361.118V112H-366.107V111.5H-376.086V112H-381.075V111.5H-391.054V112H-396.043V111.5H-406.021V112H-411.011V111.5H-416C-417.393 111.5 -418.757 111.379 -420.083 111.146L-420.17 111.638C-421.562 111.394 -422.913 111.03 -424.211 110.558L-424.04 110.089C-426.64 109.142 -429.026 107.75 -431.105 106.003L-431.427 106.384C-432.496 105.485 -433.486 104.495 -434.385 103.426L-434.003 103.105C-435.75 101.026 -437.142 98.64 -438.089 96.04L-438.559 96.21C-439.031 94.9116 -439.395 93.5609 -439.639 92.1689L-439.146 92.083C-439.379 90.7573 -439.5 89.393 -439.5 88V83.1113H-440V78.2227H-439.5V68.4443H-440V63.5557H-439.5V53.7773H-440V48.8887H-439.5V39.1113H-440V34.2227H-439.5V24.4443H-440V19.5557H-439.5V9.77734H-440V4.88867H-439.5V0C-439.5 -1.393 -439.379 -2.75727 -439.146 -4.08301L-439.639 -4.16992C-439.427 -5.37923 -439.125 -6.5575 -438.739 -7.69727L-438.559 -8.21094L-438.089 -8.04004C-437.142 -10.64 -435.75 -13.026 -434.003 -15.1055L-434.385 -15.4268C-433.486 -16.4964 -432.496 -17.4863 -431.427 -18.3848L-431.105 -18.0029C-429.026 -19.7496 -426.64 -21.1423 -424.04 -22.0889L-424.211 -22.5586C-422.913 -23.0313 -421.562 -23.3948 -420.17 -23.6387L-420.083 -23.1465C-418.757 -23.3787 -417.393 -23.5 -416 -23.5H-411.014V-24H-406.024V-23.5H-396.046V-24H-391.057V-23.5H-381.078V-24H-376.089V-23.5H-366.11V-24H-361.121V-23.5H-351.143V-24H-346.153V-23.5H-336.175V-24H-331.186V-23.5H-321.207V-24H-316.218V-23.5H-306.239V-24H-301.25V-23.5H-291.271V-24H-286.282V-23.5H-276.304V-24H-271.314V-23.5H-261.336V-24H-256.347V-23.5H-246.368V-24H-241.379V-23.5H-231.4V-24H-226.411V-23.5H-216.433V-24H-211.443V-23.5H-201.465V-24H-196.476V-23.5H-186.497V-24H-181.508V-23.5H-171.529V-24H-166.54V-23.5H-156.562V-24H-151.572V-23.5H-141.594V-24H-136.604V-23.5H-126.626V-24H-121.637V-23.5H-111.658V-24H-106.669V-23.5H-96.6904V-24H-91.7012V-23.5H-81.7227V-24H-76.7334V-23.5H-66.7549V-24H-61.7656V-23.5H-51.7871V-24H-46.7979V-23.5H-36.8193V-24H-31.8301V-23.5H-21.8516V-24H-16.8623V-23.5H-6.88379V-24H-1.89453V-23.5H8.08398V-24H13.0732V-23.5H23.0518V-24H28.041V-23.5H38.0195V-24H43.0088V-23.5H52.9873V-24H57.9766V-23.5H67.9551V-24H72.9443V-23.5H82.9229V-24H87.9121V-23.5H97.8906V-24H102.88V-23.5H112.858V-24H117.848V-23.5H127.826V-24H132.815V-23.5H142.794V-24H147.783V-23.5H157.762V-24H162.751V-23.5H172.729V-24H177.719V-23.5H187.697V-24H192.687V-23.5H202.665V-24H207.654V-23.5H217.633V-24H222.622V-23.5H232.601V-24H237.59V-23.5H247.568V-24H252.558V-23.5H262.536V-24H267.525V-23.5H277.504V-24H282.493V-23.5H292.472V-24H297.461V-23.5H307.439V-24H312.429V-23.5H322.407V-24H327.396V-23.5H337.375V-24H342.364V-23.5H352.343V-24H357.332V-23.5H367.311V-24H372.3V-23.5H382.278V-24H387.268V-23.5H397.246V-24H402.235V-23.5H412.214V-24H417.203V-23.5H427.182V-24H432.171V-23.5H442.149V-24H447.139V-23.5H457.117V-24H462.106V-23.5H472.085V-24H477.074V-23.5H487.053V-24H492.042V-23.5H502.021V-24H507.01V-23.5H516.988V-24H521.978V-23.5H531.956V-24H536.945V-23.5H546.924V-24H551.913V-23.5H561.892V-24H566.881V-23.5H576.859V-24H581.849V-23.5H591.827V-24H596.816V-23.5H606.795V-24H611.784V-23.5H621.763V-24H626.752V-23.5H636.73V-24H641.72V-23.5H651.698V-24H656.688V-23.5H666.666V-24H671.655V-23.5H681.634V-24H686.623V-23.5H696.602V-24H701.591V-23.5H711.569V-24H716.559V-23.5H726.537V-24H731.526V-23.5H741.505V-24H746.494V-23.5H756.473V-24H761.462V-23.5H771.44V-24H776.43V-23.5H786.408V-24H791.397V-23.5H801.376V-24H806.365V-23.5H816.344V-24H821.333V-23.5H831.312V-24H836.301V-23.5H846.279V-24H851.269V-23.5H861.247V-24H866.236V-23.5H876.215V-24H881.204V-23.5H891.183V-24H896.172V-23.5H906.15V-24H911.14V-23.5H921.118V-24H926.107V-23.5H936.086V-24H941.075V-23.5H951.054V-24H956.043V-23.5H966.021V-24H971.011V-23.5H980.989V-24H985.979V-23.5H995.957V-24H1000.95V-23.5H1010.92V-24H1015.91V-23.5H1025.89V-24H1030.88V-23.5H1040.86V-24H1045.85V-23.5H1055.83V-24H1060.82V-23.5H1070.8V-24H1075.79V-23.5H1085.76V-24H1090.75V-23.5H1100.73V-24H1105.72V-23.5H1115.7V-24H1120.69V-23.5H1130.67V-24H1135.66V-23.5H1145.63V-24H1150.62V-23.5H1160.6V-24H1165.59V-23.5H1175.57V-24H1180.56V-23.5H1190.54V-24H1195.53V-23.5H1205.51V-24H1210.49V-23.5H1220.47V-24H1225.46V-23.5H1235.44V-24H1240.43V-23.5H1250.41V-24H1255.4V-23.5H1265.38V-24H1270.37V-23.5H1280.34V-24H1285.33V-23.5H1295.31V-24H1300.3V-23.5H1310.28V-24H1315.27V-23.5H1325.25V-24H1330.24V-23.5H1340.21V-24H1345.2V-23.5H1355.18V-24H1360.17V-23.5H1370.15V-24H1375.14V-23.5H1385.12V-24H1390.11V-23.5H1400.09V-24H1405.08V-23.5H1415.05V-24H1420.04V-23.5H1430.02V-24H1435.01V-23.5H1440C1441.39 -23.5 1442.76 -23.3787 1444.08 -23.1465L1444.17 -23.6387C1445.56 -23.3949 1446.91 -23.0312 1448.21 -22.5586L1448.04 -22.0889C1450.64 -21.1423 1453.03 -19.7496 1455.11 -18.0029L1455.43 -18.3848C1456.5 -17.4863 1457.49 -16.4964 1458.38 -15.4268L1458 -15.1055C1459.75 -13.026 1461.14 -10.64 1462.09 -8.04004L1462.56 -8.21094Z" stroke="#8A38F5" stroke-dasharray="10 5"/>
<g id="Name=&#208;&#158;&#209;&#132;&#208;&#190;&#209;&#128;&#208;&#188;&#208;&#187;&#208;&#181;&#208;&#189;&#208;&#184;&#208;&#181;">
<g id="Group 2087326339">
<g id="Group 2087326338">
<path id="Vector" d="M83.3889 16.4627C80.2152 13.7462 75.649 13.7241 72.462 16.1734C71.0519 12.4106 67.1664 10.013 63.0349 10.6396C58.288 11.3594 55.0199 15.7942 55.7358 20.545C56.4513 25.2975 65.9832 39.167 65.9832 39.167C65.9832 39.167 65.9878 39.1559 65.9903 39.153C65.9894 39.1563 65.9898 39.1687 65.9898 39.1687C65.9898 39.1687 81.2265 32.3856 84.3464 28.731C87.4664 25.0763 87.0367 19.5841 83.3906 16.4631L83.3889 16.4627Z" fill="#FFDF75"/>
<g id="Group 10">
<path id="Rectangle 1005447" d="M11.0296 14.6823C10.75 12.8266 12.0277 11.0955 13.8835 10.8159L52.1891 5.04425C54.0449 4.76464 55.7759 6.04236 56.0555 7.89811L65.8522 72.9169C66.1318 74.7727 64.8541 76.5037 62.9983 76.7833L24.6927 82.555C22.8369 82.8346 21.1058 81.5569 20.8262 79.7011L11.0296 14.6823Z" fill="#008F50"/>
<path id="Rectangle 1005456" d="M52.5941 7.73229C52.9652 7.67637 53.3114 7.93191 53.3674 8.30306L63.164 73.3219C63.2199 73.693 62.9644 74.0392 62.5932 74.0952L24.2876 79.8668C23.9164 79.9227 23.5702 79.6672 23.5143 79.296L13.7176 14.2772C13.6617 13.9061 13.9173 13.5599 14.2884 13.5039L52.5941 7.73229Z" fill="white"/>
<path id="Union" d="M27.4222 31.1139L27.7091 33.018L23.9009 33.5918L24.4747 37.4L22.5706 37.6869L21.71 31.9746L27.4222 31.1139Z" fill="#FFDF75"/>
<path id="Union_2" d="M31.6497 59.1706L31.3629 57.2665L27.5547 57.8403L26.9809 54.0321L25.0768 54.319L25.9375 60.0312L31.6497 59.1706Z" fill="#FFDF75"/>
<path id="Union_3" d="M45.0631 28.4544L45.35 30.3585L49.1582 29.7847L49.732 33.5929L51.6361 33.306L50.7754 27.5938L45.0631 28.4544Z" fill="#FFDF75"/>
<path id="Union_4" d="M49.2907 56.513L49.0038 54.6089L52.812 54.0352L52.2382 50.227L54.1422 49.9401L55.0029 55.6523L49.2907 56.513Z" fill="#FFDF75"/>
<g id="Vector_2" filter="url(#filter0_f_6227_5096)">
<path d="M44.6216 35.2572C41.9016 34.391 39.0214 35.5911 37.6664 37.9802C35.7783 35.9865 32.6951 35.5103 30.2609 37.0031C27.4642 38.7182 26.5861 42.3788 28.2998 45.179C30.0137 47.9804 39.7014 54.1768 39.7014 54.1768C39.7014 54.1768 39.7013 54.1686 39.7021 54.1661C39.7024 54.1684 39.706 54.1761 39.706 54.1761C39.706 54.1761 47.4938 45.8553 48.4861 42.7253C49.4784 39.5953 47.7477 36.2523 44.6228 35.257L44.6216 35.2572Z" fill="#6600BA"/>
</g>
<g id="Group 9">
<path id="Rectangle 1005450" d="M43.2366 12.9223L43.4138 14.0984L42.4057 14.2503L42.2285 13.0742L43.2366 12.9223Z" fill="#6600BA"/>
<path id="Rectangle 1005453" d="M49.6371 10.9265L49.9662 13.1106L48.2861 13.3638L47.957 11.1797L49.6371 10.9265Z" fill="#6600BA"/>
<path id="Rectangle 1005455" d="M51.7296 11.1272L51.9068 12.3032L51.4028 12.3792L51.2256 11.2031L51.7296 11.1272Z" fill="#6600BA"/>
<path id="Rectangle 1005454" d="M50.6626 11.5624L50.7593 12.2036L50.6221 12.2242L50.5255 11.583L50.6626 11.5624Z" stroke="#6600BA" stroke-width="1.56002"/>
<path id="Rectangle 1005451" d="M44.5715 11.518L44.9259 13.8701L43.9179 14.022L43.5635 11.6699L44.5715 11.518Z" fill="#6600BA"/>
<path id="Rectangle 1005452" d="M45.9573 10.4516L46.4382 13.6438L45.4302 13.7957L44.9492 10.6035L45.9573 10.4516Z" fill="#6600BA"/>
<g id="10:15">
<path d="M17.5035 18.174L16.93 18.2604L16.6236 16.2268L16.1608 16.8174L16.0846 16.3119L16.6217 15.6251L17.1084 15.5518L17.5035 18.174Z" fill="#6600BA"/>
<path d="M19.0605 17.978C18.9021 18.0019 18.7497 17.9978 18.6034 17.9658C18.4592 17.931 18.3272 17.866 18.2074 17.7708C18.0898 17.6728 17.988 17.5441 17.9023 17.3846C17.819 17.2248 17.76 17.0292 17.7251 16.7978C17.6906 16.5689 17.6896 16.3659 17.7221 16.1886C17.7567 16.0085 17.8161 15.8567 17.9004 15.7334C17.9869 15.6072 18.0941 15.5075 18.2219 15.4342C18.3519 15.358 18.4962 15.308 18.6546 15.2841C18.8106 15.2606 18.9604 15.265 19.1042 15.2974C19.2505 15.3294 19.3823 15.3931 19.4996 15.4886C19.6165 15.5816 19.7166 15.708 19.7998 15.8678C19.8831 16.0276 19.942 16.222 19.9764 16.4509C20.0109 16.6798 20.0121 16.8841 19.9801 17.0639C19.9476 17.2411 19.8896 17.3939 19.806 17.5222C19.7225 17.6506 19.6157 17.7529 19.4857 17.829C19.3582 17.9048 19.2165 17.9545 19.0605 17.978ZM19.0016 17.6126C19.0821 17.6005 19.1526 17.5731 19.2131 17.5306C19.276 17.4876 19.3257 17.4248 19.3622 17.3422C19.3982 17.257 19.4193 17.1496 19.4255 17.0201C19.4343 16.8901 19.4248 16.7334 19.3971 16.5497C19.3694 16.3661 19.3323 16.2135 19.2857 16.0919C19.2391 15.9703 19.1862 15.8754 19.127 15.8071C19.0675 15.7364 19.0013 15.6898 18.9284 15.6673C18.8581 15.6444 18.7852 15.6387 18.7098 15.6501C18.6318 15.6618 18.5613 15.6892 18.4983 15.7321C18.4353 15.775 18.3846 15.8393 18.346 15.9248C18.3096 16.0075 18.287 16.1138 18.2783 16.2437C18.2696 16.3736 18.2791 16.5304 18.3067 16.714C18.3344 16.8977 18.3703 17.0505 18.4144 17.1724C18.461 17.294 18.5141 17.3902 18.5736 17.461C18.6328 17.5292 18.6975 17.5748 18.7678 17.5976C18.8407 17.6201 18.9186 17.6251 19.0016 17.6126Z" fill="#6600BA"/>
<path d="M20.4796 15.9969C20.3941 16.0098 20.3181 15.9917 20.2515 15.9425C20.1849 15.8934 20.1452 15.8261 20.1323 15.7406C20.1194 15.655 20.1376 15.579 20.1867 15.5124C20.2358 15.4459 20.3032 15.4061 20.3887 15.3932C20.4742 15.3804 20.5502 15.3985 20.6168 15.4476C20.6834 15.4968 20.7231 15.5641 20.736 15.6496C20.7489 15.7351 20.7308 15.8112 20.6816 15.8777C20.6325 15.9443 20.5652 15.984 20.4796 15.9969ZM20.6911 17.4005C20.6056 17.4133 20.5295 17.3952 20.463 17.3461C20.3964 17.297 20.3567 17.2296 20.3438 17.1441C20.3309 17.0586 20.349 16.9825 20.3982 16.916C20.4473 16.8494 20.5146 16.8097 20.6002 16.7968C20.6857 16.7839 20.7617 16.802 20.8283 16.8512C20.8949 16.9003 20.9346 16.9676 20.9475 17.0531C20.9604 17.1387 20.9422 17.2147 20.8931 17.2813C20.844 17.3479 20.7766 17.3876 20.6911 17.4005Z" fill="#6600BA"/>
<path d="M22.4223 17.4329L21.8488 17.5193L21.5424 15.4857L21.0796 16.0763L21.0035 15.5707L21.5405 14.884L22.0272 14.8107L22.4223 17.4329Z" fill="#6600BA"/>
<path d="M24.4925 16.2373C24.5141 16.3807 24.5082 16.5128 24.475 16.6335C24.4439 16.7514 24.3889 16.8562 24.3101 16.9478C24.2335 17.0365 24.1365 17.1103 24.0193 17.1691C23.9022 17.2279 23.7681 17.2687 23.6172 17.2914C23.4285 17.3198 23.2704 17.3205 23.1429 17.2934C23.0175 17.2635 22.9101 17.2256 22.8209 17.1799L22.7641 16.8026C22.8056 16.8221 22.8511 16.8422 22.9005 16.8631C22.9496 16.8814 23.0022 16.8979 23.0585 16.9126C23.1172 16.9269 23.1804 16.9366 23.2481 16.9419C23.3179 16.9442 23.3943 16.9391 23.4773 16.9266C23.6433 16.9016 23.7637 16.8385 23.8385 16.7372C23.9133 16.6359 23.9383 16.5035 23.9137 16.34C23.8902 16.184 23.834 16.0754 23.745 16.0143C23.6582 15.9502 23.5494 15.928 23.4186 15.9477C23.3632 15.956 23.3164 15.9695 23.278 15.9881C23.2418 16.0039 23.211 16.0214 23.1856 16.0407C23.1624 16.057 23.1443 16.0739 23.1315 16.0913C23.1183 16.1061 23.1096 16.1164 23.1053 16.1222L22.7393 16.1774L22.5222 14.7361L24.088 14.5002L24.1476 14.8963L23.012 15.0674L23.1149 15.7503C23.151 15.7166 23.2046 15.6802 23.2759 15.6412C23.3472 15.6022 23.4395 15.5741 23.5526 15.557C23.6684 15.5396 23.7792 15.5409 23.8851 15.561C23.9906 15.5785 24.085 15.6158 24.1682 15.6727C24.251 15.7271 24.3201 15.8016 24.3755 15.8961C24.4334 15.9903 24.4724 16.104 24.4925 16.2373Z" fill="#6600BA"/>
</g>
</g>
<rect id="Rectangle 1005457" x="28.251" y="13.8066" width="11.0437" height="2.71846" rx="1.35923" transform="rotate(-8.56851 28.251 13.8066)" fill="#FFDF75"/>
<g id="&#208;&#163;&#208;&#188;&#208;&#189;&#208;&#176;&#209;&#143; &#208;&#186;&#208;&#176;&#208;&#188;&#208;&#181;&#209;&#128;&#208;&#176;">
<path id="Vector_3" d="M53.254 62.7342C53.2361 62.7009 53.2184 62.6598 53.2007 62.6111C53.1831 62.5623 53.1676 62.5106 53.1542 62.456C53.1373 62.4971 53.1142 62.5405 53.0851 62.586C53.058 62.6287 53.0217 62.6689 52.9759 62.7067C52.9327 62.7441 52.8786 62.7779 52.8137 62.8083C52.7513 62.8383 52.6774 62.8597 52.5919 62.8726C52.5089 62.8851 52.4292 62.8855 52.3528 62.8739C52.2769 62.8647 52.208 62.843 52.1462 62.8085C52.0869 62.7737 52.0358 62.7248 51.9929 62.6618C51.9525 62.5985 51.9253 62.5203 51.9113 62.4272C51.8813 62.2285 51.9412 62.0626 52.0909 61.9294C52.2402 61.7937 52.4973 61.6984 52.862 61.6434L53.0091 61.6212L52.9904 61.4967C52.9733 61.3836 52.9319 61.3049 52.8661 61.2608C52.8003 61.2167 52.6919 61.206 52.541 61.2288C52.4052 61.2492 52.2822 61.287 52.1722 61.3422C52.0647 61.397 51.9747 61.4568 51.9022 61.5218L51.847 61.1558C51.8973 61.0968 51.9835 61.0375 52.1058 60.9779C52.2276 60.9158 52.3803 60.871 52.5639 60.8433C52.8406 60.8016 53.0626 60.8235 53.2298 60.9089C53.3991 60.9914 53.502 61.1534 53.5384 61.3949L53.6834 62.357C53.6898 62.3997 53.6992 62.4536 53.7116 62.5187C53.7261 62.5808 53.7396 62.6276 53.752 62.6592L53.254 62.7342ZM52.7488 62.5055C52.8117 62.496 52.8655 62.4776 52.9103 62.4503C52.9546 62.4205 52.9905 62.3855 53.0179 62.3453C53.0453 62.3052 53.0631 62.2614 53.0714 62.2138C53.0822 62.1659 53.0842 62.1193 53.0774 62.074L53.0484 61.8816L52.9125 61.902C52.7163 61.9316 52.5856 61.977 52.5202 62.0383C52.4548 62.0996 52.4297 62.1806 52.4449 62.2812C52.4585 62.3718 52.4925 62.4348 52.5467 62.4704C52.6009 62.5059 52.6683 62.5176 52.7488 62.5055Z" fill="#008F50"/>
<path id="Vector_4" d="M50.9706 63.1185C50.8297 63.1397 50.7046 63.129 50.5953 63.0863C50.4881 63.0407 50.394 62.9713 50.3131 62.878L50.4604 63.8552L49.9095 63.9382L49.5184 61.3424L50.0126 61.2679L50.1019 61.5786C50.1481 61.4585 50.218 61.3592 50.3117 61.2808C50.4079 61.202 50.5301 61.1514 50.6785 61.129C50.7892 61.1123 50.8979 61.1166 51.0046 61.1416C51.1112 61.1667 51.2086 61.2151 51.2965 61.2867C51.3866 61.3555 51.4638 61.4493 51.528 61.5682C51.5919 61.6847 51.6365 61.8272 51.6619 61.9957C51.6873 62.1642 51.6868 62.3148 51.6605 62.4473C51.6338 62.5774 51.5877 62.6898 51.5222 62.7846C51.4568 62.8793 51.3767 62.9544 51.2822 63.0098C51.1876 63.0652 51.0838 63.1015 50.9706 63.1185ZM50.7581 62.784C50.8864 62.7646 50.9832 62.6986 51.0485 62.5859C51.116 62.4702 51.1331 62.3017 51.0997 62.0804C51.0671 61.8641 51.0015 61.7106 50.903 61.62C50.8045 61.5294 50.6923 61.4935 50.5665 61.5125C50.4383 61.5318 50.3379 61.5997 50.2654 61.7161C50.195 61.8296 50.1763 61.9957 50.2093 62.2145C50.226 62.3252 50.2517 62.4191 50.2864 62.4962C50.3212 62.5733 50.3627 62.6352 50.4109 62.6819C50.4612 62.7258 50.5147 62.7563 50.5713 62.7735C50.6305 62.7903 50.6927 62.7938 50.7581 62.784Z" fill="#008F50"/>
<path id="Vector_5" d="M49.4363 63.1512C49.3849 63.2027 49.3059 63.2583 49.1991 63.3182C49.0924 63.378 48.9522 63.421 48.7787 63.4471C48.595 63.4748 48.4306 63.4764 48.2855 63.452C48.1425 63.4246 48.0192 63.375 47.9158 63.3032C47.812 63.2288 47.7281 63.1334 47.6643 63.0169C47.603 62.9001 47.5609 62.7663 47.5382 62.6153C47.5151 62.4619 47.5183 62.3212 47.5479 62.1933C47.5771 62.0628 47.6281 61.9484 47.7007 61.85C47.7733 61.7516 47.8653 61.6708 47.9767 61.6078C48.0903 61.5418 48.22 61.4978 48.3659 61.4758C48.5118 61.4538 48.6474 61.4578 48.7728 61.4878C48.9008 61.5174 49.0095 61.5731 49.099 61.6547C49.191 61.7361 49.2627 61.8449 49.3141 61.9812C49.3655 62.1175 49.3899 62.2797 49.3874 62.4679L48.1084 62.6606C48.1539 62.8261 48.2305 62.9419 48.3382 63.008C48.4459 63.0741 48.5966 63.0925 48.7903 63.0634C48.9311 63.0421 49.048 63.0065 49.1408 62.9565C49.2361 62.9061 49.317 62.8541 49.3835 62.8003L49.4363 63.1512ZM48.4148 61.8003C48.2965 61.8181 48.2061 61.8754 48.1436 61.9723C48.0835 62.0688 48.0572 62.2014 48.0646 62.3701L48.8531 62.2513C48.8345 62.0766 48.7852 61.9541 48.7052 61.8839C48.6273 61.8107 48.5305 61.7829 48.4148 61.8003Z" fill="#008F50"/>
<path id="Vector_6" d="M46.6393 62.3308L46.3217 63.6289L45.9482 63.6851L45.2747 62.5441L45.4799 63.9062L45.0724 63.9676L44.7842 62.0547L45.4709 61.9512L46.1155 63.0541L46.4141 61.8091L47.097 61.7062L47.3928 63.618L46.8457 63.7004L46.6393 62.3308Z" fill="#008F50"/>
<path id="Vector_7" d="M44.2384 64.0936C44.2205 64.0603 44.2027 64.0192 44.1851 63.9704C44.1675 63.9216 44.152 63.87 44.1386 63.8154C44.1216 63.8565 44.0986 63.8999 44.0694 63.9454C44.0424 63.9881 44.006 64.0283 43.9603 64.066C43.917 64.1034 43.863 64.1373 43.7981 64.1677C43.7357 64.1976 43.6618 64.2191 43.5763 64.2319C43.4932 64.2445 43.4136 64.2449 43.3372 64.2332C43.2612 64.2241 43.1924 64.2023 43.1306 64.1679C43.0713 64.1331 43.0202 64.0842 42.9773 64.0212C42.9369 63.9579 42.9096 63.8796 42.8956 63.7866C42.8657 63.5879 42.9256 63.4219 43.0753 63.2888C43.2246 63.1531 43.4816 63.0577 43.8464 63.0028L43.9935 62.9806L43.9748 62.8561C43.9577 62.7429 43.9163 62.6643 43.8505 62.6202C43.7846 62.5761 43.6763 62.5654 43.5254 62.5881C43.3895 62.6086 43.2666 62.6464 43.1566 62.7016C43.0491 62.7564 42.9591 62.8162 42.8865 62.8812L42.8314 62.5152C42.8817 62.4562 42.9679 62.3969 43.0901 62.3373C43.212 62.2752 43.3647 62.2303 43.5483 62.2027C43.825 62.161 44.0469 62.1828 44.2142 62.2683C44.3835 62.3508 44.4864 62.5128 44.5228 62.7543L44.6677 63.7164C44.6742 63.7591 44.6836 63.813 44.6959 63.878C44.7105 63.9402 44.7239 63.987 44.7364 64.0186L44.2384 64.0936ZM43.7332 63.8649C43.7961 63.8554 43.8499 63.837 43.8946 63.8097C43.939 63.7799 43.9749 63.7449 44.0023 63.7047C44.0297 63.6646 44.0475 63.6207 44.0558 63.5732C44.0666 63.5253 44.0686 63.4787 44.0617 63.4334L44.0327 63.241L43.8969 63.2614C43.7007 63.291 43.5699 63.3364 43.5046 63.3977C43.4392 63.459 43.4141 63.54 43.4293 63.6406C43.4429 63.7311 43.4769 63.7942 43.5311 63.8297C43.5853 63.8653 43.6527 63.877 43.7332 63.8649Z" fill="#008F50"/>
<path id="Vector_8" d="M41.2716 62.585L41.5598 64.4979L41.0089 64.5809L40.7207 62.668L41.2716 62.585ZM41.97 63.3788L42.8803 64.2989L42.2427 64.395L41.4263 63.561L42.045 62.4684L42.543 62.3934L41.97 63.3788Z" fill="#008F50"/>
<path id="Vector_9" d="M38.0494 63.7302C38.0176 63.5189 38.0677 63.348 38.1999 63.2175C38.3341 63.0841 38.5345 62.9973 38.8012 62.9571L39.6086 62.8354L39.8968 64.7483L39.3459 64.8313L39.2499 64.1937L39.0235 64.2278L38.6781 64.932L38.1046 65.0184L38.5342 64.1819C38.3949 64.1617 38.2837 64.1155 38.2008 64.0431C38.12 63.9678 38.0695 63.8635 38.0494 63.7302ZM39.2027 63.8805L39.106 63.2391L38.9136 63.2681C38.808 63.284 38.725 63.3223 38.6646 63.3828C38.6065 63.4405 38.5859 63.5259 38.6029 63.6391C38.6196 63.7497 38.6621 63.8269 38.7304 63.8707C38.8013 63.914 38.8908 63.9275 38.9989 63.9112L39.2027 63.8805Z" fill="#008F50"/>
<path id="Vector_10" d="M37.421 65.1209C37.4031 65.0876 37.3854 65.0466 37.3677 64.9978C37.3501 64.949 37.3346 64.8973 37.3212 64.8427C37.3042 64.8839 37.2812 64.9272 37.252 64.9728C37.225 65.0154 37.1886 65.0556 37.1429 65.0934C37.0996 65.1308 37.0456 65.1646 36.9807 65.195C36.9183 65.225 36.8444 65.2464 36.7589 65.2593C36.6759 65.2718 36.5962 65.2722 36.5198 65.2606C36.4439 65.2515 36.375 65.2297 36.3132 65.1953C36.2539 65.1604 36.2028 65.1116 36.1599 65.0486C36.1195 64.9852 36.0923 64.907 36.0782 64.8139C36.0483 64.6152 36.1082 64.4493 36.2579 64.3161C36.4072 64.1804 36.6643 64.0851 37.029 64.0301L37.1761 64.008L37.1574 63.8835C37.1403 63.7703 37.0989 63.6916 37.0331 63.6475C36.9673 63.6034 36.8589 63.5927 36.708 63.6155C36.5722 63.6359 36.4492 63.6737 36.3392 63.7289C36.2317 63.7837 36.1417 63.8436 36.0692 63.9085L36.014 63.5425C36.0643 63.4835 36.1505 63.4242 36.2727 63.3646C36.3946 63.3026 36.5473 63.2577 36.7309 63.23C37.0076 63.1883 37.2296 63.2102 37.3968 63.2956C37.5661 63.3781 37.669 63.5401 37.7054 63.7816L37.8503 64.7437C37.8568 64.7865 37.8662 64.8404 37.8786 64.9054C37.8931 64.9675 37.9066 65.0143 37.919 65.0459L37.421 65.1209ZM36.9158 64.8922C36.9787 64.8828 37.0325 64.8644 37.0773 64.837C37.1216 64.8072 37.1575 64.7722 37.1849 64.7321C37.2123 64.6919 37.2301 64.6481 37.2384 64.6005C37.2492 64.5526 37.2512 64.506 37.2444 64.4607L37.2154 64.2683L37.0795 64.2888C36.8833 64.3183 36.7526 64.3638 36.6872 64.4251C36.6218 64.4864 36.5967 64.5673 36.6119 64.6679C36.6255 64.7585 36.6595 64.8215 36.7137 64.8571C36.7679 64.8926 36.8353 64.9044 36.9158 64.8922Z" fill="#008F50"/>
<path id="Vector_11" d="M35.1916 64.6345L34.4709 64.7431L34.592 65.5467L34.0412 65.6297L33.7529 63.7168L34.3038 63.6338L34.4192 64.3997L35.1398 64.2911L35.0244 63.5252L35.5715 63.4428L35.8597 65.3557L35.3126 65.4381L35.1916 64.6345Z" fill="#008F50"/>
<path id="Vector_12" d="M32.9069 64.4011L32.5893 65.6992L32.2158 65.7554L31.5422 64.6145L31.7475 65.9765L31.34 66.0379L31.0518 64.125L31.7384 64.0215L32.3831 65.1244L32.6817 63.8794L33.3646 63.7765L33.6604 65.6883L33.1133 65.7707L32.9069 64.4011Z" fill="#008F50"/>
<path id="Vector_13" d="M30.419 65.439C30.383 65.5756 30.3418 65.695 30.2955 65.7972C30.2491 65.8993 30.194 65.9861 30.1302 66.0574C30.0689 66.1284 29.9977 66.1854 29.9167 66.2285C29.8354 66.2691 29.7406 66.2975 29.6325 66.3138C29.5897 66.3202 29.5503 66.3236 29.5144 66.3239C29.4813 66.3263 29.4543 66.3265 29.4334 66.3245L29.3715 65.9132C29.3898 65.9156 29.4122 65.9187 29.4385 65.9224C29.4644 65.9237 29.4962 65.9215 29.5339 65.9158C29.6295 65.9014 29.7073 65.8716 29.7674 65.8266C29.8297 65.7786 29.8789 65.721 29.915 65.6538L28.6309 63.7637L29.2308 63.6733L30.1076 65.0113L30.4796 63.4851L30.9588 63.4129L30.419 65.439Z" fill="#008F50"/>
</g>
</g>
<g id="Ellipse 116" filter="url(#filter1_f_6227_5096)">
<circle cx="76.7792" cy="63.249" r="4.40325" fill="#E7C1FF"/>
</g>
</g>
</g>
</g>
</g>
<defs>
<filter id="filter0_f_6227_5096" x="16.5037" y="24.0564" width="43.1821" height="41.0415" filterUnits="userSpaceOnUse" color-interpolation-filters="sRGB">
<feFlood flood-opacity="0" result="BackgroundImageFix"/>
<feBlend mode="normal" in="SourceGraphic" in2="BackgroundImageFix" result="shape"/>
<feGaussianBlur stdDeviation="5.46009" result="effect1_foregroundBlur_6227_5096"/>
</filter>
<filter id="filter1_f_6227_5096" x="56.9741" y="43.4438" width="39.6104" height="39.6104" filterUnits="userSpaceOnUse" color-interpolation-filters="sRGB">
<feFlood flood-opacity="0" result="BackgroundImageFix"/>
<feBlend mode="normal" in="SourceGraphic" in2="BackgroundImageFix" result="shape"/>
<feGaussianBlur stdDeviation="7.70093" result="effect1_foregroundBlur_6227_5096"/>
</filter>
</defs>
</svg>
