<svg width="88" height="88" viewBox="0 0 88 88" fill="none" xmlns="http://www.w3.org/2000/svg">
<rect width="88" height="88" fill="#545454"/>
<g id="Small Image">
<path d="M942.558 -8.21094C943.03 -6.91254 943.394 -5.56192 943.638 -4.16992L943.146 -4.08301C943.379 -2.75727 943.5 -1.393 943.5 0V4.88867H944V9.77734H943.5V19.5557H944V24.4443H943.5V34.2227H944V39.1113H943.5V48.8887H944V53.7773H943.5V63.5557H944V68.4443H943.5V78.2227H944V83.1113H943.5V88C943.5 89.393 943.379 90.7573 943.146 92.083L943.638 92.1689C943.394 93.561 943.03 94.9115 942.558 96.21L942.089 96.04C941.142 98.64 939.75 101.026 938.003 103.105L938.384 103.426C937.485 104.495 936.495 105.485 935.426 106.384L935.105 106.003C933.026 107.75 930.64 109.142 928.04 110.089L928.21 110.558C926.912 111.03 925.561 111.394 924.169 111.638L924.083 111.146C922.757 111.379 921.393 111.5 920 111.5H915.014V112H910.024V111.5H900.046V112H895.057V111.5H885.078V112H880.089V111.5H870.11V112H865.121V111.5H855.143V112H850.153V111.5H840.175V112H835.186V111.5H825.207V112H820.218V111.5H810.239V112H805.25V111.5H795.271V112H790.282V111.5H780.304V112H775.314V111.5H765.336V112H760.347V111.5H750.368V112H745.379V111.5H735.4V112H730.411V111.5H720.433V112H715.443V111.5H705.465V112H700.476V111.5H690.497V112H685.508V111.5H675.529V112H670.54V111.5H660.562V112H655.572V111.5H645.594V112H640.604V111.5H630.626V112H625.637V111.5H615.658V112H610.669V111.5H600.69V112H595.701V111.5H585.723V112H580.733V111.5H570.755V112H565.766V111.5H555.787V112H550.798V111.5H540.819V112H535.83V111.5H525.852V112H520.862V111.5H510.884V112H505.895V111.5H495.916V112H490.927V111.5H480.948V112H475.959V111.5H465.98V112H460.991V111.5H451.013V112H446.023V111.5H436.045V112H431.056V111.5H421.077V112H416.088V111.5H406.109V112H401.12V111.5H391.142V112H386.152V111.5H376.174V112H371.185V111.5H361.206V112H356.217V111.5H346.238V112H341.249V111.5H331.271V112H326.281V111.5H316.303V112H311.313V111.5H301.335V112H296.346V111.5H286.367V112H281.378V111.5H271.399V112H266.41V111.5H256.432V112H251.442V111.5H241.464V112H236.475V111.5H226.496V112H221.507V111.5H211.528V112H206.539V111.5H196.561V112H191.571V111.5H181.593V112H176.604V111.5H166.625V112H161.636V111.5H151.657V112H146.668V111.5H136.689V112H131.7V111.5H121.722V112H116.732V111.5H106.754V112H101.765V111.5H91.7861V112H86.7969V111.5H76.8184V112H71.8291V111.5H61.8506V112H56.8613V111.5H46.8828V112H41.8936V111.5H31.915V112H26.9258V111.5H16.9473V112H11.958V111.5H1.97949V112H-3.00977V111.5H-12.9883V112H-17.9775V111.5H-27.9561V112H-32.9453V111.5H-42.9238V112H-47.9131V111.5H-57.8916V112H-62.8809V111.5H-72.8594V112H-77.8486V111.5H-87.8271V112H-92.8164V111.5H-102.795V112H-107.784V111.5H-117.763V112H-122.752V111.5H-132.73V112H-137.72V111.5H-147.698V112H-152.688V111.5H-162.666V112H-167.655V111.5H-177.634V112H-182.623V111.5H-192.602V112H-197.591V111.5H-207.569V112H-212.559V111.5H-222.537V112H-227.526V111.5H-237.505V112H-242.494V111.5H-252.473V112H-257.462V111.5H-267.44V112H-272.43V111.5H-282.408V112H-287.397V111.5H-297.376V112H-302.365V111.5H-312.344V112H-317.333V111.5H-327.312V112H-332.301V111.5H-342.279V112H-347.269V111.5H-357.247V112H-362.236V111.5H-372.215V112H-377.204V111.5H-387.183V112H-392.172V111.5H-402.15V112H-407.14V111.5H-417.118V112H-422.107V111.5H-432.086V112H-437.075V111.5H-447.054V112H-452.043V111.5H-462.021V112H-467.011V111.5H-476.989V112H-481.979V111.5H-491.957V112H-496.946V111.5H-506.925V112H-511.914V111.5H-521.893V112H-526.882V111.5H-536.86V112H-541.85V111.5H-551.828V112H-556.817V111.5H-566.796V112H-571.785V111.5H-581.764V112H-586.753V111.5H-596.731V112H-601.721V111.5H-611.699V112H-616.688V111.5H-626.667V112H-631.656V111.5H-641.635V112H-646.624V111.5H-656.603V112H-661.592V111.5H-671.57V112H-676.56V111.5H-686.537V112H-691.526V111.5H-701.505V112H-706.494V111.5H-716.473V112H-721.462V111.5H-731.44V112H-736.43V111.5H-746.408V112H-751.397V111.5H-761.376V112H-766.365V111.5H-776.344V112H-781.333V111.5H-791.312V112H-796.301V111.5H-806.279V112H-811.269V111.5H-821.247V112H-826.236V111.5H-836.215V112H-841.204V111.5H-851.183V112H-856.172V111.5H-866.15V112H-871.14V111.5H-881.118V112H-886.107V111.5H-896.086V112H-901.075V111.5H-911.054V112H-916.043V111.5H-926.021V112H-931.011V111.5H-936C-937.393 111.5 -938.757 111.379 -940.083 111.146L-940.17 111.638C-941.562 111.394 -942.913 111.03 -944.211 110.558L-944.04 110.089C-946.64 109.142 -949.026 107.75 -951.105 106.003L-951.427 106.384C-952.496 105.485 -953.486 104.495 -954.385 103.426L-954.003 103.105C-955.75 101.026 -957.142 98.64 -958.089 96.04L-958.559 96.21C-959.031 94.9116 -959.395 93.5609 -959.639 92.1689L-959.146 92.083C-959.379 90.7573 -959.5 89.393 -959.5 88V83.1113H-960V78.2227H-959.5V68.4443H-960V63.5557H-959.5V53.7773H-960V48.8887H-959.5V39.1113H-960V34.2227H-959.5V24.4443H-960V19.5557H-959.5V9.77734H-960V4.88867H-959.5V0C-959.5 -1.393 -959.379 -2.75727 -959.146 -4.08301L-959.639 -4.16992C-959.427 -5.37923 -959.125 -6.5575 -958.739 -7.69727L-958.559 -8.21094L-958.089 -8.04004C-957.142 -10.64 -955.75 -13.026 -954.003 -15.1055L-954.385 -15.4268C-953.486 -16.4964 -952.496 -17.4863 -951.427 -18.3848L-951.105 -18.0029C-949.026 -19.7496 -946.64 -21.1423 -944.04 -22.0889L-944.211 -22.5586C-942.913 -23.0313 -941.562 -23.3948 -940.17 -23.6387L-940.083 -23.1465C-938.757 -23.3787 -937.393 -23.5 -936 -23.5H-931.014V-24H-926.024V-23.5H-916.046V-24H-911.057V-23.5H-901.078V-24H-896.089V-23.5H-886.11V-24H-881.121V-23.5H-871.143V-24H-866.153V-23.5H-856.175V-24H-851.186V-23.5H-841.207V-24H-836.218V-23.5H-826.239V-24H-821.25V-23.5H-811.271V-24H-806.282V-23.5H-796.304V-24H-791.314V-23.5H-781.336V-24H-776.347V-23.5H-766.368V-24H-761.379V-23.5H-751.4V-24H-746.411V-23.5H-736.433V-24H-731.443V-23.5H-721.465V-24H-716.476V-23.5H-706.497V-24H-701.508V-23.5H-691.529V-24H-686.54V-23.5H-676.562V-24H-671.572V-23.5H-661.594V-24H-656.604V-23.5H-646.626V-24H-641.637V-23.5H-631.658V-24H-626.669V-23.5H-616.69V-24H-611.701V-23.5H-601.723V-24H-596.733V-23.5H-586.755V-24H-581.766V-23.5H-571.787V-24H-566.798V-23.5H-556.819V-24H-551.83V-23.5H-541.852V-24H-536.862V-23.5H-526.884V-24H-521.895V-23.5H-511.916V-24H-506.927V-23.5H-496.948V-24H-491.959V-23.5H-481.98V-24H-476.991V-23.5H-467.013V-24H-462.023V-23.5H-452.045V-24H-447.056V-23.5H-437.077V-24H-432.088V-23.5H-422.109V-24H-417.12V-23.5H-407.142V-24H-402.152V-23.5H-392.174V-24H-387.185V-23.5H-377.206V-24H-372.217V-23.5H-362.238V-24H-357.249V-23.5H-347.271V-24H-342.281V-23.5H-332.303V-24H-327.313V-23.5H-317.335V-24H-312.346V-23.5H-302.367V-24H-297.378V-23.5H-287.399V-24H-282.41V-23.5H-272.432V-24H-267.442V-23.5H-257.464V-24H-252.475V-23.5H-242.496V-24H-237.507V-23.5H-227.528V-24H-222.539V-23.5H-212.561V-24H-207.571V-23.5H-197.593V-24H-192.604V-23.5H-182.625V-24H-177.636V-23.5H-167.657V-24H-162.668V-23.5H-152.689V-24H-147.7V-23.5H-137.722V-24H-132.732V-23.5H-122.754V-24H-117.765V-23.5H-107.786V-24H-102.797V-23.5H-92.8184V-24H-87.8291V-23.5H-77.8506V-24H-72.8613V-23.5H-62.8828V-24H-57.8936V-23.5H-47.915V-24H-42.9258V-23.5H-32.9473V-24H-27.958V-23.5H-17.9795V-24H-12.9902V-23.5H-3.01172V-24H1.97754V-23.5H11.9561V-24H16.9453V-23.5H26.9238V-24H31.9131V-23.5H41.8916V-24H46.8809V-23.5H56.8594V-24H61.8486V-23.5H71.8271V-24H76.8164V-23.5H86.7949V-24H91.7842V-23.5H101.763V-24H106.752V-23.5H116.73V-24H121.72V-23.5H131.698V-24H136.688V-23.5H146.666V-24H151.655V-23.5H161.634V-24H166.623V-23.5H176.602V-24H181.591V-23.5H191.569V-24H196.559V-23.5H206.537V-24H211.526V-23.5H221.505V-24H226.494V-23.5H236.473V-24H241.462V-23.5H251.44V-24H256.43V-23.5H266.408V-24H271.397V-23.5H281.376V-24H286.365V-23.5H296.344V-24H301.333V-23.5H311.312V-24H316.301V-23.5H326.279V-24H331.269V-23.5H341.247V-24H346.236V-23.5H356.215V-24H361.204V-23.5H371.183V-24H376.172V-23.5H386.15V-24H391.14V-23.5H401.118V-24H406.107V-23.5H416.086V-24H421.075V-23.5H431.054V-24H436.043V-23.5H446.021V-24H451.011V-23.5H460.989V-24H465.979V-23.5H475.957V-24H480.946V-23.5H490.925V-24H495.914V-23.5H505.893V-24H510.882V-23.5H520.86V-24H525.85V-23.5H535.828V-24H540.817V-23.5H550.796V-24H555.785V-23.5H565.764V-24H570.753V-23.5H580.731V-24H585.721V-23.5H595.699V-24H600.688V-23.5H610.667V-24H615.656V-23.5H625.635V-24H630.624V-23.5H640.603V-24H645.592V-23.5H655.57V-24H660.56V-23.5H670.538V-24H675.527V-23.5H685.506V-24H690.494V-23.5H700.473V-24H705.462V-23.5H715.44V-24H720.43V-23.5H730.408V-24H735.397V-23.5H745.376V-24H750.365V-23.5H760.344V-24H765.333V-23.5H775.312V-24H780.301V-23.5H790.279V-24H795.269V-23.5H805.247V-24H810.236V-23.5H820.215V-24H825.204V-23.5H835.183V-24H840.172V-23.5H850.15V-24H855.14V-23.5H865.118V-24H870.107V-23.5H880.086V-24H885.075V-23.5H895.054V-24H900.043V-23.5H910.021V-24H915.011V-23.5H920C921.393 -23.5 922.757 -23.3787 924.083 -23.1465L924.169 -23.6387C925.561 -23.3949 926.912 -23.0312 928.21 -22.5586L928.04 -22.0889C930.64 -21.1423 933.026 -19.7496 935.105 -18.0029L935.426 -18.3848C936.495 -17.4863 937.485 -16.4964 938.384 -15.4268L938.003 -15.1055C939.75 -13.026 941.142 -10.64 942.089 -8.04004L942.558 -8.21094Z" fill="white"/>
<path d="M942.558 -8.21094C943.03 -6.91254 943.394 -5.56192 943.638 -4.16992L943.146 -4.08301C943.379 -2.75727 943.5 -1.393 943.5 0V4.88867H944V9.77734H943.5V19.5557H944V24.4443H943.5V34.2227H944V39.1113H943.5V48.8887H944V53.7773H943.5V63.5557H944V68.4443H943.5V78.2227H944V83.1113H943.5V88C943.5 89.393 943.379 90.7573 943.146 92.083L943.638 92.1689C943.394 93.561 943.03 94.9115 942.558 96.21L942.089 96.04C941.142 98.64 939.75 101.026 938.003 103.105L938.384 103.426C937.485 104.495 936.495 105.485 935.426 106.384L935.105 106.003C933.026 107.75 930.64 109.142 928.04 110.089L928.21 110.558C926.912 111.03 925.561 111.394 924.169 111.638L924.083 111.146C922.757 111.379 921.393 111.5 920 111.5H915.014V112H910.024V111.5H900.046V112H895.057V111.5H885.078V112H880.089V111.5H870.11V112H865.121V111.5H855.143V112H850.153V111.5H840.175V112H835.186V111.5H825.207V112H820.218V111.5H810.239V112H805.25V111.5H795.271V112H790.282V111.5H780.304V112H775.314V111.5H765.336V112H760.347V111.5H750.368V112H745.379V111.5H735.4V112H730.411V111.5H720.433V112H715.443V111.5H705.465V112H700.476V111.5H690.497V112H685.508V111.5H675.529V112H670.54V111.5H660.562V112H655.572V111.5H645.594V112H640.604V111.5H630.626V112H625.637V111.5H615.658V112H610.669V111.5H600.69V112H595.701V111.5H585.723V112H580.733V111.5H570.755V112H565.766V111.5H555.787V112H550.798V111.5H540.819V112H535.83V111.5H525.852V112H520.862V111.5H510.884V112H505.895V111.5H495.916V112H490.927V111.5H480.948V112H475.959V111.5H465.98V112H460.991V111.5H451.013V112H446.023V111.5H436.045V112H431.056V111.5H421.077V112H416.088V111.5H406.109V112H401.12V111.5H391.142V112H386.152V111.5H376.174V112H371.185V111.5H361.206V112H356.217V111.5H346.238V112H341.249V111.5H331.271V112H326.281V111.5H316.303V112H311.313V111.5H301.335V112H296.346V111.5H286.367V112H281.378V111.5H271.399V112H266.41V111.5H256.432V112H251.442V111.5H241.464V112H236.475V111.5H226.496V112H221.507V111.5H211.528V112H206.539V111.5H196.561V112H191.571V111.5H181.593V112H176.604V111.5H166.625V112H161.636V111.5H151.657V112H146.668V111.5H136.689V112H131.7V111.5H121.722V112H116.732V111.5H106.754V112H101.765V111.5H91.7861V112H86.7969V111.5H76.8184V112H71.8291V111.5H61.8506V112H56.8613V111.5H46.8828V112H41.8936V111.5H31.915V112H26.9258V111.5H16.9473V112H11.958V111.5H1.97949V112H-3.00977V111.5H-12.9883V112H-17.9775V111.5H-27.9561V112H-32.9453V111.5H-42.9238V112H-47.9131V111.5H-57.8916V112H-62.8809V111.5H-72.8594V112H-77.8486V111.5H-87.8271V112H-92.8164V111.5H-102.795V112H-107.784V111.5H-117.763V112H-122.752V111.5H-132.73V112H-137.72V111.5H-147.698V112H-152.688V111.5H-162.666V112H-167.655V111.5H-177.634V112H-182.623V111.5H-192.602V112H-197.591V111.5H-207.569V112H-212.559V111.5H-222.537V112H-227.526V111.5H-237.505V112H-242.494V111.5H-252.473V112H-257.462V111.5H-267.44V112H-272.43V111.5H-282.408V112H-287.397V111.5H-297.376V112H-302.365V111.5H-312.344V112H-317.333V111.5H-327.312V112H-332.301V111.5H-342.279V112H-347.269V111.5H-357.247V112H-362.236V111.5H-372.215V112H-377.204V111.5H-387.183V112H-392.172V111.5H-402.15V112H-407.14V111.5H-417.118V112H-422.107V111.5H-432.086V112H-437.075V111.5H-447.054V112H-452.043V111.5H-462.021V112H-467.011V111.5H-476.989V112H-481.979V111.5H-491.957V112H-496.946V111.5H-506.925V112H-511.914V111.5H-521.893V112H-526.882V111.5H-536.86V112H-541.85V111.5H-551.828V112H-556.817V111.5H-566.796V112H-571.785V111.5H-581.764V112H-586.753V111.5H-596.731V112H-601.721V111.5H-611.699V112H-616.688V111.5H-626.667V112H-631.656V111.5H-641.635V112H-646.624V111.5H-656.603V112H-661.592V111.5H-671.57V112H-676.56V111.5H-686.537V112H-691.526V111.5H-701.505V112H-706.494V111.5H-716.473V112H-721.462V111.5H-731.44V112H-736.43V111.5H-746.408V112H-751.397V111.5H-761.376V112H-766.365V111.5H-776.344V112H-781.333V111.5H-791.312V112H-796.301V111.5H-806.279V112H-811.269V111.5H-821.247V112H-826.236V111.5H-836.215V112H-841.204V111.5H-851.183V112H-856.172V111.5H-866.15V112H-871.14V111.5H-881.118V112H-886.107V111.5H-896.086V112H-901.075V111.5H-911.054V112H-916.043V111.5H-926.021V112H-931.011V111.5H-936C-937.393 111.5 -938.757 111.379 -940.083 111.146L-940.17 111.638C-941.562 111.394 -942.913 111.03 -944.211 110.558L-944.04 110.089C-946.64 109.142 -949.026 107.75 -951.105 106.003L-951.427 106.384C-952.496 105.485 -953.486 104.495 -954.385 103.426L-954.003 103.105C-955.75 101.026 -957.142 98.64 -958.089 96.04L-958.559 96.21C-959.031 94.9116 -959.395 93.5609 -959.639 92.1689L-959.146 92.083C-959.379 90.7573 -959.5 89.393 -959.5 88V83.1113H-960V78.2227H-959.5V68.4443H-960V63.5557H-959.5V53.7773H-960V48.8887H-959.5V39.1113H-960V34.2227H-959.5V24.4443H-960V19.5557H-959.5V9.77734H-960V4.88867H-959.5V0C-959.5 -1.393 -959.379 -2.75727 -959.146 -4.08301L-959.639 -4.16992C-959.427 -5.37923 -959.125 -6.5575 -958.739 -7.69727L-958.559 -8.21094L-958.089 -8.04004C-957.142 -10.64 -955.75 -13.026 -954.003 -15.1055L-954.385 -15.4268C-953.486 -16.4964 -952.496 -17.4863 -951.427 -18.3848L-951.105 -18.0029C-949.026 -19.7496 -946.64 -21.1423 -944.04 -22.0889L-944.211 -22.5586C-942.913 -23.0313 -941.562 -23.3948 -940.17 -23.6387L-940.083 -23.1465C-938.757 -23.3787 -937.393 -23.5 -936 -23.5H-931.014V-24H-926.024V-23.5H-916.046V-24H-911.057V-23.5H-901.078V-24H-896.089V-23.5H-886.11V-24H-881.121V-23.5H-871.143V-24H-866.153V-23.5H-856.175V-24H-851.186V-23.5H-841.207V-24H-836.218V-23.5H-826.239V-24H-821.25V-23.5H-811.271V-24H-806.282V-23.5H-796.304V-24H-791.314V-23.5H-781.336V-24H-776.347V-23.5H-766.368V-24H-761.379V-23.5H-751.4V-24H-746.411V-23.5H-736.433V-24H-731.443V-23.5H-721.465V-24H-716.476V-23.5H-706.497V-24H-701.508V-23.5H-691.529V-24H-686.54V-23.5H-676.562V-24H-671.572V-23.5H-661.594V-24H-656.604V-23.5H-646.626V-24H-641.637V-23.5H-631.658V-24H-626.669V-23.5H-616.69V-24H-611.701V-23.5H-601.723V-24H-596.733V-23.5H-586.755V-24H-581.766V-23.5H-571.787V-24H-566.798V-23.5H-556.819V-24H-551.83V-23.5H-541.852V-24H-536.862V-23.5H-526.884V-24H-521.895V-23.5H-511.916V-24H-506.927V-23.5H-496.948V-24H-491.959V-23.5H-481.98V-24H-476.991V-23.5H-467.013V-24H-462.023V-23.5H-452.045V-24H-447.056V-23.5H-437.077V-24H-432.088V-23.5H-422.109V-24H-417.12V-23.5H-407.142V-24H-402.152V-23.5H-392.174V-24H-387.185V-23.5H-377.206V-24H-372.217V-23.5H-362.238V-24H-357.249V-23.5H-347.271V-24H-342.281V-23.5H-332.303V-24H-327.313V-23.5H-317.335V-24H-312.346V-23.5H-302.367V-24H-297.378V-23.5H-287.399V-24H-282.41V-23.5H-272.432V-24H-267.442V-23.5H-257.464V-24H-252.475V-23.5H-242.496V-24H-237.507V-23.5H-227.528V-24H-222.539V-23.5H-212.561V-24H-207.571V-23.5H-197.593V-24H-192.604V-23.5H-182.625V-24H-177.636V-23.5H-167.657V-24H-162.668V-23.5H-152.689V-24H-147.7V-23.5H-137.722V-24H-132.732V-23.5H-122.754V-24H-117.765V-23.5H-107.786V-24H-102.797V-23.5H-92.8184V-24H-87.8291V-23.5H-77.8506V-24H-72.8613V-23.5H-62.8828V-24H-57.8936V-23.5H-47.915V-24H-42.9258V-23.5H-32.9473V-24H-27.958V-23.5H-17.9795V-24H-12.9902V-23.5H-3.01172V-24H1.97754V-23.5H11.9561V-24H16.9453V-23.5H26.9238V-24H31.9131V-23.5H41.8916V-24H46.8809V-23.5H56.8594V-24H61.8486V-23.5H71.8271V-24H76.8164V-23.5H86.7949V-24H91.7842V-23.5H101.763V-24H106.752V-23.5H116.73V-24H121.72V-23.5H131.698V-24H136.688V-23.5H146.666V-24H151.655V-23.5H161.634V-24H166.623V-23.5H176.602V-24H181.591V-23.5H191.569V-24H196.559V-23.5H206.537V-24H211.526V-23.5H221.505V-24H226.494V-23.5H236.473V-24H241.462V-23.5H251.44V-24H256.43V-23.5H266.408V-24H271.397V-23.5H281.376V-24H286.365V-23.5H296.344V-24H301.333V-23.5H311.312V-24H316.301V-23.5H326.279V-24H331.269V-23.5H341.247V-24H346.236V-23.5H356.215V-24H361.204V-23.5H371.183V-24H376.172V-23.5H386.15V-24H391.14V-23.5H401.118V-24H406.107V-23.5H416.086V-24H421.075V-23.5H431.054V-24H436.043V-23.5H446.021V-24H451.011V-23.5H460.989V-24H465.979V-23.5H475.957V-24H480.946V-23.5H490.925V-24H495.914V-23.5H505.893V-24H510.882V-23.5H520.86V-24H525.85V-23.5H535.828V-24H540.817V-23.5H550.796V-24H555.785V-23.5H565.764V-24H570.753V-23.5H580.731V-24H585.721V-23.5H595.699V-24H600.688V-23.5H610.667V-24H615.656V-23.5H625.635V-24H630.624V-23.5H640.603V-24H645.592V-23.5H655.57V-24H660.56V-23.5H670.538V-24H675.527V-23.5H685.506V-24H690.494V-23.5H700.473V-24H705.462V-23.5H715.44V-24H720.43V-23.5H730.408V-24H735.397V-23.5H745.376V-24H750.365V-23.5H760.344V-24H765.333V-23.5H775.312V-24H780.301V-23.5H790.279V-24H795.269V-23.5H805.247V-24H810.236V-23.5H820.215V-24H825.204V-23.5H835.183V-24H840.172V-23.5H850.15V-24H855.14V-23.5H865.118V-24H870.107V-23.5H880.086V-24H885.075V-23.5H895.054V-24H900.043V-23.5H910.021V-24H915.011V-23.5H920C921.393 -23.5 922.757 -23.3787 924.083 -23.1465L924.169 -23.6387C925.561 -23.3949 926.912 -23.0312 928.21 -22.5586L928.04 -22.0889C930.64 -21.1423 933.026 -19.7496 935.105 -18.0029L935.426 -18.3848C936.495 -17.4863 937.485 -16.4964 938.384 -15.4268L938.003 -15.1055C939.75 -13.026 941.142 -10.64 942.089 -8.04004L942.558 -8.21094Z" stroke="#8A38F5" stroke-dasharray="10 5"/>
<g id="Name=&#208;&#159;&#208;&#184;&#208;&#189;">
<g id="Group 2087326353">
<path id="Rectangle 1005353" d="M37.9478 35.3438H49.8213L44.3412 77.8387L37.9478 35.3438Z" fill="white"/>
<g id="Union" filter="url(#filter0_f_6227_5096)">
<path d="M54.8213 24.0967V38.4707H61.6953V45.9707H26.0742V38.4707H32.9482L20.4502 9.72266H67.3193L54.8213 24.0967Z" fill="#F22411"/>
</g>
<g id="Intersect" filter="url(#filter1_f_6227_5096)">
<path d="M48.4507 45.9717H39.5464L37.9478 35.3438H49.8208L48.4507 45.9717Z" fill="white"/>
</g>
</g>
</g>
</g>
<defs>
<filter id="filter0_f_6227_5096" x="18.5511" y="7.82357" width="50.6673" height="40.0462" filterUnits="userSpaceOnUse" color-interpolation-filters="sRGB">
<feFlood flood-opacity="0" result="BackgroundImageFix"/>
<feBlend mode="normal" in="SourceGraphic" in2="BackgroundImageFix" result="shape"/>
<feGaussianBlur stdDeviation="0" result="effect1_foregroundBlur_6227_5096"/>
</filter>
<filter id="filter1_f_6227_5096" x="35.4156" y="32.8116" width="16.9373" height="15.6931" filterUnits="userSpaceOnUse" color-interpolation-filters="sRGB">
<feFlood flood-opacity="0" result="BackgroundImageFix"/>
<feBlend mode="normal" in="SourceGraphic" in2="BackgroundImageFix" result="shape"/>
<feGaussianBlur stdDeviation="1.26605" result="effect1_foregroundBlur_6227_5096"/>
</filter>
</defs>
</svg>
