<svg width="97" height="92" viewBox="0 0 97 92" fill="none" xmlns="http://www.w3.org/2000/svg">
<rect width="97" height="92" fill="#545454"/>
<g id="Small Image">
<path d="M1887.42 -4.80664C1887.9 -3.50824 1888.26 -2.15763 1888.5 -0.765625L1888.01 -0.678711C1888.24 0.64703 1888.37 2.0113 1888.37 3.4043V8.29297H1888.87V13.1816H1888.37V22.96H1888.87V27.8486H1888.37V37.627H1888.87V42.5156H1888.37V52.293H1888.87V57.1816H1888.37V66.96H1888.87V71.8486H1888.37V81.627H1888.87V86.5156H1888.37V91.4043C1888.37 92.7973 1888.24 94.1616 1888.01 95.4873L1888.5 95.5732C1888.26 96.9653 1887.9 98.3158 1887.42 99.6143L1886.96 99.4443C1886.01 102.044 1884.62 104.43 1882.87 106.51L1883.25 106.83C1882.35 107.9 1881.36 108.89 1880.29 109.788L1879.97 109.407C1877.89 111.154 1875.51 112.547 1872.91 113.493L1873.08 113.962C1871.78 114.435 1870.43 114.798 1869.04 115.042L1868.95 114.551C1867.62 114.783 1866.26 114.904 1864.87 114.904H1859.88V115.404H1854.89V114.904H1844.91V115.404H1839.92V114.904H1829.94V115.404H1824.96V114.904H1814.98V115.404H1809.99V114.904H1800.01V115.404H1795.02V114.904H1785.04V115.404H1780.05V114.904H1770.07V115.404H1765.08V114.904H1755.11V115.404H1750.12V114.904H1740.14V115.404H1735.15V114.904H1725.17V115.404H1720.18V114.904H1710.2V115.404H1705.21V114.904H1695.23V115.404H1690.25V114.904H1680.27V115.404H1675.28V114.904H1665.3V115.404H1660.31V114.904H1650.33V115.404H1645.34V114.904H1635.36V115.404H1630.37V114.904H1620.4V115.404H1615.41V114.904H1605.43V115.404H1600.44V114.904H1590.46V115.404H1585.47V114.904H1575.49V115.404H1570.5V114.904H1560.52V115.404H1555.54V114.904H1545.56V115.404H1540.57V114.904H1530.59V115.404H1525.6V114.904H1515.62V115.404H1510.63V114.904H1500.65V115.404H1495.66V114.904H1485.69V115.404H1480.7V114.904H1470.72V115.404H1465.73V114.904H1455.75V115.404H1450.76V114.904H1440.78V115.404H1435.79V114.904H1425.81V115.404H1420.83V114.904H1410.85V115.404H1405.86V114.904H1395.88V115.404H1390.89V114.904H1380.91V115.404H1375.92V114.904H1365.94V115.404H1360.95V114.904H1350.98V115.404H1345.99V114.904H1336.01V115.404H1331.02V114.904H1321.04V115.404H1316.05V114.904H1306.07V115.404H1301.08V114.904H1291.1V115.404H1286.12V114.904H1276.14V115.404H1271.15V114.904H1261.17V115.404H1256.18V114.904H1246.2V115.404H1241.21V114.904H1231.23V115.404H1226.24V114.904H1216.27V115.404H1211.28V114.904H1201.3V115.404H1196.31V114.904H1186.33V115.404H1181.34V114.904H1171.36V115.404H1166.37V114.904H1156.39V115.404H1151.41V114.904H1141.43V115.404H1136.44V114.904H1126.46V115.404H1121.47V114.904H1111.49V115.404H1106.5V114.904H1096.52V115.404H1091.53V114.904H1081.56V115.404H1076.57V114.904H1066.59V115.404H1061.6V114.904H1051.62V115.404H1046.63V114.904H1036.65V115.404H1031.66V114.904H1021.68V115.404H1016.7V114.904H1006.72V115.404H1001.73V114.904H991.749V115.404H986.76V114.904H976.781V115.404H971.792V114.904H961.813V115.404H956.824V114.904H946.846V115.404H941.856V114.904H931.878V115.404H926.889V114.904H916.91V115.404H911.921V114.904H901.942V115.404H896.953V114.904H886.975V115.404H881.985V114.904H872.007V115.404H867.018V114.904H857.039V115.404H852.05V114.904H842.071V115.404H837.082V114.904H827.104V115.404H822.114V114.904H812.136V115.404H807.146V114.904H797.168V115.404H792.179V114.904H782.2V115.404H777.211V114.904H767.232V115.404H762.243V114.904H752.265V115.404H747.275V114.904H737.297V115.404H732.308V114.904H722.329V115.404H717.34V114.904H707.361V115.404H702.372V114.904H692.394V115.404H687.404V114.904H677.426V115.404H672.437V114.904H662.458V115.404H657.469V114.904H647.49V115.404H642.501V114.904H632.522V115.404H627.533V114.904H617.555V115.404H612.565V114.904H602.587V115.404H597.598V114.904H587.619V115.404H582.63V114.904H572.651V115.404H567.662V114.904H557.684V115.404H552.694V114.904H542.716V115.404H537.727V114.904H527.748V115.404H522.759V114.904H512.78V115.404H507.791V114.904H497.812V115.404H492.823V114.904H482.845V115.404H477.855V114.904H467.877V115.404H462.888V114.904H452.909V115.404H447.92V114.904H437.941V115.404H432.952V114.904H422.974V115.404H417.984V114.904H408.006V115.404H403.017V114.904H393.038V115.404H388.049V114.904H378.07V115.404H373.081V114.904H363.103V115.404H358.113V114.904H348.135V115.404H343.146V114.904H333.167V115.404H328.178V114.904H318.199V115.404H313.21V114.904H303.231V115.404H298.242V114.904H288.264V115.404H283.274V114.904H273.296V115.404H268.307V114.904H258.329V115.404H253.34V114.904H243.361V115.404H238.372V114.904H228.394V115.404H223.404V114.904H213.426V115.404H208.437V114.904H198.458V115.404H193.469V114.904H183.49V115.404H178.501V114.904H168.522V115.404H163.533V114.904H153.555V115.404H148.565V114.904H138.587V115.404H133.598V114.904H123.619V115.404H118.63V114.904H108.651V115.404H103.662V114.904H93.6836V115.404H88.6943V114.904H78.7158V115.404H73.7266V114.904H63.748V115.404H58.7588V114.904H48.7803V115.404H43.791V114.904H33.8125V115.404H28.8232V114.904H18.8447V115.404H13.8555V114.904H8.86621C7.47321 114.904 6.10894 114.783 4.7832 114.551L4.69629 115.042C3.30429 114.798 1.95367 114.435 0.655273 113.962L0.826172 113.493C-1.77376 112.547 -4.15984 111.154 -6.23926 109.407L-6.56055 109.788C-7.63015 108.89 -8.62011 107.9 -9.51855 106.83L-9.13672 106.51C-10.8833 104.43 -12.2761 102.044 -13.2227 99.4443L-13.6924 99.6143C-14.165 98.3159 -14.5287 96.9652 -14.7725 95.5732L-14.2803 95.4873C-14.5125 94.1616 -14.6338 92.7973 -14.6338 91.4043V86.5156H-15.1338V81.627H-14.6338V71.8486H-15.1338V66.96H-14.6338V57.1816H-15.1338V52.293H-14.6338V42.5156H-15.1338V37.627H-14.6338V27.8486H-15.1338V22.96H-14.6338V13.1816H-15.1338V8.29297H-14.6338V3.4043C-14.6338 2.0113 -14.5125 0.647029 -14.2803 -0.678711L-14.7725 -0.765625C-14.5606 -1.97493 -14.2587 -3.15321 -13.873 -4.29297L-13.6924 -4.80664L-13.2227 -4.63574C-12.2761 -7.23568 -10.8833 -9.62175 -9.13672 -11.7012L-9.51855 -12.0225C-8.62011 -13.0921 -7.63015 -14.082 -6.56055 -14.9805L-6.23926 -14.5986C-4.15984 -16.3453 -1.77376 -17.738 0.826172 -18.6846L0.655273 -19.1543C1.95363 -19.627 3.30434 -19.9905 4.69629 -20.2344L4.7832 -19.7422C6.10894 -19.9744 7.47321 -20.0957 8.86621 -20.0957H13.8525V-20.5957H18.8418V-20.0957H28.8203V-20.5957H33.8096V-20.0957H43.7881V-20.5957H48.7773V-20.0957H58.7559V-20.5957H63.7451V-20.0957H73.7236V-20.5957H78.7129V-20.0957H88.6914V-20.5957H93.6807V-20.0957H103.659V-20.5957H108.648V-20.0957H118.627V-20.5957H123.616V-20.0957H133.595V-20.5957H138.584V-20.0957H148.562V-20.5957H153.552V-20.0957H163.53V-20.5957H168.52V-20.0957H178.498V-20.5957H183.487V-20.0957H193.466V-20.5957H198.455V-20.0957H208.434V-20.5957H213.423V-20.0957H223.401V-20.5957H228.391V-20.0957H238.369V-20.5957H243.358V-20.0957H253.337V-20.5957H258.326V-20.0957H268.305V-20.5957H273.294V-20.0957H283.272V-20.5957H288.262V-20.0957H298.24V-20.5957H303.229V-20.0957H313.208V-20.5957H318.197V-20.0957H328.176V-20.5957H333.165V-20.0957H343.144V-20.5957H348.133V-20.0957H358.111V-20.5957H363.101V-20.0957H373.079V-20.5957H378.068V-20.0957H388.047V-20.5957H393.036V-20.0957H403.015V-20.5957H408.004V-20.0957H417.982V-20.5957H422.972V-20.0957H432.95V-20.5957H437.939V-20.0957H447.918V-20.5957H452.907V-20.0957H462.886V-20.5957H467.875V-20.0957H477.854V-20.5957H482.843V-20.0957H492.821V-20.5957H497.811V-20.0957H507.789V-20.5957H512.778V-20.0957H522.757V-20.5957H527.746V-20.0957H537.725V-20.5957H542.714V-20.0957H552.692V-20.5957H557.682V-20.0957H567.66V-20.5957H572.649V-20.0957H582.628V-20.5957H587.617V-20.0957H597.596V-20.5957H602.585V-20.0957H612.563V-20.5957H617.553V-20.0957H627.531V-20.5957H632.521V-20.0957H642.499V-20.5957H647.488V-20.0957H657.467V-20.5957H662.456V-20.0957H672.435V-20.5957H677.424V-20.0957H687.402V-20.5957H692.392V-20.0957H702.37V-20.5957H707.359V-20.0957H717.338V-20.5957H722.327V-20.0957H732.306V-20.5957H737.295V-20.0957H747.273V-20.5957H752.263V-20.0957H762.241V-20.5957H767.23V-20.0957H777.209V-20.5957H782.198V-20.0957H792.177V-20.5957H797.166V-20.0957H807.145V-20.5957H812.134V-20.0957H822.112V-20.5957H827.102V-20.0957H837.08V-20.5957H842.069V-20.0957H852.048V-20.5957H857.037V-20.0957H867.016V-20.5957H872.005V-20.0957H881.983V-20.5957H886.973V-20.0957H896.951V-20.5957H901.94V-20.0957H911.919V-20.5957H916.908V-20.0957H926.887V-20.5957H931.876V-20.0957H941.854V-20.5957H946.844V-20.0957H956.822V-20.5957H961.812V-20.0957H971.79V-20.5957H976.779V-20.0957H986.758V-20.5957H991.747V-20.0957H1001.73V-20.5957H1006.71V-20.0957H1016.69V-20.5957H1021.68V-20.0957H1031.66V-20.5957H1036.65V-20.0957H1046.63V-20.5957H1051.62V-20.0957H1061.6V-20.5957H1066.59V-20.0957H1076.56V-20.5957H1081.55V-20.0957H1091.53V-20.5957H1096.52V-20.0957H1106.5V-20.5957H1111.49V-20.0957H1121.47V-20.5957H1126.46V-20.0957H1136.44V-20.5957H1141.42V-20.0957H1151.4V-20.5957H1156.39V-20.0957H1166.37V-20.5957H1171.36V-20.0957H1181.34V-20.5957H1186.33V-20.0957H1196.31V-20.5957H1201.3V-20.0957H1211.27V-20.5957H1216.26V-20.0957H1226.24V-20.5957H1231.23V-20.0957H1241.21V-20.5957H1246.2V-20.0957H1256.18V-20.5957H1261.17V-20.0957H1271.15V-20.5957H1276.13V-20.0957H1286.11V-20.5957H1291.1V-20.0957H1301.08V-20.5957H1306.07V-20.0957H1316.05V-20.5957H1321.04V-20.0957H1331.02V-20.5957H1336.01V-20.0957H1345.98V-20.5957H1350.97V-20.0957H1360.95V-20.5957H1365.94V-20.0957H1375.92V-20.5957H1380.91V-20.0957H1390.89V-20.5957H1395.88V-20.0957H1405.86V-20.5957H1410.84V-20.0957H1420.82V-20.5957H1425.81V-20.0957H1435.79V-20.5957H1440.78V-20.0957H1450.76V-20.5957H1455.75V-20.0957H1465.73V-20.5957H1470.72V-20.0957H1480.69V-20.5957H1485.68V-20.0957H1495.66V-20.5957H1500.65V-20.0957H1510.63V-20.5957H1515.62V-20.0957H1525.6V-20.5957H1530.59V-20.0957H1540.57V-20.5957H1545.55V-20.0957H1555.53V-20.5957H1560.52V-20.0957H1570.5V-20.5957H1575.49V-20.0957H1585.47V-20.5957H1590.46V-20.0957H1600.44V-20.5957H1605.43V-20.0957H1615.4V-20.5957H1620.39V-20.0957H1630.37V-20.5957H1635.36V-20.0957H1645.34V-20.5957H1650.33V-20.0957H1660.31V-20.5957H1665.3V-20.0957H1675.27V-20.5957H1680.26V-20.0957H1690.24V-20.5957H1695.23V-20.0957H1705.21V-20.5957H1710.2V-20.0957H1720.18V-20.5957H1725.17V-20.0957H1735.15V-20.5957H1740.13V-20.0957H1750.11V-20.5957H1755.1V-20.0957H1765.08V-20.5957H1770.07V-20.0957H1780.05V-20.5957H1785.04V-20.0957H1795.02V-20.5957H1800.01V-20.0957H1809.98V-20.5957H1814.97V-20.0957H1824.95V-20.5957H1829.94V-20.0957H1839.92V-20.5957H1844.91V-20.0957H1854.89V-20.5957H1859.88V-20.0957H1864.87C1866.26 -20.0957 1867.62 -19.9744 1868.95 -19.7422L1869.04 -20.2344C1870.43 -19.9906 1871.78 -19.6269 1873.08 -19.1543L1872.91 -18.6846C1875.51 -17.738 1877.89 -16.3453 1879.97 -14.5986L1880.29 -14.9805C1881.36 -14.082 1882.35 -13.0921 1883.25 -12.0225L1882.87 -11.7012C1884.62 -9.62175 1886.01 -7.23567 1886.96 -4.63574L1887.42 -4.80664Z" fill="white"/>
<path d="M1887.42 -4.80664C1887.9 -3.50824 1888.26 -2.15763 1888.5 -0.765625L1888.01 -0.678711C1888.24 0.64703 1888.37 2.0113 1888.37 3.4043V8.29297H1888.87V13.1816H1888.37V22.96H1888.87V27.8486H1888.37V37.627H1888.87V42.5156H1888.37V52.293H1888.87V57.1816H1888.37V66.96H1888.87V71.8486H1888.37V81.627H1888.87V86.5156H1888.37V91.4043C1888.37 92.7973 1888.24 94.1616 1888.01 95.4873L1888.5 95.5732C1888.26 96.9653 1887.9 98.3158 1887.42 99.6143L1886.96 99.4443C1886.01 102.044 1884.62 104.43 1882.87 106.51L1883.25 106.83C1882.35 107.9 1881.36 108.89 1880.29 109.788L1879.97 109.407C1877.89 111.154 1875.51 112.547 1872.91 113.493L1873.08 113.962C1871.78 114.435 1870.43 114.798 1869.04 115.042L1868.95 114.551C1867.62 114.783 1866.26 114.904 1864.87 114.904H1859.88V115.404H1854.89V114.904H1844.91V115.404H1839.92V114.904H1829.94V115.404H1824.96V114.904H1814.98V115.404H1809.99V114.904H1800.01V115.404H1795.02V114.904H1785.04V115.404H1780.05V114.904H1770.07V115.404H1765.08V114.904H1755.11V115.404H1750.12V114.904H1740.14V115.404H1735.15V114.904H1725.17V115.404H1720.18V114.904H1710.2V115.404H1705.21V114.904H1695.23V115.404H1690.25V114.904H1680.27V115.404H1675.28V114.904H1665.3V115.404H1660.31V114.904H1650.33V115.404H1645.34V114.904H1635.36V115.404H1630.37V114.904H1620.4V115.404H1615.41V114.904H1605.43V115.404H1600.44V114.904H1590.46V115.404H1585.47V114.904H1575.49V115.404H1570.5V114.904H1560.52V115.404H1555.54V114.904H1545.56V115.404H1540.57V114.904H1530.59V115.404H1525.6V114.904H1515.62V115.404H1510.63V114.904H1500.65V115.404H1495.66V114.904H1485.69V115.404H1480.7V114.904H1470.72V115.404H1465.73V114.904H1455.75V115.404H1450.76V114.904H1440.78V115.404H1435.79V114.904H1425.81V115.404H1420.83V114.904H1410.85V115.404H1405.86V114.904H1395.88V115.404H1390.89V114.904H1380.91V115.404H1375.92V114.904H1365.94V115.404H1360.95V114.904H1350.98V115.404H1345.99V114.904H1336.01V115.404H1331.02V114.904H1321.04V115.404H1316.05V114.904H1306.07V115.404H1301.08V114.904H1291.1V115.404H1286.12V114.904H1276.14V115.404H1271.15V114.904H1261.17V115.404H1256.18V114.904H1246.2V115.404H1241.21V114.904H1231.23V115.404H1226.24V114.904H1216.27V115.404H1211.28V114.904H1201.3V115.404H1196.31V114.904H1186.33V115.404H1181.34V114.904H1171.36V115.404H1166.37V114.904H1156.39V115.404H1151.41V114.904H1141.43V115.404H1136.44V114.904H1126.46V115.404H1121.47V114.904H1111.49V115.404H1106.5V114.904H1096.52V115.404H1091.53V114.904H1081.56V115.404H1076.57V114.904H1066.59V115.404H1061.6V114.904H1051.62V115.404H1046.63V114.904H1036.65V115.404H1031.66V114.904H1021.68V115.404H1016.7V114.904H1006.72V115.404H1001.73V114.904H991.749V115.404H986.76V114.904H976.781V115.404H971.792V114.904H961.813V115.404H956.824V114.904H946.846V115.404H941.856V114.904H931.878V115.404H926.889V114.904H916.91V115.404H911.921V114.904H901.942V115.404H896.953V114.904H886.975V115.404H881.985V114.904H872.007V115.404H867.018V114.904H857.039V115.404H852.05V114.904H842.071V115.404H837.082V114.904H827.104V115.404H822.114V114.904H812.136V115.404H807.146V114.904H797.168V115.404H792.179V114.904H782.2V115.404H777.211V114.904H767.232V115.404H762.243V114.904H752.265V115.404H747.275V114.904H737.297V115.404H732.308V114.904H722.329V115.404H717.34V114.904H707.361V115.404H702.372V114.904H692.394V115.404H687.404V114.904H677.426V115.404H672.437V114.904H662.458V115.404H657.469V114.904H647.49V115.404H642.501V114.904H632.522V115.404H627.533V114.904H617.555V115.404H612.565V114.904H602.587V115.404H597.598V114.904H587.619V115.404H582.63V114.904H572.651V115.404H567.662V114.904H557.684V115.404H552.694V114.904H542.716V115.404H537.727V114.904H527.748V115.404H522.759V114.904H512.78V115.404H507.791V114.904H497.812V115.404H492.823V114.904H482.845V115.404H477.855V114.904H467.877V115.404H462.888V114.904H452.909V115.404H447.92V114.904H437.941V115.404H432.952V114.904H422.974V115.404H417.984V114.904H408.006V115.404H403.017V114.904H393.038V115.404H388.049V114.904H378.07V115.404H373.081V114.904H363.103V115.404H358.113V114.904H348.135V115.404H343.146V114.904H333.167V115.404H328.178V114.904H318.199V115.404H313.21V114.904H303.231V115.404H298.242V114.904H288.264V115.404H283.274V114.904H273.296V115.404H268.307V114.904H258.329V115.404H253.34V114.904H243.361V115.404H238.372V114.904H228.394V115.404H223.404V114.904H213.426V115.404H208.437V114.904H198.458V115.404H193.469V114.904H183.49V115.404H178.501V114.904H168.522V115.404H163.533V114.904H153.555V115.404H148.565V114.904H138.587V115.404H133.598V114.904H123.619V115.404H118.63V114.904H108.651V115.404H103.662V114.904H93.6836V115.404H88.6943V114.904H78.7158V115.404H73.7266V114.904H63.748V115.404H58.7588V114.904H48.7803V115.404H43.791V114.904H33.8125V115.404H28.8232V114.904H18.8447V115.404H13.8555V114.904H8.86621C7.47321 114.904 6.10894 114.783 4.7832 114.551L4.69629 115.042C3.30429 114.798 1.95367 114.435 0.655273 113.962L0.826172 113.493C-1.77376 112.547 -4.15984 111.154 -6.23926 109.407L-6.56055 109.788C-7.63015 108.89 -8.62011 107.9 -9.51855 106.83L-9.13672 106.51C-10.8833 104.43 -12.2761 102.044 -13.2227 99.4443L-13.6924 99.6143C-14.165 98.3159 -14.5287 96.9652 -14.7725 95.5732L-14.2803 95.4873C-14.5125 94.1616 -14.6338 92.7973 -14.6338 91.4043V86.5156H-15.1338V81.627H-14.6338V71.8486H-15.1338V66.96H-14.6338V57.1816H-15.1338V52.293H-14.6338V42.5156H-15.1338V37.627H-14.6338V27.8486H-15.1338V22.96H-14.6338V13.1816H-15.1338V8.29297H-14.6338V3.4043C-14.6338 2.0113 -14.5125 0.647029 -14.2803 -0.678711L-14.7725 -0.765625C-14.5606 -1.97493 -14.2587 -3.15321 -13.873 -4.29297L-13.6924 -4.80664L-13.2227 -4.63574C-12.2761 -7.23568 -10.8833 -9.62175 -9.13672 -11.7012L-9.51855 -12.0225C-8.62011 -13.0921 -7.63015 -14.082 -6.56055 -14.9805L-6.23926 -14.5986C-4.15984 -16.3453 -1.77376 -17.738 0.826172 -18.6846L0.655273 -19.1543C1.95363 -19.627 3.30434 -19.9905 4.69629 -20.2344L4.7832 -19.7422C6.10894 -19.9744 7.47321 -20.0957 8.86621 -20.0957H13.8525V-20.5957H18.8418V-20.0957H28.8203V-20.5957H33.8096V-20.0957H43.7881V-20.5957H48.7773V-20.0957H58.7559V-20.5957H63.7451V-20.0957H73.7236V-20.5957H78.7129V-20.0957H88.6914V-20.5957H93.6807V-20.0957H103.659V-20.5957H108.648V-20.0957H118.627V-20.5957H123.616V-20.0957H133.595V-20.5957H138.584V-20.0957H148.562V-20.5957H153.552V-20.0957H163.53V-20.5957H168.52V-20.0957H178.498V-20.5957H183.487V-20.0957H193.466V-20.5957H198.455V-20.0957H208.434V-20.5957H213.423V-20.0957H223.401V-20.5957H228.391V-20.0957H238.369V-20.5957H243.358V-20.0957H253.337V-20.5957H258.326V-20.0957H268.305V-20.5957H273.294V-20.0957H283.272V-20.5957H288.262V-20.0957H298.24V-20.5957H303.229V-20.0957H313.208V-20.5957H318.197V-20.0957H328.176V-20.5957H333.165V-20.0957H343.144V-20.5957H348.133V-20.0957H358.111V-20.5957H363.101V-20.0957H373.079V-20.5957H378.068V-20.0957H388.047V-20.5957H393.036V-20.0957H403.015V-20.5957H408.004V-20.0957H417.982V-20.5957H422.972V-20.0957H432.95V-20.5957H437.939V-20.0957H447.918V-20.5957H452.907V-20.0957H462.886V-20.5957H467.875V-20.0957H477.854V-20.5957H482.843V-20.0957H492.821V-20.5957H497.811V-20.0957H507.789V-20.5957H512.778V-20.0957H522.757V-20.5957H527.746V-20.0957H537.725V-20.5957H542.714V-20.0957H552.692V-20.5957H557.682V-20.0957H567.66V-20.5957H572.649V-20.0957H582.628V-20.5957H587.617V-20.0957H597.596V-20.5957H602.585V-20.0957H612.563V-20.5957H617.553V-20.0957H627.531V-20.5957H632.521V-20.0957H642.499V-20.5957H647.488V-20.0957H657.467V-20.5957H662.456V-20.0957H672.435V-20.5957H677.424V-20.0957H687.402V-20.5957H692.392V-20.0957H702.37V-20.5957H707.359V-20.0957H717.338V-20.5957H722.327V-20.0957H732.306V-20.5957H737.295V-20.0957H747.273V-20.5957H752.263V-20.0957H762.241V-20.5957H767.23V-20.0957H777.209V-20.5957H782.198V-20.0957H792.177V-20.5957H797.166V-20.0957H807.145V-20.5957H812.134V-20.0957H822.112V-20.5957H827.102V-20.0957H837.08V-20.5957H842.069V-20.0957H852.048V-20.5957H857.037V-20.0957H867.016V-20.5957H872.005V-20.0957H881.983V-20.5957H886.973V-20.0957H896.951V-20.5957H901.94V-20.0957H911.919V-20.5957H916.908V-20.0957H926.887V-20.5957H931.876V-20.0957H941.854V-20.5957H946.844V-20.0957H956.822V-20.5957H961.812V-20.0957H971.79V-20.5957H976.779V-20.0957H986.758V-20.5957H991.747V-20.0957H1001.73V-20.5957H1006.71V-20.0957H1016.69V-20.5957H1021.68V-20.0957H1031.66V-20.5957H1036.65V-20.0957H1046.63V-20.5957H1051.62V-20.0957H1061.6V-20.5957H1066.59V-20.0957H1076.56V-20.5957H1081.55V-20.0957H1091.53V-20.5957H1096.52V-20.0957H1106.5V-20.5957H1111.49V-20.0957H1121.47V-20.5957H1126.46V-20.0957H1136.44V-20.5957H1141.42V-20.0957H1151.4V-20.5957H1156.39V-20.0957H1166.37V-20.5957H1171.36V-20.0957H1181.34V-20.5957H1186.33V-20.0957H1196.31V-20.5957H1201.3V-20.0957H1211.27V-20.5957H1216.26V-20.0957H1226.24V-20.5957H1231.23V-20.0957H1241.21V-20.5957H1246.2V-20.0957H1256.18V-20.5957H1261.17V-20.0957H1271.15V-20.5957H1276.13V-20.0957H1286.11V-20.5957H1291.1V-20.0957H1301.08V-20.5957H1306.07V-20.0957H1316.05V-20.5957H1321.04V-20.0957H1331.02V-20.5957H1336.01V-20.0957H1345.98V-20.5957H1350.97V-20.0957H1360.95V-20.5957H1365.94V-20.0957H1375.92V-20.5957H1380.91V-20.0957H1390.89V-20.5957H1395.88V-20.0957H1405.86V-20.5957H1410.84V-20.0957H1420.82V-20.5957H1425.81V-20.0957H1435.79V-20.5957H1440.78V-20.0957H1450.76V-20.5957H1455.75V-20.0957H1465.73V-20.5957H1470.72V-20.0957H1480.69V-20.5957H1485.68V-20.0957H1495.66V-20.5957H1500.65V-20.0957H1510.63V-20.5957H1515.62V-20.0957H1525.6V-20.5957H1530.59V-20.0957H1540.57V-20.5957H1545.55V-20.0957H1555.53V-20.5957H1560.52V-20.0957H1570.5V-20.5957H1575.49V-20.0957H1585.47V-20.5957H1590.46V-20.0957H1600.44V-20.5957H1605.43V-20.0957H1615.4V-20.5957H1620.39V-20.0957H1630.37V-20.5957H1635.36V-20.0957H1645.34V-20.5957H1650.33V-20.0957H1660.31V-20.5957H1665.3V-20.0957H1675.27V-20.5957H1680.26V-20.0957H1690.24V-20.5957H1695.23V-20.0957H1705.21V-20.5957H1710.2V-20.0957H1720.18V-20.5957H1725.17V-20.0957H1735.15V-20.5957H1740.13V-20.0957H1750.11V-20.5957H1755.1V-20.0957H1765.08V-20.5957H1770.07V-20.0957H1780.05V-20.5957H1785.04V-20.0957H1795.02V-20.5957H1800.01V-20.0957H1809.98V-20.5957H1814.97V-20.0957H1824.95V-20.5957H1829.94V-20.0957H1839.92V-20.5957H1844.91V-20.0957H1854.89V-20.5957H1859.88V-20.0957H1864.87C1866.26 -20.0957 1867.62 -19.9744 1868.95 -19.7422L1869.04 -20.2344C1870.43 -19.9906 1871.78 -19.6269 1873.08 -19.1543L1872.91 -18.6846C1875.51 -17.738 1877.89 -16.3453 1879.97 -14.5986L1880.29 -14.9805C1881.36 -14.082 1882.35 -13.0921 1883.25 -12.0225L1882.87 -11.7012C1884.62 -9.62175 1886.01 -7.23567 1886.96 -4.63574L1887.42 -4.80664Z" stroke="#8A38F5" stroke-dasharray="10 5"/>
<g id="Name=&#208;&#159;&#208;&#190;&#208;&#180;&#208;&#179;&#208;&#190;&#209;&#130;&#208;&#190;&#208;&#178;&#208;&#186;&#208;&#176; &#209;&#128;&#208;&#181;&#208;&#183;&#209;&#142;&#208;&#188;&#208;&#181;">
<g id="Group 2087326335">
<rect id="Rectangle 11" x="15.4658" y="9.56445" width="42.0121" height="59.2898" fill="#FFDF75"/>
<g id="Rectangle 13" filter="url(#filter0_f_6227_5096)">
<rect x="21.6494" y="16" width="29.6449" height="4.91051" fill="#6600BA"/>
</g>
<g id="Rectangle 14" filter="url(#filter1_f_6227_5096)">
<rect x="21.6494" y="25.457" width="29.6449" height="4.91051" fill="#6600BA"/>
</g>
<rect id="Rectangle 15" x="21.6494" y="34.9141" width="29.6449" height="4.91051" fill="#E7C1FF"/>
<rect id="Rectangle 16" x="21.6494" y="44.3711" width="29.6449" height="4.91051" fill="#E7C1FF"/>
<g id="Ellipse 18" filter="url(#filter2_f_6227_5096)">
<circle cx="27.1188" cy="58.4645" r="5.11881" fill="#2DA771"/>
</g>
<path id="Union" d="M90.3955 74.0068H90.3926C90.3934 74.0468 90.3955 74.0869 90.3955 74.127C90.3954 80.1616 80.6651 85.0537 68.6621 85.0537C56.6591 85.0537 46.9288 80.1616 46.9287 74.127C46.9287 74.0869 46.9308 74.0468 46.9316 74.0068H46.9287V59.8379H90.3955V74.0068Z" fill="#FFBFA6"/>
<ellipse id="Ellipse 19" cx="68.6622" cy="59.9561" rx="21.7335" ry="10.9268" fill="#FFEAD1"/>
<g id="Group 7">
<circle id="Ellipse 21" cx="64.7418" cy="76.0475" r="1.08067" fill="#6600BA"/>
<circle id="Ellipse 22" cx="72.9068" cy="76.0475" r="1.08067" fill="#6600BA"/>
</g>
<circle id="Ellipse 23" cx="68.7827" cy="77.3686" r="0.889645" fill="#6600BA" stroke="#6600BA" stroke-width="1.1025"/>
<g id="Group 8" filter="url(#filter3_f_6227_5096)">
<circle id="Ellipse 25" cx="59.897" cy="79.0483" r="1.4409" fill="#FFEAD1"/>
<circle id="Ellipse 26" cx="77.4282" cy="79.0483" r="1.4409" fill="#FFEAD1"/>
</g>
<path id="Ellipse 24" d="M72.0435 79.2383C70.2147 81.0671 67.2497 81.0671 65.4209 79.2383" stroke="#6600BA" stroke-width="4.41002"/>
<path id="Fill 9" fill-rule="evenodd" clip-rule="evenodd" d="M64.0362 62.4682C64.7554 63.1738 66.6716 63.5964 68.6246 63.6042C70.5777 63.5964 72.4939 63.1738 73.2121 62.4682C74.9996 60.717 70.6555 55.9903 68.6266 55.9805C66.5928 55.9903 62.2487 60.717 64.0362 62.4682Z" fill="#6600BA"/>
<path id="Vector" d="M85.4876 19.1919C82.2048 17.5742 78.3243 18.5454 76.1502 21.3153C74.1375 18.4272 70.3197 17.2345 66.9488 18.6621C63.0757 20.3022 61.2632 24.775 62.9009 28.6523C64.5386 32.531 75.6362 42.2368 75.6362 42.2368C75.6362 42.2368 75.6377 42.2263 75.6392 42.2234C75.6392 42.2263 75.6422 42.2368 75.6422 42.2368C75.6422 42.2368 87.1044 33.176 88.9602 29.3975C90.8161 25.619 89.2606 21.0504 85.4891 19.1919H85.4876Z" fill="#2DA771"/>
</g>
</g>
</g>
<defs>
<filter id="filter0_f_6227_5096" x="5.64941" y="0" width="61.6445" height="36.9102" filterUnits="userSpaceOnUse" color-interpolation-filters="sRGB">
<feFlood flood-opacity="0" result="BackgroundImageFix"/>
<feBlend mode="normal" in="SourceGraphic" in2="BackgroundImageFix" result="shape"/>
<feGaussianBlur stdDeviation="8" result="effect1_foregroundBlur_6227_5096"/>
</filter>
<filter id="filter1_f_6227_5096" x="5.64941" y="9.45703" width="61.6445" height="36.9102" filterUnits="userSpaceOnUse" color-interpolation-filters="sRGB">
<feFlood flood-opacity="0" result="BackgroundImageFix"/>
<feBlend mode="normal" in="SourceGraphic" in2="BackgroundImageFix" result="shape"/>
<feGaussianBlur stdDeviation="8" result="effect1_foregroundBlur_6227_5096"/>
</filter>
<filter id="filter2_f_6227_5096" x="0" y="31.3457" width="54.2373" height="54.2383" filterUnits="userSpaceOnUse" color-interpolation-filters="sRGB">
<feFlood flood-opacity="0" result="BackgroundImageFix"/>
<feBlend mode="normal" in="SourceGraphic" in2="BackgroundImageFix" result="shape"/>
<feGaussianBlur stdDeviation="11" result="effect1_foregroundBlur_6227_5096"/>
</filter>
<filter id="filter3_f_6227_5096" x="50.1065" y="69.2579" width="37.1121" height="19.5799" filterUnits="userSpaceOnUse" color-interpolation-filters="sRGB">
<feFlood flood-opacity="0" result="BackgroundImageFix"/>
<feBlend mode="normal" in="SourceGraphic" in2="BackgroundImageFix" result="shape"/>
<feGaussianBlur stdDeviation="4.17476" result="effect1_foregroundBlur_6227_5096"/>
</filter>
</defs>
</svg>
