<svg width="97" height="92" viewBox="0 0 97 92" fill="none" xmlns="http://www.w3.org/2000/svg">
<g id="Small Image"><g id="Name=&#208;&#159;&#208;&#190;&#208;&#180;&#208;&#179;&#208;&#190;&#209;&#130;&#208;&#190;&#208;&#178;&#208;&#186;&#208;&#176; &#209;&#128;&#208;&#181;&#208;&#183;&#209;&#142;&#208;&#188;&#208;&#181;">
<g id="Group 2087326335">
<rect id="Rectangle 11" x="15.4658" y="9.56445" width="42.0121" height="59.2898" fill="#FFDF75"/>
<g id="Rectangle 13" filter="url(#filter0_f_6227_5096)">
<rect x="21.6494" y="16" width="29.6449" height="4.91051" fill="#6600BA"/>
</g>
<g id="Rectangle 14" filter="url(#filter1_f_6227_5096)">
<rect x="21.6494" y="25.457" width="29.6449" height="4.91051" fill="#6600BA"/>
</g>
<rect id="Rectangle 15" x="21.6494" y="34.9141" width="29.6449" height="4.91051" fill="#E7C1FF"/>
<rect id="Rectangle 16" x="21.6494" y="44.3711" width="29.6449" height="4.91051" fill="#E7C1FF"/>
<g id="Ellipse 18" filter="url(#filter2_f_6227_5096)">
<circle cx="27.1188" cy="58.4645" r="5.11881" fill="#2DA771"/>
</g>
<path id="Union" d="M90.3955 74.0068H90.3926C90.3934 74.0468 90.3955 74.0869 90.3955 74.127C90.3954 80.1616 80.6651 85.0537 68.6621 85.0537C56.6591 85.0537 46.9288 80.1616 46.9287 74.127C46.9287 74.0869 46.9308 74.0468 46.9316 74.0068H46.9287V59.8379H90.3955V74.0068Z" fill="#FFBFA6"/>
<ellipse id="Ellipse 19" cx="68.6622" cy="59.9561" rx="21.7335" ry="10.9268" fill="#FFEAD1"/>
<g id="Group 7">
<circle id="Ellipse 21" cx="64.7418" cy="76.0475" r="1.08067" fill="#6600BA"/>
<circle id="Ellipse 22" cx="72.9068" cy="76.0475" r="1.08067" fill="#6600BA"/>
</g>
<circle id="Ellipse 23" cx="68.7827" cy="77.3686" r="0.889645" fill="#6600BA" stroke="#6600BA" stroke-width="1.1025"/>
<g id="Group 8" filter="url(#filter3_f_6227_5096)">
<circle id="Ellipse 25" cx="59.897" cy="79.0483" r="1.4409" fill="#FFEAD1"/>
<circle id="Ellipse 26" cx="77.4282" cy="79.0483" r="1.4409" fill="#FFEAD1"/>
</g>
<path id="Ellipse 24" d="M72.0435 79.2383C70.2147 81.0671 67.2497 81.0671 65.4209 79.2383" stroke="#6600BA" stroke-width="4.41002"/>
<path id="Fill 9" fill-rule="evenodd" clip-rule="evenodd" d="M64.0362 62.4682C64.7554 63.1738 66.6716 63.5964 68.6246 63.6042C70.5777 63.5964 72.4939 63.1738 73.2121 62.4682C74.9996 60.717 70.6555 55.9903 68.6266 55.9805C66.5928 55.9903 62.2487 60.717 64.0362 62.4682Z" fill="#6600BA"/>
<path id="Vector" d="M85.4876 19.1919C82.2048 17.5742 78.3243 18.5454 76.1502 21.3153C74.1375 18.4272 70.3197 17.2345 66.9488 18.6621C63.0757 20.3022 61.2632 24.775 62.9009 28.6523C64.5386 32.531 75.6362 42.2368 75.6362 42.2368C75.6362 42.2368 75.6377 42.2263 75.6392 42.2234C75.6392 42.2263 75.6422 42.2368 75.6422 42.2368C75.6422 42.2368 87.1044 33.176 88.9602 29.3975C90.8161 25.619 89.2606 21.0504 85.4891 19.1919H85.4876Z" fill="#2DA771"/>
</g>
</g>
</g>
<defs>
<filter id="filter0_f_6227_5096" x="5.64941" y="0" width="61.6445" height="36.9102" filterUnits="userSpaceOnUse" color-interpolation-filters="sRGB">
<feFlood flood-opacity="0" result="BackgroundImageFix"/>
<feBlend mode="normal" in="SourceGraphic" in2="BackgroundImageFix" result="shape"/>
<feGaussianBlur stdDeviation="8" result="effect1_foregroundBlur_6227_5096"/>
</filter>
<filter id="filter1_f_6227_5096" x="5.64941" y="9.45703" width="61.6445" height="36.9102" filterUnits="userSpaceOnUse" color-interpolation-filters="sRGB">
<feFlood flood-opacity="0" result="BackgroundImageFix"/>
<feBlend mode="normal" in="SourceGraphic" in2="BackgroundImageFix" result="shape"/>
<feGaussianBlur stdDeviation="8" result="effect1_foregroundBlur_6227_5096"/>
</filter>
<filter id="filter2_f_6227_5096" x="0" y="31.3457" width="54.2373" height="54.2383" filterUnits="userSpaceOnUse" color-interpolation-filters="sRGB">
<feFlood flood-opacity="0" result="BackgroundImageFix"/>
<feBlend mode="normal" in="SourceGraphic" in2="BackgroundImageFix" result="shape"/>
<feGaussianBlur stdDeviation="11" result="effect1_foregroundBlur_6227_5096"/>
</filter>
<filter id="filter3_f_6227_5096" x="50.1065" y="69.2579" width="37.1121" height="19.5799" filterUnits="userSpaceOnUse" color-interpolation-filters="sRGB">
<feFlood flood-opacity="0" result="BackgroundImageFix"/>
<feBlend mode="normal" in="SourceGraphic" in2="BackgroundImageFix" result="shape"/>
<feGaussianBlur stdDeviation="4.17476" result="effect1_foregroundBlur_6227_5096"/>
</filter>
</defs>
</svg>
