<svg width="88" height="88" viewBox="0 0 88 88" fill="none" xmlns="http://www.w3.org/2000/svg">
<g id="Small Image"><g id="Name=&#208;&#159;&#208;&#190;&#208;&#184;&#209;&#129;&#208;&#186;">
<g id="Group 2087326351">
<rect id="Rectangle 1005440" x="10.9688" y="14.8164" width="64.5793" height="42.872" rx="8.09939" fill="#E7C1FF"/>
<circle id="Ellipse 127" cx="19.8948" cy="23.0433" r="4.85771" fill="#6600BA"/>
<circle id="Ellipse 129" cx="31.5535" cy="23.0433" r="4.85771" fill="#2DA771"/>
<circle id="Ellipse 144" cx="53.2502" cy="47.5507" r="12.6281" transform="rotate(-30.358 53.2502 47.5507)" stroke="#6600BA" stroke-width="9.45831"/>
<path id="Vector 80" d="M64.3002 76.2788C65.6202 78.5325 68.5173 79.2894 70.771 77.9694C73.0247 76.6494 73.7816 73.7523 72.4616 71.4986L68.3809 73.8887L64.3002 76.2788ZM58.8345 57.5898L54.7538 59.98L64.3002 76.2788L68.3809 73.8887L72.4616 71.4986L62.9152 55.1997L58.8345 57.5898Z" fill="#6600BA"/>
<g id="Intersect" filter="url(#filter0_f_6227_5096)">
<path d="M44.8676 32.3504C53.0807 27.8156 63.4589 30.6348 68.2279 38.7772L68.4496 39.1668C71.7802 45.199 71.1439 52.3994 67.3451 57.6873H59.1879L57.2426 54.3651C61.0065 52.1602 62.2704 47.3216 60.0658 43.5574C57.8611 39.7934 53.0224 38.5288 49.2582 40.7332C45.4939 42.938 44.2292 47.7775 46.434 51.5418C48.6388 55.306 53.4783 56.5698 57.2426 54.3651L59.1879 57.6873H39.1605C38.9326 57.3697 38.7133 57.0428 38.5043 56.7059L38.2728 56.3221C33.428 48.0503 36.2062 37.4169 44.4779 32.5721L44.8676 32.3504Z" fill="#E7C1FF"/>
</g>
</g>
</g>
</g>
<defs>
<filter id="filter0_f_6227_5096" x="26.642" y="20.9413" width="53.2165" height="45.9943" filterUnits="userSpaceOnUse" color-interpolation-filters="sRGB">
<feFlood flood-opacity="0" result="BackgroundImageFix"/>
<feBlend mode="normal" in="SourceGraphic" in2="BackgroundImageFix" result="shape"/>
<feGaussianBlur stdDeviation="4.62406" result="effect1_foregroundBlur_6227_5096"/>
</filter>
</defs>
</svg>
