<svg width="88" height="88" viewBox="0 0 88 88" fill="none" xmlns="http://www.w3.org/2000/svg">
<rect width="88" height="88" fill="#545454"/>
<g id="Small Image">
<path d="M1150.56 -8.21094C1151.03 -6.91254 1151.39 -5.56192 1151.64 -4.16992L1151.15 -4.08301C1151.38 -2.75727 1151.5 -1.393 1151.5 0V4.88867H1152V9.77734H1151.5V19.5557H1152V24.4443H1151.5V34.2227H1152V39.1113H1151.5V48.8887H1152V53.7773H1151.5V63.5557H1152V68.4443H1151.5V78.2227H1152V83.1113H1151.5V88C1151.5 89.393 1151.38 90.7573 1151.15 92.083L1151.64 92.1689C1151.39 93.561 1151.03 94.9115 1150.56 96.21L1150.09 96.04C1149.14 98.64 1147.75 101.026 1146 103.105L1146.38 103.426C1145.49 104.495 1144.5 105.485 1143.43 106.384L1143.11 106.003C1141.03 107.75 1138.64 109.142 1136.04 110.089L1136.21 110.558C1134.91 111.03 1133.56 111.394 1132.17 111.638L1132.08 111.146C1130.76 111.379 1129.39 111.5 1128 111.5H1123.01V112H1118.02V111.5H1108.05V112H1103.06V111.5H1093.08V112H1088.09V111.5H1078.11V112H1073.12V111.5H1063.14V112H1058.15V111.5H1048.17V112H1043.19V111.5H1033.21V112H1028.22V111.5H1018.24V112H1013.25V111.5H1003.27V112H998.282V111.5H988.304V112H983.314V111.5H973.336V112H968.347V111.5H958.368V112H953.379V111.5H943.4V112H938.411V111.5H928.433V112H923.443V111.5H913.465V112H908.476V111.5H898.497V112H893.508V111.5H883.529V112H878.54V111.5H868.562V112H863.572V111.5H853.594V112H848.604V111.5H838.626V112H833.637V111.5H823.658V112H818.669V111.5H808.69V112H803.701V111.5H793.723V112H788.733V111.5H778.755V112H773.766V111.5H763.787V112H758.798V111.5H748.819V112H743.83V111.5H733.852V112H728.862V111.5H718.884V112H713.895V111.5H703.916V112H698.927V111.5H688.948V112H683.959V111.5H673.98V112H668.991V111.5H659.013V112H654.023V111.5H644.045V112H639.056V111.5H629.077V112H624.088V111.5H614.109V112H609.12V111.5H599.142V112H594.152V111.5H584.174V112H579.185V111.5H569.206V112H564.217V111.5H554.238V112H549.249V111.5H539.271V112H534.281V111.5H524.303V112H519.313V111.5H509.335V112H504.346V111.5H494.367V112H489.378V111.5H479.399V112H474.41V111.5H464.432V112H459.442V111.5H449.464V112H444.475V111.5H434.496V112H429.507V111.5H419.528V112H414.539V111.5H404.561V112H399.571V111.5H389.593V112H384.604V111.5H374.625V112H369.636V111.5H359.657V112H354.668V111.5H344.689V112H339.7V111.5H329.722V112H324.732V111.5H314.754V112H309.765V111.5H299.786V112H294.797V111.5H284.818V112H279.829V111.5H269.851V112H264.861V111.5H254.883V112H249.894V111.5H239.915V112H234.926V111.5H224.947V112H219.958V111.5H209.979V112H204.99V111.5H195.012V112H190.022V111.5H180.044V112H175.055V111.5H165.076V112H160.087V111.5H150.108V112H145.119V111.5H135.141V112H130.151V111.5H120.173V112H115.184V111.5H105.205V112H100.216V111.5H90.2373V112H85.248V111.5H75.2695V112H70.2803V111.5H60.3018V112H55.3125V111.5H45.334V112H40.3447V111.5H30.3662V112H25.377V111.5H15.3984V112H10.4092V111.5H0.430664V112H-4.55859V111.5H-14.5371V112H-19.5264V111.5H-29.5049V112H-34.4941V111.5H-44.4727V112H-49.4619V111.5H-59.4404V112H-64.4297V111.5H-74.4082V112H-79.3975V111.5H-89.376V112H-94.3652V111.5H-104.344V112H-109.333V111.5H-119.312V112H-124.301V111.5H-134.279V112H-139.269V111.5H-149.247V112H-154.236V111.5H-164.215V112H-169.204V111.5H-179.183V112H-184.172V111.5H-194.15V112H-199.14V111.5H-209.118V112H-214.107V111.5H-224.086V112H-229.075V111.5H-239.054V112H-244.043V111.5H-254.021V112H-259.011V111.5H-268.989V112H-273.979V111.5H-283.957V112H-288.946V111.5H-298.925V112H-303.914V111.5H-313.893V112H-318.882V111.5H-328.86V112H-333.85V111.5H-343.828V112H-348.817V111.5H-358.796V112H-363.785V111.5H-373.764V112H-378.753V111.5H-388.731V112H-393.721V111.5H-403.699V112H-408.688V111.5H-418.667V112H-423.656V111.5H-433.635V112H-438.624V111.5H-448.603V112H-453.592V111.5H-463.57V112H-468.56V111.5H-478.537V112H-483.526V111.5H-493.505V112H-498.494V111.5H-508.473V112H-513.462V111.5H-523.44V112H-528.43V111.5H-538.408V112H-543.397V111.5H-553.376V112H-558.365V111.5H-568.344V112H-573.333V111.5H-583.312V112H-588.301V111.5H-598.279V112H-603.269V111.5H-613.247V112H-618.236V111.5H-628.215V112H-633.204V111.5H-643.183V112H-648.172V111.5H-658.15V112H-663.14V111.5H-673.118V112H-678.107V111.5H-688.086V112H-693.075V111.5H-703.054V112H-708.043V111.5H-718.021V112H-723.011V111.5H-728C-729.393 111.5 -730.757 111.379 -732.083 111.146L-732.17 111.638C-733.562 111.394 -734.913 111.03 -736.211 110.558L-736.04 110.089C-738.64 109.142 -741.026 107.75 -743.105 106.003L-743.427 106.384C-744.496 105.485 -745.486 104.495 -746.385 103.426L-746.003 103.105C-747.75 101.026 -749.142 98.64 -750.089 96.04L-750.559 96.21C-751.031 94.9116 -751.395 93.5609 -751.639 92.1689L-751.146 92.083C-751.379 90.7573 -751.5 89.393 -751.5 88V83.1113H-752V78.2227H-751.5V68.4443H-752V63.5557H-751.5V53.7773H-752V48.8887H-751.5V39.1113H-752V34.2227H-751.5V24.4443H-752V19.5557H-751.5V9.77734H-752V4.88867H-751.5V0C-751.5 -1.393 -751.379 -2.75727 -751.146 -4.08301L-751.639 -4.16992C-751.427 -5.37923 -751.125 -6.5575 -750.739 -7.69727L-750.559 -8.21094L-750.089 -8.04004C-749.142 -10.64 -747.75 -13.026 -746.003 -15.1055L-746.385 -15.4268C-745.486 -16.4964 -744.496 -17.4863 -743.427 -18.3848L-743.105 -18.0029C-741.026 -19.7496 -738.64 -21.1423 -736.04 -22.0889L-736.211 -22.5586C-734.913 -23.0313 -733.562 -23.3948 -732.17 -23.6387L-732.083 -23.1465C-730.757 -23.3787 -729.393 -23.5 -728 -23.5H-723.014V-24H-718.024V-23.5H-708.046V-24H-703.057V-23.5H-693.078V-24H-688.089V-23.5H-678.11V-24H-673.121V-23.5H-663.143V-24H-658.153V-23.5H-648.175V-24H-643.186V-23.5H-633.207V-24H-628.218V-23.5H-618.239V-24H-613.25V-23.5H-603.271V-24H-598.282V-23.5H-588.304V-24H-583.314V-23.5H-573.336V-24H-568.347V-23.5H-558.368V-24H-553.379V-23.5H-543.4V-24H-538.411V-23.5H-528.433V-24H-523.443V-23.5H-513.465V-24H-508.476V-23.5H-498.497V-24H-493.508V-23.5H-483.529V-24H-478.54V-23.5H-468.562V-24H-463.572V-23.5H-453.594V-24H-448.604V-23.5H-438.626V-24H-433.637V-23.5H-423.658V-24H-418.669V-23.5H-408.69V-24H-403.701V-23.5H-393.723V-24H-388.733V-23.5H-378.755V-24H-373.766V-23.5H-363.787V-24H-358.798V-23.5H-348.819V-24H-343.83V-23.5H-333.852V-24H-328.862V-23.5H-318.884V-24H-313.895V-23.5H-303.916V-24H-298.927V-23.5H-288.948V-24H-283.959V-23.5H-273.98V-24H-268.991V-23.5H-259.013V-24H-254.023V-23.5H-244.045V-24H-239.056V-23.5H-229.077V-24H-224.088V-23.5H-214.109V-24H-209.12V-23.5H-199.142V-24H-194.152V-23.5H-184.174V-24H-179.185V-23.5H-169.206V-24H-164.217V-23.5H-154.238V-24H-149.249V-23.5H-139.271V-24H-134.281V-23.5H-124.303V-24H-119.313V-23.5H-109.335V-24H-104.346V-23.5H-94.3672V-24H-89.3779V-23.5H-79.3994V-24H-74.4102V-23.5H-64.4316V-24H-59.4424V-23.5H-49.4639V-24H-44.4746V-23.5H-34.4961V-24H-29.5068V-23.5H-19.5283V-24H-14.5391V-23.5H-4.56055V-24H0.428711V-23.5H10.4072V-24H15.3965V-23.5H25.375V-24H30.3643V-23.5H40.3428V-24H45.332V-23.5H55.3105V-24H60.2998V-23.5H70.2783V-24H75.2676V-23.5H85.2461V-24H90.2354V-23.5H100.214V-24H105.203V-23.5H115.182V-24H120.171V-23.5H130.149V-24H135.139V-23.5H145.117V-24H150.106V-23.5H160.085V-24H165.074V-23.5H175.053V-24H180.042V-23.5H190.021V-24H195.01V-23.5H204.988V-24H209.978V-23.5H219.956V-24H224.945V-23.5H234.924V-24H239.913V-23.5H249.892V-24H254.881V-23.5H264.859V-24H269.849V-23.5H279.827V-24H284.816V-23.5H294.795V-24H299.784V-23.5H309.763V-24H314.752V-23.5H324.73V-24H329.72V-23.5H339.698V-24H344.688V-23.5H354.666V-24H359.655V-23.5H369.634V-24H374.623V-23.5H384.602V-24H389.591V-23.5H399.569V-24H404.559V-23.5H414.537V-24H419.526V-23.5H429.505V-24H434.494V-23.5H444.473V-24H449.462V-23.5H459.44V-24H464.43V-23.5H474.408V-24H479.397V-23.5H489.376V-24H494.365V-23.5H504.344V-24H509.333V-23.5H519.312V-24H524.301V-23.5H534.279V-24H539.269V-23.5H549.247V-24H554.236V-23.5H564.215V-24H569.204V-23.5H579.183V-24H584.172V-23.5H594.15V-24H599.14V-23.5H609.118V-24H614.107V-23.5H624.086V-24H629.075V-23.5H639.054V-24H644.043V-23.5H654.021V-24H659.011V-23.5H668.989V-24H673.979V-23.5H683.957V-24H688.946V-23.5H698.925V-24H703.914V-23.5H713.893V-24H718.882V-23.5H728.86V-24H733.85V-23.5H743.828V-24H748.817V-23.5H758.796V-24H763.785V-23.5H773.764V-24H778.753V-23.5H788.731V-24H793.721V-23.5H803.699V-24H808.688V-23.5H818.667V-24H823.656V-23.5H833.635V-24H838.624V-23.5H848.603V-24H853.592V-23.5H863.57V-24H868.56V-23.5H878.538V-24H883.527V-23.5H893.506V-24H898.494V-23.5H908.473V-24H913.462V-23.5H923.44V-24H928.43V-23.5H938.408V-24H943.397V-23.5H953.376V-24H958.365V-23.5H968.344V-24H973.333V-23.5H983.312V-24H988.301V-23.5H998.279V-24H1003.27V-23.5H1013.25V-24H1018.24V-23.5H1028.21V-24H1033.2V-23.5H1043.18V-24H1048.17V-23.5H1058.15V-24H1063.14V-23.5H1073.12V-24H1078.11V-23.5H1088.09V-24H1093.08V-23.5H1103.05V-24H1108.04V-23.5H1118.02V-24H1123.01V-23.5H1128C1129.39 -23.5 1130.76 -23.3787 1132.08 -23.1465L1132.17 -23.6387C1133.56 -23.3949 1134.91 -23.0312 1136.21 -22.5586L1136.04 -22.0889C1138.64 -21.1423 1141.03 -19.7496 1143.11 -18.0029L1143.43 -18.3848C1144.5 -17.4863 1145.49 -16.4964 1146.38 -15.4268L1146 -15.1055C1147.75 -13.026 1149.14 -10.64 1150.09 -8.04004L1150.56 -8.21094Z" fill="white"/>
<path d="M1150.56 -8.21094C1151.03 -6.91254 1151.39 -5.56192 1151.64 -4.16992L1151.15 -4.08301C1151.38 -2.75727 1151.5 -1.393 1151.5 0V4.88867H1152V9.77734H1151.5V19.5557H1152V24.4443H1151.5V34.2227H1152V39.1113H1151.5V48.8887H1152V53.7773H1151.5V63.5557H1152V68.4443H1151.5V78.2227H1152V83.1113H1151.5V88C1151.5 89.393 1151.38 90.7573 1151.15 92.083L1151.64 92.1689C1151.39 93.561 1151.03 94.9115 1150.56 96.21L1150.09 96.04C1149.14 98.64 1147.75 101.026 1146 103.105L1146.38 103.426C1145.49 104.495 1144.5 105.485 1143.43 106.384L1143.11 106.003C1141.03 107.75 1138.64 109.142 1136.04 110.089L1136.21 110.558C1134.91 111.03 1133.56 111.394 1132.17 111.638L1132.08 111.146C1130.76 111.379 1129.39 111.5 1128 111.5H1123.01V112H1118.02V111.5H1108.05V112H1103.06V111.5H1093.08V112H1088.09V111.5H1078.11V112H1073.12V111.5H1063.14V112H1058.15V111.5H1048.17V112H1043.19V111.5H1033.21V112H1028.22V111.5H1018.24V112H1013.25V111.5H1003.27V112H998.282V111.5H988.304V112H983.314V111.5H973.336V112H968.347V111.5H958.368V112H953.379V111.5H943.4V112H938.411V111.5H928.433V112H923.443V111.5H913.465V112H908.476V111.5H898.497V112H893.508V111.5H883.529V112H878.54V111.5H868.562V112H863.572V111.5H853.594V112H848.604V111.5H838.626V112H833.637V111.5H823.658V112H818.669V111.5H808.69V112H803.701V111.5H793.723V112H788.733V111.5H778.755V112H773.766V111.5H763.787V112H758.798V111.5H748.819V112H743.83V111.5H733.852V112H728.862V111.5H718.884V112H713.895V111.5H703.916V112H698.927V111.5H688.948V112H683.959V111.5H673.98V112H668.991V111.5H659.013V112H654.023V111.5H644.045V112H639.056V111.5H629.077V112H624.088V111.5H614.109V112H609.12V111.5H599.142V112H594.152V111.5H584.174V112H579.185V111.5H569.206V112H564.217V111.5H554.238V112H549.249V111.5H539.271V112H534.281V111.5H524.303V112H519.313V111.5H509.335V112H504.346V111.5H494.367V112H489.378V111.5H479.399V112H474.41V111.5H464.432V112H459.442V111.5H449.464V112H444.475V111.5H434.496V112H429.507V111.5H419.528V112H414.539V111.5H404.561V112H399.571V111.5H389.593V112H384.604V111.5H374.625V112H369.636V111.5H359.657V112H354.668V111.5H344.689V112H339.7V111.5H329.722V112H324.732V111.5H314.754V112H309.765V111.5H299.786V112H294.797V111.5H284.818V112H279.829V111.5H269.851V112H264.861V111.5H254.883V112H249.894V111.5H239.915V112H234.926V111.5H224.947V112H219.958V111.5H209.979V112H204.99V111.5H195.012V112H190.022V111.5H180.044V112H175.055V111.5H165.076V112H160.087V111.5H150.108V112H145.119V111.5H135.141V112H130.151V111.5H120.173V112H115.184V111.5H105.205V112H100.216V111.5H90.2373V112H85.248V111.5H75.2695V112H70.2803V111.5H60.3018V112H55.3125V111.5H45.334V112H40.3447V111.5H30.3662V112H25.377V111.5H15.3984V112H10.4092V111.5H0.430664V112H-4.55859V111.5H-14.5371V112H-19.5264V111.5H-29.5049V112H-34.4941V111.5H-44.4727V112H-49.4619V111.5H-59.4404V112H-64.4297V111.5H-74.4082V112H-79.3975V111.5H-89.376V112H-94.3652V111.5H-104.344V112H-109.333V111.5H-119.312V112H-124.301V111.5H-134.279V112H-139.269V111.5H-149.247V112H-154.236V111.5H-164.215V112H-169.204V111.5H-179.183V112H-184.172V111.5H-194.15V112H-199.14V111.5H-209.118V112H-214.107V111.5H-224.086V112H-229.075V111.5H-239.054V112H-244.043V111.5H-254.021V112H-259.011V111.5H-268.989V112H-273.979V111.5H-283.957V112H-288.946V111.5H-298.925V112H-303.914V111.5H-313.893V112H-318.882V111.5H-328.86V112H-333.85V111.5H-343.828V112H-348.817V111.5H-358.796V112H-363.785V111.5H-373.764V112H-378.753V111.5H-388.731V112H-393.721V111.5H-403.699V112H-408.688V111.5H-418.667V112H-423.656V111.5H-433.635V112H-438.624V111.5H-448.603V112H-453.592V111.5H-463.57V112H-468.56V111.5H-478.537V112H-483.526V111.5H-493.505V112H-498.494V111.5H-508.473V112H-513.462V111.5H-523.44V112H-528.43V111.5H-538.408V112H-543.397V111.5H-553.376V112H-558.365V111.5H-568.344V112H-573.333V111.5H-583.312V112H-588.301V111.5H-598.279V112H-603.269V111.5H-613.247V112H-618.236V111.5H-628.215V112H-633.204V111.5H-643.183V112H-648.172V111.5H-658.15V112H-663.14V111.5H-673.118V112H-678.107V111.5H-688.086V112H-693.075V111.5H-703.054V112H-708.043V111.5H-718.021V112H-723.011V111.5H-728C-729.393 111.5 -730.757 111.379 -732.083 111.146L-732.17 111.638C-733.562 111.394 -734.913 111.03 -736.211 110.558L-736.04 110.089C-738.64 109.142 -741.026 107.75 -743.105 106.003L-743.427 106.384C-744.496 105.485 -745.486 104.495 -746.385 103.426L-746.003 103.105C-747.75 101.026 -749.142 98.64 -750.089 96.04L-750.559 96.21C-751.031 94.9116 -751.395 93.5609 -751.639 92.1689L-751.146 92.083C-751.379 90.7573 -751.5 89.393 -751.5 88V83.1113H-752V78.2227H-751.5V68.4443H-752V63.5557H-751.5V53.7773H-752V48.8887H-751.5V39.1113H-752V34.2227H-751.5V24.4443H-752V19.5557H-751.5V9.77734H-752V4.88867H-751.5V0C-751.5 -1.393 -751.379 -2.75727 -751.146 -4.08301L-751.639 -4.16992C-751.427 -5.37923 -751.125 -6.5575 -750.739 -7.69727L-750.559 -8.21094L-750.089 -8.04004C-749.142 -10.64 -747.75 -13.026 -746.003 -15.1055L-746.385 -15.4268C-745.486 -16.4964 -744.496 -17.4863 -743.427 -18.3848L-743.105 -18.0029C-741.026 -19.7496 -738.64 -21.1423 -736.04 -22.0889L-736.211 -22.5586C-734.913 -23.0313 -733.562 -23.3948 -732.17 -23.6387L-732.083 -23.1465C-730.757 -23.3787 -729.393 -23.5 -728 -23.5H-723.014V-24H-718.024V-23.5H-708.046V-24H-703.057V-23.5H-693.078V-24H-688.089V-23.5H-678.11V-24H-673.121V-23.5H-663.143V-24H-658.153V-23.5H-648.175V-24H-643.186V-23.5H-633.207V-24H-628.218V-23.5H-618.239V-24H-613.25V-23.5H-603.271V-24H-598.282V-23.5H-588.304V-24H-583.314V-23.5H-573.336V-24H-568.347V-23.5H-558.368V-24H-553.379V-23.5H-543.4V-24H-538.411V-23.5H-528.433V-24H-523.443V-23.5H-513.465V-24H-508.476V-23.5H-498.497V-24H-493.508V-23.5H-483.529V-24H-478.54V-23.5H-468.562V-24H-463.572V-23.5H-453.594V-24H-448.604V-23.5H-438.626V-24H-433.637V-23.5H-423.658V-24H-418.669V-23.5H-408.69V-24H-403.701V-23.5H-393.723V-24H-388.733V-23.5H-378.755V-24H-373.766V-23.5H-363.787V-24H-358.798V-23.5H-348.819V-24H-343.83V-23.5H-333.852V-24H-328.862V-23.5H-318.884V-24H-313.895V-23.5H-303.916V-24H-298.927V-23.5H-288.948V-24H-283.959V-23.5H-273.98V-24H-268.991V-23.5H-259.013V-24H-254.023V-23.5H-244.045V-24H-239.056V-23.5H-229.077V-24H-224.088V-23.5H-214.109V-24H-209.12V-23.5H-199.142V-24H-194.152V-23.5H-184.174V-24H-179.185V-23.5H-169.206V-24H-164.217V-23.5H-154.238V-24H-149.249V-23.5H-139.271V-24H-134.281V-23.5H-124.303V-24H-119.313V-23.5H-109.335V-24H-104.346V-23.5H-94.3672V-24H-89.3779V-23.5H-79.3994V-24H-74.4102V-23.5H-64.4316V-24H-59.4424V-23.5H-49.4639V-24H-44.4746V-23.5H-34.4961V-24H-29.5068V-23.5H-19.5283V-24H-14.5391V-23.5H-4.56055V-24H0.428711V-23.5H10.4072V-24H15.3965V-23.5H25.375V-24H30.3643V-23.5H40.3428V-24H45.332V-23.5H55.3105V-24H60.2998V-23.5H70.2783V-24H75.2676V-23.5H85.2461V-24H90.2354V-23.5H100.214V-24H105.203V-23.5H115.182V-24H120.171V-23.5H130.149V-24H135.139V-23.5H145.117V-24H150.106V-23.5H160.085V-24H165.074V-23.5H175.053V-24H180.042V-23.5H190.021V-24H195.01V-23.5H204.988V-24H209.978V-23.5H219.956V-24H224.945V-23.5H234.924V-24H239.913V-23.5H249.892V-24H254.881V-23.5H264.859V-24H269.849V-23.5H279.827V-24H284.816V-23.5H294.795V-24H299.784V-23.5H309.763V-24H314.752V-23.5H324.73V-24H329.72V-23.5H339.698V-24H344.688V-23.5H354.666V-24H359.655V-23.5H369.634V-24H374.623V-23.5H384.602V-24H389.591V-23.5H399.569V-24H404.559V-23.5H414.537V-24H419.526V-23.5H429.505V-24H434.494V-23.5H444.473V-24H449.462V-23.5H459.44V-24H464.43V-23.5H474.408V-24H479.397V-23.5H489.376V-24H494.365V-23.5H504.344V-24H509.333V-23.5H519.312V-24H524.301V-23.5H534.279V-24H539.269V-23.5H549.247V-24H554.236V-23.5H564.215V-24H569.204V-23.5H579.183V-24H584.172V-23.5H594.15V-24H599.14V-23.5H609.118V-24H614.107V-23.5H624.086V-24H629.075V-23.5H639.054V-24H644.043V-23.5H654.021V-24H659.011V-23.5H668.989V-24H673.979V-23.5H683.957V-24H688.946V-23.5H698.925V-24H703.914V-23.5H713.893V-24H718.882V-23.5H728.86V-24H733.85V-23.5H743.828V-24H748.817V-23.5H758.796V-24H763.785V-23.5H773.764V-24H778.753V-23.5H788.731V-24H793.721V-23.5H803.699V-24H808.688V-23.5H818.667V-24H823.656V-23.5H833.635V-24H838.624V-23.5H848.603V-24H853.592V-23.5H863.57V-24H868.56V-23.5H878.538V-24H883.527V-23.5H893.506V-24H898.494V-23.5H908.473V-24H913.462V-23.5H923.44V-24H928.43V-23.5H938.408V-24H943.397V-23.5H953.376V-24H958.365V-23.5H968.344V-24H973.333V-23.5H983.312V-24H988.301V-23.5H998.279V-24H1003.27V-23.5H1013.25V-24H1018.24V-23.5H1028.21V-24H1033.2V-23.5H1043.18V-24H1048.17V-23.5H1058.15V-24H1063.14V-23.5H1073.12V-24H1078.11V-23.5H1088.09V-24H1093.08V-23.5H1103.05V-24H1108.04V-23.5H1118.02V-24H1123.01V-23.5H1128C1129.39 -23.5 1130.76 -23.3787 1132.08 -23.1465L1132.17 -23.6387C1133.56 -23.3949 1134.91 -23.0312 1136.21 -22.5586L1136.04 -22.0889C1138.64 -21.1423 1141.03 -19.7496 1143.11 -18.0029L1143.43 -18.3848C1144.5 -17.4863 1145.49 -16.4964 1146.38 -15.4268L1146 -15.1055C1147.75 -13.026 1149.14 -10.64 1150.09 -8.04004L1150.56 -8.21094Z" stroke="#8A38F5" stroke-dasharray="10 5"/>
<g id="Name=&#208;&#159;&#208;&#190;&#208;&#184;&#209;&#129;&#208;&#186;">
<g id="Group 2087326351">
<rect id="Rectangle 1005440" x="10.9688" y="14.8164" width="64.5793" height="42.872" rx="8.09939" fill="#E7C1FF"/>
<circle id="Ellipse 127" cx="19.8948" cy="23.0433" r="4.85771" fill="#6600BA"/>
<circle id="Ellipse 129" cx="31.5535" cy="23.0433" r="4.85771" fill="#2DA771"/>
<circle id="Ellipse 144" cx="53.2502" cy="47.5507" r="12.6281" transform="rotate(-30.358 53.2502 47.5507)" stroke="#6600BA" stroke-width="9.45831"/>
<path id="Vector 80" d="M64.3002 76.2788C65.6202 78.5325 68.5173 79.2894 70.771 77.9694C73.0247 76.6494 73.7816 73.7523 72.4616 71.4986L68.3809 73.8887L64.3002 76.2788ZM58.8345 57.5898L54.7538 59.98L64.3002 76.2788L68.3809 73.8887L72.4616 71.4986L62.9152 55.1997L58.8345 57.5898Z" fill="#6600BA"/>
<g id="Intersect" filter="url(#filter0_f_6227_5096)">
<path d="M44.8676 32.3504C53.0807 27.8156 63.4589 30.6348 68.2279 38.7772L68.4496 39.1668C71.7802 45.199 71.1439 52.3994 67.3451 57.6873H59.1879L57.2426 54.3651C61.0065 52.1602 62.2704 47.3216 60.0658 43.5574C57.8611 39.7934 53.0224 38.5288 49.2582 40.7332C45.4939 42.938 44.2292 47.7775 46.434 51.5418C48.6388 55.306 53.4783 56.5698 57.2426 54.3651L59.1879 57.6873H39.1605C38.9326 57.3697 38.7133 57.0428 38.5043 56.7059L38.2728 56.3221C33.428 48.0503 36.2062 37.4169 44.4779 32.5721L44.8676 32.3504Z" fill="#E7C1FF"/>
</g>
</g>
</g>
</g>
<defs>
<filter id="filter0_f_6227_5096" x="26.642" y="20.9413" width="53.2165" height="45.9943" filterUnits="userSpaceOnUse" color-interpolation-filters="sRGB">
<feFlood flood-opacity="0" result="BackgroundImageFix"/>
<feBlend mode="normal" in="SourceGraphic" in2="BackgroundImageFix" result="shape"/>
<feGaussianBlur stdDeviation="4.62406" result="effect1_foregroundBlur_6227_5096"/>
</filter>
</defs>
</svg>
