<svg width="95" height="102" viewBox="0 0 95 102" fill="none" xmlns="http://www.w3.org/2000/svg">
<rect width="95" height="102" fill="#545454"/>
<g id="Small Image">
<path d="M1365.41 0.814453C1365.88 2.11285 1366.25 3.46347 1366.49 4.85547L1366 4.94238C1366.23 6.26812 1366.35 7.63239 1366.35 9.02539V13.9141H1366.85V18.8027H1366.35V28.5811H1366.85V33.4697H1366.35V43.248H1366.85V48.1367H1366.35V57.9141H1366.85V62.8027H1366.35V72.5811H1366.85V77.4697H1366.35V87.248H1366.85V92.1367H1366.35V97.0254C1366.35 98.4184 1366.23 99.7827 1366 101.108L1366.49 101.194C1366.25 102.586 1365.88 103.937 1365.41 105.235L1364.94 105.065C1364 107.665 1362.6 110.051 1360.86 112.131L1361.24 112.451C1360.34 113.521 1359.35 114.511 1358.28 115.409L1357.96 115.028C1355.88 116.775 1353.49 118.168 1350.89 119.114L1351.06 119.583C1349.77 120.056 1348.42 120.419 1347.02 120.663L1346.94 120.172C1345.61 120.404 1344.25 120.525 1342.85 120.525H1337.87V121.025H1332.88V120.525H1322.9V121.025H1317.91V120.525H1307.93V121.025H1302.94V120.525H1292.96V121.025H1287.98V120.525H1278V121.025H1273.01V120.525H1263.03V121.025H1258.04V120.525H1248.06V121.025H1243.07V120.525H1233.09V121.025H1228.1V120.525H1218.13V121.025H1213.14V120.525H1203.16V121.025H1198.17V120.525H1188.19V121.025H1183.2V120.525H1173.22V121.025H1168.23V120.525H1158.25V121.025H1153.27V120.525H1143.29V121.025H1138.3V120.525H1128.32V121.025H1123.33V120.525H1113.35V121.025H1108.36V120.525H1098.38V121.025H1093.39V120.525H1083.42V121.025H1078.43V120.525H1068.45V121.025H1063.46V120.525H1053.48V121.025H1048.49V120.525H1038.51V121.025H1033.52V120.525H1023.54V121.025H1018.56V120.525H1008.58V121.025H1003.59V120.525H993.609V121.025H988.62V120.525H978.642V121.025H973.652V120.525H963.674V121.025H958.685V120.525H948.706V121.025H943.717V120.525H933.738V121.025H928.749V120.525H918.771V121.025H913.781V120.525H903.803V121.025H898.813V120.525H888.835V121.025H883.846V120.525H873.867V121.025H868.878V120.525H858.899V121.025H853.91V120.525H843.932V121.025H838.942V120.525H828.964V121.025H823.975V120.525H813.996V121.025H809.007V120.525H799.028V121.025H794.039V120.525H784.061V121.025H779.071V120.525H769.093V121.025H764.104V120.525H754.125V121.025H749.136V120.525H739.157V121.025H734.168V120.525H724.189V121.025H719.2V120.525H709.222V121.025H704.232V120.525H694.254V121.025H689.265V120.525H679.286V121.025H674.297V120.525H664.318V121.025H659.329V120.525H649.351V121.025H644.361V120.525H634.383V121.025H629.394V120.525H619.415V121.025H614.426V120.525H604.447V121.025H599.458V120.525H589.479V121.025H584.49V120.525H574.512V121.025H569.522V120.525H559.544V121.025H554.555V120.525H544.576V121.025H539.587V120.525H529.608V121.025H524.619V120.525H514.641V121.025H509.651V120.525H499.673V121.025H494.684V120.525H484.705V121.025H479.716V120.525H469.737V121.025H464.748V120.525H454.77V121.025H449.78V120.525H439.802V121.025H434.812V120.525H424.834V121.025H419.845V120.525H409.866V121.025H404.877V120.525H394.898V121.025H389.909V120.525H379.931V121.025H374.941V120.525H364.963V121.025H359.974V120.525H349.995V121.025H345.006V120.525H335.027V121.025H330.038V120.525H320.06V121.025H315.07V120.525H305.092V121.025H300.103V120.525H290.124V121.025H285.135V120.525H275.156V121.025H270.167V120.525H260.188V121.025H255.199V120.525H245.221V121.025H240.231V120.525H230.253V121.025H225.264V120.525H215.285V121.025H210.296V120.525H200.317V121.025H195.328V120.525H185.35V121.025H180.36V120.525H170.382V121.025H165.393V120.525H155.414V121.025H150.425V120.525H140.446V121.025H135.457V120.525H125.479V121.025H120.489V120.525H110.511V121.025H105.521V120.525H95.543V121.025H90.5537V120.525H80.5752V121.025H75.5859V120.525H65.6074V121.025H60.6182V120.525H50.6396V121.025H45.6504V120.525H35.6719V121.025H30.6826V120.525H20.7041V121.025H15.7148V120.525H5.73633V121.025H0.74707V120.525H-9.23145V121.025H-14.2207V120.525H-24.1992V121.025H-29.1885V120.525H-39.167V121.025H-44.1562V120.525H-54.1348V121.025H-59.124V120.525H-69.1025V121.025H-74.0918V120.525H-84.0703V121.025H-89.0596V120.525H-99.0381V121.025H-104.027V120.525H-114.006V121.025H-118.995V120.525H-128.974V121.025H-133.963V120.525H-143.941V121.025H-148.931V120.525H-158.909V121.025H-163.898V120.525H-173.877V121.025H-178.866V120.525H-188.845V121.025H-193.834V120.525H-203.812V121.025H-208.802V120.525H-218.78V121.025H-223.77V120.525H-233.748V121.025H-238.737V120.525H-248.716V121.025H-253.705V120.525H-263.683V121.025H-268.672V120.525H-278.65V121.025H-283.64V120.525H-293.618V121.025H-298.607V120.525H-308.586V121.025H-313.575V120.525H-323.554V121.025H-328.543V120.525H-338.521V121.025H-343.511V120.525H-353.489V121.025H-358.479V120.525H-368.457V121.025H-373.446V120.525H-383.425V121.025H-388.414V120.525H-398.393V121.025H-403.382V120.525H-413.36V121.025H-418.35V120.525H-428.328V121.025H-433.317V120.525H-443.296V121.025H-448.285V120.525H-458.264V121.025H-463.253V120.525H-473.231V121.025H-478.221V120.525H-488.199V121.025H-493.188V120.525H-503.167V121.025H-508.156V120.525H-513.146C-514.539 120.525 -515.903 120.404 -517.229 120.172L-517.315 120.663C-518.707 120.419 -520.058 120.056 -521.356 119.583L-521.186 119.114C-523.785 118.168 -526.172 116.775 -528.251 115.028L-528.572 115.409C-529.642 114.511 -530.632 113.521 -531.53 112.451L-531.148 112.131C-532.895 110.051 -534.288 107.665 -535.234 105.065L-535.704 105.235C-536.177 103.937 -536.54 102.586 -536.784 101.194L-536.292 101.108C-536.524 99.7827 -536.646 98.4184 -536.646 97.0254V92.1367H-537.146V87.248H-536.646V77.4697H-537.146V72.5811H-536.646V62.8027H-537.146V57.9141H-536.646V48.1367H-537.146V43.248H-536.646V33.4697H-537.146V28.5811H-536.646V18.8027H-537.146V13.9141H-536.646V9.02539C-536.646 7.63239 -536.524 6.26812 -536.292 4.94238L-536.784 4.85547C-536.572 3.64616 -536.27 2.46789 -535.885 1.32812L-535.704 0.814453L-535.234 0.985352C-534.288 -1.61458 -532.895 -4.00066 -531.148 -6.08008L-531.53 -6.40137C-530.632 -7.47097 -529.642 -8.46093 -528.572 -9.35938L-528.251 -8.97754C-526.172 -10.7242 -523.785 -12.1169 -521.186 -13.0635L-521.356 -13.5332C-520.058 -14.0059 -518.707 -14.3694 -517.315 -14.6133L-517.229 -14.1211C-515.903 -14.3533 -514.539 -14.4746 -513.146 -14.4746H-508.159V-14.9746H-503.17V-14.4746H-493.191V-14.9746H-488.202V-14.4746H-478.224V-14.9746H-473.234V-14.4746H-463.256V-14.9746H-458.267V-14.4746H-448.288V-14.9746H-443.299V-14.4746H-433.32V-14.9746H-428.331V-14.4746H-418.353V-14.9746H-413.363V-14.4746H-403.385V-14.9746H-398.396V-14.4746H-388.417V-14.9746H-383.428V-14.4746H-373.449V-14.9746H-368.46V-14.4746H-358.481V-14.9746H-353.492V-14.4746H-343.514V-14.9746H-338.524V-14.4746H-328.546V-14.9746H-323.557V-14.4746H-313.578V-14.9746H-308.589V-14.4746H-298.61V-14.9746H-293.621V-14.4746H-283.643V-14.9746H-278.653V-14.4746H-268.675V-14.9746H-263.686V-14.4746H-253.707V-14.9746H-248.718V-14.4746H-238.739V-14.9746H-233.75V-14.4746H-223.771V-14.9746H-218.782V-14.4746H-208.804V-14.9746H-203.814V-14.4746H-193.836V-14.9746H-188.847V-14.4746H-178.868V-14.9746H-173.879V-14.4746H-163.9V-14.9746H-158.911V-14.4746H-148.933V-14.9746H-143.943V-14.4746H-133.965V-14.9746H-128.976V-14.4746H-118.997V-14.9746H-114.008V-14.4746H-104.029V-14.9746H-99.04V-14.4746H-89.0615V-14.9746H-84.0723V-14.4746H-74.0938V-14.9746H-69.1045V-14.4746H-59.126V-14.9746H-54.1367V-14.4746H-44.1582V-14.9746H-39.1689V-14.4746H-29.1904V-14.9746H-24.2012V-14.4746H-14.2227V-14.9746H-9.2334V-14.4746H0.745117V-14.9746H5.73438V-14.4746H15.7129V-14.9746H20.7021V-14.4746H30.6807V-14.9746H35.6699V-14.4746H45.6484V-14.9746H50.6377V-14.4746H60.6162V-14.9746H65.6055V-14.4746H75.584V-14.9746H80.5732V-14.4746H90.5518V-14.9746H95.541V-14.4746H105.52V-14.9746H110.509V-14.4746H120.487V-14.9746H125.477V-14.4746H135.455V-14.9746H140.444V-14.4746H150.423V-14.9746H155.412V-14.4746H165.391V-14.9746H170.38V-14.4746H180.358V-14.9746H185.348V-14.4746H195.326V-14.9746H200.315V-14.4746H210.294V-14.9746H215.283V-14.4746H225.262V-14.9746H230.251V-14.4746H240.229V-14.9746H245.219V-14.4746H255.197V-14.9746H260.187V-14.4746H270.165V-14.9746H275.154V-14.4746H285.133V-14.9746H290.122V-14.4746H300.101V-14.9746H305.09V-14.4746H315.068V-14.9746H320.058V-14.4746H330.036V-14.9746H335.025V-14.4746H345.004V-14.9746H349.993V-14.4746H359.972V-14.9746H364.961V-14.4746H374.939V-14.9746H379.929V-14.4746H389.907V-14.9746H394.896V-14.4746H404.875V-14.9746H409.864V-14.4746H419.843V-14.9746H424.832V-14.4746H434.811V-14.9746H439.8V-14.4746H449.778V-14.9746H454.768V-14.4746H464.746V-14.9746H469.735V-14.4746H479.714V-14.9746H484.703V-14.4746H494.682V-14.9746H499.671V-14.4746H509.649V-14.9746H514.639V-14.4746H524.617V-14.9746H529.606V-14.4746H539.585V-14.9746H544.574V-14.4746H554.553V-14.9746H559.542V-14.4746H569.521V-14.9746H574.51V-14.4746H584.488V-14.9746H589.478V-14.4746H599.456V-14.9746H604.445V-14.4746H614.424V-14.9746H619.413V-14.4746H629.392V-14.9746H634.381V-14.4746H644.359V-14.9746H649.349V-14.4746H659.327V-14.9746H664.316V-14.4746H674.295V-14.9746H679.284V-14.4746H689.263V-14.9746H694.252V-14.4746H704.23V-14.9746H709.22V-14.4746H719.198V-14.9746H724.188V-14.4746H734.166V-14.9746H739.155V-14.4746H749.134V-14.9746H754.123V-14.4746H764.102V-14.9746H769.091V-14.4746H779.069V-14.9746H784.059V-14.4746H794.037V-14.9746H799.026V-14.4746H809.005V-14.9746H813.994V-14.4746H823.973V-14.9746H828.962V-14.4746H838.94V-14.9746H843.93V-14.4746H853.908V-14.9746H858.897V-14.4746H868.876V-14.9746H873.865V-14.4746H883.844V-14.9746H888.833V-14.4746H898.812V-14.9746H903.801V-14.4746H913.779V-14.9746H918.769V-14.4746H928.747V-14.9746H933.736V-14.4746H943.715V-14.9746H948.704V-14.4746H958.683V-14.9746H963.672V-14.4746H973.65V-14.9746H978.64V-14.4746H988.618V-14.9746H993.607V-14.4746H1003.59V-14.9746H1008.58V-14.4746H1018.55V-14.9746H1023.54V-14.4746H1033.52V-14.9746H1038.51V-14.4746H1048.49V-14.9746H1053.48V-14.4746H1063.46V-14.9746H1068.45V-14.4746H1078.42V-14.9746H1083.41V-14.4746H1093.39V-14.9746H1098.38V-14.4746H1108.36V-14.9746H1113.35V-14.4746H1123.33V-14.9746H1128.32V-14.4746H1138.29V-14.9746H1143.28V-14.4746H1153.26V-14.9746H1158.25V-14.4746H1168.23V-14.9746H1173.22V-14.4746H1183.2V-14.9746H1188.19V-14.4746H1198.17V-14.9746H1203.16V-14.4746H1213.13V-14.9746H1218.12V-14.4746H1228.1V-14.9746H1233.09V-14.4746H1243.07V-14.9746H1248.06V-14.4746H1258.04V-14.9746H1263.03V-14.4746H1273V-14.9746H1277.99V-14.4746H1287.97V-14.9746H1292.96V-14.4746H1302.94V-14.9746H1307.93V-14.4746H1317.91V-14.9746H1322.9V-14.4746H1332.88V-14.9746H1337.87V-14.4746H1342.85C1344.25 -14.4746 1345.61 -14.3533 1346.94 -14.1211L1347.02 -14.6133C1348.42 -14.3695 1349.77 -14.0059 1351.06 -13.5332L1350.89 -13.0635C1353.49 -12.1169 1355.88 -10.7242 1357.96 -8.97754L1358.28 -9.35938C1359.35 -8.46093 1360.34 -7.47097 1361.24 -6.40137L1360.86 -6.08008C1362.6 -4.00066 1364 -1.61458 1364.94 0.985352L1365.41 0.814453Z" fill="white"/>
<path d="M1365.41 0.814453C1365.88 2.11285 1366.25 3.46347 1366.49 4.85547L1366 4.94238C1366.23 6.26812 1366.35 7.63239 1366.35 9.02539V13.9141H1366.85V18.8027H1366.35V28.5811H1366.85V33.4697H1366.35V43.248H1366.85V48.1367H1366.35V57.9141H1366.85V62.8027H1366.35V72.5811H1366.85V77.4697H1366.35V87.248H1366.85V92.1367H1366.35V97.0254C1366.35 98.4184 1366.23 99.7827 1366 101.108L1366.49 101.194C1366.25 102.586 1365.88 103.937 1365.41 105.235L1364.94 105.065C1364 107.665 1362.6 110.051 1360.86 112.131L1361.24 112.451C1360.34 113.521 1359.35 114.511 1358.28 115.409L1357.96 115.028C1355.88 116.775 1353.49 118.168 1350.89 119.114L1351.06 119.583C1349.77 120.056 1348.42 120.419 1347.02 120.663L1346.94 120.172C1345.61 120.404 1344.25 120.525 1342.85 120.525H1337.87V121.025H1332.88V120.525H1322.9V121.025H1317.91V120.525H1307.93V121.025H1302.94V120.525H1292.96V121.025H1287.98V120.525H1278V121.025H1273.01V120.525H1263.03V121.025H1258.04V120.525H1248.06V121.025H1243.07V120.525H1233.09V121.025H1228.1V120.525H1218.13V121.025H1213.14V120.525H1203.16V121.025H1198.17V120.525H1188.19V121.025H1183.2V120.525H1173.22V121.025H1168.23V120.525H1158.25V121.025H1153.27V120.525H1143.29V121.025H1138.3V120.525H1128.32V121.025H1123.33V120.525H1113.35V121.025H1108.36V120.525H1098.38V121.025H1093.39V120.525H1083.42V121.025H1078.43V120.525H1068.45V121.025H1063.46V120.525H1053.48V121.025H1048.49V120.525H1038.51V121.025H1033.52V120.525H1023.54V121.025H1018.56V120.525H1008.58V121.025H1003.59V120.525H993.609V121.025H988.62V120.525H978.642V121.025H973.652V120.525H963.674V121.025H958.685V120.525H948.706V121.025H943.717V120.525H933.738V121.025H928.749V120.525H918.771V121.025H913.781V120.525H903.803V121.025H898.813V120.525H888.835V121.025H883.846V120.525H873.867V121.025H868.878V120.525H858.899V121.025H853.91V120.525H843.932V121.025H838.942V120.525H828.964V121.025H823.975V120.525H813.996V121.025H809.007V120.525H799.028V121.025H794.039V120.525H784.061V121.025H779.071V120.525H769.093V121.025H764.104V120.525H754.125V121.025H749.136V120.525H739.157V121.025H734.168V120.525H724.189V121.025H719.2V120.525H709.222V121.025H704.232V120.525H694.254V121.025H689.265V120.525H679.286V121.025H674.297V120.525H664.318V121.025H659.329V120.525H649.351V121.025H644.361V120.525H634.383V121.025H629.394V120.525H619.415V121.025H614.426V120.525H604.447V121.025H599.458V120.525H589.479V121.025H584.49V120.525H574.512V121.025H569.522V120.525H559.544V121.025H554.555V120.525H544.576V121.025H539.587V120.525H529.608V121.025H524.619V120.525H514.641V121.025H509.651V120.525H499.673V121.025H494.684V120.525H484.705V121.025H479.716V120.525H469.737V121.025H464.748V120.525H454.77V121.025H449.78V120.525H439.802V121.025H434.812V120.525H424.834V121.025H419.845V120.525H409.866V121.025H404.877V120.525H394.898V121.025H389.909V120.525H379.931V121.025H374.941V120.525H364.963V121.025H359.974V120.525H349.995V121.025H345.006V120.525H335.027V121.025H330.038V120.525H320.06V121.025H315.07V120.525H305.092V121.025H300.103V120.525H290.124V121.025H285.135V120.525H275.156V121.025H270.167V120.525H260.188V121.025H255.199V120.525H245.221V121.025H240.231V120.525H230.253V121.025H225.264V120.525H215.285V121.025H210.296V120.525H200.317V121.025H195.328V120.525H185.35V121.025H180.36V120.525H170.382V121.025H165.393V120.525H155.414V121.025H150.425V120.525H140.446V121.025H135.457V120.525H125.479V121.025H120.489V120.525H110.511V121.025H105.521V120.525H95.543V121.025H90.5537V120.525H80.5752V121.025H75.5859V120.525H65.6074V121.025H60.6182V120.525H50.6396V121.025H45.6504V120.525H35.6719V121.025H30.6826V120.525H20.7041V121.025H15.7148V120.525H5.73633V121.025H0.74707V120.525H-9.23145V121.025H-14.2207V120.525H-24.1992V121.025H-29.1885V120.525H-39.167V121.025H-44.1562V120.525H-54.1348V121.025H-59.124V120.525H-69.1025V121.025H-74.0918V120.525H-84.0703V121.025H-89.0596V120.525H-99.0381V121.025H-104.027V120.525H-114.006V121.025H-118.995V120.525H-128.974V121.025H-133.963V120.525H-143.941V121.025H-148.931V120.525H-158.909V121.025H-163.898V120.525H-173.877V121.025H-178.866V120.525H-188.845V121.025H-193.834V120.525H-203.812V121.025H-208.802V120.525H-218.78V121.025H-223.77V120.525H-233.748V121.025H-238.737V120.525H-248.716V121.025H-253.705V120.525H-263.683V121.025H-268.672V120.525H-278.65V121.025H-283.64V120.525H-293.618V121.025H-298.607V120.525H-308.586V121.025H-313.575V120.525H-323.554V121.025H-328.543V120.525H-338.521V121.025H-343.511V120.525H-353.489V121.025H-358.479V120.525H-368.457V121.025H-373.446V120.525H-383.425V121.025H-388.414V120.525H-398.393V121.025H-403.382V120.525H-413.36V121.025H-418.35V120.525H-428.328V121.025H-433.317V120.525H-443.296V121.025H-448.285V120.525H-458.264V121.025H-463.253V120.525H-473.231V121.025H-478.221V120.525H-488.199V121.025H-493.188V120.525H-503.167V121.025H-508.156V120.525H-513.146C-514.539 120.525 -515.903 120.404 -517.229 120.172L-517.315 120.663C-518.707 120.419 -520.058 120.056 -521.356 119.583L-521.186 119.114C-523.785 118.168 -526.172 116.775 -528.251 115.028L-528.572 115.409C-529.642 114.511 -530.632 113.521 -531.53 112.451L-531.148 112.131C-532.895 110.051 -534.288 107.665 -535.234 105.065L-535.704 105.235C-536.177 103.937 -536.54 102.586 -536.784 101.194L-536.292 101.108C-536.524 99.7827 -536.646 98.4184 -536.646 97.0254V92.1367H-537.146V87.248H-536.646V77.4697H-537.146V72.5811H-536.646V62.8027H-537.146V57.9141H-536.646V48.1367H-537.146V43.248H-536.646V33.4697H-537.146V28.5811H-536.646V18.8027H-537.146V13.9141H-536.646V9.02539C-536.646 7.63239 -536.524 6.26812 -536.292 4.94238L-536.784 4.85547C-536.572 3.64616 -536.27 2.46789 -535.885 1.32812L-535.704 0.814453L-535.234 0.985352C-534.288 -1.61458 -532.895 -4.00066 -531.148 -6.08008L-531.53 -6.40137C-530.632 -7.47097 -529.642 -8.46093 -528.572 -9.35938L-528.251 -8.97754C-526.172 -10.7242 -523.785 -12.1169 -521.186 -13.0635L-521.356 -13.5332C-520.058 -14.0059 -518.707 -14.3694 -517.315 -14.6133L-517.229 -14.1211C-515.903 -14.3533 -514.539 -14.4746 -513.146 -14.4746H-508.159V-14.9746H-503.17V-14.4746H-493.191V-14.9746H-488.202V-14.4746H-478.224V-14.9746H-473.234V-14.4746H-463.256V-14.9746H-458.267V-14.4746H-448.288V-14.9746H-443.299V-14.4746H-433.32V-14.9746H-428.331V-14.4746H-418.353V-14.9746H-413.363V-14.4746H-403.385V-14.9746H-398.396V-14.4746H-388.417V-14.9746H-383.428V-14.4746H-373.449V-14.9746H-368.46V-14.4746H-358.481V-14.9746H-353.492V-14.4746H-343.514V-14.9746H-338.524V-14.4746H-328.546V-14.9746H-323.557V-14.4746H-313.578V-14.9746H-308.589V-14.4746H-298.61V-14.9746H-293.621V-14.4746H-283.643V-14.9746H-278.653V-14.4746H-268.675V-14.9746H-263.686V-14.4746H-253.707V-14.9746H-248.718V-14.4746H-238.739V-14.9746H-233.75V-14.4746H-223.771V-14.9746H-218.782V-14.4746H-208.804V-14.9746H-203.814V-14.4746H-193.836V-14.9746H-188.847V-14.4746H-178.868V-14.9746H-173.879V-14.4746H-163.9V-14.9746H-158.911V-14.4746H-148.933V-14.9746H-143.943V-14.4746H-133.965V-14.9746H-128.976V-14.4746H-118.997V-14.9746H-114.008V-14.4746H-104.029V-14.9746H-99.04V-14.4746H-89.0615V-14.9746H-84.0723V-14.4746H-74.0938V-14.9746H-69.1045V-14.4746H-59.126V-14.9746H-54.1367V-14.4746H-44.1582V-14.9746H-39.1689V-14.4746H-29.1904V-14.9746H-24.2012V-14.4746H-14.2227V-14.9746H-9.2334V-14.4746H0.745117V-14.9746H5.73438V-14.4746H15.7129V-14.9746H20.7021V-14.4746H30.6807V-14.9746H35.6699V-14.4746H45.6484V-14.9746H50.6377V-14.4746H60.6162V-14.9746H65.6055V-14.4746H75.584V-14.9746H80.5732V-14.4746H90.5518V-14.9746H95.541V-14.4746H105.52V-14.9746H110.509V-14.4746H120.487V-14.9746H125.477V-14.4746H135.455V-14.9746H140.444V-14.4746H150.423V-14.9746H155.412V-14.4746H165.391V-14.9746H170.38V-14.4746H180.358V-14.9746H185.348V-14.4746H195.326V-14.9746H200.315V-14.4746H210.294V-14.9746H215.283V-14.4746H225.262V-14.9746H230.251V-14.4746H240.229V-14.9746H245.219V-14.4746H255.197V-14.9746H260.187V-14.4746H270.165V-14.9746H275.154V-14.4746H285.133V-14.9746H290.122V-14.4746H300.101V-14.9746H305.09V-14.4746H315.068V-14.9746H320.058V-14.4746H330.036V-14.9746H335.025V-14.4746H345.004V-14.9746H349.993V-14.4746H359.972V-14.9746H364.961V-14.4746H374.939V-14.9746H379.929V-14.4746H389.907V-14.9746H394.896V-14.4746H404.875V-14.9746H409.864V-14.4746H419.843V-14.9746H424.832V-14.4746H434.811V-14.9746H439.8V-14.4746H449.778V-14.9746H454.768V-14.4746H464.746V-14.9746H469.735V-14.4746H479.714V-14.9746H484.703V-14.4746H494.682V-14.9746H499.671V-14.4746H509.649V-14.9746H514.639V-14.4746H524.617V-14.9746H529.606V-14.4746H539.585V-14.9746H544.574V-14.4746H554.553V-14.9746H559.542V-14.4746H569.521V-14.9746H574.51V-14.4746H584.488V-14.9746H589.478V-14.4746H599.456V-14.9746H604.445V-14.4746H614.424V-14.9746H619.413V-14.4746H629.392V-14.9746H634.381V-14.4746H644.359V-14.9746H649.349V-14.4746H659.327V-14.9746H664.316V-14.4746H674.295V-14.9746H679.284V-14.4746H689.263V-14.9746H694.252V-14.4746H704.23V-14.9746H709.22V-14.4746H719.198V-14.9746H724.188V-14.4746H734.166V-14.9746H739.155V-14.4746H749.134V-14.9746H754.123V-14.4746H764.102V-14.9746H769.091V-14.4746H779.069V-14.9746H784.059V-14.4746H794.037V-14.9746H799.026V-14.4746H809.005V-14.9746H813.994V-14.4746H823.973V-14.9746H828.962V-14.4746H838.94V-14.9746H843.93V-14.4746H853.908V-14.9746H858.897V-14.4746H868.876V-14.9746H873.865V-14.4746H883.844V-14.9746H888.833V-14.4746H898.812V-14.9746H903.801V-14.4746H913.779V-14.9746H918.769V-14.4746H928.747V-14.9746H933.736V-14.4746H943.715V-14.9746H948.704V-14.4746H958.683V-14.9746H963.672V-14.4746H973.65V-14.9746H978.64V-14.4746H988.618V-14.9746H993.607V-14.4746H1003.59V-14.9746H1008.58V-14.4746H1018.55V-14.9746H1023.54V-14.4746H1033.52V-14.9746H1038.51V-14.4746H1048.49V-14.9746H1053.48V-14.4746H1063.46V-14.9746H1068.45V-14.4746H1078.42V-14.9746H1083.41V-14.4746H1093.39V-14.9746H1098.38V-14.4746H1108.36V-14.9746H1113.35V-14.4746H1123.33V-14.9746H1128.32V-14.4746H1138.29V-14.9746H1143.28V-14.4746H1153.26V-14.9746H1158.25V-14.4746H1168.23V-14.9746H1173.22V-14.4746H1183.2V-14.9746H1188.19V-14.4746H1198.17V-14.9746H1203.16V-14.4746H1213.13V-14.9746H1218.12V-14.4746H1228.1V-14.9746H1233.09V-14.4746H1243.07V-14.9746H1248.06V-14.4746H1258.04V-14.9746H1263.03V-14.4746H1273V-14.9746H1277.99V-14.4746H1287.97V-14.9746H1292.96V-14.4746H1302.94V-14.9746H1307.93V-14.4746H1317.91V-14.9746H1322.9V-14.4746H1332.88V-14.9746H1337.87V-14.4746H1342.85C1344.25 -14.4746 1345.61 -14.3533 1346.94 -14.1211L1347.02 -14.6133C1348.42 -14.3695 1349.77 -14.0059 1351.06 -13.5332L1350.89 -13.0635C1353.49 -12.1169 1355.88 -10.7242 1357.96 -8.97754L1358.28 -9.35938C1359.35 -8.46093 1360.34 -7.47097 1361.24 -6.40137L1360.86 -6.08008C1362.6 -4.00066 1364 -1.61458 1364.94 0.985352L1365.41 0.814453Z" stroke="#8A38F5" stroke-dasharray="10 5"/>
<g id="Name=&#208;&#151;&#208;&#176;&#208;&#180;&#208;&#176;&#209;&#135;&#208;&#184; &#208;&#184; &#208;&#186;&#208;&#190;&#208;&#188;&#208;&#188;&#209;&#131;&#208;&#189;&#208;&#184;&#208;&#186;&#208;&#176;&#209;&#134;&#208;&#184;&#209;&#143; &#208;&#178; &#208;&#186;&#208;&#190;&#208;&#188;&#208;&#176;&#208;&#189;&#208;&#180;&#208;&#181;">
<g id="Group 2087326340">
<path id="Star 4" d="M28.4709 58.5312L31.0544 65.2263L36.6392 60.7199L35.529 67.8098L42.6189 66.6996L38.1125 72.2844L44.8075 74.8679L38.1125 77.4513L42.6189 83.0362L35.529 81.926L36.6392 89.0158L31.0544 84.5094L28.4709 91.2045L25.8875 84.5094L20.3026 89.0158L21.4128 81.926L14.323 83.0362L18.8293 77.4513L12.1343 74.8679L18.8293 72.2844L14.323 66.6996L21.4128 67.8098L20.3026 60.7199L25.8875 65.2263L28.4709 58.5312Z" fill="#2DA771"/>
<path id="Union" d="M78.0659 61.8848H78.062C78.0631 61.9345 78.0659 61.9843 78.0659 62.0342C78.0659 69.5285 65.982 75.6035 51.0757 75.6035C36.1695 75.6034 24.0854 69.5285 24.0854 62.0342C24.0854 61.9843 24.0883 61.9345 24.0894 61.8848H24.0854V44.2891H78.0659V61.8848Z" fill="#FFDF75"/>
<ellipse id="Ellipse 117" cx="51.0763" cy="44.4389" rx="26.9903" ry="13.5697" fill="#FFD359"/>
<circle id="Ellipse 118" cx="51.225" cy="66.0609" r="1.10483" fill="#6600BA" stroke="#6600BA" stroke-width="1.36917"/>
<g id="Ellipse 123">
<mask id="path-7-inside-1_6227_5096" fill="white">
<ellipse cx="51.2249" cy="69.8577" rx="1.19802" ry="1.30693"/>
</mask>
<ellipse cx="51.2249" cy="69.8577" rx="1.19802" ry="1.30693" fill="#6600BA"/>
<path d="M52.4229 69.8577H51.0537C51.0537 69.8782 51.0466 69.8743 51.0627 69.8567C51.0712 69.8474 51.0884 69.8322 51.1176 69.8187C51.1481 69.8046 51.1858 69.7955 51.2249 69.7955V71.1646V72.5338C52.7524 72.5338 53.7921 71.2211 53.7921 69.8577H52.4229ZM51.2249 71.1646V69.7955C51.264 69.7955 51.3016 69.8046 51.3322 69.8187C51.3613 69.8322 51.3785 69.8474 51.387 69.8567C51.4032 69.8743 51.396 69.8782 51.396 69.8577H50.0269H48.6577C48.6577 71.2211 49.6973 72.5338 51.2249 72.5338V71.1646ZM50.0269 69.8577H51.396C51.396 69.8372 51.4032 69.8412 51.387 69.8588C51.3785 69.868 51.3613 69.8832 51.3322 69.8967C51.3016 69.9108 51.264 69.92 51.2249 69.92V68.5508V67.1816C49.6973 67.1816 48.6577 68.4943 48.6577 69.8577H50.0269ZM51.2249 68.5508V69.92C51.1858 69.92 51.1481 69.9108 51.1176 69.8967C51.0884 69.8832 51.0712 69.868 51.0627 69.8588C51.0466 69.8412 51.0537 69.8372 51.0537 69.8577H52.4229H53.7921C53.7921 68.4943 52.7524 67.1816 51.2249 67.1816V68.5508Z" fill="#6600BA" mask="url(#path-7-inside-1_6227_5096)"/>
</g>
<g id="Group 13" filter="url(#filter0_f_6227_5096)">
<circle id="Ellipse 25" cx="40.1898" cy="68.1488" r="1.78941" fill="#FFBFA6"/>
<circle id="Ellipse 26" cx="61.9613" cy="68.1488" r="1.78941" fill="#FFBFA6"/>
</g>
<path id="Fill 10" fill-rule="evenodd" clip-rule="evenodd" d="M45.3302 47.5569C46.2233 48.4332 48.6029 48.958 51.0284 48.9678C53.4539 48.958 55.8336 48.4332 56.7255 47.5569C58.9453 45.3821 53.5505 39.5122 51.0309 39.5C48.5051 39.5122 43.1103 45.3821 45.3302 47.5569Z" fill="#6600BA"/>
<g id="Ellipse 124" filter="url(#filter1_f_6227_5096)">
<circle cx="19.8051" cy="30.915" r="4.40325" fill="#FFBFA6"/>
</g>
<g id="Ellipse 125" filter="url(#filter2_f_6227_5096)">
<circle cx="32.5007" cy="18.3429" r="2.94059" fill="#E7C1FF"/>
</g>
<g id="Ellipse 126" filter="url(#filter3_f_6227_5096)">
<circle cx="69.966" cy="82.8195" r="2.94059" fill="#FFBFA6"/>
</g>
<path id="Ellipse 121" d="M47.8574 65.7192C47.8574 64.5162 46.8822 63.541 45.6792 63.541C44.4762 63.541 43.501 64.5162 43.501 65.7192" stroke="#6600BA" stroke-width="5.48"/>
<path id="Ellipse 122" d="M58.9663 65.7192C58.9663 64.5162 57.9911 63.541 56.7881 63.541C55.5851 63.541 54.6099 64.5162 54.6099 65.7192" stroke="#6600BA" stroke-width="5.48"/>
<path id="Star 3" d="M73.5603 15.1855L76.1437 21.8806L81.7286 17.3742L80.6184 24.4641L87.7082 23.3539L83.2018 28.9387L89.8969 31.5222L83.2018 34.1056L87.7082 39.6905L80.6184 38.5803L81.7286 45.6701L76.1437 41.1637L73.5603 47.8588L70.9768 41.1637L65.3919 45.6701L66.5022 38.5803L59.4123 39.6905L63.9187 34.1056L57.2236 31.5222L63.9187 28.9387L59.4123 23.3539L66.5022 24.4641L65.3919 17.3742L70.9768 21.8806L73.5603 15.1855Z" fill="#E7C1FF"/>
</g>
</g>
</g>
<defs>
<filter id="filter0_f_6227_5096" x="28.0313" y="55.9903" width="46.0882" height="24.3162" filterUnits="userSpaceOnUse" color-interpolation-filters="sRGB">
<feFlood flood-opacity="0" result="BackgroundImageFix"/>
<feBlend mode="normal" in="SourceGraphic" in2="BackgroundImageFix" result="shape"/>
<feGaussianBlur stdDeviation="5.18452" result="effect1_foregroundBlur_6227_5096"/>
</filter>
<filter id="filter1_f_6227_5096" x="-3.8147e-06" y="11.1099" width="39.6104" height="39.6104" filterUnits="userSpaceOnUse" color-interpolation-filters="sRGB">
<feFlood flood-opacity="0" result="BackgroundImageFix"/>
<feBlend mode="normal" in="SourceGraphic" in2="BackgroundImageFix" result="shape"/>
<feGaussianBlur stdDeviation="7.70093" result="effect1_foregroundBlur_6227_5096"/>
</filter>
<filter id="filter2_f_6227_5096" x="14.1582" y="0.000484467" width="36.6851" height="36.6846" filterUnits="userSpaceOnUse" color-interpolation-filters="sRGB">
<feFlood flood-opacity="0" result="BackgroundImageFix"/>
<feBlend mode="normal" in="SourceGraphic" in2="BackgroundImageFix" result="shape"/>
<feGaussianBlur stdDeviation="7.70093" result="effect1_foregroundBlur_6227_5096"/>
</filter>
<filter id="filter3_f_6227_5096" x="51.6235" y="64.477" width="36.6851" height="36.6846" filterUnits="userSpaceOnUse" color-interpolation-filters="sRGB">
<feFlood flood-opacity="0" result="BackgroundImageFix"/>
<feBlend mode="normal" in="SourceGraphic" in2="BackgroundImageFix" result="shape"/>
<feGaussianBlur stdDeviation="7.70093" result="effect1_foregroundBlur_6227_5096"/>
</filter>
</defs>
</svg>
