<svg width="95" height="102" viewBox="0 0 95 102" fill="none" xmlns="http://www.w3.org/2000/svg">
<g id="Small Image"><g id="Name=&#208;&#151;&#208;&#176;&#208;&#180;&#208;&#176;&#209;&#135;&#208;&#184; &#208;&#184; &#208;&#186;&#208;&#190;&#208;&#188;&#208;&#188;&#209;&#131;&#208;&#189;&#208;&#184;&#208;&#186;&#208;&#176;&#209;&#134;&#208;&#184;&#209;&#143; &#208;&#178; &#208;&#186;&#208;&#190;&#208;&#188;&#208;&#176;&#208;&#189;&#208;&#180;&#208;&#181;">
<g id="Group 2087326340">
<path id="Star 4" d="M28.4709 58.5312L31.0544 65.2263L36.6392 60.7199L35.529 67.8098L42.6189 66.6996L38.1125 72.2844L44.8075 74.8679L38.1125 77.4513L42.6189 83.0362L35.529 81.926L36.6392 89.0158L31.0544 84.5094L28.4709 91.2045L25.8875 84.5094L20.3026 89.0158L21.4128 81.926L14.323 83.0362L18.8293 77.4513L12.1343 74.8679L18.8293 72.2844L14.323 66.6996L21.4128 67.8098L20.3026 60.7199L25.8875 65.2263L28.4709 58.5312Z" fill="#2DA771"/>
<path id="Union" d="M78.0659 61.8848H78.062C78.0631 61.9345 78.0659 61.9843 78.0659 62.0342C78.0659 69.5285 65.982 75.6035 51.0757 75.6035C36.1695 75.6034 24.0854 69.5285 24.0854 62.0342C24.0854 61.9843 24.0883 61.9345 24.0894 61.8848H24.0854V44.2891H78.0659V61.8848Z" fill="#FFDF75"/>
<ellipse id="Ellipse 117" cx="51.0763" cy="44.4389" rx="26.9903" ry="13.5697" fill="#FFD359"/>
<circle id="Ellipse 118" cx="51.225" cy="66.0609" r="1.10483" fill="#6600BA" stroke="#6600BA" stroke-width="1.36917"/>
<g id="Ellipse 123">
<mask id="path-7-inside-1_6227_5096" fill="white">
<ellipse cx="51.2249" cy="69.8577" rx="1.19802" ry="1.30693"/>
</mask>
<ellipse cx="51.2249" cy="69.8577" rx="1.19802" ry="1.30693" fill="#6600BA"/>
<path d="M52.4229 69.8577H51.0537C51.0537 69.8782 51.0466 69.8743 51.0627 69.8567C51.0712 69.8474 51.0884 69.8322 51.1176 69.8187C51.1481 69.8046 51.1858 69.7955 51.2249 69.7955V71.1646V72.5338C52.7524 72.5338 53.7921 71.2211 53.7921 69.8577H52.4229ZM51.2249 71.1646V69.7955C51.264 69.7955 51.3016 69.8046 51.3322 69.8187C51.3613 69.8322 51.3785 69.8474 51.387 69.8567C51.4032 69.8743 51.396 69.8782 51.396 69.8577H50.0269H48.6577C48.6577 71.2211 49.6973 72.5338 51.2249 72.5338V71.1646ZM50.0269 69.8577H51.396C51.396 69.8372 51.4032 69.8412 51.387 69.8588C51.3785 69.868 51.3613 69.8832 51.3322 69.8967C51.3016 69.9108 51.264 69.92 51.2249 69.92V68.5508V67.1816C49.6973 67.1816 48.6577 68.4943 48.6577 69.8577H50.0269ZM51.2249 68.5508V69.92C51.1858 69.92 51.1481 69.9108 51.1176 69.8967C51.0884 69.8832 51.0712 69.868 51.0627 69.8588C51.0466 69.8412 51.0537 69.8372 51.0537 69.8577H52.4229H53.7921C53.7921 68.4943 52.7524 67.1816 51.2249 67.1816V68.5508Z" fill="#6600BA" mask="url(#path-7-inside-1_6227_5096)"/>
</g>
<g id="Group 13" filter="url(#filter0_f_6227_5096)">
<circle id="Ellipse 25" cx="40.1898" cy="68.1488" r="1.78941" fill="#FFBFA6"/>
<circle id="Ellipse 26" cx="61.9613" cy="68.1488" r="1.78941" fill="#FFBFA6"/>
</g>
<path id="Fill 10" fill-rule="evenodd" clip-rule="evenodd" d="M45.3302 47.5569C46.2233 48.4332 48.6029 48.958 51.0284 48.9678C53.4539 48.958 55.8336 48.4332 56.7255 47.5569C58.9453 45.3821 53.5505 39.5122 51.0309 39.5C48.5051 39.5122 43.1103 45.3821 45.3302 47.5569Z" fill="#6600BA"/>
<g id="Ellipse 124" filter="url(#filter1_f_6227_5096)">
<circle cx="19.8051" cy="30.915" r="4.40325" fill="#FFBFA6"/>
</g>
<g id="Ellipse 125" filter="url(#filter2_f_6227_5096)">
<circle cx="32.5007" cy="18.3429" r="2.94059" fill="#E7C1FF"/>
</g>
<g id="Ellipse 126" filter="url(#filter3_f_6227_5096)">
<circle cx="69.966" cy="82.8195" r="2.94059" fill="#FFBFA6"/>
</g>
<path id="Ellipse 121" d="M47.8574 65.7192C47.8574 64.5162 46.8822 63.541 45.6792 63.541C44.4762 63.541 43.501 64.5162 43.501 65.7192" stroke="#6600BA" stroke-width="5.48"/>
<path id="Ellipse 122" d="M58.9663 65.7192C58.9663 64.5162 57.9911 63.541 56.7881 63.541C55.5851 63.541 54.6099 64.5162 54.6099 65.7192" stroke="#6600BA" stroke-width="5.48"/>
<path id="Star 3" d="M73.5603 15.1855L76.1437 21.8806L81.7286 17.3742L80.6184 24.4641L87.7082 23.3539L83.2018 28.9387L89.8969 31.5222L83.2018 34.1056L87.7082 39.6905L80.6184 38.5803L81.7286 45.6701L76.1437 41.1637L73.5603 47.8588L70.9768 41.1637L65.3919 45.6701L66.5022 38.5803L59.4123 39.6905L63.9187 34.1056L57.2236 31.5222L63.9187 28.9387L59.4123 23.3539L66.5022 24.4641L65.3919 17.3742L70.9768 21.8806L73.5603 15.1855Z" fill="#E7C1FF"/>
</g>
</g>
</g>
<defs>
<filter id="filter0_f_6227_5096" x="28.0313" y="55.9903" width="46.0882" height="24.3162" filterUnits="userSpaceOnUse" color-interpolation-filters="sRGB">
<feFlood flood-opacity="0" result="BackgroundImageFix"/>
<feBlend mode="normal" in="SourceGraphic" in2="BackgroundImageFix" result="shape"/>
<feGaussianBlur stdDeviation="5.18452" result="effect1_foregroundBlur_6227_5096"/>
</filter>
<filter id="filter1_f_6227_5096" x="-3.8147e-06" y="11.1099" width="39.6104" height="39.6104" filterUnits="userSpaceOnUse" color-interpolation-filters="sRGB">
<feFlood flood-opacity="0" result="BackgroundImageFix"/>
<feBlend mode="normal" in="SourceGraphic" in2="BackgroundImageFix" result="shape"/>
<feGaussianBlur stdDeviation="7.70093" result="effect1_foregroundBlur_6227_5096"/>
</filter>
<filter id="filter2_f_6227_5096" x="14.1582" y="0.000484467" width="36.6851" height="36.6846" filterUnits="userSpaceOnUse" color-interpolation-filters="sRGB">
<feFlood flood-opacity="0" result="BackgroundImageFix"/>
<feBlend mode="normal" in="SourceGraphic" in2="BackgroundImageFix" result="shape"/>
<feGaussianBlur stdDeviation="7.70093" result="effect1_foregroundBlur_6227_5096"/>
</filter>
<filter id="filter3_f_6227_5096" x="51.6235" y="64.477" width="36.6851" height="36.6846" filterUnits="userSpaceOnUse" color-interpolation-filters="sRGB">
<feFlood flood-opacity="0" result="BackgroundImageFix"/>
<feBlend mode="normal" in="SourceGraphic" in2="BackgroundImageFix" result="shape"/>
<feGaussianBlur stdDeviation="7.70093" result="effect1_foregroundBlur_6227_5096"/>
</filter>
</defs>
</svg>
