<svg width="88" height="88" viewBox="0 0 88 88" fill="none" xmlns="http://www.w3.org/2000/svg">
<g id="Small Image"><g id="Name=&#208;&#158;&#208;&#186;&#208;&#189;&#208;&#190;">
<g id="Group 2087326354">
<rect id="Rectangle 1005440" x="13.2002" y="15.7852" width="57.0195" height="37.8532" rx="15.7903" fill="#2DA771"/>
<circle id="Ellipse 127" cx="19.6679" cy="22.7324" r="2.87493" fill="#6600BA"/>
<circle id="Ellipse 128" cx="27.8139" cy="22.7324" r="2.87493" fill="#E7C1FF"/>
<circle id="Ellipse 129" cx="35.9589" cy="22.7324" r="2.87493" fill="#FFDF75"/>
<path id="Union" d="M84.5425 43.7472L72.7161 52.0837L78.0625 59.9061L69.8057 65.7238L64.4609 57.9024L52.1357 66.5913L48.9235 26.5896L84.5425 43.7472Z" fill="#FFDF75"/>
<g id="Mask group">
<mask id="mask0_6227_5096" style="mask-type:alpha" maskUnits="userSpaceOnUse" x="48" y="26" width="37" height="41">
<path id="Union_2" d="M84.5425 43.7472L72.7156 52.0828L78.0625 59.9061L69.8057 65.7238L64.4609 57.9024L52.1352 66.5905L48.9235 26.5896L84.5425 43.7472Z" fill="#FFDF75"/>
</mask>
<g mask="url(#mask0_6227_5096)">
<g id="Intersect" filter="url(#filter0_f_6227_5096)">
<path d="M70.2192 36.8477V37.8496C70.2192 46.5704 63.1499 53.6406 54.4292 53.6406H51.0952L48.9224 26.5898L70.2192 36.8477Z" fill="#2DA771"/>
</g>
</g>
</g>
</g>
</g>
</g>
<defs>
<filter id="filter0_f_6227_5096" x="27.1426" y="4.81007" width="64.8564" height="70.6103" filterUnits="userSpaceOnUse" color-interpolation-filters="sRGB">
<feFlood flood-opacity="0" result="BackgroundImageFix"/>
<feBlend mode="normal" in="SourceGraphic" in2="BackgroundImageFix" result="shape"/>
<feGaussianBlur stdDeviation="10.8899" result="effect1_foregroundBlur_6227_5096"/>
</filter>
</defs>
</svg>
