<svg width="88" height="88" viewBox="0 0 88 88" fill="none" xmlns="http://www.w3.org/2000/svg">
<rect width="88" height="88" fill="#545454"/>
<g id="Small Image">
<path d="M630.558 -8.21094C631.03 -6.91254 631.394 -5.56192 631.638 -4.16992L631.146 -4.08301C631.379 -2.75727 631.5 -1.393 631.5 0V4.88867H632V9.77734H631.5V19.5557H632V24.4443H631.5V34.2227H632V39.1113H631.5V48.8887H632V53.7773H631.5V63.5557H632V68.4443H631.5V78.2227H632V83.1113H631.5V88C631.5 89.393 631.379 90.7573 631.146 92.083L631.638 92.1689C631.394 93.561 631.03 94.9115 630.558 96.21L630.089 96.04C629.142 98.64 627.75 101.026 626.003 103.105L626.384 103.426C625.485 104.495 624.495 105.485 623.426 106.384L623.105 106.003C621.026 107.75 618.64 109.142 616.04 110.089L616.21 110.558C614.912 111.03 613.561 111.394 612.169 111.638L612.083 111.146C610.757 111.379 609.393 111.5 608 111.5H603.014V112H598.024V111.5H588.046V112H583.057V111.5H573.078V112H568.089V111.5H558.11V112H553.121V111.5H543.143V112H538.153V111.5H528.175V112H523.186V111.5H513.207V112H508.218V111.5H498.239V112H493.25V111.5H483.271V112H478.282V111.5H468.304V112H463.314V111.5H453.336V112H448.347V111.5H438.368V112H433.379V111.5H423.4V112H418.411V111.5H408.433V112H403.443V111.5H393.465V112H388.476V111.5H378.497V112H373.508V111.5H363.529V112H358.54V111.5H348.562V112H343.572V111.5H333.594V112H328.604V111.5H318.626V112H313.637V111.5H303.658V112H298.669V111.5H288.69V112H283.701V111.5H273.723V112H268.733V111.5H258.755V112H253.766V111.5H243.787V112H238.798V111.5H228.819V112H223.83V111.5H213.852V112H208.862V111.5H198.884V112H193.895V111.5H183.916V112H178.927V111.5H168.948V112H163.959V111.5H153.98V112H148.991V111.5H139.013V112H134.023V111.5H124.045V112H119.056V111.5H109.077V112H104.088V111.5H94.1094V112H89.1201V111.5H79.1416V112H74.1523V111.5H64.1738V112H59.1846V111.5H49.2061V112H44.2168V111.5H34.2383V112H29.249V111.5H19.2705V112H14.2812V111.5H4.30273V112H-0.686523V111.5H-10.665V112H-15.6543V111.5H-25.6328V112H-30.6221V111.5H-40.6006V112H-45.5898V111.5H-55.5684V112H-60.5576V111.5H-70.5361V112H-75.5254V111.5H-85.5039V112H-90.4932V111.5H-100.472V112H-105.461V111.5H-115.439V112H-120.429V111.5H-130.407V112H-135.396V111.5H-145.375V112H-150.364V111.5H-160.343V112H-165.332V111.5H-175.311V112H-180.3V111.5H-190.278V112H-195.268V111.5H-205.246V112H-210.235V111.5H-220.214V112H-225.203V111.5H-235.182V112H-240.171V111.5H-250.149V112H-255.139V111.5H-265.117V112H-270.106V111.5H-280.085V112H-285.074V111.5H-295.053V112H-300.042V111.5H-310.021V112H-315.01V111.5H-324.988V112H-329.978V111.5H-339.956V112H-344.945V111.5H-354.924V112H-359.913V111.5H-369.892V112H-374.881V111.5H-384.859V112H-389.849V111.5H-399.827V112H-404.816V111.5H-414.795V112H-419.784V111.5H-429.763V112H-434.752V111.5H-444.73V112H-449.72V111.5H-459.698V112H-464.688V111.5H-474.666V112H-479.655V111.5H-489.634V112H-494.623V111.5H-504.602V112H-509.591V111.5H-519.569V112H-524.559V111.5H-534.537V112H-539.526V111.5H-549.505V112H-554.494V111.5H-564.473V112H-569.462V111.5H-579.44V112H-584.43V111.5H-594.408V112H-599.397V111.5H-609.376V112H-614.365V111.5H-624.344V112H-629.333V111.5H-639.312V112H-644.301V111.5H-654.279V112H-659.269V111.5H-669.247V112H-674.236V111.5H-684.215V112H-689.204V111.5H-699.183V112H-704.172V111.5H-714.15V112H-719.14V111.5H-729.118V112H-734.107V111.5H-744.086V112H-749.075V111.5H-759.054V112H-764.043V111.5H-774.021V112H-779.011V111.5H-788.989V112H-793.979V111.5H-803.957V112H-808.946V111.5H-818.925V112H-823.914V111.5H-833.893V112H-838.882V111.5H-848.86V112H-853.85V111.5H-863.828V112H-868.817V111.5H-878.796V112H-883.785V111.5H-893.764V112H-898.753V111.5H-908.731V112H-913.721V111.5H-923.699V112H-928.688V111.5H-938.667V112H-943.656V111.5H-953.635V112H-958.624V111.5H-968.603V112H-973.592V111.5H-983.57V112H-988.56V111.5H-998.537V112H-1003.53V111.5H-1013.5V112H-1018.49V111.5H-1028.47V112H-1033.46V111.5H-1043.44V112H-1048.43V111.5H-1058.41V112H-1063.4V111.5H-1073.38V112H-1078.37V111.5H-1088.34V112H-1093.33V111.5H-1103.31V112H-1108.3V111.5H-1118.28V112H-1123.27V111.5H-1133.25V112H-1138.24V111.5H-1148.21V112H-1153.2V111.5H-1163.18V112H-1168.17V111.5H-1178.15V112H-1183.14V111.5H-1193.12V112H-1198.11V111.5H-1208.09V112H-1213.08V111.5H-1223.05V112H-1228.04V111.5H-1238.02V112H-1243.01V111.5H-1248C-1249.39 111.5 -1250.76 111.379 -1252.08 111.146L-1252.17 111.638C-1253.56 111.394 -1254.91 111.03 -1256.21 110.558L-1256.04 110.089C-1258.64 109.142 -1261.03 107.75 -1263.11 106.003L-1263.43 106.384C-1264.5 105.485 -1265.49 104.495 -1266.38 103.426L-1266 103.105C-1267.75 101.026 -1269.14 98.64 -1270.09 96.04L-1270.56 96.21C-1271.03 94.9116 -1271.39 93.5609 -1271.64 92.1689L-1271.15 92.083C-1271.38 90.7573 -1271.5 89.393 -1271.5 88V83.1113H-1272V78.2227H-1271.5V68.4443H-1272V63.5557H-1271.5V53.7773H-1272V48.8887H-1271.5V39.1113H-1272V34.2227H-1271.5V24.4443H-1272V19.5557H-1271.5V9.77734H-1272V4.88867H-1271.5V0C-1271.5 -1.393 -1271.38 -2.75727 -1271.15 -4.08301L-1271.64 -4.16992C-1271.43 -5.37923 -1271.12 -6.5575 -1270.74 -7.69727L-1270.56 -8.21094L-1270.09 -8.04004C-1269.14 -10.64 -1267.75 -13.026 -1266 -15.1055L-1266.38 -15.4268C-1265.49 -16.4964 -1264.5 -17.4863 -1263.43 -18.3848L-1263.11 -18.0029C-1261.03 -19.7496 -1258.64 -21.1423 -1256.04 -22.0889L-1256.21 -22.5586C-1254.91 -23.0313 -1253.56 -23.3948 -1252.17 -23.6387L-1252.08 -23.1465C-1250.76 -23.3787 -1249.39 -23.5 -1248 -23.5H-1243.01V-24H-1238.02V-23.5H-1228.05V-24H-1223.06V-23.5H-1213.08V-24H-1208.09V-23.5H-1198.11V-24H-1193.12V-23.5H-1183.14V-24H-1178.15V-23.5H-1168.17V-24H-1163.19V-23.5H-1153.21V-24H-1148.22V-23.5H-1138.24V-24H-1133.25V-23.5H-1123.27V-24H-1118.28V-23.5H-1108.3V-24H-1103.31V-23.5H-1093.34V-24H-1088.35V-23.5H-1078.37V-24H-1073.38V-23.5H-1063.4V-24H-1058.41V-23.5H-1048.43V-24H-1043.44V-23.5H-1033.46V-24H-1028.48V-23.5H-1018.5V-24H-1013.51V-23.5H-1003.53V-24H-998.54V-23.5H-988.562V-24H-983.572V-23.5H-973.594V-24H-968.604V-23.5H-958.626V-24H-953.637V-23.5H-943.658V-24H-938.669V-23.5H-928.69V-24H-923.701V-23.5H-913.723V-24H-908.733V-23.5H-898.755V-24H-893.766V-23.5H-883.787V-24H-878.798V-23.5H-868.819V-24H-863.83V-23.5H-853.852V-24H-848.862V-23.5H-838.884V-24H-833.895V-23.5H-823.916V-24H-818.927V-23.5H-808.948V-24H-803.959V-23.5H-793.98V-24H-788.991V-23.5H-779.013V-24H-774.023V-23.5H-764.045V-24H-759.056V-23.5H-749.077V-24H-744.088V-23.5H-734.109V-24H-729.12V-23.5H-719.142V-24H-714.152V-23.5H-704.174V-24H-699.185V-23.5H-689.206V-24H-684.217V-23.5H-674.238V-24H-669.249V-23.5H-659.271V-24H-654.281V-23.5H-644.303V-24H-639.313V-23.5H-629.335V-24H-624.346V-23.5H-614.367V-24H-609.378V-23.5H-599.399V-24H-594.41V-23.5H-584.432V-24H-579.442V-23.5H-569.464V-24H-564.475V-23.5H-554.496V-24H-549.507V-23.5H-539.528V-24H-534.539V-23.5H-524.561V-24H-519.571V-23.5H-509.593V-24H-504.604V-23.5H-494.625V-24H-489.636V-23.5H-479.657V-24H-474.668V-23.5H-464.689V-24H-459.7V-23.5H-449.722V-24H-444.732V-23.5H-434.754V-24H-429.765V-23.5H-419.786V-24H-414.797V-23.5H-404.818V-24H-399.829V-23.5H-389.851V-24H-384.861V-23.5H-374.883V-24H-369.894V-23.5H-359.915V-24H-354.926V-23.5H-344.947V-24H-339.958V-23.5H-329.979V-24H-324.99V-23.5H-315.012V-24H-310.022V-23.5H-300.044V-24H-295.055V-23.5H-285.076V-24H-280.087V-23.5H-270.108V-24H-265.119V-23.5H-255.141V-24H-250.151V-23.5H-240.173V-24H-235.184V-23.5H-225.205V-24H-220.216V-23.5H-210.237V-24H-205.248V-23.5H-195.27V-24H-190.28V-23.5H-180.302V-24H-175.312V-23.5H-165.334V-24H-160.345V-23.5H-150.366V-24H-145.377V-23.5H-135.398V-24H-130.409V-23.5H-120.431V-24H-115.441V-23.5H-105.463V-24H-100.474V-23.5H-90.4951V-24H-85.5059V-23.5H-75.5273V-24H-70.5381V-23.5H-60.5596V-24H-55.5703V-23.5H-45.5918V-24H-40.6025V-23.5H-30.624V-24H-25.6348V-23.5H-15.6562V-24H-10.667V-23.5H-0.688477V-24H4.30078V-23.5H14.2793V-24H19.2686V-23.5H29.2471V-24H34.2363V-23.5H44.2148V-24H49.2041V-23.5H59.1826V-24H64.1719V-23.5H74.1504V-24H79.1396V-23.5H89.1182V-24H94.1074V-23.5H104.086V-24H109.075V-23.5H119.054V-24H124.043V-23.5H134.021V-24H139.011V-23.5H148.989V-24H153.979V-23.5H163.957V-24H168.946V-23.5H178.925V-24H183.914V-23.5H193.893V-24H198.882V-23.5H208.86V-24H213.85V-23.5H223.828V-24H228.817V-23.5H238.796V-24H243.785V-23.5H253.764V-24H258.753V-23.5H268.731V-24H273.721V-23.5H283.699V-24H288.688V-23.5H298.667V-24H303.656V-23.5H313.635V-24H318.624V-23.5H328.603V-24H333.592V-23.5H343.57V-24H348.56V-23.5H358.538V-24H363.527V-23.5H373.506V-24H378.494V-23.5H388.473V-24H393.462V-23.5H403.44V-24H408.43V-23.5H418.408V-24H423.397V-23.5H433.376V-24H438.365V-23.5H448.344V-24H453.333V-23.5H463.312V-24H468.301V-23.5H478.279V-24H483.269V-23.5H493.247V-24H498.236V-23.5H508.215V-24H513.204V-23.5H523.183V-24H528.172V-23.5H538.15V-24H543.14V-23.5H553.118V-24H558.107V-23.5H568.086V-24H573.075V-23.5H583.054V-24H588.043V-23.5H598.021V-24H603.011V-23.5H608C609.393 -23.5 610.757 -23.3787 612.083 -23.1465L612.169 -23.6387C613.561 -23.3949 614.912 -23.0312 616.21 -22.5586L616.04 -22.0889C618.64 -21.1423 621.026 -19.7496 623.105 -18.0029L623.426 -18.3848C624.495 -17.4863 625.485 -16.4964 626.384 -15.4268L626.003 -15.1055C627.75 -13.026 629.142 -10.64 630.089 -8.04004L630.558 -8.21094Z" fill="white"/>
<path d="M630.558 -8.21094C631.03 -6.91254 631.394 -5.56192 631.638 -4.16992L631.146 -4.08301C631.379 -2.75727 631.5 -1.393 631.5 0V4.88867H632V9.77734H631.5V19.5557H632V24.4443H631.5V34.2227H632V39.1113H631.5V48.8887H632V53.7773H631.5V63.5557H632V68.4443H631.5V78.2227H632V83.1113H631.5V88C631.5 89.393 631.379 90.7573 631.146 92.083L631.638 92.1689C631.394 93.561 631.03 94.9115 630.558 96.21L630.089 96.04C629.142 98.64 627.75 101.026 626.003 103.105L626.384 103.426C625.485 104.495 624.495 105.485 623.426 106.384L623.105 106.003C621.026 107.75 618.64 109.142 616.04 110.089L616.21 110.558C614.912 111.03 613.561 111.394 612.169 111.638L612.083 111.146C610.757 111.379 609.393 111.5 608 111.5H603.014V112H598.024V111.5H588.046V112H583.057V111.5H573.078V112H568.089V111.5H558.11V112H553.121V111.5H543.143V112H538.153V111.5H528.175V112H523.186V111.5H513.207V112H508.218V111.5H498.239V112H493.25V111.5H483.271V112H478.282V111.5H468.304V112H463.314V111.5H453.336V112H448.347V111.5H438.368V112H433.379V111.5H423.4V112H418.411V111.5H408.433V112H403.443V111.5H393.465V112H388.476V111.5H378.497V112H373.508V111.5H363.529V112H358.54V111.5H348.562V112H343.572V111.5H333.594V112H328.604V111.5H318.626V112H313.637V111.5H303.658V112H298.669V111.5H288.69V112H283.701V111.5H273.723V112H268.733V111.5H258.755V112H253.766V111.5H243.787V112H238.798V111.5H228.819V112H223.83V111.5H213.852V112H208.862V111.5H198.884V112H193.895V111.5H183.916V112H178.927V111.5H168.948V112H163.959V111.5H153.98V112H148.991V111.5H139.013V112H134.023V111.5H124.045V112H119.056V111.5H109.077V112H104.088V111.5H94.1094V112H89.1201V111.5H79.1416V112H74.1523V111.5H64.1738V112H59.1846V111.5H49.2061V112H44.2168V111.5H34.2383V112H29.249V111.5H19.2705V112H14.2812V111.5H4.30273V112H-0.686523V111.5H-10.665V112H-15.6543V111.5H-25.6328V112H-30.6221V111.5H-40.6006V112H-45.5898V111.5H-55.5684V112H-60.5576V111.5H-70.5361V112H-75.5254V111.5H-85.5039V112H-90.4932V111.5H-100.472V112H-105.461V111.5H-115.439V112H-120.429V111.5H-130.407V112H-135.396V111.5H-145.375V112H-150.364V111.5H-160.343V112H-165.332V111.5H-175.311V112H-180.3V111.5H-190.278V112H-195.268V111.5H-205.246V112H-210.235V111.5H-220.214V112H-225.203V111.5H-235.182V112H-240.171V111.5H-250.149V112H-255.139V111.5H-265.117V112H-270.106V111.5H-280.085V112H-285.074V111.5H-295.053V112H-300.042V111.5H-310.021V112H-315.01V111.5H-324.988V112H-329.978V111.5H-339.956V112H-344.945V111.5H-354.924V112H-359.913V111.5H-369.892V112H-374.881V111.5H-384.859V112H-389.849V111.5H-399.827V112H-404.816V111.5H-414.795V112H-419.784V111.5H-429.763V112H-434.752V111.5H-444.73V112H-449.72V111.5H-459.698V112H-464.688V111.5H-474.666V112H-479.655V111.5H-489.634V112H-494.623V111.5H-504.602V112H-509.591V111.5H-519.569V112H-524.559V111.5H-534.537V112H-539.526V111.5H-549.505V112H-554.494V111.5H-564.473V112H-569.462V111.5H-579.44V112H-584.43V111.5H-594.408V112H-599.397V111.5H-609.376V112H-614.365V111.5H-624.344V112H-629.333V111.5H-639.312V112H-644.301V111.5H-654.279V112H-659.269V111.5H-669.247V112H-674.236V111.5H-684.215V112H-689.204V111.5H-699.183V112H-704.172V111.5H-714.15V112H-719.14V111.5H-729.118V112H-734.107V111.5H-744.086V112H-749.075V111.5H-759.054V112H-764.043V111.5H-774.021V112H-779.011V111.5H-788.989V112H-793.979V111.5H-803.957V112H-808.946V111.5H-818.925V112H-823.914V111.5H-833.893V112H-838.882V111.5H-848.86V112H-853.85V111.5H-863.828V112H-868.817V111.5H-878.796V112H-883.785V111.5H-893.764V112H-898.753V111.5H-908.731V112H-913.721V111.5H-923.699V112H-928.688V111.5H-938.667V112H-943.656V111.5H-953.635V112H-958.624V111.5H-968.603V112H-973.592V111.5H-983.57V112H-988.56V111.5H-998.537V112H-1003.53V111.5H-1013.5V112H-1018.49V111.5H-1028.47V112H-1033.46V111.5H-1043.44V112H-1048.43V111.5H-1058.41V112H-1063.4V111.5H-1073.38V112H-1078.37V111.5H-1088.34V112H-1093.33V111.5H-1103.31V112H-1108.3V111.5H-1118.28V112H-1123.27V111.5H-1133.25V112H-1138.24V111.5H-1148.21V112H-1153.2V111.5H-1163.18V112H-1168.17V111.5H-1178.15V112H-1183.14V111.5H-1193.12V112H-1198.11V111.5H-1208.09V112H-1213.08V111.5H-1223.05V112H-1228.04V111.5H-1238.02V112H-1243.01V111.5H-1248C-1249.39 111.5 -1250.76 111.379 -1252.08 111.146L-1252.17 111.638C-1253.56 111.394 -1254.91 111.03 -1256.21 110.558L-1256.04 110.089C-1258.64 109.142 -1261.03 107.75 -1263.11 106.003L-1263.43 106.384C-1264.5 105.485 -1265.49 104.495 -1266.38 103.426L-1266 103.105C-1267.75 101.026 -1269.14 98.64 -1270.09 96.04L-1270.56 96.21C-1271.03 94.9116 -1271.39 93.5609 -1271.64 92.1689L-1271.15 92.083C-1271.38 90.7573 -1271.5 89.393 -1271.5 88V83.1113H-1272V78.2227H-1271.5V68.4443H-1272V63.5557H-1271.5V53.7773H-1272V48.8887H-1271.5V39.1113H-1272V34.2227H-1271.5V24.4443H-1272V19.5557H-1271.5V9.77734H-1272V4.88867H-1271.5V0C-1271.5 -1.393 -1271.38 -2.75727 -1271.15 -4.08301L-1271.64 -4.16992C-1271.43 -5.37923 -1271.12 -6.5575 -1270.74 -7.69727L-1270.56 -8.21094L-1270.09 -8.04004C-1269.14 -10.64 -1267.75 -13.026 -1266 -15.1055L-1266.38 -15.4268C-1265.49 -16.4964 -1264.5 -17.4863 -1263.43 -18.3848L-1263.11 -18.0029C-1261.03 -19.7496 -1258.64 -21.1423 -1256.04 -22.0889L-1256.21 -22.5586C-1254.91 -23.0313 -1253.56 -23.3948 -1252.17 -23.6387L-1252.08 -23.1465C-1250.76 -23.3787 -1249.39 -23.5 -1248 -23.5H-1243.01V-24H-1238.02V-23.5H-1228.05V-24H-1223.06V-23.5H-1213.08V-24H-1208.09V-23.5H-1198.11V-24H-1193.12V-23.5H-1183.14V-24H-1178.15V-23.5H-1168.17V-24H-1163.19V-23.5H-1153.21V-24H-1148.22V-23.5H-1138.24V-24H-1133.25V-23.5H-1123.27V-24H-1118.28V-23.5H-1108.3V-24H-1103.31V-23.5H-1093.34V-24H-1088.35V-23.5H-1078.37V-24H-1073.38V-23.5H-1063.4V-24H-1058.41V-23.5H-1048.43V-24H-1043.44V-23.5H-1033.46V-24H-1028.48V-23.5H-1018.5V-24H-1013.51V-23.5H-1003.53V-24H-998.54V-23.5H-988.562V-24H-983.572V-23.5H-973.594V-24H-968.604V-23.5H-958.626V-24H-953.637V-23.5H-943.658V-24H-938.669V-23.5H-928.69V-24H-923.701V-23.5H-913.723V-24H-908.733V-23.5H-898.755V-24H-893.766V-23.5H-883.787V-24H-878.798V-23.5H-868.819V-24H-863.83V-23.5H-853.852V-24H-848.862V-23.5H-838.884V-24H-833.895V-23.5H-823.916V-24H-818.927V-23.5H-808.948V-24H-803.959V-23.5H-793.98V-24H-788.991V-23.5H-779.013V-24H-774.023V-23.5H-764.045V-24H-759.056V-23.5H-749.077V-24H-744.088V-23.5H-734.109V-24H-729.12V-23.5H-719.142V-24H-714.152V-23.5H-704.174V-24H-699.185V-23.5H-689.206V-24H-684.217V-23.5H-674.238V-24H-669.249V-23.5H-659.271V-24H-654.281V-23.5H-644.303V-24H-639.313V-23.5H-629.335V-24H-624.346V-23.5H-614.367V-24H-609.378V-23.5H-599.399V-24H-594.41V-23.5H-584.432V-24H-579.442V-23.5H-569.464V-24H-564.475V-23.5H-554.496V-24H-549.507V-23.5H-539.528V-24H-534.539V-23.5H-524.561V-24H-519.571V-23.5H-509.593V-24H-504.604V-23.5H-494.625V-24H-489.636V-23.5H-479.657V-24H-474.668V-23.5H-464.689V-24H-459.7V-23.5H-449.722V-24H-444.732V-23.5H-434.754V-24H-429.765V-23.5H-419.786V-24H-414.797V-23.5H-404.818V-24H-399.829V-23.5H-389.851V-24H-384.861V-23.5H-374.883V-24H-369.894V-23.5H-359.915V-24H-354.926V-23.5H-344.947V-24H-339.958V-23.5H-329.979V-24H-324.99V-23.5H-315.012V-24H-310.022V-23.5H-300.044V-24H-295.055V-23.5H-285.076V-24H-280.087V-23.5H-270.108V-24H-265.119V-23.5H-255.141V-24H-250.151V-23.5H-240.173V-24H-235.184V-23.5H-225.205V-24H-220.216V-23.5H-210.237V-24H-205.248V-23.5H-195.27V-24H-190.28V-23.5H-180.302V-24H-175.312V-23.5H-165.334V-24H-160.345V-23.5H-150.366V-24H-145.377V-23.5H-135.398V-24H-130.409V-23.5H-120.431V-24H-115.441V-23.5H-105.463V-24H-100.474V-23.5H-90.4951V-24H-85.5059V-23.5H-75.5273V-24H-70.5381V-23.5H-60.5596V-24H-55.5703V-23.5H-45.5918V-24H-40.6025V-23.5H-30.624V-24H-25.6348V-23.5H-15.6562V-24H-10.667V-23.5H-0.688477V-24H4.30078V-23.5H14.2793V-24H19.2686V-23.5H29.2471V-24H34.2363V-23.5H44.2148V-24H49.2041V-23.5H59.1826V-24H64.1719V-23.5H74.1504V-24H79.1396V-23.5H89.1182V-24H94.1074V-23.5H104.086V-24H109.075V-23.5H119.054V-24H124.043V-23.5H134.021V-24H139.011V-23.5H148.989V-24H153.979V-23.5H163.957V-24H168.946V-23.5H178.925V-24H183.914V-23.5H193.893V-24H198.882V-23.5H208.86V-24H213.85V-23.5H223.828V-24H228.817V-23.5H238.796V-24H243.785V-23.5H253.764V-24H258.753V-23.5H268.731V-24H273.721V-23.5H283.699V-24H288.688V-23.5H298.667V-24H303.656V-23.5H313.635V-24H318.624V-23.5H328.603V-24H333.592V-23.5H343.57V-24H348.56V-23.5H358.538V-24H363.527V-23.5H373.506V-24H378.494V-23.5H388.473V-24H393.462V-23.5H403.44V-24H408.43V-23.5H418.408V-24H423.397V-23.5H433.376V-24H438.365V-23.5H448.344V-24H453.333V-23.5H463.312V-24H468.301V-23.5H478.279V-24H483.269V-23.5H493.247V-24H498.236V-23.5H508.215V-24H513.204V-23.5H523.183V-24H528.172V-23.5H538.15V-24H543.14V-23.5H553.118V-24H558.107V-23.5H568.086V-24H573.075V-23.5H583.054V-24H588.043V-23.5H598.021V-24H603.011V-23.5H608C609.393 -23.5 610.757 -23.3787 612.083 -23.1465L612.169 -23.6387C613.561 -23.3949 614.912 -23.0312 616.21 -22.5586L616.04 -22.0889C618.64 -21.1423 621.026 -19.7496 623.105 -18.0029L623.426 -18.3848C624.495 -17.4863 625.485 -16.4964 626.384 -15.4268L626.003 -15.1055C627.75 -13.026 629.142 -10.64 630.089 -8.04004L630.558 -8.21094Z" stroke="#8A38F5" stroke-dasharray="10 5"/>
<g id="Name=&#208;&#158;&#208;&#186;&#208;&#189;&#208;&#190;">
<g id="Group 2087326354">
<rect id="Rectangle 1005440" x="13.2002" y="15.7852" width="57.0195" height="37.8532" rx="15.7903" fill="#2DA771"/>
<circle id="Ellipse 127" cx="19.6679" cy="22.7324" r="2.87493" fill="#6600BA"/>
<circle id="Ellipse 128" cx="27.8139" cy="22.7324" r="2.87493" fill="#E7C1FF"/>
<circle id="Ellipse 129" cx="35.9589" cy="22.7324" r="2.87493" fill="#FFDF75"/>
<path id="Union" d="M84.5425 43.7472L72.7161 52.0837L78.0625 59.9061L69.8057 65.7238L64.4609 57.9024L52.1357 66.5913L48.9235 26.5896L84.5425 43.7472Z" fill="#FFDF75"/>
<g id="Mask group">
<mask id="mask0_6227_5096" style="mask-type:alpha" maskUnits="userSpaceOnUse" x="48" y="26" width="37" height="41">
<path id="Union_2" d="M84.5425 43.7472L72.7156 52.0828L78.0625 59.9061L69.8057 65.7238L64.4609 57.9024L52.1352 66.5905L48.9235 26.5896L84.5425 43.7472Z" fill="#FFDF75"/>
</mask>
<g mask="url(#mask0_6227_5096)">
<g id="Intersect" filter="url(#filter0_f_6227_5096)">
<path d="M70.2192 36.8477V37.8496C70.2192 46.5704 63.1499 53.6406 54.4292 53.6406H51.0952L48.9224 26.5898L70.2192 36.8477Z" fill="#2DA771"/>
</g>
</g>
</g>
</g>
</g>
</g>
<defs>
<filter id="filter0_f_6227_5096" x="27.1426" y="4.81007" width="64.8564" height="70.6103" filterUnits="userSpaceOnUse" color-interpolation-filters="sRGB">
<feFlood flood-opacity="0" result="BackgroundImageFix"/>
<feBlend mode="normal" in="SourceGraphic" in2="BackgroundImageFix" result="shape"/>
<feGaussianBlur stdDeviation="10.8899" result="effect1_foregroundBlur_6227_5096"/>
</filter>
</defs>
</svg>
